<svg width="27" height="29" viewBox="0 0 27 29" fill="none" xmlns="http://www.w3.org/2000/svg">
<path d="M18.8536 1.06066L21.9393 4.14645C22.1346 4.34171 22.1346 4.65829 21.9393 4.85355L18.8536 7.93934C18.6583 8.1346 18.3417 8.1346 18.1464 7.93934L15.0607 4.85355C14.8654 4.65829 14.8654 4.34171 15.0607 4.14645L18.1464 1.06066C18.3417 0.865398 18.6583 0.865398 18.8536 1.06066Z" stroke="black"/>
<path d="M24.3536 10.0607L25.9393 11.6464C26.1346 11.8417 26.1346 12.1583 25.9393 12.3536L24.3536 13.9393C24.1583 14.1346 23.8417 14.1346 23.6464 13.9393L22.0607 12.3536C21.8654 12.1583 21.8654 11.8417 22.0607 11.6464L23.6464 10.0607C23.8417 9.8654 24.1583 9.8654 24.3536 10.0607Z" stroke="black"/>
<path d="M11.7678 11.4749L17.5251 17.2322C18.5014 18.2085 18.5014 19.7915 17.5251 20.7678L11.7678 26.5251C10.7915 27.5014 9.20854 27.5014 8.23223 26.5251L2.47487 20.7678C1.49856 19.7915 1.49856 18.2085 2.47487 17.2322L8.23223 11.4749C9.20855 10.4986 10.7915 10.4986 11.7678 11.4749Z" stroke="black"/>
</svg>
