<svg width="14" height="16" viewBox="0 0 14 16" fill="none" xmlns="http://www.w3.org/2000/svg">
<path fill-rule="evenodd" clip-rule="evenodd" d="M0 1.5C0 0.671573 0.671573 0 1.5 0H12.5C13.3284 0 14 0.671574 14 1.5C14 2.32843 13.3284 3 12.5 3L1.5 3C0.671573 3 0 2.32843 0 1.5ZM12 8C12 8.55229 11.5523 9 11 9L3 9C2.44771 9 2 8.55228 2 8C2 7.44771 2.44771 7 3 7L11 7C11.5523 7 12 7.44772 12 8ZM1.5 13C0.671573 13 0 13.6716 0 14.5C0 15.3284 0.671573 16 1.5 16L12.5 16C13.3284 16 14 15.3284 14 14.5C14 13.6716 13.3284 13 12.5 13L1.5 13Z" fill="black"/>
</svg>
