<svg width="16" height="14" viewBox="0 0 16 14" fill="none" xmlns="http://www.w3.org/2000/svg">
<path fill-rule="evenodd" clip-rule="evenodd" d="M1.5 14C0.671573 14 -2.93554e-08 13.3284 -6.55671e-08 12.5L-5.46392e-07 1.5C-5.82604e-07 0.671573 0.671574 -2.93554e-08 1.5 -6.55671e-08C2.32843 -1.01779e-07 3 0.671574 3 1.5L3 12.5C3 13.3284 2.32843 14 1.5 14ZM8 2C8.55228 2 9 2.44772 9 3L9 11C9 11.5523 8.55228 12 8 12C7.44771 12 7 11.5523 7 11L7 3C7 2.44771 7.44771 2 8 2ZM13 12.5C13 13.3284 13.6716 14 14.5 14C15.3284 14 16 13.3284 16 12.5L16 1.5C16 0.671572 15.3284 -6.7003e-07 14.5 -6.33819e-07C13.6716 -5.97607e-07 13 0.671572 13 1.5L13 12.5Z" fill="black"/>
</svg>
