<svg width="14" height="14" viewBox="0 0 14 14" fill="none" xmlns="http://www.w3.org/2000/svg">
<path fill-rule="evenodd" clip-rule="evenodd" d="M7 0C7.55228 0 8 0.447715 8 1V3H12.5C13.3284 3 14 3.67157 14 4.5C14 5.32843 13.3284 6 12.5 6H8V8H10.5C11.3284 8 12 8.67157 12 9.5C12 10.3284 11.3284 11 10.5 11H8V13C8 13.5523 7.55229 14 7 14C6.44772 14 6 13.5523 6 13V11H3.5C2.67157 11 2 10.3284 2 9.5C2 8.67157 2.67157 8 3.5 8H6V6H1.5C0.671573 6 0 5.32843 0 4.5C0 3.67157 0.671573 3 1.5 3H6V1C6 0.447715 6.44772 0 7 0Z" fill="black"/>
</svg>
