<svg width="18" height="10" viewBox="0 0 18 10" fill="none" xmlns="http://www.w3.org/2000/svg">
<path fill-rule="evenodd" clip-rule="evenodd" d="M1 0C1.55228 0 2 0.447715 2 1L2 9C2 9.55229 1.55229 10 1 10C0.447716 10 0 9.55229 0 9V1C0 0.447715 0.447715 0 1 0ZM4 2.5C4 1.67157 4.67157 1 5.5 1H16.5C17.3284 1 18 1.67157 18 2.5C18 3.32843 17.3284 4 16.5 4H5.5C4.67157 4 4 3.32843 4 2.5ZM5.5 6C4.67157 6 4 6.67157 4 7.5C4 8.32843 4.67157 9 5.5 9H12.5C13.3284 9 14 8.32843 14 7.5C14 6.67157 13.3284 6 12.5 6H5.5Z" fill="black"/>
</svg>
