<svg width="18" height="10" viewBox="0 0 18 10" fill="none" xmlns="http://www.w3.org/2000/svg">
<path fill-rule="evenodd" clip-rule="evenodd" d="M17 0C17.5523 0 18 0.447715 18 1V9C18 9.55229 17.5523 10 17 10C16.4477 10 16 9.55229 16 9V1C16 0.447715 16.4477 0 17 0ZM14 2.5C14 1.67157 13.3284 1 12.5 1H1.5C0.671573 1 0 1.67157 0 2.5C0 3.32843 0.671573 4 1.5 4H12.5C13.3284 4 14 3.32843 14 2.5ZM12.5 6C13.3284 6 14 6.67157 14 7.5C14 8.32843 13.3284 9 12.5 9H5.5C4.67157 9 4 8.32843 4 7.5C4 6.67157 4.67157 6 5.5 6H12.5Z" fill="black"/>
</svg>
