<svg width="10" height="18" viewBox="0 0 10 18" fill="none" xmlns="http://www.w3.org/2000/svg">
<path fill-rule="evenodd" clip-rule="evenodd" d="M2.5 14C1.67157 14 1 13.3284 1 12.5L1 1.5C1 0.671573 1.67157 0 2.5 0C3.32843 0 4 0.671573 4 1.5L4 12.5C4 13.3284 3.32843 14 2.5 14ZM10 17C10 17.5523 9.55228 18 9 18H1C0.447715 18 0 17.5523 0 17C0 16.4477 0.447715 16 1 16L9 16C9.55229 16 10 16.4477 10 17ZM6 12.5C6 13.3284 6.67157 14 7.5 14C8.32843 14 9 13.3284 9 12.5V5.5C9 4.67157 8.32843 4 7.5 4C6.67157 4 6 4.67157 6 5.5L6 12.5Z" fill="black"/>
</svg>
