<svg width="14" height="14" viewBox="0 0 14 14" fill="none" xmlns="http://www.w3.org/2000/svg">
<path fill-rule="evenodd" clip-rule="evenodd" d="M4.5 0C3.67157 0 3 0.671573 3 1.5L3 6H1C0.447715 6 0 6.44771 0 7C0 7.55228 0.447715 8 1 8H3L3 12.5C3 13.3284 3.67157 14 4.5 14C5.32843 14 6 13.3284 6 12.5V8H8V10.5C8 11.3284 8.67157 12 9.5 12C10.3284 12 11 11.3284 11 10.5V8H13C13.5523 8 14 7.55228 14 7C14 6.44772 13.5523 6 13 6H11V3.5C11 2.67157 10.3284 2 9.5 2C8.67157 2 8 2.67157 8 3.5V6H6V1.5C6 0.671573 5.32843 0 4.5 0Z" fill="black"/>
</svg>
