<svg width="10" height="18" viewBox="0 0 10 18" fill="none" xmlns="http://www.w3.org/2000/svg">
<path fill-rule="evenodd" clip-rule="evenodd" d="M10 1C10 1.55228 9.55228 2 9 2L1 2C0.447715 2 0 1.55228 0 0.999999C0 0.447714 0.447715 0 1 0H9C9.55229 0 10 0.447715 10 1ZM2.5 4C1.67157 4 1 4.67157 1 5.5L1 16.5C1 17.3284 1.67157 18 2.5 18C3.32843 18 4 17.3284 4 16.5L4 5.5C4 4.67157 3.32843 4 2.5 4ZM6 5.5C6 4.67157 6.67157 4 7.5 4C8.32843 4 9 4.67157 9 5.5V12.5C9 13.3284 8.32843 14 7.5 14C6.67157 14 6 13.3284 6 12.5L6 5.5Z" fill="black"/>
</svg>
