<svg width="16" height="18" viewBox="0 0 16 18" fill="none" xmlns="http://www.w3.org/2000/svg">
<path d="M1 17L4 17" stroke="black" stroke-linecap="round"/>
<path d="M1 1L4 1" stroke="black" stroke-linecap="round"/>
<path d="M3 1.5C3 1.22386 2.77614 1 2.5 1C2.22386 1 2 1.22386 2 1.5L3 1.5ZM3 10L3 1.5L2 1.5L2 10L3 10Z" fill="black"/>
<path d="M2.5 10L2.5 17" stroke="black" stroke-linecap="round"/>
<path d="M6.098 14L9.892 4.396H11.642L15.45 14H14.008L13.07 11.62H8.394L7.47 14H6.098ZM8.828 10.486H12.622L11.46 7.476C11.432 7.392 11.39 7.27533 11.334 7.126C11.278 6.97667 11.2173 6.81333 11.152 6.636C11.0867 6.44933 11.0213 6.26267 10.956 6.076C10.8907 5.88 10.83 5.70267 10.774 5.544H10.69C10.6247 5.73067 10.55 5.94533 10.466 6.188C10.382 6.43067 10.298 6.66867 10.214 6.902C10.13 7.126 10.06 7.31733 10.004 7.476L8.828 10.486Z" fill="black"/>
</svg>
