<svg width="18" height="18" viewBox="0 0 18 18" fill="none" xmlns="http://www.w3.org/2000/svg">
<path d="M1 14L1 17" stroke="black" stroke-linecap="round"/>
<path d="M17 14L17 17" stroke="black" stroke-linecap="round"/>
<path d="M16.5 16C16.7761 16 17 15.7761 17 15.5C17 15.2239 16.7761 15 16.5 15V16ZM8 16H16.5V15H8V16Z" fill="black"/>
<path d="M8 15.5L1 15.5" stroke="black" stroke-linecap="round"/>
<path d="M4.098 12L7.892 2.396H9.642L13.45 12H12.008L11.07 9.62H6.394L5.47 12H4.098ZM6.828 8.486H10.622L9.46 5.476C9.432 5.392 9.39 5.27533 9.334 5.126C9.278 4.97667 9.21733 4.81333 9.152 4.636C9.08667 4.44933 9.02133 4.26267 8.956 4.076C8.89067 3.88 8.83 3.70267 8.774 3.544H8.69C8.62467 3.73067 8.55 3.94533 8.466 4.188C8.382 4.43067 8.298 4.66867 8.214 4.902C8.13 5.126 8.06 5.31733 8.004 5.476L6.828 8.486Z" fill="black"/>
</svg>
