<svg width="18" height="23" viewBox="0 0 18 23" fill="none" xmlns="http://www.w3.org/2000/svg">
<path d="M1 1L1 4" stroke="black" stroke-linecap="round"/>
<path d="M17 1L17 4" stroke="black" stroke-linecap="round"/>
<path d="M16.5 3C16.7761 3 17 2.77614 17 2.5C17 2.22386 16.7761 2 16.5 2V3ZM8 3H16.5V2H8V3Z" fill="black"/>
<path d="M8 2.5L1 2.5" stroke="black" stroke-linecap="round"/>
<path d="M1 19L1 22" stroke="black" stroke-linecap="round"/>
<path d="M17 19L17 22" stroke="black" stroke-linecap="round"/>
<path d="M16.5 21C16.7761 21 17 20.7761 17 20.5C17 20.2239 16.7761 20 16.5 20V21ZM8 21H16.5V20H8V21Z" fill="black"/>
<path d="M8 20.5L1 20.5" stroke="black" stroke-linecap="round"/>
<path d="M8.75 10C8.75 10.1381 8.86193 10.25 9 10.25C9.13807 10.25 9.25 10.1381 9.25 10L8.75 10ZM9.17678 4.82322C9.07915 4.72559 8.92085 4.72559 8.82322 4.82322L7.23223 6.41421C7.1346 6.51184 7.1346 6.67014 7.23223 6.76777C7.32986 6.8654 7.48816 6.8654 7.58579 6.76777L9 5.35355L10.4142 6.76777C10.5118 6.8654 10.6701 6.8654 10.7678 6.76777C10.8654 6.67014 10.8654 6.51184 10.7678 6.41421L9.17678 4.82322ZM9.25 10L9.25 5L8.75 5L8.75 10L9.25 10Z" fill="black"/>
<path d="M8.75 13C8.75 12.8619 8.86193 12.75 9 12.75C9.13807 12.75 9.25 12.8619 9.25 13L8.75 13ZM9.17678 18.1768C9.07915 18.2744 8.92085 18.2744 8.82322 18.1768L7.23223 16.5858C7.1346 16.4882 7.1346 16.3299 7.23223 16.2322C7.32986 16.1346 7.48816 16.1346 7.58579 16.2322L9 17.6464L10.4142 16.2322C10.5118 16.1346 10.6701 16.1346 10.7678 16.2322C10.8654 16.3299 10.8654 16.4882 10.7678 16.5858L9.17678 18.1768ZM9.25 13L9.25 18L8.75 18L8.75 13L9.25 13Z" fill="black"/>
</svg>
