<svg width="17" height="19" viewBox="0 0 17 19" fill="none" xmlns="http://www.w3.org/2000/svg">
<path d="M5.3997 1.20635C4.57295 1.20635 3.8926 1.24824 3.35866 1.33201C2.84195 1.41578 2.41135 1.59171 2.06687 1.85979C1.73961 2.12787 1.47264 2.50485 1.26596 2.99074C1.07649 3.45988 0.895643 4.08818 0.723404 4.87566H0L0.180851 0H16.8191L17 4.87566H16.2766C16.1044 4.08818 15.9149 3.45988 15.7082 2.99074C15.5187 2.50485 15.2604 2.12787 14.9331 1.85979C14.6059 1.59171 14.1753 1.41578 13.6413 1.33201C13.1074 1.24824 12.4184 1.20635 11.5745 1.20635H9.99848V15.9087C9.99848 16.4281 10.0329 16.847 10.1018 17.1653C10.1707 17.4837 10.2999 17.735 10.4894 17.9193C10.696 18.1036 10.9802 18.2377 11.3419 18.3214C11.7209 18.3884 12.2118 18.4387 12.8146 18.4722V19H4.23708V18.4722C4.83992 18.4387 5.32219 18.3884 5.68389 18.3214C6.04559 18.2377 6.32118 18.0952 6.51064 17.8942C6.71733 17.6764 6.8465 17.3832 6.89818 17.0145C6.96707 16.6459 7.00152 16.1601 7.00152 15.5569V1.20635H5.3997Z" fill="black"/>
</svg>
