<svg width="11" height="22" viewBox="0 0 11 22" fill="none" xmlns="http://www.w3.org/2000/svg">
<path fill-rule="evenodd" clip-rule="evenodd" d="M10.4295 1.42114C10.4295 1.97343 9.98175 2.42114 9.42947 2.42114L1.39355 2.42114C0.841269 2.42114 0.393555 1.97343 0.393555 1.42114C0.393555 0.868857 0.84127 0.421143 1.39355 0.421143H9.42947C9.98175 0.421143 10.4295 0.868858 10.4295 1.42114ZM2.90021 5.05298C2.06807 5.05298 1.39348 5.72757 1.39348 6.55971L1.39348 20.4936C1.39348 21.3258 2.06807 22.0003 2.90021 22.0003C3.73236 22.0003 4.40695 21.3258 4.40695 20.4936L4.40695 6.55971C4.40695 5.72757 3.73236 5.05298 2.90021 5.05298ZM6.41623 6.55971C6.41623 5.72757 7.09081 5.05298 7.92296 5.05298C8.75511 5.05298 9.42969 5.72757 9.42969 6.55971V15.6515C9.42969 16.4837 8.75511 17.1582 7.92296 17.1582C7.09081 17.1582 6.41623 16.4837 6.41623 15.6515L6.41623 6.55971Z" fill="white"/>
</svg>
