<svg width="11" height="22" viewBox="0 0 11 22" fill="none" xmlns="http://www.w3.org/2000/svg">
<path fill-rule="evenodd" clip-rule="evenodd" d="M3.16986 16.9474C2.33771 16.9474 1.66312 16.2728 1.66312 15.4406L1.66312 1.50673C1.66312 0.674587 2.33771 0 3.16986 0C4.002 0 4.67659 0.674588 4.67659 1.50673L4.67659 15.4406C4.67659 16.2728 4.002 16.9474 3.16986 16.9474ZM10.699 20.5792C10.699 21.1315 10.2513 21.5792 9.699 21.5792H1.66309C1.1108 21.5792 0.663086 21.1315 0.663086 20.5792C0.663086 20.0269 1.1108 19.5792 1.66309 19.5792H9.699C10.2513 19.5792 10.699 20.0269 10.699 20.5792ZM6.68576 15.4406C6.68576 16.2728 7.36034 16.9474 8.19249 16.9474C9.02464 16.9474 9.69922 16.2728 9.69922 15.4406V6.34884C9.69922 5.51669 9.02464 4.84211 8.19249 4.84211C7.36035 4.84211 6.68576 5.51669 6.68576 6.34884L6.68576 15.4406Z" fill="white"/>
</svg>
