<svg width="15" height="18" viewBox="0 0 15 18" fill="none" xmlns="http://www.w3.org/2000/svg">
<path fill-rule="evenodd" clip-rule="evenodd" d="M5.03509 0.421143C4.20295 0.421143 3.52836 1.09573 3.52836 1.92788L3.52836 7.89477H1.51953C0.967247 7.89477 0.519531 8.34249 0.519531 8.89477C0.519531 9.44706 0.967247 9.89477 1.51953 9.89477H3.52836L3.52836 15.8618C3.52836 16.6939 4.20295 17.3685 5.03509 17.3685C5.86724 17.3685 6.54183 16.6939 6.54183 15.8618V9.89477H8.55088V13.4406C8.55088 14.2727 9.22547 14.9473 10.0576 14.9473C10.8898 14.9473 11.5643 14.2727 11.5643 13.4406V9.89478H13.5734C14.1257 9.89478 14.5734 9.44706 14.5734 8.89478C14.5734 8.34249 14.1257 7.89478 13.5734 7.89478L11.5643 7.89477V4.34877C11.5643 3.51663 10.8898 2.84204 10.0576 2.84204C9.22547 2.84204 8.55088 3.51663 8.55088 4.34877V7.89477L6.54183 7.89477V1.92788C6.54183 1.09573 5.86724 0.421143 5.03509 0.421143Z" fill="white"/>
</svg>
