<svg width="15" height="18" viewBox="0 0 15 18" fill="none" xmlns="http://www.w3.org/2000/svg">
<path fill-rule="evenodd" clip-rule="evenodd" d="M7.11546 0.631836C7.66774 0.631836 8.11546 1.07955 8.11546 1.63184V4.05289H12.331C13.3339 4.05289 14.1468 4.86585 14.1468 5.86868C14.1468 6.87151 13.3339 7.68447 12.331 7.68447H8.11546V10.1055H10.322C11.3249 10.1055 12.1378 10.9184 12.1378 11.9213C12.1378 12.9241 11.3249 13.737 10.322 13.737H8.11546V16.1582C8.11546 16.7104 7.66774 17.1582 7.11546 17.1582C6.56317 17.1582 6.11546 16.7104 6.11546 16.1582V13.737H3.90873C2.90589 13.737 2.09294 12.9241 2.09294 11.9213C2.09294 10.9184 2.90589 10.1055 3.90873 10.1055H6.11546V7.68447H1.89977C0.896942 7.68447 0.0839844 6.87151 0.0839844 5.86868C0.0839844 4.86585 0.896941 4.05289 1.89977 4.05289H6.11546V1.63184C6.11546 1.07955 6.56317 0.631836 7.11546 0.631836Z" fill="white"/>
</svg>
