<svg width="20" height="10" viewBox="0 0 20 10" fill="none" xmlns="http://www.w3.org/2000/svg">
<path d="M11.9375 5C11.9375 6.10457 11.0421 7 9.9375 7C8.83293 7 7.9375 6.10457 7.9375 5C7.9375 3.89543 8.83293 3 9.9375 3C11.0421 3 11.9375 3.89543 11.9375 5Z" fill="white"/>
<path d="M15 5C15 7.45744 13.0663 9.5 10 9.5C6.93374 9.5 5 7.45744 5 5C5 2.54256 6.93374 0.5 10 0.5C13.0663 0.5 15 2.54256 15 5Z" stroke="white"/>
<path d="M1.06953 5.42843C0.904054 5.26226 0.76747 5.11691 0.661276 5C0.76747 4.88309 0.904054 4.73774 1.06953 4.57157C1.52106 4.11816 2.18521 3.51228 3.03162 2.90662C4.72849 1.69241 7.12784 0.5 10 0.5C12.8722 0.5 15.2715 1.69241 16.9684 2.90662C17.8148 3.51228 18.4789 4.11816 18.9305 4.57157C19.0959 4.73774 19.2325 4.88309 19.3387 5C19.2325 5.11691 19.0959 5.26226 18.9305 5.42843C18.4789 5.88184 17.8148 6.48772 16.9684 7.09338C15.2715 8.30759 12.8722 9.5 10 9.5C7.12784 9.5 4.72849 8.30759 3.03162 7.09338C2.18521 6.48772 1.52106 5.88184 1.06953 5.42843Z" stroke="white"/>
</svg>
