<svg width="17" height="18" viewBox="0 0 17 18" fill="none" xmlns="http://www.w3.org/2000/svg">
<path fill-rule="evenodd" clip-rule="evenodd" d="M2.43447 17.3691C1.60232 17.3691 0.927734 16.6946 0.927734 15.8624L0.927734 1.9285C0.927734 1.09636 1.60232 0.421772 2.43447 0.421772C3.26661 0.421772 3.9412 1.09636 3.9412 1.9285L3.9412 15.8624C3.9412 16.6946 3.26661 17.3691 2.43447 17.3691ZM8.96388 3.05371C9.51617 3.05371 9.96388 3.50143 9.96388 4.05371L9.96388 13.7379C9.96388 14.2902 9.51617 14.7379 8.96388 14.7379C8.4116 14.7379 7.96388 14.2902 7.96388 13.7379L7.96388 4.05371C7.96388 3.50143 8.4116 3.05371 8.96388 3.05371ZM13.9863 15.8624C13.9863 16.6946 14.6609 17.3691 15.493 17.3691C16.3252 17.3691 16.9998 16.6946 16.9998 15.8624L16.9998 1.92851C16.9998 1.09636 16.3252 0.421771 15.493 0.421771C14.6609 0.421771 13.9863 1.09636 13.9863 1.9285L13.9863 15.8624Z" fill="white"/>
</svg>
