<svg width="19" height="12" viewBox="0 0 19 12" fill="none" xmlns="http://www.w3.org/2000/svg">
<path fill-rule="evenodd" clip-rule="evenodd" d="M1.92676 0.0529785C2.47904 0.0529785 2.92676 0.500694 2.92676 1.05298L2.92676 10.7372C2.92676 11.2895 2.47904 11.7372 1.92676 11.7372C1.37447 11.7372 0.926758 11.2895 0.926758 10.7372V1.05298C0.926758 0.500694 1.37447 0.0529785 1.92676 0.0529785ZM4.94011 2.86877C4.94011 1.86594 5.75307 1.05298 6.7559 1.05298H17.1872C18.19 1.05298 19.003 1.86594 19.003 2.86877C19.003 3.8716 18.19 4.68456 17.1872 4.68456H6.7559C5.75307 4.68456 4.94011 3.8716 4.94011 2.86877ZM6.7559 7.10571C5.75307 7.10571 4.94011 7.91867 4.94011 8.9215C4.94011 9.92433 5.75307 10.7373 6.7559 10.7373H13.1692C14.172 10.7373 14.985 9.92433 14.985 8.9215C14.985 7.91867 14.172 7.10571 13.1692 7.10571H6.7559Z" fill="white"/>
</svg>
