<svg width="19" height="12" viewBox="0 0 19 12" fill="none" xmlns="http://www.w3.org/2000/svg">
<path fill-rule="evenodd" clip-rule="evenodd" d="M17.3039 0.0527344C17.8561 0.0527344 18.3039 0.50045 18.3039 1.05273V10.7369C18.3039 11.2892 17.8561 11.7369 17.3039 11.7369C16.7516 11.7369 16.3039 11.2892 16.3039 10.7369V1.05273C16.3039 0.50045 16.7516 0.0527344 17.3039 0.0527344ZM14.2904 2.86852C14.2904 1.86569 13.4774 1.05273 12.4746 1.05273H2.04333C1.0405 1.05273 0.227539 1.86569 0.227539 2.86852C0.227539 3.87136 1.0405 4.68431 2.04333 4.68431H12.4746C13.4774 4.68431 14.2904 3.87136 14.2904 2.86852ZM12.4746 7.10547C13.4774 7.10547 14.2904 7.91843 14.2904 8.92126C14.2904 9.92409 13.4774 10.737 12.4746 10.737H6.06128C5.05845 10.737 4.24549 9.92409 4.24549 8.92126C4.24549 7.91843 5.05845 7.10547 6.06128 7.10547H12.4746Z" fill="white"/>
</svg>
