<svg width="11" height="11" viewBox="0 0 11 11" fill="none" xmlns="http://www.w3.org/2000/svg">
<g opacity="1" clip-path="url(#clip0_1585_171)">
<path d="M8.29941 3.43755H7.21875C6.83848 3.43755 6.53125 3.74478 6.53125 4.12505C6.53125 4.50532 6.83848 4.81255 7.21875 4.81255H9.96875C10.349 4.81255 10.6562 4.50532 10.6562 4.12505V1.37505C10.6562 0.994775 10.349 0.687549 9.96875 0.687549C9.58848 0.687549 9.28125 0.994775 9.28125 1.37505V2.47505L8.90313 2.09692C7.02324 0.217041 3.97676 0.217041 2.09688 2.09692C0.216992 3.97681 0.216992 7.02329 2.09688 8.90317C3.97676 10.7831 7.02324 10.7831 8.90313 8.90317C9.17168 8.63462 9.17168 8.19849 8.90313 7.92993C8.63457 7.66138 8.19844 7.66138 7.92988 7.92993C6.58711 9.27271 4.41074 9.27271 3.06797 7.92993C1.7252 6.58716 1.7252 4.41079 3.06797 3.06802C4.41074 1.72524 6.58711 1.72524 7.92988 3.06802L8.29941 3.43755Z" fill="white"/>
</g>
<defs>
<clipPath id="clip0_1585_171">
<rect width="11" height="11" fill="white" transform="matrix(-1 0 0 1 11 0)"/>
</clipPath>
</defs>
</svg>
