<svg width="14" height="18" viewBox="0 0 14 18" fill="none" xmlns="http://www.w3.org/2000/svg">
<path fill-rule="evenodd" clip-rule="evenodd" d="M0 1.5C0 0.671572 0.671573 0 1.5 0L12.5 1.19209e-06C13.3284 1.3113e-06 14 0.671574 14 1.5C14 2.32843 13.3284 3 12.5 3L1.5 3C0.671573 3 0 2.32843 0 1.5ZM11.8336 8.89453C11.8336 9.44682 11.3859 9.89453 10.8336 9.89453L2.79772 9.89453C2.24543 9.89453 1.79772 9.44682 1.79772 8.89453C1.79772 8.34224 2.24543 7.89453 2.79772 7.89453L10.8336 7.89453C11.3859 7.89453 11.8336 8.34225 11.8336 8.89453ZM1.5 15C0.671573 15 0 15.6716 0 16.5C0 17.3284 0.671573 18 1.5 18L12.5 18C13.3284 18 14 17.3284 14 16.5C14 15.6716 13.3284 15 12.5 15L1.5 15Z" fill="white"/>
</svg>
