<svg xmlns="http://www.w3.org/2000/svg" viewBox="0 0 243 196" fill="none">
<g filter="url(#filter0_d_572_344)">
<path d="M142.74 107.05H124.13C123.75 107.05 123.38 107.2 123.11 107.47L102.81 127.77C101.9 128.68 102.54 130.24 103.83 130.24H170.61C171.41 130.24 172.06 129.59 172.06 128.79V17.74C172.06 16.45 170.5 15.81 169.59 16.72L144.62 41.69C144.35 41.96 144.2 42.33 144.2 42.71L144.23 60.78C144.23 61.58 143.58 62.23 142.78 62.23H132.21C131.83 62.23 131.46 62.38 131.19 62.65L110.89 82.95C109.98 83.86 110.62 85.42 111.91 85.42H142.78C143.58 85.42 144.23 86.07 144.23 86.87L144.2 105.59C144.2 106.39 143.55 107.04 142.75 107.04L142.74 107.05Z" fill="white"/>
</g>
<g filter="url(#filter1_d_572_344)">
<path d="M96.8492 55.4205H115.459C115.839 55.4205 116.209 55.2705 116.479 55.0005L136.779 34.7005C137.689 33.7905 137.049 32.2305 135.759 32.2305H68.9792C68.1792 32.2305 67.5293 32.8805 67.5293 33.6805V144.73C67.5293 146.02 69.0893 146.66 69.9993 145.75L94.9692 120.78C95.2392 120.51 95.3893 120.14 95.3893 119.76L95.3593 101.69C95.3593 100.89 96.0093 100.24 96.8093 100.24H107.379C107.759 100.24 108.129 100.09 108.399 99.8205L128.699 79.5204C129.609 78.6104 128.969 77.0504 127.679 77.0504H96.8093C96.0093 77.0504 95.3593 76.4005 95.3593 75.6005L95.3893 56.8805C95.3893 56.0805 96.0393 55.4305 96.8393 55.4305L96.8492 55.4205Z" fill="white"/>
</g>
<path d="M0.169922 192.78V156.59C0.169922 155.71 0.879949 155 1.75995 155H23.6799C24.5599 155 25.27 155.71 25.27 156.59V161.28C25.27 162.16 24.5599 162.87 23.6799 162.87H11.2199C10.3399 162.87 9.62994 163.58 9.62994 164.46V169.89C9.62994 170.77 10.3399 171.48 11.2199 171.48H21.46C22.34 171.48 23.0499 172.19 23.0499 173.07V177.76C23.0499 178.64 22.34 179.35 21.46 179.35H11.2199C10.3399 179.35 9.62994 180.06 9.62994 180.94V192.77C9.62994 193.65 8.91992 194.36 8.03992 194.36H1.75995C0.879949 194.36 0.169922 193.65 0.169922 192.77V192.78Z" fill="white"/>
<path d="M29.7598 192.781V165.891C29.7598 165.011 30.4697 164.301 31.3497 164.301H36.0298C36.8298 164.301 37.4997 164.891 37.6097 165.681L38.1198 169.531H38.2798C39.4098 167.521 40.7398 166.031 42.2698 165.041C43.7998 164.051 45.3298 163.561 46.8398 163.561C47.7598 163.561 48.4898 163.621 49.0298 163.741C49.0298 163.741 49.0397 163.741 49.0497 163.741C49.8697 163.931 50.3797 164.751 50.2197 165.581L49.2598 170.671C49.0998 171.531 48.2598 172.091 47.3998 171.931C47.3998 171.931 47.3798 171.931 47.3698 171.931C46.8798 171.841 46.2998 171.801 45.6298 171.801C44.5398 171.801 43.3797 172.211 42.1697 173.021C41.0197 173.791 40.0598 175.081 39.3098 176.891C39.2298 177.081 39.1898 177.301 39.1898 177.511V192.771C39.1898 193.651 38.4797 194.361 37.5997 194.361H31.3698C30.4898 194.361 29.7798 193.651 29.7798 192.771L29.7598 192.781Z" fill="white"/>
<path d="M59.7698 195.11C57.9398 195.11 56.3498 194.7 55.0098 193.87C53.6698 193.04 52.6398 191.93 51.9198 190.54C51.1998 189.15 50.8398 187.63 50.8398 185.97C50.8398 182.8 52.1598 180.32 54.7998 178.55C57.1598 176.96 60.8098 175.82 65.7498 175.15C66.8198 175 67.4798 173.84 66.9798 172.88C66.9798 172.87 66.9698 172.86 66.9598 172.84C66.6398 172.26 66.1598 171.82 65.5098 171.52C64.8598 171.22 64.0198 171.07 62.9998 171.07C61.7998 171.07 60.5698 171.3 59.2998 171.76C58.4298 172.07 57.4998 172.48 56.5098 172.98C55.7298 173.37 54.7798 173.08 54.3798 172.31L52.5698 168.9C52.1598 168.13 52.4498 167.16 53.2298 166.75C54.1198 166.27 55.0298 165.83 55.9498 165.45C57.3398 164.87 58.7798 164.41 60.2598 164.08C61.7398 163.75 63.2498 163.58 64.7998 163.58C67.4098 163.58 69.6098 164.07 71.4098 165.06C73.2098 166.05 74.5798 167.55 75.5298 169.58C76.4798 171.61 76.9598 174.19 76.9598 177.32V192.8C76.9598 193.68 76.2498 194.39 75.3698 194.39H70.5898C69.8398 194.39 69.1898 193.86 69.0298 193.13L68.6598 191.38H68.3998C67.1698 192.47 65.8398 193.37 64.4098 194.07C62.9798 194.77 61.4398 195.13 59.7898 195.13L59.7698 195.11ZM62.9898 187.82C63.9398 187.82 64.7698 187.61 65.4698 187.19C65.9998 186.87 66.5198 186.46 67.0398 185.96C67.3498 185.66 67.5398 185.24 67.5398 184.8V182.49C67.5398 181.5 66.6298 180.74 65.6598 180.93C64.5798 181.14 63.6598 181.39 62.9198 181.69C61.7698 182.15 60.9698 182.68 60.4898 183.28C60.0098 183.88 59.7798 184.53 59.7798 185.23C59.7798 186.11 60.0698 186.76 60.6498 187.19C61.2298 187.61 62.0098 187.82 62.9998 187.82H62.9898Z" fill="white"/>
<path d="M84.1802 192.781V165.891C84.1802 165.011 84.8902 164.301 85.7702 164.301H90.5102C91.2802 164.301 91.9402 164.851 92.0702 165.611L92.5202 168.111H92.6802C93.9102 166.881 95.2302 165.811 96.6402 164.911C98.0502 164.011 99.7702 163.561 101.82 163.561C103.87 163.561 105.6 163.981 106.92 164.831C107.76 165.361 108.48 166.051 109.1 166.901C109.66 167.671 110.74 167.831 111.45 167.201C112.34 166.401 113.27 165.681 114.24 165.041C115.72 164.051 117.46 163.561 119.47 163.561C122.75 163.561 125.13 164.651 126.63 166.841C128.13 169.031 128.88 172.001 128.88 175.771V192.781C128.88 193.661 128.17 194.371 127.29 194.371H121.06C120.18 194.371 119.47 193.661 119.47 192.781V176.931C119.47 174.851 119.2 173.441 118.65 172.701C118.1 171.961 117.23 171.591 116.03 171.591C115.36 171.591 114.62 171.811 113.81 172.251C113.16 172.611 112.47 173.111 111.75 173.781C111.42 174.091 111.22 174.511 111.22 174.971V192.781C111.22 193.661 110.51 194.371 109.63 194.371H103.4C102.52 194.371 101.81 193.661 101.81 192.781V176.931C101.81 174.851 101.53 173.441 100.96 172.701C100.4 171.961 99.5202 171.591 98.3202 171.591C97.6502 171.591 96.9102 171.811 96.1002 172.251C95.4502 172.601 94.7702 173.111 94.0802 173.781C93.7602 174.091 93.5702 174.511 93.5702 174.951V192.781C93.5702 193.661 92.8602 194.371 91.9802 194.371H85.7502C84.8702 194.371 84.1602 193.661 84.1602 192.781H84.1802Z" fill="white"/>
<path d="M149.86 195.111C146.97 195.111 144.37 194.481 142.07 193.231C139.76 191.981 137.93 190.171 136.57 187.811C135.21 185.451 134.54 182.611 134.54 179.301C134.54 176.871 134.94 174.691 135.73 172.751C136.52 170.811 137.6 169.161 138.95 167.781C140.31 166.411 141.84 165.361 143.55 164.641C145.26 163.921 147.01 163.561 148.81 163.561C151.7 163.561 154.09 164.191 156 165.461C157.9 166.731 159.33 168.451 160.28 170.641C161.23 172.821 161.71 175.291 161.71 178.041C161.71 178.891 161.67 179.681 161.58 180.421C161.57 180.531 161.55 180.631 161.54 180.731C161.44 181.521 160.76 182.111 159.96 182.111H145.86C144.66 182.111 143.88 183.401 144.46 184.451C144.65 184.811 144.88 185.141 145.12 185.431C145.82 186.281 146.69 186.901 147.71 187.311C148.73 187.721 149.88 187.921 151.14 187.921C152.23 187.921 153.29 187.761 154.31 187.441C154.92 187.251 155.55 187.001 156.19 186.701C156.94 186.341 157.84 186.661 158.24 187.381L159.88 190.361C160.29 191.111 160.05 192.061 159.31 192.491C158.1 193.191 156.8 193.761 155.39 194.201C153.47 194.801 151.63 195.101 149.87 195.101L149.86 195.111ZM145.65 175.931H151.93C152.96 175.931 153.76 174.951 153.47 173.951C153.29 173.311 153.01 172.741 152.64 172.231C151.92 171.241 150.69 170.751 148.97 170.751C148.12 170.751 147.32 170.931 146.57 171.301C145.81 171.671 145.16 172.231 144.62 172.991C144.49 173.171 144.36 173.371 144.25 173.581C143.68 174.641 144.46 175.921 145.66 175.921L145.65 175.931Z" fill="white"/>
<path d="M169 192.78V156.59C169 155.71 169.71 155 170.59 155H192.51C193.39 155 194.1 155.71 194.1 156.59V161.28C194.1 162.16 193.39 162.87 192.51 162.87H180.05C179.17 162.87 178.46 163.58 178.46 164.46V169.89C178.46 170.77 179.17 171.48 180.05 171.48H190.29C191.17 171.48 191.88 172.19 191.88 173.07V177.76C191.88 178.64 191.17 179.35 190.29 179.35H180.05C179.17 179.35 178.46 180.06 178.46 180.94V192.77C178.46 193.65 177.75 194.36 176.87 194.36H170.59C169.71 194.36 169 193.65 169 192.77V192.78Z" fill="white"/>
<path d="M204.88 160.131C203.29 160.131 202.03 159.691 201.08 158.811C200.13 157.931 199.65 156.751 199.65 155.271C199.65 153.791 200.13 152.661 201.08 151.781C202.03 150.901 203.3 150.461 204.88 150.461C206.46 150.461 207.69 150.901 208.66 151.781C209.63 152.661 210.11 153.821 210.11 155.271C210.11 156.721 209.62 157.931 208.66 158.811C207.69 159.691 206.43 160.131 204.88 160.131ZM200.18 192.781V165.891C200.18 165.011 200.89 164.301 201.77 164.301H208C208.88 164.301 209.59 165.011 209.59 165.891V192.781C209.59 193.661 208.88 194.371 208 194.371H201.77C200.89 194.371 200.18 193.661 200.18 192.781Z" fill="white"/>
<path d="M215.59 191.971L222.9 179.541C223.2 179.041 223.19 178.411 222.9 177.921L216.17 166.711C215.53 165.651 216.3 164.301 217.53 164.301H223.87C224.45 164.301 224.99 164.621 225.27 165.131L227.28 168.841C227.28 168.841 227.31 168.911 227.33 168.941C227.71 169.801 228.11 170.661 228.52 171.501C228.94 172.361 229.37 173.221 229.79 174.061H230.05C230.33 173.211 230.65 172.361 231 171.501C231.35 170.641 231.69 169.771 232 168.881L233.45 165.281C233.69 164.681 234.28 164.281 234.93 164.281H240.87C242.08 164.281 242.85 165.591 242.26 166.651L235.38 178.941C235.1 179.451 235.11 180.071 235.42 180.561L242.57 191.911C243.24 192.971 242.48 194.351 241.23 194.351H234.94C234.37 194.351 233.85 194.051 233.56 193.561L231.27 189.601C230.81 188.751 230.36 187.891 229.92 187.011C229.48 186.131 229.01 185.281 228.52 184.471H228.26C227.91 185.281 227.55 186.121 227.18 186.981C226.81 187.841 226.43 188.721 226.04 189.601L224.39 193.401C224.14 193.981 223.56 194.361 222.93 194.361H216.98C215.75 194.361 214.99 193.021 215.61 191.961L215.59 191.971Z" fill="white"/>
<defs>
<filter id="filter0_d_572_344" x="86.3828" y="0.292969" width="109.677" height="153.947" filterUnits="userSpaceOnUse" color-interpolation-filters="sRGB">
<feFlood flood-opacity="0" result="BackgroundImageFix"/>
<feColorMatrix in="SourceAlpha" type="matrix" values="0 0 0 0 0 0 0 0 0 0 0 0 0 0 0 0 0 0 127 0" result="hardAlpha"/>
<feOffset dx="4" dy="4"/>
<feGaussianBlur stdDeviation="10"/>
<feColorMatrix type="matrix" values="0 0 0 0 0 0 0 0 0 0 0 0 0 0 0 0 0 0 0.19 0"/>
<feBlend mode="normal" in2="BackgroundImageFix" result="effect1_dropShadow_572_344"/>
<feBlend mode="normal" in="SourceGraphic" in2="effect1_dropShadow_572_344" result="shape"/>
</filter>
<filter id="filter1_d_572_344" x="51.5293" y="16.2305" width="109.677" height="153.947" filterUnits="userSpaceOnUse" color-interpolation-filters="sRGB">
<feFlood flood-opacity="0" result="BackgroundImageFix"/>
<feColorMatrix in="SourceAlpha" type="matrix" values="0 0 0 0 0 0 0 0 0 0 0 0 0 0 0 0 0 0 127 0" result="hardAlpha"/>
<feOffset dx="4" dy="4"/>
<feGaussianBlur stdDeviation="10"/>
<feColorMatrix type="matrix" values="0 0 0 0 0 0 0 0 0 0 0 0 0 0 0 0 0 0 0.19 0"/>
<feBlend mode="normal" in2="BackgroundImageFix" result="effect1_dropShadow_572_344"/>
<feBlend mode="normal" in="SourceGraphic" in2="effect1_dropShadow_572_344" result="shape"/>
</filter>
</defs>
</svg>