<svg width="110" height="137" viewBox="0 0 110 137" fill="none" xmlns="http://www.w3.org/2000/svg">
<path d="M107.25 0.439628L81.01 26.6796C80.72 26.9696 80.56 27.3496 80.56 27.7596L80.59 46.7496C80.59 47.5896 79.91 48.2696 79.07 48.2696H67.97C67.57 48.2696 67.18 48.4296 66.89 48.7196L51.8 63.8096H30.78C29.94 63.8096 29.26 63.1296 29.26 62.2896L29.29 42.6196C29.29 41.7796 29.97 41.0996 30.81 41.0996H50.36C50.76 41.0996 51.15 40.9396 51.43 40.6496L72.77 19.3096C73.73 18.3496 73.05 16.7096 71.69 16.7096H1.52C0.680004 16.7096 0 17.3896 0 18.2296V134.92C0 136.27 1.64 136.95 2.6 135.99L28.84 109.75C29.13 109.46 29.29 109.08 29.29 108.67L29.26 89.6796C29.26 88.8396 29.94 88.1596 30.78 88.1596H41.88C42.28 88.1596 42.67 87.9996 42.96 87.7096L58.05 72.6196H79.07C79.91 72.6196 80.59 73.2996 80.59 74.1396L80.56 93.8096C80.56 94.6496 79.88 95.3296 79.04 95.3296H59.49C59.09 95.3296 58.7 95.4896 58.42 95.7796L37.08 117.12C36.12 118.08 36.8 119.72 38.16 119.72H108.33C109.17 119.72 109.85 119.04 109.85 118.2V1.51963C109.85 0.16963 108.21 -0.51037 107.25 0.44963V0.439628Z" fill="black"/>
</svg>
