<svg width="415" height="506" viewBox="0 0 415 506" fill="none" xmlns="http://www.w3.org/2000/svg">
<g filter="url(#filter0_d_732_295)">
<path d="M285.8 341.762H219.028C217.664 341.762 216.337 342.301 215.368 343.27L142.532 416.134C139.267 419.401 141.563 425 146.192 425H385.797C388.668 425 391 422.667 391 419.795V21.1938C391 16.5635 385.402 14.2663 382.137 17.5327L292.546 107.16C291.577 108.129 291.038 109.457 291.038 110.821L291.146 175.681C291.146 178.553 288.814 180.886 285.944 180.886H248.019C246.655 180.886 245.328 181.424 244.359 182.393L171.523 255.258C168.258 258.524 170.554 264.124 175.183 264.124H285.944C288.814 264.124 291.146 266.457 291.146 269.328L291.038 336.522C291.038 339.393 288.706 341.726 285.836 341.726L285.8 341.762Z" fill="#fff"/>
</g>
<g filter="url(#filter1_d_732_295)">
<path d="M121.2 156.238H187.972C189.336 156.238 190.663 155.699 191.632 154.73L264.468 81.8658C267.733 78.5995 265.437 73 260.808 73H21.2024C18.332 73 16 75.333 16 78.2045V476.806C16 481.437 21.5972 483.734 24.8622 480.467L114.454 390.84C115.423 389.871 115.961 388.543 115.961 387.179L115.853 322.319C115.853 319.447 118.186 317.114 121.056 317.114H158.981C160.345 317.114 161.672 316.576 162.641 315.607L235.477 242.742C238.742 239.476 236.446 233.876 231.817 233.876H121.056C118.186 233.876 115.853 231.543 115.853 228.672L115.961 161.478C115.961 158.607 118.293 156.274 121.164 156.274L121.2 156.238Z" fill="#fff"/>
</g>
<defs>
<filter id="filter0_d_732_295" x="125" y="0" width="290" height="449" filterUnits="userSpaceOnUse" color-interpolation-filters="sRGB">
<feFlood flood-opacity="0" result="BackgroundImageFix"/>
<feColorMatrix in="SourceAlpha" type="matrix" values="0 0 0 0 0 0 0 0 0 0 0 0 0 0 0 0 0 0 127 0" result="hardAlpha"/>
<feOffset dx="4" dy="4"/>
<feGaussianBlur stdDeviation="10"/>
<feColorMatrix type="matrix" values="0 0 0 0 0 0 0 0 0 0 0 0 0 0 0 0 0 0 0.19 0"/>
<feBlend mode="normal" in2="BackgroundImageFix" result="effect1_dropShadow_732_295"/>
<feBlend mode="normal" in="SourceGraphic" in2="effect1_dropShadow_732_295" result="shape"/>
</filter>
<filter id="filter1_d_732_295" x="0" y="57" width="290" height="449" filterUnits="userSpaceOnUse" color-interpolation-filters="sRGB">
<feFlood flood-opacity="0" result="BackgroundImageFix"/>
<feColorMatrix in="SourceAlpha" type="matrix" values="0 0 0 0 0 0 0 0 0 0 0 0 0 0 0 0 0 0 127 0" result="hardAlpha"/>
<feOffset dx="4" dy="4"/>
<feGaussianBlur stdDeviation="10"/>
<feColorMatrix type="matrix" values="0 0 0 0 0 0 0 0 0 0 0 0 0 0 0 0 0 0 0.19 0"/>
<feBlend mode="normal" in2="BackgroundImageFix" result="effect1_dropShadow_732_295"/>
<feBlend mode="normal" in="SourceGraphic" in2="effect1_dropShadow_732_295" result="shape"/>
</filter>
</defs>
</svg>
