<svg xmlns="http://www.w3.org/2000/svg" width="159" height="45" viewBox="0 0 159 45" fill="none">
<path d="M46 31.0625V14.2836C46 13.8761 46.3292 13.5469 46.7367 13.5469H56.9017C57.3092 13.5469 57.6384 13.8761 57.6384 14.2836V16.4612C57.6384 16.8687 57.3092 17.1979 56.9017 17.1979H51.1243C50.7169 17.1979 50.3877 17.5271 50.3877 17.9345V20.4549C50.3877 20.8623 50.7169 21.1916 51.1243 21.1916H55.8736C56.2811 21.1916 56.6103 21.5208 56.6103 21.9282V24.1059C56.6103 24.5133 56.2811 24.8426 55.8736 24.8426H51.1243C50.7169 24.8426 50.3877 25.1718 50.3877 25.5792V31.0625C50.3877 31.4699 50.0585 31.7991 49.651 31.7991H46.7394C46.3319 31.7991 46.0027 31.4699 46.0027 31.0625H46Z" fill="white"/>
<path d="M59.7216 31.0638V18.597C59.7216 18.1895 60.0508 17.8603 60.4582 17.8603H62.6278C62.9975 17.8603 63.3105 18.1355 63.3591 18.5025L63.5938 20.2862H63.6667C64.1902 19.3552 64.8054 18.6617 65.5178 18.203C66.2275 17.7469 66.9345 17.5176 67.6361 17.5176C68.0597 17.5176 68.3997 17.5473 68.6534 17.6039C68.6534 17.6039 68.6588 17.6039 68.6615 17.6039C69.042 17.6903 69.2767 18.0735 69.2066 18.4566L68.7586 20.8151C68.6831 21.2171 68.2972 21.4735 67.8951 21.4006C67.8897 21.4006 67.887 21.4006 67.8816 21.4006C67.6523 21.3602 67.3824 21.3386 67.0721 21.3386C66.5648 21.3386 66.0305 21.5275 65.4665 21.9025C64.9322 22.2587 64.4897 22.8578 64.1389 23.6997C64.1011 23.7888 64.0822 23.8886 64.0822 23.9857V31.0638C64.0822 31.4712 63.753 31.8004 63.3456 31.8004H60.4582C60.0508 31.8004 59.7216 31.4712 59.7216 31.0638Z" fill="white"/>
<path d="M73.6401 32.1431C72.7901 32.1431 72.0561 31.9515 71.4354 31.5684C70.8148 31.1852 70.3372 30.6698 70.0026 30.0249C69.668 29.3799 69.5007 28.6729 69.5007 27.9066C69.5007 26.4359 70.1132 25.2891 71.3383 24.4634C72.4339 23.724 74.1258 23.2005 76.4141 22.8875C76.9106 22.82 77.2182 22.2776 76.9834 21.8351C76.9807 21.8297 76.978 21.8243 76.9753 21.8189C76.8296 21.549 76.603 21.344 76.3007 21.2064C75.9985 21.0687 75.6099 20.9986 75.1377 20.9986C74.5818 20.9986 74.0098 21.1038 73.4215 21.317C73.0167 21.4627 72.5877 21.6516 72.129 21.881C71.7674 22.0618 71.3275 21.9295 71.1386 21.5706L70.2994 19.9867C70.1078 19.6278 70.2454 19.1825 70.6043 18.9882C71.0199 18.7643 71.4381 18.5646 71.8645 18.3865C72.5094 18.1166 73.1759 17.9062 73.8613 17.7496C74.5467 17.5958 75.2484 17.5176 75.9688 17.5176C77.1777 17.5176 78.1977 17.7469 79.0316 18.203C79.8654 18.6617 80.5022 19.3579 80.9421 20.297C81.3819 21.236 81.6032 22.4341 81.6032 23.8859V31.0638C81.6032 31.4712 81.274 31.8004 80.8665 31.8004H78.6484C78.3003 31.8004 77.9981 31.5549 77.9279 31.2149L77.7579 30.4026H77.6365C77.0644 30.9099 76.4492 31.3255 75.7853 31.652C75.1215 31.9785 74.4091 32.1431 73.6401 32.1431ZM75.1323 28.762C75.5722 28.762 75.958 28.6648 76.2845 28.4679C76.5301 28.3194 76.773 28.1305 77.0104 27.8985C77.1561 27.7582 77.2398 27.5639 77.2398 27.3615V26.2929C77.2398 25.8315 76.8188 25.4807 76.3682 25.567C75.8663 25.6642 75.4426 25.7802 75.0972 25.9205C74.5656 26.1337 74.1906 26.3793 73.9693 26.6545C73.748 26.9324 73.6374 27.2347 73.6374 27.5612C73.6374 27.9686 73.7723 28.2709 74.0421 28.4679C74.312 28.6648 74.6763 28.762 75.1323 28.762Z" fill="white"/>
<path d="M84.9573 31.0638V18.597C84.9573 18.1895 85.2865 17.8603 85.694 17.8603H87.8932C88.2494 17.8603 88.5544 18.1166 88.6191 18.4674L88.8269 19.6251H88.8998C89.4718 19.053 90.0844 18.5592 90.7374 18.1436C91.3904 17.7281 92.1919 17.5176 93.139 17.5176C94.0862 17.5176 94.8903 17.7146 95.5028 18.1058C95.8914 18.3541 96.226 18.6725 96.5121 19.0665C96.7711 19.4227 97.273 19.4982 97.6022 19.2068C98.0151 18.8371 98.4468 18.5052 98.8948 18.2057C99.5802 17.7496 100.39 17.5203 101.321 17.5203C102.84 17.5203 103.946 18.0276 104.64 19.0395C105.333 20.0514 105.681 21.433 105.681 23.1816V31.0691C105.681 31.4766 105.352 31.8058 104.945 31.8058H102.057C101.65 31.8058 101.321 31.4766 101.321 31.0691V23.7213C101.321 22.758 101.194 22.1049 100.94 21.7622C100.687 21.4195 100.282 21.2468 99.7286 21.2468C99.4183 21.2468 99.0756 21.3494 98.7005 21.5518C98.3983 21.7164 98.0799 21.9511 97.7452 22.2587C97.5914 22.4018 97.4997 22.5987 97.4997 22.8092V31.0691C97.4997 31.4766 97.1705 31.8058 96.763 31.8058H93.8757C93.4682 31.8058 93.139 31.4766 93.139 31.0691V23.7213C93.139 22.758 93.0068 22.1049 92.7477 21.7622C92.486 21.4195 92.0785 21.2468 91.5226 21.2468C91.2123 21.2468 90.8696 21.3494 90.4945 21.5518C90.1923 21.7164 89.8793 21.9511 89.5555 22.2587C89.4071 22.3991 89.318 22.596 89.318 22.8011V31.0691C89.318 31.4766 88.9888 31.8058 88.5813 31.8058H85.694C85.2865 31.8058 84.9573 31.4766 84.9573 31.0691V31.0638Z" fill="white"/>
<path d="M115.415 32.1458C114.076 32.1458 112.87 31.8544 111.801 31.2769C110.73 30.6968 109.883 29.8602 109.254 28.7647C108.625 27.6718 108.31 26.355 108.31 24.8196C108.31 23.6916 108.493 22.6797 108.86 21.7811C109.227 20.8825 109.726 20.1162 110.355 19.4766C110.984 18.8398 111.694 18.3541 112.487 18.0195C113.28 17.6849 114.092 17.5176 114.924 17.5176C116.262 17.5176 117.374 17.8117 118.256 18.4C119.139 18.9882 119.8 19.7897 120.24 20.8016C120.679 21.8135 120.901 22.9576 120.901 24.2313C120.901 24.6226 120.879 24.9923 120.839 25.335C120.833 25.3835 120.828 25.4321 120.82 25.478C120.771 25.845 120.458 26.1202 120.088 26.1202H113.55C112.994 26.1202 112.633 26.7166 112.9 27.2077C112.989 27.375 113.091 27.5261 113.207 27.6637C113.534 28.055 113.933 28.3464 114.408 28.5326C114.883 28.7215 115.412 28.8132 116 28.8132C116.508 28.8132 116.996 28.7404 117.471 28.592C117.754 28.5029 118.046 28.3896 118.34 28.2466C118.688 28.082 119.103 28.2277 119.29 28.5623L120.053 29.9439C120.245 30.2893 120.132 30.7318 119.789 30.9315C119.23 31.258 118.623 31.5225 117.973 31.7249C117.082 32.0028 116.23 32.1404 115.412 32.1404L115.415 32.1458ZM113.458 23.2518H116.37C116.85 23.2518 117.217 22.7957 117.085 22.3343C117.001 22.0375 116.875 21.7703 116.702 21.5356C116.367 21.0795 115.798 20.8501 114.999 20.8501C114.608 20.8501 114.235 20.9365 113.885 21.1065C113.534 21.2792 113.232 21.5383 112.978 21.8917C112.916 21.9781 112.859 22.0671 112.808 22.1643C112.544 22.6554 112.902 23.2518 113.461 23.2518H113.458Z" fill="white"/>
<path d="M124 31.0625V14.2836C124 13.8761 124.329 13.5469 124.737 13.5469H134.902C135.309 13.5469 135.638 13.8761 135.638 14.2836V16.4612C135.638 16.8687 135.309 17.1979 134.902 17.1979H129.124C128.717 17.1979 128.388 17.5271 128.388 17.9345V20.4549C128.388 20.8623 128.717 21.1916 129.124 21.1916H133.874C134.281 21.1916 134.61 21.5208 134.61 21.9282V24.1059C134.61 24.5133 134.281 24.8426 133.874 24.8426H129.124C128.717 24.8426 128.388 25.1718 128.388 25.5792V31.0625C128.388 31.4699 128.058 31.7991 127.651 31.7991H124.739C124.332 31.7991 124.003 31.4699 124.003 31.0625H124Z" fill="white"/>
<path d="M140.636 15.9235C139.902 15.9235 139.314 15.7184 138.871 15.311C138.431 14.9035 138.21 14.3557 138.21 13.6703C138.21 12.9849 138.431 12.4614 138.871 12.0539C139.314 11.6465 139.899 11.4414 140.636 11.4414C141.373 11.4414 141.939 11.6465 142.387 12.0539C142.835 12.4614 143.062 13.0011 143.062 13.6703C143.062 14.3395 142.838 14.9035 142.387 15.311C141.937 15.7184 141.354 15.9235 140.636 15.9235ZM138.456 31.0645V18.5977C138.456 18.1902 138.785 17.861 139.192 17.861H142.08C142.487 17.861 142.816 18.1902 142.816 18.5977V31.0645C142.816 31.4719 142.487 31.8011 142.08 31.8011H139.192C138.785 31.8011 138.456 31.4719 138.456 31.0645Z" fill="white"/>
<path d="M145.604 30.6885L148.993 24.9246C149.131 24.6926 149.128 24.4038 148.99 24.1718L145.868 18.9746C145.574 18.4835 145.927 17.8574 146.5 17.8574H149.438C149.708 17.8574 149.959 18.0058 150.086 18.2433L151.017 19.9649C151.025 19.9811 151.033 19.9946 151.038 20.0108C151.214 20.4101 151.4 20.8068 151.592 21.2008C151.788 21.6002 151.983 21.9968 152.18 22.3881H152.301C152.431 21.9968 152.579 21.6002 152.741 21.2008C152.903 20.8014 153.059 20.3967 153.208 19.9892L153.88 18.3189C153.993 18.0409 154.263 17.8574 154.562 17.8574H157.315C157.879 17.8574 158.232 18.4646 157.957 18.9557L154.768 24.6548C154.635 24.8896 154.643 25.1783 154.786 25.4077L158.103 30.6696C158.413 31.1607 158.06 31.8003 157.48 31.8003H154.562C154.298 31.8003 154.055 31.6599 153.923 31.4306L152.862 29.5929C152.649 29.2017 152.442 28.7996 152.236 28.3921C152.031 27.9847 151.815 27.5907 151.586 27.2156H151.465C151.3 27.5907 151.133 27.9793 150.963 28.3786C150.79 28.778 150.615 29.1828 150.437 29.5929L149.673 31.355C149.557 31.6249 149.29 31.8003 148.996 31.8003H146.235C145.666 31.8003 145.31 31.1796 145.598 30.6885H145.604Z" fill="white"/>
<path d="M25.77 31.0978H19.3936C19.2614 31.0978 19.1373 31.149 19.0428 31.2435L12.0835 38.2028C11.7705 38.5158 11.9918 39.0501 12.4343 39.0501H35.3198C35.5923 39.0501 35.8163 38.8288 35.8163 38.5536V0.497433C35.8163 0.0548885 35.282 -0.16638 34.969 0.146639L26.4096 8.70609C26.3178 8.79784 26.2638 8.92467 26.2638 9.05689L26.2746 15.2498C26.2746 15.5224 26.0534 15.7463 25.7781 15.7463H22.1568C22.0246 15.7463 21.9005 15.7976 21.806 15.892L14.8467 22.8513C14.5337 23.1643 14.755 23.6986 15.1975 23.6986H25.7781C26.0507 23.6986 26.2746 23.9199 26.2746 24.1951L26.2638 30.6093C26.2638 30.8819 26.0426 31.1059 25.7673 31.1059L25.77 31.0978Z" fill="white"/>
<path d="M10.0463 13.3996H16.4227C16.5549 13.3996 16.6791 13.3483 16.7735 13.2539L23.7328 6.29457C24.0458 5.98155 23.8245 5.44727 23.382 5.44727H0.496513C0.223971 5.44727 0 5.66854 0 5.94378V43.9999C0 44.4424 0.534291 44.6637 0.84731 44.3507L9.40677 35.7912C9.49851 35.6995 9.55248 35.5727 9.55248 35.4404L9.54169 29.2475C9.54169 28.975 9.76296 28.751 10.0382 28.751H13.6595C13.7917 28.751 13.9159 28.6997 14.0103 28.6053L20.9696 21.646C21.2826 21.333 21.0613 20.7987 20.6188 20.7987H10.0382C9.76566 20.7987 9.54169 20.5774 9.54169 20.3022L9.55248 13.888C9.55248 13.6154 9.77375 13.3915 10.049 13.3915L10.0463 13.3996Z" fill="white"/>
</svg>