<svg xmlns="http://www.w3.org/2000/svg" width="156px"  version="1.1" viewBox="0 0 840 166">
    <path fill="#FFFFFF" opacity="1.000000" stroke="none" d=" M101.466858,167.000000   C101.000000,133.205307 100.826462,99.409302 101.082573,65.616547   C101.189995,51.443810 106.376076,38.961784 115.457420,27.965055   C126.220161,14.932303 140.326630,8.487897 156.620514,6.018680   C162.577042,5.116011 162.999695,5.537145 162.999786,11.603934   C163.000244,42.235577 162.964569,72.867271 163.013107,103.498840   C163.042877,122.288597 156.746307,138.460251 143.016632,151.404510   C135.892426,158.121170 127.543800,162.906967 117.850838,165.081619   C117.303848,165.204346 116.885956,165.902527 116.703987,166.666443   C111.977905,167.000000 106.955818,167.000000 101.466858,167.000000  z"/>
    <path fill="#FFFFFF" opacity="1.000000" stroke="none" d=" M1.000000,61.468658   C25.817303,61.844357 46.798973,71.097519 62.683929,90.354385   C71.940781,101.576210 77.297409,114.688011 79.119301,129.352982   C80.641846,141.608490 79.496552,153.835678 80.000000,166.531342   C74.311958,167.000000 68.623917,167.000000 62.467941,167.000000   C53.627563,164.424500 45.278431,161.810318 37.803482,157.035828   C18.032740,144.407547 5.871828,126.627907 1.244247,103.279282   C1.000000,89.312439 1.000000,75.624878 1.000000,61.468658  z"/>
    <path fill="#FFFFFF" opacity="1.000000" stroke="none" d=" M67.531464,1.000000   C66.909920,3.706132 69.722305,3.381473 70.654701,3.852766   C85.877518,11.547329 89.615868,31.455217 80.637207,44.519417   C67.893501,63.061859 42.372524,59.261837 32.764675,42.642921   C24.429886,28.226048 31.284090,8.508348 46.646530,2.764537   C47.045517,2.615360 47.275372,2.013808 47.292049,1.311612   C53.687645,1.000000 60.375290,1.000000 67.531464,1.000000  z"/>
    <path fill="#FFFFFF" opacity="1.000000" stroke="none" d=" M743.000000,123.562500   C738.040955,124.653885 733.143066,126.027451 728.099609,124.089523   C723.710754,122.403137 721.646240,118.901871 720.025940,114.918884   C718.864380,112.063759 718.505859,107.508514 715.430420,107.392044   C712.731506,107.289825 712.082581,111.832344 710.940308,114.519173   C709.342468,118.277870 707.804688,121.843895 703.739258,123.808258   C699.899292,125.663704 695.871216,125.346565 692.100647,124.790260   C688.754883,124.296623 687.997070,120.912781 689.482483,118.115044   C693.246094,111.026314 697.072998,103.927002 701.537598,97.277107   C703.243835,94.735832 702.792175,93.197594 701.633240,91.185661   C697.944153,84.781731 694.125671,78.450890 690.522766,71.999298   C687.864136,67.238388 689.206482,65.233940 694.601318,64.970932   C706.742859,64.378990 707.942261,65.993004 713.980225,79.254173   C714.553528,80.513252 715.012329,81.824463 715.821716,83.859085   C718.413086,78.581848 720.515991,73.995705 722.885071,69.551430   C725.862244,63.966587 738.283569,62.785328 742.642029,67.297386   C743.000000,68.066673 743.000000,69.133339 743.000000,70.600006   C739.292297,77.267059 735.689758,83.597343 731.918884,89.825134   C730.214417,92.640099 729.826965,95.048538 731.728516,98.052834   C735.536133,104.068733 738.776978,110.433014 742.753784,116.752655   C743.000000,119.041664 743.000000,121.083336 743.000000,123.562500  z"/>
    <path fill="#FFFFFF" opacity="1.000000" stroke="none" d=" M436.015076,124.484169   C433.739532,124.862213 431.744141,125.046616 429.757690,124.976944   C424.934326,124.807793 422.009308,121.739166 422.004822,116.921265   C421.991333,102.430489 422.057251,87.939293 421.958679,73.449173   C421.934784,69.935570 422.456268,66.680313 425.864197,65.157669   C429.585236,63.495152 437.296234,65.186333 438.907654,68.018272   C440.544037,70.894073 441.583588,69.826637 443.311584,68.256653   C449.000305,63.087963 460.146149,62.485802 464.739044,65.939133   C465.249969,66.323273 466.115356,66.464500 466.354248,66.947113   C469.251770,72.800606 472.004608,69.821098 475.412140,67.241898   C481.346924,62.749729 488.256744,62.993706 494.956299,65.053947   C502.907837,67.499222 504.649536,74.442284 504.893036,81.495003   C505.289307,92.974022 505.001617,104.476707 504.999359,115.969406   C504.998199,121.925003 502.290619,124.716766 496.698029,125.036781   C490.217224,125.407623 486.391632,123.939217 486.097443,116.224533   C485.704193,105.912750 485.892792,95.573006 486.056000,85.248810   C486.116150,81.443184 485.032898,78.593773 481.079803,78.082787   C477.138824,77.573372 473.086731,81.378616 473.039276,85.462097   C472.921143,95.620934 473.001678,105.782066 472.999420,115.942276   C472.998077,121.904381 470.292725,124.716682 464.725098,125.035538   C458.167358,125.411095 454.395813,123.899551 454.099365,116.251526   C453.699707,105.940239 453.942535,95.601341 454.030457,85.275314   C454.062286,81.534386 453.562958,78.257355 448.962769,78.047958   C444.847076,77.860619 441.076172,81.449028 441.034485,85.589775   C440.930664,95.915504 440.862640,106.245750 441.071350,116.568306   C441.148895,120.401573 439.825745,122.851059 436.015076,124.484169  z"/>
    <path fill="#FFFFFF" opacity="1.000000" stroke="none" d=" M634.849487,85.427574   C632.903992,89.628403 629.968750,91.221680 625.684753,91.059456   C619.533264,90.826515 613.361328,91.144600 607.208191,90.933792   C604.492493,90.840759 603.895325,91.770531 603.945374,94.301498   C604.096741,101.957329 604.028687,109.618225 603.990540,117.276863   C603.962585,122.884727 601.910400,124.988052 596.343384,124.969971   C593.433350,124.960526 590.381226,125.653008 587.691223,123.892769   C585.186707,122.253914 583.971985,119.966438 583.977539,116.895889   C584.018799,93.919464 583.972900,70.942879 584.024292,47.966499   C584.033813,43.707573 586.684570,41.047417 590.913696,41.025295   C604.066528,40.956490 617.220642,40.926971 630.372925,41.038723   C635.202148,41.079754 637.045959,43.577579 637.000000,49.252571   C636.957458,54.506729 635.056335,56.883045 630.366943,56.964764   C622.876892,57.095295 615.380066,57.118092 607.892029,56.939484   C605.057678,56.871876 603.632263,57.257710 603.924622,60.621204   C604.324646,65.224075 602.455566,71.329659 604.774353,74.100792   C607.194397,76.993004 613.499329,74.761436 618.099304,74.980644   C620.424988,75.091461 622.760254,74.997917 625.091187,75.000381   C632.538025,75.008255 634.990784,77.498634 634.849487,85.427574  z"/>
    <path fill="#FFFFFF" opacity="1.000000" stroke="none" d=" M268.022461,91.000000   C258.000000,91.000000 258.000000,91.000000 258.000000,100.481827   C258.000000,105.814651 258.045929,111.147964 257.988037,116.480164   C257.920166,122.732590 254.886612,124.922951 247.056793,125.047386   C241.587189,125.134315 237.740585,122.089111 237.837738,116.551216   C238.229355,94.226898 237.995270,71.891693 238.002823,49.560509   C238.005173,42.582848 239.630737,41.000320 246.713684,41.000103   C258.879181,40.999733 271.044708,40.984886 283.210175,41.007645   C287.900299,41.016422 291.022400,44.283112 290.999878,49.052414   C290.977356,53.819546 287.864929,56.978260 283.105316,56.994022   C276.106079,57.017204 269.102356,57.143887 262.109344,56.933834   C259.029938,56.841331 257.547546,57.423347 257.944061,60.910645   C258.464020,65.484016 256.034668,71.629303 258.920715,74.265030   C261.404205,76.533104 267.445374,74.928284 271.914124,74.991936   C274.913239,75.034660 277.983124,74.600868 280.894409,75.108406   C284.093353,75.666061 287.310577,76.314171 287.123657,81.265633   C286.762482,90.833405 286.903809,90.999435 277.015137,90.999969   C274.182129,91.000130 271.349091,91.000000 268.022461,91.000000  z"/>
    <path fill="#FFFFFF" opacity="1.000000" stroke="none" d=" M376.506531,86.210327   C379.924469,86.017960 382.927612,85.876221 385.915039,86.033447   C389.664001,86.230743 389.199463,84.492851 388.430115,81.827240   C387.228363,77.663483 381.073120,75.975639 375.736725,77.236000   C371.354004,78.271118 366.822876,78.166130 362.465973,79.679443   C360.444702,80.381493 357.528107,78.465561 357.108459,75.762001   C356.514618,71.935867 356.915253,68.166847 360.990662,66.013687   C363.516571,64.679184 366.395660,64.695656 369.012054,64.585999   C379.664764,64.139549 390.579651,61.687462 400.568420,68.026390   C406.105469,71.540222 407.825531,76.885094 407.937988,82.836143   C408.151855,94.151398 407.795715,105.479218 408.108398,116.789871   C408.221100,120.867554 406.540649,123.855705 403.258301,124.670158   C399.258972,125.662529 394.169006,126.256073 391.614258,121.848122   C389.457001,118.126015 388.549072,119.519989 385.988739,121.328476   C377.234436,127.512054 365.812439,128.050491 358.404785,120.856712   C349.535583,112.243576 351.343262,93.237045 365.859558,88.862785   C369.253693,87.840012 372.712219,87.350380 376.506531,86.210327  z"/>
    <path fill="#FFFFFF" opacity="1.000000" stroke="none" d=" M572.000000,89.131401   C572.891052,98.564133 570.761353,100.489220 560.562073,100.922768   C551.796143,101.295387 543.001831,101.000000 534.115234,101.000000   C536.642090,110.063286 539.085571,112.061241 547.720215,111.964523   C551.640564,111.920616 555.526306,112.218422 559.497375,111.170403   C562.706299,110.323540 566.579407,110.399796 567.937195,114.785942   C568.979065,118.151695 565.621033,124.075699 561.652405,124.695183   C550.990662,126.359428 540.278687,127.329063 529.983765,122.529587   C521.085388,118.381172 516.197693,110.976341 515.217346,101.743576   C514.170654,91.886353 514.433655,81.949341 520.867126,73.171135   C524.527283,68.176926 529.518921,66.265152 534.908142,64.575066   C546.257996,61.015690 560.084656,64.721550 566.800659,73.382324   C570.237305,77.814133 571.574158,83.132896 572.000000,89.131401  z"/>
    <path fill="#FFFFFF" opacity="1.000000" stroke="none" d=" M318.588623,66.101433   C322.035889,68.069191 320.560974,71.376175 321.326874,74.604469   C326.199646,70.539536 330.635010,67.062737 336.523132,65.708832   C339.950348,64.920776 343.372009,64.254219 345.649353,66.597000   C347.198669,68.190826 349.004730,70.872528 347.527100,74.128639   C345.798126,77.938583 343.131104,79.745636 339.098389,80.011726   C330.238007,80.596336 321.471649,88.475441 321.944336,98.207802   C322.242615,104.348419 322.057709,110.516006 321.983673,116.670219   C321.910126,122.783493 318.786957,125.081833 310.895264,125.000000   C304.929169,124.938126 302.005920,122.183937 302.002747,116.578743   C301.994568,102.105927 301.988068,87.633102 302.005493,73.160309   C302.013153,66.815598 303.839020,64.885643 310.088226,65.055115   C312.809082,65.128914 315.683044,64.134872 318.588623,66.101433  z"/>
    <path fill="#FFFFFF" opacity="1.000000" stroke="none" d=" M674.000000,74.327080   C674.000000,88.117065 674.024048,101.442764 673.984680,114.768272   C673.973450,118.570122 673.865906,122.507500 669.450134,124.103615   C665.008972,125.708900 660.361206,125.891876 656.216980,123.548187   C653.516907,122.021172 652.989624,118.857750 652.993103,115.795280   C653.008789,101.969955 652.858154,88.142471 653.067139,74.320290   C653.155640,68.467934 655.451904,64.384842 662.538269,64.859421   C671.290222,65.445549 673.636353,66.787766 674.000000,74.327080  z"/>
    <path fill="#FFFFFF" opacity="1.000000" stroke="none" d=" M672.981689,42.176517   C675.524963,49.515362 672.364563,53.918674 664.957642,54.026611   C659.997620,54.098892 655.021729,54.775803 653.449524,48.059830   C652.359863,43.405350 655.037964,38.780281 659.734131,39.133541   C664.179565,39.467941 669.445923,36.572777 672.981689,42.176517  z"/>
    <path fill="#000000" opacity="1.000000" stroke="none" d=" M375.520782,111.824219   C371.551117,110.248466 370.110809,107.523209 371.093292,103.905327   C372.152679,100.004074 375.552795,98.707916 379.091461,98.056946   C380.849487,97.733551 382.716125,97.994537 384.533569,98.001106   C389.439270,98.018845 390.085022,99.327087 388.364288,104.195992   C386.228729,110.238464 381.584930,111.835899 375.520782,111.824219  z"/>
    <path fill="#000000" opacity="1.000000" stroke="none" d=" M537.277954,88.999939   C535.669922,88.807373 533.720581,89.622856 534.054199,87.372238   C534.576660,83.847115 535.236084,80.136627 538.653687,78.181152   C542.113770,76.201324 545.954285,76.253304 549.398682,78.209625   C552.584290,80.018959 553.903748,83.107887 554.050171,86.816521   C554.143555,89.184471 552.790833,89.019714 551.237915,89.009918   C546.740906,88.981529 542.243530,88.999947 537.277954,88.999939  z"/>
</svg>