<svg width="16" height="15" viewBox="0 0 16 15" fill="none" xmlns="http://www.w3.org/2000/svg">
<path d="M10.4342 3.79773C10.6227 3.39207 11.2114 3.39207 11.3999 3.79773L12.6581 6.50644C12.7112 6.62066 12.8047 6.71221 12.9215 6.76414L15.6891 7.99561C16.1036 8.18003 16.1036 8.75624 15.6891 8.94067L12.9215 10.1721C12.8047 10.2241 12.7112 10.3156 12.6581 10.4298L11.3999 13.1385C11.2114 13.5442 10.6227 13.5442 10.4342 13.1385L9.17595 10.4298C9.12289 10.3156 9.02935 10.2241 8.91263 10.1721L6.14495 8.94067C5.73046 8.75624 5.73046 8.18003 6.14495 7.99561L8.91263 6.76414C9.02935 6.71221 9.12289 6.62066 9.17595 6.50644L10.4342 3.79773Z" fill="white"/>
<path d="M3.26479 0.325817C3.44285 -0.108605 4.07121 -0.108606 4.24927 0.325816L4.92666 1.97845C4.97412 2.09426 5.06263 2.18947 5.17597 2.24662L6.81979 3.07555C7.20305 3.26882 7.20305 3.80512 6.81979 3.99839L5.17597 4.82732C5.06263 4.88447 4.97412 4.97968 4.92666 5.09549L4.24927 6.74812C4.07121 7.18254 3.44285 7.18255 3.26479 6.74812L2.58741 5.09549C2.53994 4.97968 2.45143 4.88447 2.33809 4.82732L0.694272 3.99839C0.311009 3.80512 0.311009 3.26882 0.694273 3.07555L2.33809 2.24662C2.45143 2.18947 2.53994 2.09426 2.58741 1.97845L3.26479 0.325817Z" fill="white"/>
<path d="M1.94829 10.5456C2.13673 10.14 2.72548 10.14 2.91392 10.5456L3.34338 11.4702C3.39644 11.5844 3.48998 11.6759 3.6067 11.7279L4.55134 12.1482C4.96583 12.3326 4.96583 12.9088 4.55134 13.0932L3.6067 13.5135C3.48998 13.5655 3.39644 13.657 3.34338 13.7712L2.91392 14.6958C2.72548 15.1014 2.13673 15.1014 1.94829 14.6958L1.51882 13.7712C1.46576 13.657 1.37222 13.5655 1.25551 13.5135L0.310867 13.0932C-0.103623 12.9088 -0.103622 12.3326 0.310867 12.1482L1.25551 11.7279C1.37222 11.6759 1.46576 11.5844 1.51882 11.4702L1.94829 10.5456Z" fill="white"/>
</svg>
