<svg width="13" height="13" viewBox="0 0 12 12" fill="none" xmlns="http://www.w3.org/2000/svg">
<path opacity="0.5" d="M1.60015 0.000150037C1.46368 0.000150037 1.32707 0.0521333 1.22307 0.1564L0.1564 1.22307C-0.0521333 1.4316 -0.0521333 1.76923 0.1564 1.97723L4.04598 5.86682L0.1564 9.7564C-0.0521333 9.96493 -0.0521333 10.3026 0.1564 10.5106L1.22307 11.5772C1.4316 11.7858 1.76923 11.7858 1.97723 11.5772L5.86682 7.68765L9.7564 11.5772C9.9644 11.7858 10.3026 11.7858 10.5106 11.5772L11.5772 10.5106C11.7858 10.302 11.7858 9.9644 11.5772 9.7564L7.68765 5.86682L11.5772 1.97723C11.7858 1.76923 11.7858 1.43107 11.5772 1.22307L10.5106 0.1564C10.302 -0.0521333 9.9644 -0.0521333 9.7564 0.1564L5.86682 4.04598L1.97723 0.1564C1.87297 0.0521333 1.73662 0.000150037 1.60015 0.000150037Z" fill="white"/>
</svg>
