<svg width="15" height="15" viewBox="0 0 11 11" fill="none" xmlns="http://www.w3.org/2000/svg">
<path d="M1.5001 0.000140656C1.37217 0.000140656 1.24409 0.0488737 1.1466 0.146621L0.146621 1.1466C-0.0488738 1.34209 -0.0488738 1.65861 0.146621 1.85361L3.79301 5.5L0.146621 9.14639C-0.0488738 9.34189 -0.0488738 9.65841 0.146621 9.8534L1.1466 10.8534C1.34209 11.0489 1.65861 11.0489 1.85361 10.8534L5.5 7.20699L9.14639 10.8534C9.34139 11.0489 9.65841 11.0489 9.8534 10.8534L10.8534 9.8534C11.0489 9.65791 11.0489 9.34139 10.8534 9.14639L7.20699 5.5L10.8534 1.85361C11.0489 1.65861 11.0489 1.34159 10.8534 1.1466L9.8534 0.146621C9.65791 -0.0488738 9.34139 -0.0488738 9.14639 0.146621L5.5 3.79301L1.85361 0.146621C1.75586 0.0488737 1.62804 0.000140656 1.5001 0.000140656Z" fill="white"/>
</svg>
