<svg width="76" height="12" viewBox="0 0 76 12" fill="none" xmlns="http://www.w3.org/2000/svg">
<path d="M5.776 1.27V2.572H1.646V5.442H4.866V6.744H1.646V11H0.05V1.27H5.776ZM8.85108 4.406C9.08441 4.014 9.39241 3.71067 9.77508 3.496C10.1671 3.272 10.6291 3.16 11.1611 3.16V4.812H10.7551C10.1297 4.812 9.65374 4.97067 9.32708 5.288C9.00974 5.60533 8.85108 6.156 8.85108 6.94V11H7.25508V3.286H8.85108V4.406ZM12.0961 7.108C12.0961 6.33333 12.2548 5.64733 12.5721 5.05C12.8988 4.45267 13.3375 3.99067 13.8881 3.664C14.4481 3.328 15.0641 3.16 15.7361 3.16C16.3428 3.16 16.8701 3.28133 17.3181 3.524C17.7755 3.75733 18.1395 4.05133 18.4101 4.406V3.286H20.0201V11H18.4101V9.852C18.1395 10.216 17.7708 10.5193 17.3041 10.762C16.8375 11.0047 16.3055 11.126 15.7081 11.126C15.0455 11.126 14.4388 10.958 13.8881 10.622C13.3375 10.2767 12.8988 9.80067 12.5721 9.194C12.2548 8.578 12.0961 7.88267 12.0961 7.108ZM18.4101 7.136C18.4101 6.604 18.2981 6.142 18.0741 5.75C17.8595 5.358 17.5748 5.05933 17.2201 4.854C16.8655 4.64867 16.4828 4.546 16.0721 4.546C15.6615 4.546 15.2788 4.64867 14.9241 4.854C14.5695 5.05 14.2801 5.344 14.0561 5.736C13.8415 6.11867 13.7341 6.576 13.7341 7.108C13.7341 7.64 13.8415 8.10667 14.0561 8.508C14.2801 8.90933 14.5695 9.21733 14.9241 9.432C15.2881 9.63733 15.6708 9.74 16.0721 9.74C16.4828 9.74 16.8655 9.63733 17.2201 9.432C17.5748 9.22667 17.8595 8.928 18.0741 8.536C18.2981 8.13467 18.4101 7.668 18.4101 7.136ZM31.4544 3.16C32.0611 3.16 32.6024 3.286 33.0784 3.538C33.5637 3.79 33.9417 4.16333 34.2124 4.658C34.4924 5.15267 34.6324 5.75 34.6324 6.45V11H33.0504V6.688C33.0504 5.99733 32.8777 5.47 32.5324 5.106C32.1871 4.73267 31.7157 4.546 31.1184 4.546C30.5211 4.546 30.0451 4.73267 29.6904 5.106C29.3451 5.47 29.1724 5.99733 29.1724 6.688V11H27.5904V6.688C27.5904 5.99733 27.4177 5.47 27.0724 5.106C26.7271 4.73267 26.2557 4.546 25.6584 4.546C25.0611 4.546 24.5851 4.73267 24.2304 5.106C23.8851 5.47 23.7124 5.99733 23.7124 6.688V11H22.1164V3.286H23.7124V4.168C23.9737 3.85067 24.3051 3.60333 24.7064 3.426C25.1077 3.24867 25.5371 3.16 25.9944 3.16C26.6104 3.16 27.1611 3.29067 27.6464 3.552C28.1317 3.81333 28.5051 4.19133 28.7664 4.686C28.9997 4.21933 29.3637 3.85067 29.8584 3.58C30.3531 3.3 30.8851 3.16 31.4544 3.16ZM43.7333 6.954C43.7333 7.24333 43.7146 7.50467 43.6773 7.738H37.7833C37.8299 8.354 38.0586 8.84867 38.4693 9.222C38.8799 9.59533 39.3839 9.782 39.9813 9.782C40.8399 9.782 41.4466 9.42267 41.8013 8.704H43.5233C43.2899 9.41333 42.8653 9.99667 42.2493 10.454C41.6426 10.902 40.8866 11.126 39.9813 11.126C39.2439 11.126 38.5813 10.9627 37.9933 10.636C37.4146 10.3 36.9573 9.83333 36.6213 9.236C36.2946 8.62933 36.1313 7.92933 36.1313 7.136C36.1313 6.34267 36.2899 5.64733 36.6073 5.05C36.9339 4.44333 37.3866 3.97667 37.9653 3.65C38.5533 3.32333 39.2253 3.16 39.9813 3.16C40.7093 3.16 41.3579 3.31867 41.9273 3.636C42.4966 3.95333 42.9399 4.40133 43.2573 4.98C43.5746 5.54933 43.7333 6.20733 43.7333 6.954ZM42.0673 6.45C42.0579 5.862 41.8479 5.39067 41.4373 5.036C41.0266 4.68133 40.5179 4.504 39.9113 4.504C39.3606 4.504 38.8893 4.68133 38.4973 5.036C38.1053 5.38133 37.8719 5.85267 37.7973 6.45H42.0673ZM48.5379 4.588H47.1099V11H45.4999V4.588H44.5899V3.286H45.4999V2.74C45.4999 1.85333 45.7332 1.20933 46.1999 0.807999C46.6759 0.397333 47.4179 0.192 48.4259 0.192V1.522C47.9406 1.522 47.5999 1.61533 47.4039 1.802C47.2079 1.97933 47.1099 2.292 47.1099 2.74V3.286H48.5379V4.588ZM50.7643 2.264C50.475 2.264 50.2323 2.166 50.0363 1.97C49.8403 1.774 49.7423 1.53133 49.7423 1.242C49.7423 0.952666 49.8403 0.71 50.0363 0.514C50.2323 0.318 50.475 0.219999 50.7643 0.219999C51.0443 0.219999 51.2823 0.318 51.4783 0.514C51.6743 0.71 51.7723 0.952666 51.7723 1.242C51.7723 1.53133 51.6743 1.774 51.4783 1.97C51.2823 2.166 51.0443 2.264 50.7643 2.264ZM51.5483 3.286V11H49.9523V3.286H51.5483ZM56.9478 7.094L59.4398 11H57.6338L55.9678 8.382L54.3998 11H52.7338L55.2258 7.206L52.7338 3.286H54.5398L56.2058 5.904L57.7738 3.286H59.4398L56.9478 7.094ZM70.1328 9.012H66.0588L65.3588 11H63.6928L67.1788 1.256H69.0268L72.5128 11H70.8328L70.1328 9.012ZM69.6848 7.71L68.1028 3.188L66.5068 7.71H69.6848ZM75.6245 1.27V11H74.0285V1.27H75.6245Z" fill="url(#paint0_linear_3567_24)"/>
<defs>
<linearGradient id="paint0_linear_3567_24" x1="-1" y1="6" x2="77" y2="6" gradientUnits="userSpaceOnUse">
<stop stop-color="#00B3FF"/>
<stop offset="1" stop-color="#C92FFF"/>
</linearGradient>
</defs>
</svg>
