<svg width="25" height="25" viewBox="0 0 25 25" fill="none" xmlns="http://www.w3.org/2000/svg">
<circle opacity="0.1" cx="12.5" cy="12.5" r="10.5" fill="white"/>
<circle opacity="0.6" cx="12.5" cy="12.5" r="12.25" stroke="white" stroke-width="0.5"/>
<g opacity="0.8">
<path d="M14.5214 10.2786C14.6392 10.0352 15.0071 10.0352 15.1249 10.2786L15.9113 11.9039C15.9445 11.9724 16.003 12.0273 16.0759 12.0585L17.8057 12.7974C18.0648 12.908 18.0648 13.2537 17.8057 13.3644L16.0759 14.1033C16.003 14.1344 15.9445 14.1894 15.9113 14.2579L15.1249 15.8831C15.0071 16.1265 14.6392 16.1265 14.5214 15.8831L13.735 14.2579C13.7018 14.1894 13.6433 14.1344 13.5704 14.1033L11.8406 13.3644C11.5815 13.2537 11.5815 12.908 11.8406 12.7974L13.5704 12.0585C13.6433 12.0273 13.7018 11.9724 13.735 11.9039L14.5214 10.2786Z" fill="white"/>
<path d="M10.0405 8.19549C10.1518 7.93484 10.5445 7.93484 10.6558 8.19549L11.0792 9.18707C11.1088 9.25656 11.1641 9.31368 11.235 9.34797L12.2624 9.84533C12.5019 9.96129 12.5019 10.2831 12.2624 10.399L11.235 10.8964C11.1641 10.9307 11.1088 10.9878 11.0792 11.0573L10.6558 12.0489C10.5445 12.3095 10.1518 12.3095 10.0405 12.0489L9.61713 11.0573C9.58746 10.9878 9.53214 10.9307 9.4613 10.8964L8.43392 10.399C8.19438 10.2831 8.19438 9.96129 8.43392 9.84533L9.4613 9.34797C9.53214 9.31368 9.58746 9.25656 9.61713 9.18707L10.0405 8.19549Z" fill="white"/>
<path d="M9.21768 14.3274C9.33545 14.084 9.70342 14.084 9.8212 14.3274L10.0896 14.8821C10.1228 14.9506 10.1812 15.0056 10.2542 15.0367L10.8446 15.2889C11.1036 15.3996 11.1036 15.7453 10.8446 15.8559L10.2542 16.1081C10.1812 16.1393 10.1228 16.1942 10.0896 16.2627L9.8212 16.8175C9.70342 17.0608 9.33545 17.0608 9.21768 16.8175L8.94926 16.2627C8.9161 16.1942 8.85764 16.1393 8.78469 16.1081L8.19429 15.8559C7.93524 15.7453 7.93524 15.3996 8.19429 15.2889L8.78469 15.0367C8.85764 15.0056 8.9161 14.9506 8.94926 14.8821L9.21768 14.3274Z" fill="white"/>
</g>
</svg>
