<svg width="15" height="13" viewBox="0 0 15 13" fill="none" xmlns="http://www.w3.org/2000/svg">
<path d="M0 1.85714C0 0.832812 0.84082 0 1.875 0H13.125C14.1592 0 15 0.832812 15 1.85714V11.1429C15 12.1672 14.1592 13 13.125 13H1.875C0.84082 13 0 12.1672 0 11.1429V1.85714ZM9.48633 4.94754C9.35449 4.75603 9.1377 4.64286 8.90625 4.64286C8.6748 4.64286 8.45508 4.75603 8.32617 4.94754L5.77734 8.65022L5.00098 7.68973C4.86621 7.52433 4.66406 7.42857 4.45312 7.42857C4.24219 7.42857 4.03711 7.52433 3.90527 7.68973L2.03027 10.0112C1.86035 10.2201 1.82812 10.5074 1.94531 10.7482C2.0625 10.9891 2.30859 11.1429 2.57812 11.1429H5.39062H6.32812H12.4219C12.6826 11.1429 12.9229 11.0007 13.043 10.7714C13.1631 10.5422 13.1484 10.2665 13.002 10.0547L9.48633 4.94754ZM3.28125 4.64286C3.65421 4.64286 4.0119 4.49611 4.27562 4.2349C4.53934 3.97369 4.6875 3.61941 4.6875 3.25C4.6875 2.88059 4.53934 2.52631 4.27562 2.2651C4.0119 2.00389 3.65421 1.85714 3.28125 1.85714C2.90829 1.85714 2.5506 2.00389 2.28688 2.2651C2.02316 2.52631 1.875 2.88059 1.875 3.25C1.875 3.61941 2.02316 3.97369 2.28688 4.2349C2.5506 4.49611 2.90829 4.64286 3.28125 4.64286Z" fill="white"/>
</svg>
