<svg width="18" height="18" viewBox="0 0 12 12" fill="none" xmlns="http://www.w3.org/2000/svg">
<g clip-path="url(#clip0_2086_7)">
<path d="M10.8629 5.2509H11.0621C11.3738 5.2509 11.6246 5.00012 11.6246 4.6884V1.6884C11.6246 1.46106 11.4887 1.25481 11.2777 1.16809C11.0668 1.08137 10.8254 1.12824 10.6637 1.28996L9.68867 2.26496C7.63555 0.237619 4.32852 0.24465 2.28711 2.2884C0.236328 4.33918 0.236328 7.66262 2.28711 9.7134C4.33789 11.7642 7.66133 11.7642 9.71211 9.7134C10.0051 9.42043 10.0051 8.94465 9.71211 8.65168C9.41914 8.35871 8.94336 8.35871 8.65039 8.65168C7.18555 10.1165 4.81133 10.1165 3.34648 8.65168C1.88164 7.18684 1.88164 4.81262 3.34648 3.34778C4.8043 1.88996 7.15977 1.88293 8.62695 3.32434L7.66367 4.28996C7.50195 4.45168 7.45508 4.69309 7.5418 4.90403C7.62852 5.11496 7.83477 5.2509 8.06211 5.2509H10.8629Z" fill="white"/>
</g>
<defs>
<clipPath id="clip0_2086_7">
<rect width="18" height="18" fill="white"/>
</clipPath>
</defs>
</svg>
