<svg width="20" height="20" viewBox="0 0 20 20" fill="none" xmlns="http://www.w3.org/2000/svg">
<g clip-path="url(#clip0_1373_131)">
<path d="M11.7859 2.14631L10.9716 2.14258L3.57135 2.14331C2.38797 2.14343 1.42871 3.10279 1.42871 4.28617V16.4292C1.42871 17.6127 2.3881 18.5721 3.57157 18.5721H15.7144C16.8979 18.5721 17.8573 17.6127 17.8573 16.4292V7.85965" stroke="white" stroke-width="2" stroke-linecap="round"/>
<path d="M9.6539 10.2138C9.16875 9.72864 9.16875 8.94207 9.6539 8.45693L17.747 0.363853C18.2321 -0.121285 19.0187 -0.121284 19.5038 0.363855C19.989 0.848993 19.989 1.63556 19.5038 2.1207L11.4108 10.2138C10.9256 10.6989 10.139 10.6989 9.6539 10.2138Z" fill="white"/>
<path d="M8.57129 11.3174C8.76843 9.95303 8.989 9.3116 9.64272 8.45996L11.4109 10.2134C10.5428 10.8516 9.92586 11.1321 8.57129 11.3174Z" fill="white"/>
</g>
<defs>
<clipPath id="clip0_1373_131">
<rect width="20" height="20" fill="white"/>
</clipPath>
</defs>
</svg>
