<svg width="14" height="14" viewBox="0 0 14 14" fill="none" xmlns="http://www.w3.org/2000/svg">
<path d="M0 2.625C0 1.65977 0.784766 0.875 1.75 0.875H5.36211C5.88438 0.875 6.38477 1.08281 6.75391 1.45195L7.92695 2.625H12.25C13.2152 2.625 14 3.40977 14 4.375V11.375C14 12.3402 13.2152 13.125 12.25 13.125H1.75C0.784766 13.125 0 12.3402 0 11.375V2.625ZM1.75 2.1875C1.50937 2.1875 1.3125 2.38437 1.3125 2.625V11.375C1.3125 11.6156 1.50937 11.8125 1.75 11.8125H12.25C12.4906 11.8125 12.6875 11.6156 12.6875 11.375V4.375C12.6875 4.13437 12.4906 3.9375 12.25 3.9375H7.83672C7.54688 3.9375 7.26797 3.82266 7.06289 3.61758L5.82695 2.37891C5.70391 2.25586 5.53711 2.1875 5.36211 2.1875H1.75Z" fill="white"/>
</svg>
