<svg width="15" height="15" viewBox="0 0 15 15" fill="none" xmlns="http://www.w3.org/2000/svg">
<g opacity="0.8">
<path d="M4.09942 5.49924L3.68542 5.21889L4.09942 5.49924L5.58605 3.30389C5.78437 3.01103 6.21575 3.01103 6.41407 3.30389L7.9007 5.49924L8.31471 5.21889L7.9007 5.49925C8.00765 5.65718 8.14373 5.79326 8.30166 5.9002L10.497 7.38684C10.7899 7.58515 10.7899 8.01653 10.497 8.21485L8.30166 9.70148L8.58201 10.1155L8.30166 9.70148C8.14373 9.80843 8.00764 9.94451 7.9007 10.1024L6.41407 12.2978C6.21575 12.5907 5.78437 12.5907 5.58605 12.2978L4.09942 10.1024C3.99248 9.94451 3.85639 9.80843 3.69846 9.70148L1.50311 8.21485C1.21025 8.01653 1.21025 7.58515 1.50311 7.38684L3.69846 5.9002C3.85639 5.79326 3.99248 5.65717 4.09942 5.49924Z" fill="white" stroke="white"/>
<path d="M12.2996 0.89173L12.9218 1.81053C12.9931 1.91582 13.0838 2.00654 13.1891 2.07784L14.1079 2.70003L13.1891 3.32221C13.0838 3.39351 12.9931 3.48424 12.9218 3.58952L12.2996 4.50833L11.6775 3.58952C11.6062 3.48424 11.5154 3.39351 11.4101 3.32222L10.4913 2.70003L11.4101 2.07784C11.5154 2.00654 11.6062 1.91582 11.6775 1.81053L12.2996 0.89173Z" fill="white" stroke="white"/>
<path d="M12.9475 11.9203L13.2278 11.5063L12.9475 11.9203L13.5085 12.3002L12.9475 12.6801C12.8422 12.7514 12.7514 12.8422 12.6801 12.9475L12.3002 13.5085L11.9203 12.9475L11.5063 13.2278L11.9203 12.9475C11.849 12.8422 11.7583 12.7514 11.653 12.6801L11.0919 12.3002L11.653 11.9203C11.7583 11.849 11.849 11.7583 11.9203 11.653L11.56 11.409L11.9203 11.653L12.3002 11.0919L12.6801 11.653C12.7514 11.7583 12.8422 11.849 12.9475 11.9203Z" fill="white" stroke="white"/>
</g>
</svg>
