<svg viewBox="0 0 22 22" fill="none" xmlns="http://www.w3.org/2000/svg">
<g opacity="0.5">
<path d="M11.5991 0C10.6503 0 9.82894 0.631641 9.4389 1.54688C9.17637 1.43516 8.89509 1.375 8.59881 1.375C7.27492 1.375 6.19856 2.6082 6.19856 4.125V11.2363L6.0973 11.1203C5.1597 10.0461 3.6408 10.0461 2.7032 11.1203C1.7656 12.1945 1.7656 13.9348 2.7032 15.009L5.99229 18.7773C7.79248 20.8398 10.234 22 12.7805 22H13.0993H13.3993C13.4556 22 13.5118 21.9957 13.5681 21.9828C17.0072 21.7164 19.7562 18.5711 19.985 14.6309C19.9962 14.5664 20 14.502 20 14.4375V6.875C20 5.3582 18.9236 4.125 17.5997 4.125C17.3935 4.125 17.191 4.15508 16.9997 4.21094V4.125C16.9997 2.6082 15.9233 1.375 14.5994 1.375C14.3032 1.375 14.0219 1.43516 13.7593 1.54688C13.3693 0.631641 12.548 0 11.5991 0ZM10.9991 4.1293V4.125V2.75C10.9991 2.37187 11.2691 2.0625 11.5991 2.0625C11.9292 2.0625 12.1992 2.37187 12.1992 2.75V4.1207V4.125V9.96875C12.1992 10.5402 12.6005 11 13.0993 11C13.5981 11 13.9994 10.5402 13.9994 9.96875V4.125C13.9994 4.125 13.9994 4.125 13.9994 4.1207C13.9994 3.74258 14.2694 3.4332 14.5994 3.4332C14.9295 3.4332 15.1995 3.74258 15.1995 4.1207V6.52266V6.52695V9.96445C15.1995 10.5359 15.6008 10.9957 16.0996 10.9957C16.5984 10.9957 16.9997 10.5359 16.9997 9.96445V6.8793V6.875C16.9997 6.49687 17.2697 6.1875 17.5997 6.1875C17.9298 6.1875 18.1998 6.49687 18.1998 6.875V14.3043C18.1961 14.3301 18.1961 14.3602 18.1923 14.3859C18.0648 17.3809 15.9683 19.7828 13.3543 19.9289C13.3318 19.9289 13.3056 19.9332 13.2831 19.9375H13.0993H12.7805C10.7103 19.9375 8.72633 18.9965 7.26367 17.3207L3.97458 13.548C3.74206 13.2816 3.74206 12.8434 3.97458 12.577C4.2071 12.3105 4.58964 12.3105 4.82217 12.577L6.46109 14.4547C6.71987 14.7512 7.10616 14.8371 7.44369 14.6781C7.78123 14.5191 7.99875 14.141 7.99875 13.7242V4.125C7.99875 3.74687 8.26878 3.4375 8.59881 3.4375C8.92885 3.4375 9.19887 3.74258 9.19887 4.1207V9.96875C9.19887 10.5402 9.60017 11 10.099 11C10.5978 11 10.9991 10.5402 10.9991 9.96875V4.1293Z" fill="white"/>
</g>
</svg>
