<svg width="22" height="23" viewBox="0 0 22 23" fill="none" xmlns="http://www.w3.org/2000/svg">
<path d="M16.5 0C13.4697 0 11 2.46463 11 5.48864C11 8.51265 13.4697 10.9773 16.5 10.9773C19.5303 10.9773 22 8.51265 22 5.48864C22 2.46463 19.5303 0 16.5 0ZM2 0.0020419C0.895428 0.0020419 0 0.897472 0 2.00204V13V21C0 22.1046 0.89543 23 2 23H7.95238C9.05695 23 9.95238 22.1046 9.95238 21V2.00204C9.95238 0.89747 9.05695 0.0020419 7.95238 0.0020419H2ZM16.5 12.0227C13.4697 12.0227 11 14.4874 11 17.5114C11 20.5354 13.4697 23 16.5 23C19.5303 23 22 20.5354 22 17.5114C22 14.4874 19.5303 12.0227 16.5 12.0227Z" fill="white"/>
</svg>
