<svg width="9" height="10" viewBox="0 0 9 10" fill="none" xmlns="http://www.w3.org/2000/svg">
<path opacity="0.6" d="M2.60357 2.8125V3.75H5.49643V2.8125C5.49643 1.94922 4.84915 1.25 4.05 1.25C3.25085 1.25 2.60357 1.94922 2.60357 2.8125ZM1.44643 3.75V2.8125C1.44643 1.25977 2.61261 0 4.05 0C5.48739 0 6.65357 1.25977 6.65357 2.8125V3.75H6.94286C7.58109 3.75 8.1 4.31055 8.1 5V8.75C8.1 9.43945 7.58109 10 6.94286 10H1.15714C0.518906 10 0 9.43945 0 8.75V5C0 4.31055 0.518906 3.75 1.15714 3.75H1.44643Z" fill="white"/>
</svg>
