<svg width="10" height="10" viewBox="0 0 10 10" fill="none" xmlns="http://www.w3.org/2000/svg">
<path opacity="0.6" d="M6.11111 2.8125C6.11111 1.94922 6.73264 1.25 7.5 1.25C8.26736 1.25 8.88889 1.94922 8.88889 2.8125V3.75C8.88889 4.0957 9.13715 4.375 9.44444 4.375C9.75174 4.375 10 4.0957 10 3.75V2.8125C10 1.25977 8.88021 0 7.5 0C6.11979 0 5 1.25977 5 2.8125V3.75H1.11111C0.498264 3.75 0 4.31055 0 5V8.75C0 9.43945 0.498264 10 1.11111 10H6.66667C7.27951 10 7.77778 9.43945 7.77778 8.75V5C7.77778 4.31055 7.27951 3.75 6.66667 3.75H6.11111V2.8125Z" fill="white"/>
</svg>
