<svg width="401" height="81" viewBox="0 0 401 81" fill="none" xmlns="http://www.w3.org/2000/svg">
<path d="M0.84 76.984L9.672 75.544V5.65599L0.84 4.31199V2.2H37.608C44.648 2.2 50.888 3.8 56.328 6.99999C61.832 10.136 66.12 14.616 69.192 20.44C72.264 26.2 73.8 32.92 73.8 40.6C73.8 48.28 72.264 55.032 69.192 60.856C66.12 66.616 61.832 71.096 56.328 74.296C50.824 77.432 44.584 79 37.608 79H0.84V76.984ZM37.608 76.696C42.28 76.696 46.408 75.608 49.992 73.432C53.64 71.256 56.488 68.024 58.536 63.736C60.584 59.384 61.608 54.136 61.608 47.992V33.208C61.608 27.064 60.584 21.848 58.536 17.56C56.488 13.272 53.64 10.04 49.992 7.86399C46.408 5.688 42.28 4.6 37.608 4.6H20.232V76.696H37.608ZM82.7775 79V76.984L91.6095 75.544V5.65599L82.7775 4.31199V2.2H140.57V24.184H137.978L130.586 4.6H102.17V39.16H114.65L120.314 25.24H122.81V55.576H120.314L114.554 41.464H102.17V76.696H132.314L140.186 55.576H142.682V79H82.7775ZM182.397 80.92C176.445 80.92 170.589 79.224 164.829 75.832L156.669 79.96H154.557V55.288H156.669L164.925 73.144C170.237 76.92 176.317 78.808 183.165 78.808C188.797 78.808 193.437 77.336 197.085 74.392C200.797 71.384 202.653 67.192 202.653 61.816C202.653 57.912 201.469 54.84 199.101 52.6C196.733 50.296 192.893 48.472 187.581 47.128L171.645 43C166.077 41.528 161.885 39.032 159.069 35.512C156.253 31.928 154.845 27.704 154.845 22.84C154.845 18.424 155.709 14.52 157.437 11.128C159.229 7.672 161.821 5.016 165.213 3.16C168.605 1.24 172.637 0.279995 177.309 0.279995C183.133 0.279995 188.349 1.272 192.957 3.256L199.965 0.279995H202.077V19.864H199.965L193.053 5.848C188.253 3.544 183.037 2.392 177.405 2.392C171.837 2.392 167.453 3.832 164.253 6.712C161.053 9.528 159.453 13.272 159.453 17.944C159.453 21.4 160.573 24.12 162.813 26.104C165.117 28.088 168.477 29.656 172.893 30.808L190.077 35.32C195.645 36.728 199.773 39.16 202.461 42.616C205.213 46.008 206.589 51.192 206.589 58.168C206.589 65.272 204.381 70.84 199.965 74.872C195.613 78.904 189.757 80.92 182.397 80.92ZM215.903 79V76.984L224.734 75.544V5.65599L215.903 4.31199V2.2H244.127V4.31199L235.295 5.65599V75.544L244.127 76.984V79H215.903ZM287.905 80.92C280.929 80.92 274.817 79.224 269.569 75.832C264.321 72.44 260.257 67.704 257.377 61.624C254.561 55.544 253.153 48.536 253.153 40.6C253.153 32.664 254.657 25.656 257.665 19.576C260.673 13.496 264.865 8.76 270.241 5.368C275.681 1.976 281.889 0.279995 288.865 0.279995C295.457 0.279995 301.025 1.944 305.569 5.272L311.425 0.279995H313.441V24.088H311.425L305.089 8.248C300.481 4.408 295.073 2.488 288.865 2.488C284.385 2.488 280.353 3.64 276.769 5.944C273.249 8.248 270.465 11.608 268.417 16.024C266.433 20.44 265.441 25.688 265.441 31.768V49.336C265.441 55.416 266.369 60.664 268.225 65.08C270.145 69.496 272.769 72.888 276.097 75.256C279.489 77.56 283.425 78.712 287.905 78.712C293.409 78.712 297.665 77.016 300.673 73.624C303.745 70.232 305.281 65.688 305.281 59.992V51.064L296.353 49.72V47.608H325.057V49.72L316.129 51.064V59.992C316.129 63.64 315.137 67.064 313.153 70.264C311.169 73.4 308.065 75.96 303.841 77.944C299.617 79.928 294.305 80.92 287.905 80.92ZM330.191 79V76.984L339.119 73.144V8.056L330.191 4.31199V2.2H348.047L389.423 60.184V8.056L380.495 4.31199V2.2H400.943V4.31199L391.823 8.056V79H389.423L341.519 11.704V73.144L350.734 76.984V79H330.191Z" fill="white"/>
</svg>
