<svg width="401" height="76" viewBox="0 0 401 76" fill="none" xmlns="http://www.w3.org/2000/svg">
<path d="M0.839996 71.8482L9.672 70.5173V5.92381L0.839996 4.68164V2.72964H37.608C44.648 2.72964 50.888 4.20841 56.328 7.16599C61.832 10.0644 66.12 14.205 69.192 19.5878C72.264 24.9114 73.8 31.1224 73.8 38.2205C73.8 45.3187 72.264 51.5592 69.192 56.942C66.12 62.2656 61.832 66.4062 56.328 69.3638C50.824 72.2622 44.584 73.7114 37.608 73.7114H0.839996V71.8482ZM37.608 71.582C42.28 71.582 46.408 70.5764 49.992 68.5653C53.64 66.5541 56.488 63.567 58.536 59.6038C60.584 55.5815 61.608 50.7311 61.608 45.0525V31.3885C61.608 25.71 60.584 20.8891 58.536 16.926C56.488 12.9628 53.64 9.9757 49.992 7.96455C46.408 5.95339 42.28 4.94781 37.608 4.94781H20.232V71.582H37.608ZM82.778 73.7114V71.8482L91.609 70.5173V5.92381L82.778 4.68164V2.72964H140.57V23.0482H137.978L130.586 4.94781H102.17V36.8896H114.65L120.314 24.0242H122.81V52.062H120.314L114.554 39.0191H102.17V71.582H132.314L140.186 52.062H142.682V73.7114H82.778ZM182.397 75.486C176.445 75.486 170.589 73.9185 164.829 70.7834L156.669 74.5987H154.557V51.7958H156.669L164.925 68.2991C170.237 71.789 176.317 73.534 183.165 73.534C188.797 73.534 193.437 72.1735 197.085 69.4525C200.797 66.6724 202.653 62.798 202.653 57.8293C202.653 54.221 201.469 51.3818 199.101 49.3115C196.733 47.182 192.893 45.4962 187.581 44.254L171.645 40.4387C166.077 39.0782 161.885 36.7713 159.069 33.518C156.253 30.2055 154.845 26.3015 154.845 21.806C154.845 17.7245 155.709 14.1163 157.437 10.9813C159.229 7.78707 161.821 5.33229 165.213 3.6169C168.605 1.84236 172.637 0.955078 177.309 0.955078C183.133 0.955078 188.349 1.87194 192.957 3.70564L199.965 0.955078H202.077V19.0555H199.965L193.053 6.10125C188.253 3.9718 183.037 2.90708 177.405 2.90708C171.837 2.90708 167.453 4.23799 164.253 6.89981C161.053 9.50248 159.453 12.9628 159.453 17.2809C159.453 20.4751 160.573 22.989 162.813 24.8227C165.117 26.6564 168.477 28.1056 172.893 29.1704L190.077 33.3405C195.645 34.6419 199.773 36.8896 202.461 40.0838C205.213 43.2188 206.589 48.0101 206.589 54.4576C206.589 61.0234 204.381 66.1696 199.965 69.8962C195.613 73.6227 189.757 75.486 182.397 75.486ZM215.903 73.7114V71.8482L224.734 70.5173V5.92381L215.903 4.68164V2.72964H244.127V4.68164L235.295 5.92381V70.5173L244.127 71.8482V73.7114H215.903ZM287.905 75.486C280.929 75.486 274.817 73.9185 269.569 70.7834C264.321 67.6484 260.257 63.2712 257.377 57.6518C254.561 52.0324 253.153 45.5553 253.153 38.2205C253.153 30.8858 254.657 24.4086 257.665 18.7893C260.673 13.1699 264.865 8.79267 270.241 5.65764C275.681 2.52261 281.889 0.955078 288.865 0.955078C295.457 0.955078 301.025 2.49302 305.569 5.5689L311.425 0.955078H313.441V22.9595H311.425L305.089 8.31943C300.481 4.77034 295.073 2.99581 288.865 2.99581C284.385 2.99581 280.353 4.06053 276.769 6.18999C273.249 8.31944 270.465 11.4249 268.417 15.5063C266.433 19.5878 265.441 24.4382 265.441 30.0576V46.2947C265.441 51.9141 266.369 56.7645 268.225 60.846C270.145 64.9274 272.769 68.0625 276.097 70.2511C279.489 72.3805 283.425 73.4453 287.905 73.4453C293.409 73.4453 297.665 71.8777 300.673 68.7427C303.745 65.6077 305.281 61.4079 305.281 56.1434V47.8918L296.353 46.6496V44.6976H325.057V46.6496L316.129 47.8918V56.1434C316.129 59.5151 315.137 62.6797 313.153 65.6373C311.169 68.5357 308.065 70.9017 303.841 72.7354C299.617 74.5691 294.305 75.486 287.905 75.486ZM330.191 73.7114V71.8482L339.119 68.2991V8.14199L330.191 4.68164V2.72964H348.047L389.423 56.3209V8.14199L380.495 4.68164V2.72964H400.943V4.68164L391.823 8.14199V73.7114H389.423L341.519 11.5136V68.2991L350.734 71.8482V73.7114H330.191Z" fill="white"/>
</svg>
