<svg width="144" height="46" viewBox="0 0 144 46" fill="none" xmlns="http://www.w3.org/2000/svg">
<path d="M29.64 14.664L31.112 14.424V2.776L29.64 2.552V2.2H35.768C36.9413 2.2 37.9813 2.46667 38.888 3C39.8053 3.52267 40.52 4.26933 41.032 5.24C41.544 6.2 41.8 7.32 41.8 8.6C41.8 9.88 41.544 11.0053 41.032 11.976C40.52 12.936 39.8053 13.6827 38.888 14.216C37.9707 14.7387 36.9307 15 35.768 15H29.64V14.664ZM35.768 14.616C36.5467 14.616 37.2347 14.4347 37.832 14.072C38.44 13.7093 38.9147 13.1707 39.256 12.456C39.5973 11.7307 39.768 10.856 39.768 9.832V7.368C39.768 6.344 39.5973 5.47467 39.256 4.76C38.9147 4.04533 38.44 3.50667 37.832 3.144C37.2347 2.78133 36.5467 2.6 35.768 2.6H32.872V14.616H35.768ZM48.0482 15.16C47.2589 15.16 46.5442 14.984 45.9042 14.632C45.2642 14.2693 44.7576 13.7627 44.3842 13.112C44.0109 12.4613 43.8242 11.7093 43.8242 10.856C43.8242 10.0027 44.0056 9.256 44.3682 8.616C44.7416 7.96533 45.2376 7.464 45.8562 7.112C46.4856 6.74933 47.1842 6.568 47.9523 6.568C48.6242 6.568 49.2269 6.71733 49.7603 7.016C50.2936 7.31467 50.7096 7.73067 51.0082 8.264C51.3069 8.78667 51.4616 9.38933 51.4722 10.072H45.5842V11.656C45.5842 12.5947 45.7922 13.3573 46.2082 13.944C46.6349 14.52 47.2482 14.808 48.0482 14.808C48.7842 14.808 49.4349 14.6 50.0002 14.184C50.5656 13.768 50.9122 13.2293 51.0402 12.568H51.4082C51.2589 13.3573 50.8802 13.9867 50.2722 14.456C49.6642 14.9253 48.9229 15.16 48.0482 15.16ZM49.7122 9.672C49.7122 8.744 49.5682 8.056 49.2802 7.608C48.9922 7.14933 48.5442 6.92 47.9362 6.92C47.2216 6.92 46.6669 7.17067 46.2722 7.672C45.8776 8.17333 45.6536 8.84 45.6002 9.672H49.7122ZM56.425 15.16C55.5503 15.16 54.8197 14.9733 54.233 14.6C53.6463 14.2267 53.353 13.7413 53.353 13.144C53.353 12.8347 53.433 12.5947 53.593 12.424C53.7637 12.2427 53.9877 12.152 54.265 12.152C54.4783 12.152 54.6597 12.2053 54.809 12.312C54.9583 12.4187 55.065 12.568 55.129 12.76C54.8943 13.016 54.777 13.288 54.777 13.576C54.777 13.9067 54.9263 14.1947 55.225 14.44C55.5237 14.6853 55.9237 14.808 56.425 14.808C57.097 14.808 57.6463 14.6587 58.073 14.36C58.4997 14.0507 58.713 13.64 58.713 13.128C58.713 12.8293 58.6223 12.6053 58.441 12.456C58.2597 12.3067 57.9077 12.136 57.385 11.944L54.969 11.064C54.0197 10.7227 53.545 10.088 53.545 9.16C53.545 8.40267 53.8063 7.784 54.329 7.304C54.8517 6.81333 55.5717 6.568 56.489 6.568C57.2463 6.568 57.8917 6.744 58.425 7.096C58.969 7.43733 59.241 7.928 59.241 8.568C59.241 8.824 59.1717 9.032 59.033 9.192C58.8943 9.34133 58.713 9.416 58.489 9.416C58.265 9.416 58.0783 9.35733 57.929 9.24C57.7903 9.112 57.721 8.94133 57.721 8.728C57.8597 8.62133 57.9557 8.50933 58.009 8.392C58.0623 8.264 58.089 8.11467 58.089 7.944C58.089 7.64533 57.9557 7.4 57.689 7.208C57.433 7.016 57.033 6.92 56.489 6.92C56.0197 6.92 55.6143 6.99467 55.273 7.144C54.9423 7.28267 54.6917 7.46933 54.521 7.704C54.3503 7.93867 54.265 8.17867 54.265 8.424C54.265 8.68 54.3557 8.88267 54.537 9.032C54.729 9.18133 55.0757 9.34667 55.577 9.528L57.817 10.328C58.3397 10.52 58.7343 10.7867 59.001 11.128C59.2677 11.4693 59.401 11.912 59.401 12.456C59.401 13.2347 59.1557 13.88 58.665 14.392C58.1743 14.904 57.4277 15.16 56.425 15.16ZM62.8184 4.856C62.5197 4.856 62.2637 4.75467 62.0504 4.552C61.837 4.33867 61.7304 4.08267 61.7304 3.784C61.7304 3.48533 61.8317 3.23467 62.0344 3.032C62.2477 2.82933 62.509 2.728 62.8184 2.728C63.1064 2.728 63.3517 2.82933 63.5544 3.032C63.757 3.23467 63.8584 3.48533 63.8584 3.784C63.8584 4.08267 63.757 4.33867 63.5544 4.552C63.3517 4.75467 63.1064 4.856 62.8184 4.856ZM61.1224 15V14.68L62.2424 14.52V7.208L61.1224 7.048V6.728H63.8424V14.52L64.9624 14.68V15H61.1224ZM74.4194 5.96C74.4194 6.376 74.2647 6.73333 73.9554 7.032C73.646 7.33067 73.1554 7.52267 72.4834 7.608C72.7607 8.01333 72.8994 8.568 72.8994 9.272C72.8994 10.104 72.6007 10.76 72.0034 11.24C71.4167 11.72 70.67 11.96 69.7634 11.96C69.39 11.96 69.0487 11.928 68.7394 11.864C68.0567 11.9067 67.7154 12.1733 67.7154 12.664C67.7154 12.9413 67.8274 13.144 68.0514 13.272C68.286 13.4 68.654 13.464 69.1554 13.464H70.9474C71.8114 13.464 72.4514 13.64 72.8674 13.992C73.294 14.344 73.5074 14.9467 73.5074 15.8C73.5074 16.3973 73.3527 16.9467 73.0434 17.448C72.7447 17.9493 72.3074 18.344 71.7314 18.632C71.1554 18.9307 70.4674 19.08 69.6674 19.08C68.462 19.08 67.5714 18.8987 66.9954 18.536C66.43 18.1733 66.1474 17.6933 66.1474 17.096C66.1474 16.7333 66.286 16.4133 66.5634 16.136C66.8407 15.8587 67.2194 15.72 67.6994 15.72C67.7954 15.72 67.9927 15.7413 68.2914 15.784C67.9607 16.136 67.7954 16.552 67.7954 17.032C67.7954 17.4907 67.9554 17.8907 68.2754 18.232C68.5954 18.5733 69.118 18.744 69.8434 18.744C70.4727 18.744 71.0327 18.6213 71.5234 18.376C72.0247 18.1413 72.4087 17.832 72.6754 17.448C72.942 17.064 73.0754 16.6693 73.0754 16.264C73.0754 15.816 72.9314 15.4907 72.6434 15.288C72.3554 15.096 71.8434 15 71.1074 15H69.1554C68.4087 15 67.8434 14.856 67.4594 14.568C67.086 14.2693 66.8994 13.832 66.8994 13.256C66.8994 12.872 67.006 12.536 67.2194 12.248C67.4434 11.9493 67.726 11.7573 68.0674 11.672C67.1394 11.2773 66.6754 10.4773 66.6754 9.272C66.6754 8.42933 66.9687 7.768 67.5554 7.288C68.142 6.808 68.878 6.568 69.7634 6.568C70.8834 6.568 71.694 6.80267 72.1954 7.272C72.494 7.21867 72.718 7.12267 72.8674 6.984C73.0167 6.83467 73.0914 6.66933 73.0914 6.488C73.0914 6.31733 73.0434 6.18933 72.9474 6.104C72.8514 6.008 72.7394 5.96 72.6114 5.96C72.6114 5.72533 72.6967 5.52267 72.8674 5.352C73.0487 5.17067 73.262 5.08 73.5074 5.08C73.774 5.08 73.9927 5.16 74.1634 5.32C74.334 5.48 74.4194 5.69333 74.4194 5.96ZM71.3954 8.872C71.3954 8.22133 71.2567 7.72 70.9794 7.368C70.7127 7.016 70.3074 6.84 69.7634 6.84C68.7074 6.84 68.1794 7.51733 68.1794 8.872V9.656C68.1794 10.2853 68.3074 10.7813 68.5634 11.144C68.83 11.5067 69.23 11.688 69.7634 11.688C70.3074 11.688 70.7127 11.5067 70.9794 11.144C71.2567 10.7813 71.3954 10.2853 71.3954 9.656V8.872ZM76.9659 4.856C76.6672 4.856 76.4112 4.75467 76.1979 4.552C75.9845 4.33867 75.8779 4.08267 75.8779 3.784C75.8779 3.48533 75.9792 3.23467 76.1819 3.032C76.3952 2.82933 76.6565 2.728 76.9659 2.728C77.2539 2.728 77.4992 2.82933 77.7019 3.032C77.9045 3.23467 78.0059 3.48533 78.0059 3.784C78.0059 4.08267 77.9045 4.33867 77.7019 4.552C77.4992 4.75467 77.2539 4.856 76.9659 4.856ZM75.2699 15V14.68L76.3899 14.52V7.208L75.2699 7.048V6.728H77.9899V14.52L79.1099 14.68V15H75.2699ZM80.3589 14.68L81.4789 14.52V7.192L80.3589 7.032V6.712H83.0789V8.44C83.4735 7.864 83.9375 7.41067 84.4709 7.08C85.0042 6.73867 85.5802 6.568 86.1989 6.568C86.9669 6.568 87.5695 6.76 88.0069 7.144C88.4549 7.528 88.6789 8.09867 88.6789 8.856V14.52L89.7989 14.68V15H86.1189V14.68L87.0789 14.52V8.888C87.0789 8.33333 86.9669 7.90667 86.7429 7.608C86.5189 7.29867 86.1722 7.144 85.7029 7.144C85.2122 7.144 84.7375 7.32533 84.2789 7.688C83.8309 8.04 83.4309 8.47733 83.0789 9V14.52L84.0389 14.68V15H80.3589V14.68ZM92.7071 4.856C92.4085 4.856 92.1525 4.75467 91.9391 4.552C91.7258 4.33867 91.6191 4.08267 91.6191 3.784C91.6191 3.48533 91.7205 3.23467 91.9231 3.032C92.1365 2.82933 92.3978 2.728 92.7071 2.728C92.9951 2.728 93.2405 2.82933 93.4431 3.032C93.6458 3.23467 93.7471 3.48533 93.7471 3.784C93.7471 4.08267 93.6458 4.33867 93.4431 4.552C93.2405 4.75467 92.9951 4.856 92.7071 4.856ZM91.0111 15V14.68L92.1311 14.52V7.208L91.0111 7.048V6.728H93.7311V14.52L94.8511 14.68V15H91.0111ZM96.1001 14.68L97.2201 14.52V7.192L96.1001 7.032V6.712H98.8201V8.44C99.2148 7.864 99.6788 7.41067 100.212 7.08C100.745 6.73867 101.321 6.568 101.94 6.568C102.708 6.568 103.311 6.76 103.748 7.144C104.196 7.528 104.42 8.09867 104.42 8.856V14.52L105.54 14.68V15H101.86V14.68L102.82 14.52V8.888C102.82 8.33333 102.708 7.90667 102.484 7.608C102.26 7.29867 101.913 7.144 101.444 7.144C100.953 7.144 100.479 7.32533 100.02 7.688C99.5721 8.04 99.1721 8.47733 98.8201 9V14.52L99.7801 14.68V15H96.1001V14.68ZM114.944 5.96C114.944 6.376 114.79 6.73333 114.48 7.032C114.171 7.33067 113.68 7.52267 113.008 7.608C113.286 8.01333 113.424 8.568 113.424 9.272C113.424 10.104 113.126 10.76 112.528 11.24C111.942 11.72 111.195 11.96 110.288 11.96C109.915 11.96 109.574 11.928 109.264 11.864C108.582 11.9067 108.24 12.1733 108.24 12.664C108.24 12.9413 108.352 13.144 108.576 13.272C108.811 13.4 109.179 13.464 109.68 13.464H111.472C112.336 13.464 112.976 13.64 113.392 13.992C113.819 14.344 114.032 14.9467 114.032 15.8C114.032 16.3973 113.878 16.9467 113.568 17.448C113.27 17.9493 112.832 18.344 112.256 18.632C111.68 18.9307 110.992 19.08 110.192 19.08C108.987 19.08 108.096 18.8987 107.52 18.536C106.955 18.1733 106.672 17.6933 106.672 17.096C106.672 16.7333 106.811 16.4133 107.088 16.136C107.366 15.8587 107.744 15.72 108.224 15.72C108.32 15.72 108.518 15.7413 108.816 15.784C108.486 16.136 108.32 16.552 108.32 17.032C108.32 17.4907 108.48 17.8907 108.8 18.232C109.12 18.5733 109.643 18.744 110.368 18.744C110.998 18.744 111.558 18.6213 112.048 18.376C112.55 18.1413 112.934 17.832 113.2 17.448C113.467 17.064 113.6 16.6693 113.6 16.264C113.6 15.816 113.456 15.4907 113.168 15.288C112.88 15.096 112.368 15 111.632 15H109.68C108.934 15 108.368 14.856 107.984 14.568C107.611 14.2693 107.424 13.832 107.424 13.256C107.424 12.872 107.531 12.536 107.744 12.248C107.968 11.9493 108.251 11.7573 108.592 11.672C107.664 11.2773 107.2 10.4773 107.2 9.272C107.2 8.42933 107.494 7.768 108.08 7.288C108.667 6.808 109.403 6.568 110.288 6.568C111.408 6.568 112.219 6.80267 112.72 7.272C113.019 7.21867 113.243 7.12267 113.392 6.984C113.542 6.83467 113.616 6.66933 113.616 6.488C113.616 6.31733 113.568 6.18933 113.472 6.104C113.376 6.008 113.264 5.96 113.136 5.96C113.136 5.72533 113.222 5.52267 113.392 5.352C113.574 5.17067 113.787 5.08 114.032 5.08C114.299 5.08 114.518 5.16 114.688 5.32C114.859 5.48 114.944 5.69333 114.944 5.96ZM111.92 8.872C111.92 8.22133 111.782 7.72 111.504 7.368C111.238 7.016 110.832 6.84 110.288 6.84C109.232 6.84 108.704 7.51733 108.704 8.872V9.656C108.704 10.2853 108.832 10.7813 109.088 11.144C109.355 11.5067 109.755 11.688 110.288 11.688C110.832 11.688 111.238 11.5067 111.504 11.144C111.782 10.7813 111.92 10.2853 111.92 9.656V8.872Z" fill="white"/>
<path d="M62.656 41.32C61.4933 41.32 60.4747 41.0373 59.6 40.472C58.7253 39.9067 58.048 39.1173 57.568 38.104C57.0987 37.0907 56.864 35.9227 56.864 34.6C56.864 33.2773 57.104 32.1093 57.584 31.096C58.0747 30.072 58.7627 29.2827 59.648 28.728C60.544 28.1627 61.5733 27.88 62.736 27.88C63.1947 27.88 63.6587 27.96 64.128 28.12C64.608 28.28 65.04 28.504 65.424 28.792L66.496 27.88H66.832V31.848H66.496L65.504 29.368C65.1307 29.0267 64.6933 28.7547 64.192 28.552C63.7013 28.3493 63.216 28.248 62.736 28.248C61.9893 28.248 61.328 28.44 60.752 28.824C60.1867 29.208 59.744 29.768 59.424 30.504C59.104 31.24 58.944 32.1147 58.944 33.128V36.056C58.944 37.0693 59.0987 37.944 59.408 38.68C59.7173 39.416 60.1493 39.9813 60.704 40.376C61.2587 40.76 61.9093 40.952 62.656 40.952C63.2 40.952 63.744 40.8347 64.288 40.6C64.832 40.3547 65.2853 40.0293 65.648 39.624L66.576 37.048H66.912V41.16H66.576L65.424 40.344C65.04 40.6533 64.6027 40.8933 64.112 41.064C63.6213 41.2347 63.136 41.32 62.656 41.32ZM68.7379 40.68L69.8579 40.52V28.68L68.7379 28.52V28.2H71.4579V34.44C71.8525 33.864 72.3165 33.4107 72.8499 33.08C73.3832 32.7387 73.9592 32.568 74.5779 32.568C75.3459 32.568 75.9485 32.76 76.3859 33.144C76.8339 33.528 77.0579 34.0987 77.0579 34.856V40.52L78.1779 40.68V41H74.4979V40.68L75.4579 40.52V34.888C75.4579 34.3333 75.3459 33.9067 75.1219 33.608C74.8979 33.2987 74.5512 33.144 74.0819 33.144C73.5912 33.144 73.1165 33.3253 72.6579 33.688C72.2099 34.04 71.8099 34.4773 71.4579 35V40.52L72.4179 40.68V41H68.7379V40.68ZM82.0164 41.16C81.3337 41.16 80.7737 40.984 80.3364 40.632C79.899 40.2693 79.6804 39.736 79.6804 39.032C79.6804 38.0293 80.1017 37.32 80.9444 36.904C81.787 36.4773 82.763 36.264 83.8724 36.264H84.9444V35.032C84.9444 34.4773 84.8804 34.0507 84.7524 33.752C84.635 33.4427 84.4484 33.2293 84.1924 33.112C83.9364 32.984 83.5897 32.92 83.1524 32.92C82.651 32.92 82.2777 33.0213 82.0324 33.224C81.787 33.416 81.6644 33.6773 81.6644 34.008C81.6644 34.3173 81.8137 34.52 82.1124 34.616C82.1124 34.8827 82.011 35.1173 81.8084 35.32C81.6057 35.5227 81.3657 35.624 81.0884 35.624C80.7897 35.624 80.5497 35.544 80.3684 35.384C80.187 35.2133 80.0964 34.9573 80.0964 34.616C80.0964 33.9973 80.4057 33.5013 81.0244 33.128C81.643 32.7547 82.4164 32.568 83.3444 32.568C85.4777 32.568 86.5444 33.496 86.5444 35.352V39.928C86.5444 40.1627 86.5924 40.344 86.6884 40.472C86.795 40.5893 86.9444 40.648 87.1364 40.648C87.3177 40.648 87.4617 40.5893 87.5684 40.472C87.675 40.344 87.7284 40.1733 87.7284 39.96H88.0644C88.0644 40.3333 87.9417 40.6267 87.6964 40.84C87.4617 41.0533 87.131 41.16 86.7044 41.16C86.2137 41.16 85.7977 41.0213 85.4564 40.744C85.1257 40.456 84.955 40.0133 84.9444 39.416C84.6884 39.96 84.2937 40.3867 83.7604 40.696C83.2377 41.0053 82.6564 41.16 82.0164 41.16ZM82.8964 40.456C83.1844 40.456 83.4777 40.3707 83.7764 40.2C84.0857 40.0293 84.347 39.784 84.5604 39.464C84.7737 39.1333 84.9017 38.7387 84.9444 38.28V36.616H83.8724C82.9977 36.616 82.3417 36.8133 81.9044 37.208C81.4777 37.592 81.2644 38.136 81.2644 38.84C81.2644 39.4267 81.403 39.8427 81.6804 40.088C81.9577 40.3333 82.363 40.456 82.8964 40.456ZM88.9345 40.68L90.0545 40.52V33.192L88.9345 33.032V32.712H91.6545V34.44C92.0492 33.864 92.5132 33.4107 93.0465 33.08C93.5798 32.7387 94.1558 32.568 94.7745 32.568C95.5425 32.568 96.1452 32.76 96.5825 33.144C97.0305 33.528 97.2545 34.0987 97.2545 34.856V40.52L98.3745 40.68V41H94.6945V40.68L95.6545 40.52V34.888C95.6545 34.3333 95.5425 33.9067 95.3185 33.608C95.0945 33.2987 94.7478 33.144 94.2785 33.144C93.7878 33.144 93.3132 33.3253 92.8545 33.688C92.4065 34.04 92.0065 34.4773 91.6545 35V40.52L92.6145 40.68V41H88.9345V40.68ZM107.779 31.96C107.779 32.376 107.624 32.7333 107.315 33.032C107.005 33.3307 106.515 33.5227 105.843 33.608C106.12 34.0133 106.259 34.568 106.259 35.272C106.259 36.104 105.96 36.76 105.363 37.24C104.776 37.72 104.029 37.96 103.123 37.96C102.749 37.96 102.408 37.928 102.099 37.864C101.416 37.9067 101.075 38.1733 101.075 38.664C101.075 38.9413 101.187 39.144 101.411 39.272C101.645 39.4 102.013 39.464 102.515 39.464H104.307C105.171 39.464 105.811 39.64 106.227 39.992C106.653 40.344 106.867 40.9467 106.867 41.8C106.867 42.3973 106.712 42.9467 106.403 43.448C106.104 43.9493 105.667 44.344 105.091 44.632C104.515 44.9307 103.827 45.08 103.027 45.08C101.821 45.08 100.931 44.8987 100.355 44.536C99.7894 44.1733 99.5067 43.6933 99.5067 43.096C99.5067 42.7333 99.6454 42.4133 99.9227 42.136C100.2 41.8587 100.579 41.72 101.059 41.72C101.155 41.72 101.352 41.7413 101.651 41.784C101.32 42.136 101.155 42.552 101.155 43.032C101.155 43.4907 101.315 43.8907 101.635 44.232C101.955 44.5733 102.477 44.744 103.203 44.744C103.832 44.744 104.392 44.6213 104.883 44.376C105.384 44.1413 105.768 43.832 106.035 43.448C106.301 43.064 106.435 42.6693 106.435 42.264C106.435 41.816 106.291 41.4907 106.003 41.288C105.715 41.096 105.203 41 104.467 41H102.515C101.768 41 101.203 40.856 100.819 40.568C100.445 40.2693 100.259 39.832 100.259 39.256C100.259 38.872 100.365 38.536 100.579 38.248C100.803 37.9493 101.085 37.7573 101.427 37.672C100.499 37.2773 100.035 36.4773 100.035 35.272C100.035 34.4293 100.328 33.768 100.915 33.288C101.501 32.808 102.237 32.568 103.123 32.568C104.243 32.568 105.053 32.8027 105.555 33.272C105.853 33.2187 106.077 33.1227 106.227 32.984C106.376 32.8347 106.451 32.6693 106.451 32.488C106.451 32.3173 106.403 32.1893 106.307 32.104C106.211 32.008 106.099 31.96 105.971 31.96C105.971 31.7253 106.056 31.5227 106.227 31.352C106.408 31.1707 106.621 31.08 106.867 31.08C107.133 31.08 107.352 31.16 107.523 31.32C107.693 31.48 107.779 31.6933 107.779 31.96ZM104.755 34.872C104.755 34.2213 104.616 33.72 104.339 33.368C104.072 33.016 103.667 32.84 103.123 32.84C102.067 32.84 101.539 33.5173 101.539 34.872V35.656C101.539 36.2853 101.667 36.7813 101.923 37.144C102.189 37.5067 102.589 37.688 103.123 37.688C103.667 37.688 104.072 37.5067 104.339 37.144C104.616 36.7813 104.755 36.2853 104.755 35.656V34.872ZM112.937 41.16C112.148 41.16 111.433 40.984 110.793 40.632C110.153 40.2693 109.646 39.7627 109.273 39.112C108.9 38.4613 108.713 37.7093 108.713 36.856C108.713 36.0027 108.894 35.256 109.257 34.616C109.63 33.9653 110.126 33.464 110.745 33.112C111.374 32.7493 112.073 32.568 112.841 32.568C113.513 32.568 114.116 32.7173 114.649 33.016C115.182 33.3147 115.598 33.7307 115.897 34.264C116.196 34.7867 116.35 35.3893 116.361 36.072H110.473V37.656C110.473 38.5947 110.681 39.3573 111.097 39.944C111.524 40.52 112.137 40.808 112.937 40.808C113.673 40.808 114.324 40.6 114.889 40.184C115.454 39.768 115.801 39.2293 115.929 38.568H116.297C116.148 39.3573 115.769 39.9867 115.161 40.456C114.553 40.9253 113.812 41.16 112.937 41.16ZM114.601 35.672C114.601 34.744 114.457 34.056 114.169 33.608C113.881 33.1493 113.433 32.92 112.825 32.92C112.11 32.92 111.556 33.1707 111.161 33.672C110.766 34.1733 110.542 34.84 110.489 35.672H114.601ZM121.314 41.16C120.439 41.16 119.708 40.9733 119.122 40.6C118.535 40.2267 118.242 39.7413 118.242 39.144C118.242 38.8347 118.322 38.5947 118.482 38.424C118.652 38.2427 118.876 38.152 119.154 38.152C119.367 38.152 119.548 38.2053 119.698 38.312C119.847 38.4187 119.954 38.568 120.018 38.76C119.783 39.016 119.666 39.288 119.666 39.576C119.666 39.9067 119.815 40.1947 120.114 40.44C120.412 40.6853 120.812 40.808 121.314 40.808C121.986 40.808 122.535 40.6587 122.962 40.36C123.388 40.0507 123.602 39.64 123.602 39.128C123.602 38.8293 123.511 38.6053 123.33 38.456C123.148 38.3067 122.796 38.136 122.274 37.944L119.858 37.064C118.908 36.7227 118.434 36.088 118.434 35.16C118.434 34.4027 118.695 33.784 119.218 33.304C119.74 32.8133 120.46 32.568 121.378 32.568C122.135 32.568 122.78 32.744 123.314 33.096C123.858 33.4373 124.13 33.928 124.13 34.568C124.13 34.824 124.06 35.032 123.922 35.192C123.783 35.3413 123.602 35.416 123.378 35.416C123.154 35.416 122.967 35.3573 122.818 35.24C122.679 35.112 122.61 34.9413 122.61 34.728C122.748 34.6213 122.844 34.5093 122.898 34.392C122.951 34.264 122.978 34.1147 122.978 33.944C122.978 33.6453 122.844 33.4 122.578 33.208C122.322 33.016 121.922 32.92 121.378 32.92C120.908 32.92 120.503 32.9947 120.162 33.144C119.831 33.2827 119.58 33.4693 119.41 33.704C119.239 33.9387 119.154 34.1787 119.154 34.424C119.154 34.68 119.244 34.8827 119.426 35.032C119.618 35.1813 119.964 35.3467 120.466 35.528L122.706 36.328C123.228 36.52 123.623 36.7867 123.89 37.128C124.156 37.4693 124.29 37.912 124.29 38.456C124.29 39.2347 124.044 39.88 123.554 40.392C123.063 40.904 122.316 41.16 121.314 41.16Z" fill="white"/>
<path d="M1 10L16 10" stroke="white" stroke-linecap="round"/>
</svg>
