<svg width="354" height="75" viewBox="0 0 354 75" fill="none" xmlns="http://www.w3.org/2000/svg">
<path d="M0.839966 71.1665L9.67197 69.8356V5.24217L0.839966 3.99998V2.04798H37.608C44.648 2.04798 50.888 3.52677 56.328 6.48435C61.832 9.38277 66.12 13.5234 69.192 18.9062C72.264 24.2298 73.8 30.4407 73.8 37.5389C73.8 44.6371 72.264 50.8776 69.192 56.2603C66.12 61.584 61.832 65.7246 56.328 68.6822C50.824 71.5806 44.584 73.0298 37.608 73.0298H0.839966V71.1665ZM37.608 70.9003C42.28 70.9003 46.408 69.8948 49.992 67.8836C53.64 65.8725 56.488 62.8853 58.536 58.9222C60.584 54.8999 61.6079 50.0494 61.6079 44.3709V30.7069C61.6079 25.0283 60.584 20.2075 58.536 16.2443C56.488 12.2812 53.64 9.29404 49.992 7.28289C46.408 5.27174 42.28 4.26617 37.608 4.26617H20.232V70.9003H37.608ZM117.53 74.8043C108.122 74.8043 101.242 72.8819 96.89 69.0371C92.538 65.1331 90.362 59.9869 90.362 53.5985V5.24217L81.53 3.99998V2.04798H109.754V3.99998L100.922 5.24217V53.5985C100.922 59.3954 102.682 63.8613 106.202 66.9963C109.722 70.0722 115.066 71.6102 122.234 71.6102C135.802 71.6102 142.586 65.6063 142.586 53.5985V7.46035L133.658 3.99998V2.04798H154.106V3.99998L144.89 7.46035V53.5985C144.89 60.6967 142.746 66.0203 138.458 69.5694C134.17 73.0594 127.194 74.8043 117.53 74.8043ZM196.499 74.8043C189.523 74.8043 183.411 73.2368 178.163 70.1018C172.915 66.9668 168.851 62.5896 165.971 56.9702C163.155 51.3508 161.747 44.8737 161.747 37.5389C161.747 30.2041 163.187 23.727 166.067 18.1076C169.011 12.4291 173.139 8.05186 178.451 4.97598C183.827 1.84095 190.003 0.273438 196.979 0.273438C199.731 0.273438 202.515 0.717076 205.331 1.60435C208.211 2.49162 210.803 3.7338 213.107 5.33089L219.539 0.273438H221.555V22.2778H219.539L213.587 8.52507C211.347 6.63222 208.723 5.12386 205.715 3.99998C202.771 2.8761 199.859 2.31417 196.979 2.31417C192.499 2.31417 188.531 3.37889 185.075 5.50835C181.683 7.6378 179.027 10.7433 177.107 14.8247C175.187 18.9062 174.227 23.7566 174.227 29.376V45.6131C174.227 51.2325 175.155 56.0829 177.011 60.1643C178.867 64.2458 181.459 67.3808 184.786 69.5694C188.115 71.6989 192.019 72.7636 196.499 72.7636C199.763 72.7636 203.027 72.113 206.291 70.8116C209.555 69.4511 212.275 67.647 214.451 65.3993L220.019 51.1142H222.035V73.9171H220.019L213.107 69.392C210.803 71.1074 208.179 72.4383 205.235 73.3847C202.291 74.3311 199.379 74.8043 196.499 74.8043ZM247.582 73.0298V71.1665L256.414 69.8356V4.26617H240.574L233.278 21.8342H230.494V2.04798H292.99V21.8342H290.11L282.91 4.26617H266.974V69.8356L275.806 71.1665V73.0298H247.582ZM329.585 74.8043C323.633 74.8043 317.777 73.2368 312.017 70.1018L303.857 73.9171H301.745V51.1142H303.857L312.113 67.6174C317.425 71.1074 323.505 72.8523 330.353 72.8523C335.985 72.8523 340.625 71.4919 344.273 68.7709C347.985 65.9908 349.841 62.1163 349.841 57.1476C349.841 53.5394 348.657 50.7001 346.289 48.6298C343.921 46.5004 340.081 44.8145 334.769 43.5723L318.833 39.7571C313.265 38.3966 309.073 36.0897 306.257 32.8363C303.441 29.5239 302.033 25.6199 302.033 21.1243C302.033 17.0429 302.897 13.4347 304.625 10.2996C306.417 7.10544 309.009 4.65065 312.401 2.93526C315.793 1.16071 319.825 0.273438 324.497 0.273438C330.321 0.273438 335.537 1.19028 340.145 3.02398L347.153 0.273438H349.265V18.3738H347.153L340.241 5.41963C335.441 3.29017 330.225 2.22544 324.593 2.22544C319.025 2.22544 314.641 3.55635 311.441 6.21817C308.241 8.82084 306.641 12.2812 306.641 16.5993C306.641 19.7934 307.761 22.3074 310.001 24.1411C312.305 25.9748 315.665 27.424 320.081 28.4887L337.265 32.6589C342.833 33.9602 346.961 36.208 349.649 39.4022C352.401 42.5372 353.777 47.3285 353.777 53.776C353.777 60.3418 351.569 65.488 347.153 69.2145C342.801 72.9411 336.945 74.8043 329.585 74.8043Z" fill="white"/>
</svg>
