<svg width="1683" height="53" viewBox="0 0 1683 53" fill="none" xmlns="http://www.w3.org/2000/svg">
<g clip-path="url(#clip0_3024_137)">
<path d="M0 11C0 5.47715 4.47715 1 10 1H1673C1678.52 1 1683 5.47715 1683 11V54H0V11Z" fill="black"/>
<path opacity="0.5" d="M189.912 30.8326C189.684 31.0558 189.314 31.0558 189.086 30.8326L186.171 27.9761C185.943 27.753 185.943 27.3905 186.171 27.1674C186.399 26.9442 186.769 26.9442 186.996 27.1674L189.5 29.6204L192.004 27.1692C192.231 26.946 192.601 26.946 192.829 27.1692C193.057 27.3923 193.057 27.7547 192.829 27.9779L189.914 30.8344L189.912 30.8326Z" fill="white"/>
<path d="M1521.37 14H1503.63C1501.07 14 1499 16.0723 1499 18.6286V36.3714C1499 38.9277 1501.07 41 1503.63 41H1521.37C1523.93 41 1526 38.9277 1526 36.3714V18.6286C1526 16.0723 1523.93 14 1521.37 14Z" fill="#2B2B2B"/>
<path d="M1482.37 14H1464.63C1462.07 14 1460 16.0723 1460 18.6286V36.3714C1460 38.9277 1462.07 41 1464.63 41H1482.37C1484.93 41 1487 38.9277 1487 36.3714V18.6286C1487 16.0723 1484.93 14 1482.37 14Z" fill="#2B2B2B"/>
<path d="M1666.01 14H1606.99C1604.79 14 1603 15.7269 1603 17.8571V37.1429C1603 39.2731 1604.79 41 1606.99 41H1666.01C1668.21 41 1670 39.2731 1670 37.1429V17.8571C1670 15.7269 1668.21 14 1666.01 14Z" fill="#459AFF"/>
<path d="M1615 31.8622V22.4548H1618.5C1619.22 22.4548 1619.82 22.5895 1620.31 22.859C1620.79 23.1284 1621.17 23.499 1621.42 23.9706C1621.66 24.4391 1621.79 24.972 1621.79 25.5691C1621.79 26.1725 1621.66 26.7084 1621.42 27.1769C1621.16 27.6454 1620.79 28.0144 1620.3 28.2839C1619.8 28.5503 1619.2 28.6836 1618.48 28.6836H1616.16V27.2825H1618.25C1618.68 27.2825 1619.01 27.209 1619.28 27.062C1619.55 26.915 1619.75 26.7129 1619.88 26.4557C1620 26.1984 1620.07 25.9029 1620.07 25.5691C1620.07 25.2354 1620 24.9414 1619.88 24.6872C1619.75 24.433 1619.55 24.2355 1619.28 24.0946C1619.01 23.9507 1618.67 23.8788 1618.24 23.8788H1616.7V31.8622H1615ZM1627.65 28.8949V24.8066H1629.3V31.8622H1627.7V30.6083H1627.63C1627.46 31.0032 1627.21 31.3263 1626.85 31.5775C1626.49 31.8285 1626.04 31.9541 1625.52 31.9541C1625.06 31.9541 1624.66 31.8515 1624.3 31.6463C1623.95 31.4381 1623.68 31.1365 1623.49 30.7414C1623.28 30.3434 1623.18 29.8625 1623.18 29.2991V24.8066H1624.83V29.0418C1624.83 29.4889 1624.96 29.8441 1625.2 30.1076C1625.45 30.3709 1625.77 30.5026 1626.16 30.5026C1626.4 30.5026 1626.64 30.4429 1626.87 30.3234C1627.1 30.204 1627.28 30.0263 1627.43 29.7906C1627.57 29.5517 1627.65 29.2531 1627.65 28.8949ZM1631.07 31.8622V22.4548H1632.72V25.9734H1632.79C1632.87 25.8019 1632.99 25.6197 1633.15 25.4267C1633.3 25.2308 1633.51 25.0638 1633.77 24.9261C1634.04 24.7852 1634.37 24.7147 1634.79 24.7147C1635.33 24.7147 1635.81 24.8541 1636.24 25.1327C1636.68 25.4084 1637.03 25.8172 1637.29 26.3592C1637.55 26.8982 1637.67 27.5597 1637.67 28.3437C1637.67 29.1184 1637.55 29.7768 1637.3 30.3188C1637.04 30.8609 1636.7 31.2742 1636.26 31.5591C1635.83 31.8439 1635.34 31.9862 1634.79 31.9862C1634.39 31.9862 1634.05 31.9189 1633.79 31.7842C1633.53 31.6494 1633.31 31.4871 1633.16 31.2972C1633 31.1043 1632.87 30.9221 1632.79 30.7506H1632.69V31.8622H1631.07ZM1632.69 28.3344C1632.69 28.7908 1632.75 29.1904 1632.88 29.5333C1633.01 29.8763 1633.19 30.1442 1633.44 30.3372C1633.69 30.527 1633.98 30.622 1634.33 30.622C1634.7 30.622 1635 30.524 1635.24 30.328C1635.49 30.129 1635.68 29.8579 1635.8 29.5149C1635.93 29.1689 1636 28.7754 1636 28.3344C1636 27.8966 1635.93 27.5076 1635.8 27.1677C1635.68 26.8277 1635.49 26.5614 1635.25 26.3684C1635.01 26.1755 1634.7 26.0791 1634.33 26.0791C1633.98 26.0791 1633.68 26.1725 1633.43 26.3592C1633.18 26.546 1633 26.8079 1632.87 27.1447C1632.74 27.4816 1632.69 27.8782 1632.69 28.3344ZM1640.73 22.4548V31.8622H1639.08V22.4548H1640.73ZM1642.42 31.8622V24.8066H1644.07V31.8622H1642.42ZM1643.25 23.8052C1642.99 23.8052 1642.77 23.718 1642.58 23.5434C1642.38 23.3658 1642.29 23.153 1642.29 22.9049C1642.29 22.6538 1642.38 22.441 1642.58 22.2664C1642.77 22.0888 1642.99 22 1643.25 22C1643.51 22 1643.74 22.0888 1643.92 22.2664C1644.12 22.441 1644.21 22.6538 1644.21 22.9049C1644.21 23.153 1644.12 23.3658 1643.92 23.5434C1643.74 23.718 1643.51 23.8052 1643.25 23.8052ZM1651.3 26.6716L1649.8 26.837C1649.75 26.6839 1649.68 26.5399 1649.57 26.4052C1649.47 26.2704 1649.33 26.1617 1649.16 26.0791C1648.97 25.9964 1648.76 25.955 1648.51 25.955C1648.16 25.955 1647.87 26.03 1647.64 26.18C1647.41 26.3301 1647.3 26.5246 1647.3 26.7634C1647.3 26.9686 1647.37 27.1355 1647.53 27.2641C1647.67 27.3927 1647.93 27.4984 1648.29 27.5811L1649.48 27.8383C1650.15 27.9823 1650.63 28.2104 1650.95 28.5228C1651.28 28.8351 1651.45 29.2439 1651.45 29.7493C1651.45 30.1933 1651.32 30.5852 1651.06 30.9252C1650.81 31.262 1650.46 31.5254 1650.01 31.7152C1649.56 31.9051 1649.05 32 1648.46 32C1647.6 32 1646.91 31.8194 1646.39 31.458C1645.87 31.0936 1645.56 30.5868 1645.45 29.9376L1647.07 29.7814C1647.14 30.0999 1647.3 30.3402 1647.53 30.5026C1647.76 30.6649 1648.08 30.746 1648.45 30.746C1648.85 30.746 1649.17 30.6649 1649.4 30.5026C1649.64 30.3402 1649.76 30.1397 1649.76 29.9008C1649.76 29.6987 1649.68 29.5318 1649.52 29.4001C1649.38 29.2684 1649.14 29.1674 1648.82 29.0969L1647.62 28.8443C1646.95 28.7034 1646.45 28.4661 1646.13 28.1323C1645.81 27.7955 1645.65 27.3698 1645.66 26.8554C1645.65 26.4205 1645.77 26.0438 1646 25.7254C1646.24 25.4037 1646.57 25.1558 1647 24.9812C1647.43 24.8035 1647.92 24.7147 1648.48 24.7147C1649.3 24.7147 1649.95 24.8909 1650.42 25.243C1650.89 25.5952 1651.18 26.0714 1651.3 26.6716ZM1654.45 27.7281V31.8622H1652.8V22.4548H1654.42V26.0055H1654.5C1654.67 25.6075 1654.92 25.2935 1655.26 25.0638C1655.61 24.8312 1656.05 24.7147 1656.59 24.7147C1657.08 24.7147 1657.5 24.8173 1657.85 25.0225C1658.22 25.2277 1658.5 25.5278 1658.7 25.9228C1658.9 26.3179 1659 26.8002 1659 27.3698V31.8622H1657.35V27.627C1657.35 27.1524 1657.22 26.7834 1656.98 26.52C1656.75 26.2536 1656.41 26.1204 1655.98 26.1204C1655.68 26.1204 1655.42 26.1847 1655.19 26.3133C1654.96 26.4388 1654.78 26.621 1654.65 26.8599C1654.52 27.0988 1654.45 27.3882 1654.45 27.7281Z" fill="white"/>
<path d="M1517.97 25.6607C1518.98 26.2812 1518.98 27.8322 1517.97 28.4526L1510 33.3383C1508.99 33.9587 1507.72 33.1832 1507.72 31.9424V22.1709C1507.72 20.9301 1508.99 20.1546 1510 20.775L1517.97 25.6607Z" fill="white"/>
<g filter="url(#filter0_d_3024_137)">
<path d="M34.5296 33.5227H31.0574C30.9865 33.5227 30.9175 33.5516 30.8671 33.6037L27.0797 37.5231C26.9099 37.6988 27.0293 38 27.27 38H39.7295C39.8787 38 40 37.8745 40 37.72V16.2794C40 16.0303 39.7089 15.9067 39.5391 16.0824L34.8804 20.9035C34.83 20.9556 34.802 21.027 34.802 21.1004L34.8076 24.5892C34.8076 24.7437 34.6863 24.8692 34.5371 24.8692H32.565C32.4941 24.8692 32.425 24.8981 32.3747 24.9502L28.5872 28.8696C28.4174 29.0453 28.5368 29.3465 28.7775 29.3465H34.5371C34.6863 29.3465 34.8076 29.472 34.8076 29.6265L34.802 33.2408C34.802 33.3952 34.6807 33.5207 34.5315 33.5207L34.5296 33.5227Z" fill="white"/>
</g>
<g filter="url(#filter1_d_3024_137)">
<path d="M25.4704 22.4773H28.9425C29.0134 22.4773 29.0825 22.4484 29.1328 22.3963L32.9203 18.4769C33.0901 18.3012 32.9707 18 32.73 18H20.2705C20.1213 18 20 18.1255 20 18.28V39.7206C20 39.9697 20.2911 40.0933 20.4608 39.9176L25.1196 35.0965C25.17 35.0444 25.198 34.973 25.198 34.8996L25.1924 31.4108C25.1924 31.2563 25.3137 31.1308 25.4629 31.1308H27.435C27.5059 31.1308 27.575 31.1019 27.6253 31.0498L31.4128 27.1304C31.5826 26.9547 31.4632 26.6535 31.2225 26.6535H25.4629C25.3137 26.6535 25.1924 26.528 25.1924 26.3735L25.198 22.7592C25.198 22.6048 25.3193 22.4793 25.4685 22.4793L25.4704 22.4773Z" fill="white"/>
</g>
<path d="M1480.37 24.7783C1480.46 25.0332 1480.39 25.3175 1480.18 25.4991L1478.93 26.6537C1478.96 26.8969 1478.98 27.146 1478.98 27.398C1478.98 27.65 1478.96 27.8991 1478.93 28.1422L1480.18 29.2967C1480.39 29.4784 1480.46 29.7627 1480.37 30.0176C1480.25 30.3663 1480.09 30.7004 1479.91 31.0227L1479.78 31.26C1479.58 31.5824 1479.37 31.8871 1479.13 32.1743C1478.96 32.3852 1478.68 32.4556 1478.43 32.3736L1476.81 31.8549C1476.42 32.1567 1475.99 32.4087 1475.53 32.5992L1475.17 34.2723C1475.11 34.539 1474.91 34.75 1474.64 34.7939C1474.24 34.8614 1473.83 34.8965 1473.41 34.8965C1472.99 34.8965 1472.58 34.8614 1472.17 34.7939C1471.91 34.75 1471.71 34.539 1471.64 34.2723L1471.29 32.5992C1470.83 32.4087 1470.4 32.1567 1470.01 31.8549L1468.39 32.3765C1468.14 32.4585 1467.86 32.3852 1467.68 32.1772C1467.45 31.89 1467.23 31.5853 1467.04 31.2629L1466.91 31.0256C1466.73 30.7033 1466.57 30.3692 1466.45 30.0205C1466.35 29.7656 1466.43 29.4813 1466.63 29.2997L1467.89 28.1451C1467.86 27.8991 1467.84 27.65 1467.84 27.398C1467.84 27.146 1467.86 26.8969 1467.89 26.6537L1466.63 25.4991C1466.43 25.3175 1466.35 25.0332 1466.45 24.7783C1466.57 24.4296 1466.73 24.0955 1466.91 23.7732L1467.04 23.5359C1467.23 23.2135 1467.45 22.9088 1467.68 22.6216C1467.86 22.4106 1468.14 22.3403 1468.39 22.4224L1470.01 22.941C1470.4 22.6392 1470.83 22.3872 1471.29 22.1968L1471.65 20.5236C1471.71 20.2569 1471.91 20.0459 1472.18 20.002C1472.58 19.9316 1472.99 19.8965 1473.41 19.8965C1473.83 19.8965 1474.24 19.9316 1474.65 19.999C1474.91 20.043 1475.11 20.254 1475.17 20.5206L1475.53 22.1938C1475.99 22.3843 1476.42 22.6363 1476.81 22.9381L1478.43 22.4194C1478.68 22.3374 1478.96 22.4106 1479.13 22.6187C1479.37 22.9059 1479.58 23.2106 1479.78 23.533L1479.91 23.7703C1480.09 24.0926 1480.25 24.4266 1480.37 24.7754V24.7783ZM1473.41 29.7422C1474.02 29.7422 1474.61 29.4951 1475.05 29.0556C1475.49 28.6159 1475.73 28.0197 1475.73 27.398C1475.73 26.7762 1475.49 26.18 1475.05 25.7403C1474.61 25.3007 1474.02 25.0537 1473.41 25.0537C1472.79 25.0537 1472.2 25.3007 1471.77 25.7403C1471.33 26.18 1471.09 26.7762 1471.09 27.398C1471.09 28.0197 1471.33 28.6159 1471.77 29.0556C1472.2 29.4951 1472.79 29.7422 1473.41 29.7422Z" fill="white"/>
<path d="M1586.86 14H1542.14C1539.85 14 1538 15.7269 1538 17.8571V37.1429C1538 39.2731 1539.85 41 1542.14 41H1586.86C1589.15 41 1591 39.2731 1591 37.1429V17.8571C1591 15.7269 1589.15 14 1586.86 14Z" fill="#459AFF"/>
<rect x="1409" y="14" width="39" height="27" rx="13" fill="#2B2B2B"/>
<path d="M1552.28 24.8049C1552.23 24.3904 1552.06 24.0677 1551.75 23.8367C1551.45 23.6057 1551.05 23.4903 1550.56 23.4903C1550.21 23.4903 1549.92 23.5457 1549.67 23.6564C1549.42 23.7671 1549.24 23.9174 1549.11 24.1073C1548.98 24.2971 1548.91 24.5139 1548.91 24.7575C1548.91 24.96 1548.95 25.1355 1549.04 25.2843C1549.13 25.433 1549.25 25.5596 1549.4 25.6639C1549.55 25.7652 1549.72 25.8507 1549.9 25.9202C1550.09 25.9898 1550.27 26.0484 1550.45 26.0959L1551.31 26.3237C1551.65 26.4091 1551.98 26.5246 1552.3 26.6701C1552.63 26.8157 1552.91 26.9992 1553.16 27.2207C1553.41 27.4421 1553.62 27.7095 1553.76 28.0228C1553.91 28.3361 1553.99 28.703 1553.99 29.1238C1553.99 29.6934 1553.85 30.195 1553.57 30.6284C1553.31 31.0587 1552.91 31.3957 1552.39 31.6393C1551.88 31.8798 1551.26 32 1550.53 32C1549.83 32 1549.21 31.883 1548.69 31.6488C1548.17 31.4147 1547.76 31.0729 1547.47 30.6237C1547.18 30.1743 1547.02 29.6269 1547 28.9815H1548.62C1548.65 29.32 1548.74 29.6016 1548.91 29.8263C1549.08 30.051 1549.31 30.2186 1549.59 30.3294C1549.86 30.4401 1550.18 30.4955 1550.52 30.4955C1550.87 30.4955 1551.2 30.4386 1551.46 30.3246C1551.73 30.2076 1551.95 30.0462 1552.1 29.8405C1552.26 29.6317 1552.33 29.3881 1552.34 29.1096C1552.33 28.8565 1552.27 28.6477 1552.13 28.4832C1551.99 28.3155 1551.8 28.1763 1551.55 28.0655C1551.31 27.9516 1551.03 27.8504 1550.7 27.7618L1549.67 27.477C1548.91 27.2714 1548.32 26.9597 1547.89 26.542C1547.46 26.1212 1547.23 25.5627 1547.23 24.8666C1547.23 24.2939 1547.38 23.7924 1547.67 23.3621C1547.97 22.9318 1548.37 22.598 1548.87 22.3607C1549.37 22.1202 1549.94 22 1550.58 22C1551.23 22 1551.79 22.1202 1552.28 22.3607C1552.77 22.598 1553.15 22.9287 1553.43 23.3526C1553.71 23.7734 1553.85 24.2575 1553.86 24.8049H1552.28ZM1557 27.5814V31.8529H1555.39V22.1329H1556.96V25.8016H1557.05C1557.2 25.3903 1557.45 25.0659 1557.79 24.8286C1558.12 24.5882 1558.55 24.4679 1559.08 24.4679C1559.55 24.4679 1559.96 24.5739 1560.32 24.7859C1560.67 24.998 1560.94 25.308 1561.13 25.7161C1561.33 26.1244 1561.43 26.6227 1561.43 27.2112V31.8529H1559.82V27.477C1559.82 26.9866 1559.7 26.6053 1559.46 26.3331C1559.23 26.0579 1558.9 25.9202 1558.48 25.9202C1558.19 25.9202 1557.93 25.9867 1557.71 26.1196C1557.48 26.2493 1557.31 26.4376 1557.19 26.6843C1557.06 26.9312 1557 27.2302 1557 27.5814ZM1565.03 32C1564.6 32 1564.21 31.9177 1563.86 31.7532C1563.52 31.5855 1563.24 31.3387 1563.05 31.0128C1562.85 30.6869 1562.74 30.2851 1562.74 29.8073C1562.74 29.396 1562.81 29.0559 1562.96 28.787C1563.1 28.5179 1563.3 28.3028 1563.54 28.1414C1563.79 27.9801 1564.07 27.8583 1564.37 27.776C1564.68 27.6905 1565.01 27.6289 1565.34 27.5909C1565.74 27.5466 1566.06 27.5071 1566.31 27.4722C1566.56 27.4342 1566.74 27.3773 1566.86 27.3013C1566.97 27.2223 1567.03 27.1005 1567.03 26.9359V26.9074C1567.03 26.5499 1566.93 26.2731 1566.73 26.0769C1566.54 25.8807 1566.25 25.7826 1565.87 25.7826C1565.48 25.7826 1565.17 25.8744 1564.93 26.0579C1564.71 26.2414 1564.55 26.4582 1564.47 26.7081L1562.97 26.4803C1563.09 26.0373 1563.28 25.6672 1563.56 25.3697C1563.83 25.0691 1564.17 24.8445 1564.56 24.6957C1564.95 24.5439 1565.39 24.4679 1565.86 24.4679C1566.2 24.4679 1566.52 24.5091 1566.85 24.5914C1567.17 24.6736 1567.48 24.8097 1567.74 24.9995C1568.01 25.1862 1568.23 25.4409 1568.39 25.7636C1568.56 26.0864 1568.64 26.4898 1568.64 26.9739V31.8529H1567.09V30.8515H1567.04C1566.94 31.0539 1566.8 31.2438 1566.63 31.421C1566.45 31.595 1566.23 31.7359 1565.96 31.8434C1565.7 31.9478 1565.39 32 1565.03 32ZM1565.45 30.7376C1565.78 30.7376 1566.05 30.6695 1566.29 30.5335C1566.53 30.3943 1566.71 30.2107 1566.84 29.9829C1566.97 29.7552 1567.04 29.5068 1567.04 29.2378V28.3787C1566.98 28.423 1566.89 28.4642 1566.78 28.5022C1566.66 28.5401 1566.53 28.5733 1566.37 28.6018C1566.23 28.6303 1566.08 28.6556 1565.94 28.6777C1565.79 28.6999 1565.67 28.7189 1565.56 28.7347C1565.32 28.7695 1565.1 28.8265 1564.92 28.9055C1564.72 28.9847 1564.58 29.0954 1564.46 29.2378C1564.35 29.377 1564.3 29.5574 1564.3 29.7788C1564.3 30.0953 1564.41 30.3341 1564.62 30.4955C1564.84 30.6569 1565.11 30.7376 1565.45 30.7376ZM1570.26 31.8529V24.5628H1571.82V25.7779H1571.89C1572.02 25.357 1572.22 25.0327 1572.53 24.8049C1572.83 24.5739 1573.18 24.4585 1573.58 24.4585C1573.67 24.4585 1573.76 24.4632 1573.87 24.4727C1573.99 24.479 1574.08 24.4901 1574.16 24.5059V26.0864C1574.09 26.0611 1573.98 26.0389 1573.83 26.0199C1573.68 25.9978 1573.54 25.9867 1573.41 25.9867C1573.11 25.9867 1572.85 26.0548 1572.62 26.1908C1572.39 26.3237 1572.2 26.5088 1572.06 26.7461C1571.94 26.9833 1571.87 27.257 1571.87 27.5672V31.8529H1570.26ZM1577.97 31.9952C1577.28 31.9952 1576.69 31.8434 1576.19 31.5397C1575.7 31.2328 1575.32 30.7992 1575.05 30.2393C1574.78 29.676 1574.65 29.0131 1574.65 28.2506C1574.65 27.5008 1574.78 26.8426 1575.05 26.2762C1575.32 25.7067 1575.7 25.2637 1576.18 24.9473C1576.66 24.6278 1577.23 24.4679 1577.88 24.4679C1578.3 24.4679 1578.7 24.5407 1579.08 24.6863C1579.45 24.8286 1579.78 25.0502 1580.07 25.3507C1580.36 25.6513 1580.59 26.0341 1580.76 26.4992C1580.92 26.9612 1581 27.5118 1581 28.151V28.6777H1575.4V27.5197H1579.46C1579.46 27.1906 1579.39 26.898 1579.26 26.6417C1579.13 26.3822 1578.95 26.1781 1578.71 26.0295C1578.49 25.8807 1578.21 25.8064 1577.9 25.8064C1577.57 25.8064 1577.29 25.8918 1577.04 26.0627C1576.79 26.2303 1576.59 26.4518 1576.46 26.7271C1576.32 26.9992 1576.25 27.2982 1576.24 27.6241V28.6351C1576.24 29.059 1576.32 29.4228 1576.46 29.7266C1576.61 30.0272 1576.81 30.2582 1577.07 30.4196C1577.33 30.5778 1577.64 30.6569 1577.99 30.6569C1578.23 30.6569 1578.43 30.6221 1578.62 30.5525C1578.82 30.4797 1578.98 30.3737 1579.12 30.2345C1579.26 30.0953 1579.36 29.9228 1579.43 29.7172L1580.94 29.8975C1580.84 30.3214 1580.66 30.6917 1580.39 31.0081C1580.13 31.3213 1579.79 31.565 1579.38 31.739C1578.97 31.9099 1578.5 31.9952 1577.97 31.9952Z" fill="white"/>
<circle cx="1421.5" cy="27.5" r="10.5" fill="#459AFF"/>
<path d="M1423.44 24H1425V29.1486C1425 29.713 1424.85 30.2094 1424.56 30.6378C1424.27 31.0662 1423.87 31.401 1423.34 31.6421C1422.82 31.8807 1422.2 32 1421.5 32C1420.8 32 1420.18 31.8807 1419.66 31.6421C1419.13 31.401 1418.72 31.0662 1418.43 30.6378C1418.14 30.2094 1418 29.713 1418 29.1486V24H1419.56V29.0293C1419.56 29.3577 1419.64 29.6502 1419.8 29.9067C1419.96 30.1632 1420.18 30.3646 1420.47 30.5108C1420.76 30.6545 1421.1 30.7263 1421.5 30.7263C1421.9 30.7263 1422.24 30.6545 1422.53 30.5108C1422.82 30.3646 1423.04 30.1632 1423.2 29.9067C1423.36 29.6502 1423.44 29.3577 1423.44 29.0293V24Z" fill="white"/>
<path opacity="0.8" d="M59.3622 23.2727H60.9432V28.9744C60.9432 29.5994 60.7955 30.1491 60.5 30.6236C60.2074 31.098 59.7955 31.4687 59.2642 31.7358C58.733 32 58.1122 32.1321 57.402 32.1321C56.6889 32.1321 56.0668 32 55.5355 31.7358C55.0043 31.4687 54.5923 31.098 54.2997 30.6236C54.0071 30.1491 53.8608 29.5994 53.8608 28.9744V23.2727H55.4418V28.8423C55.4418 29.206 55.5213 29.5298 55.6804 29.8139C55.8423 30.098 56.0696 30.321 56.3622 30.483C56.6548 30.642 57.0014 30.7216 57.402 30.7216C57.8026 30.7216 58.1491 30.642 58.4418 30.483C58.7372 30.321 58.9645 30.098 59.1236 29.8139C59.2827 29.5298 59.3622 29.206 59.3622 28.8423V23.2727ZM64.136 28.1648V32H62.5934V25.4545H64.0678V26.5668H64.1445C64.2951 26.2003 64.5352 25.9091 64.8647 25.6932C65.1971 25.4773 65.6076 25.3693 66.0962 25.3693C66.5479 25.3693 66.9414 25.4659 67.2766 25.6591C67.6147 25.8523 67.8761 26.1321 68.0607 26.4986C68.2482 26.8651 68.3406 27.3097 68.3377 27.8324V32H66.7951V28.071C66.7951 27.6335 66.6815 27.2912 66.4542 27.044C66.2298 26.7969 65.9187 26.6733 65.521 26.6733C65.2511 26.6733 65.011 26.733 64.8008 26.8523C64.5934 26.9687 64.43 27.1378 64.3107 27.3594C64.1942 27.581 64.136 27.8494 64.136 28.1648ZM73.1744 25.4545V26.6477H69.4116V25.4545H73.1744ZM70.3406 23.8864H71.8832V30.0312C71.8832 30.2386 71.9144 30.3977 71.9769 30.5085C72.0423 30.6165 72.1275 30.6903 72.2326 30.7301C72.3377 30.7699 72.4542 30.7898 72.582 30.7898C72.6786 30.7898 72.7667 30.7827 72.8462 30.7685C72.9286 30.7543 72.9911 30.7415 73.0337 30.7301L73.2937 31.9361C73.2113 31.9645 73.0934 31.9957 72.94 32.0298C72.7894 32.0639 72.6048 32.0838 72.386 32.0895C71.9996 32.1009 71.6516 32.0426 71.342 31.9148C71.0323 31.7841 70.7866 31.5824 70.6048 31.3097C70.4258 31.0369 70.3377 30.696 70.3406 30.2869V23.8864ZM74.4645 32V25.4545H76.0071V32H74.4645ZM75.2401 24.5256C74.9957 24.5256 74.7855 24.4446 74.6094 24.2827C74.4332 24.1179 74.3452 23.9205 74.3452 23.6903C74.3452 23.4574 74.4332 23.2599 74.6094 23.098C74.7855 22.9332 74.9957 22.8509 75.2401 22.8509C75.4872 22.8509 75.6974 22.9332 75.8707 23.098C76.0469 23.2599 76.1349 23.4574 76.1349 23.6903C76.1349 23.9205 76.0469 24.1179 75.8707 24.2827C75.6974 24.4446 75.4872 24.5256 75.2401 24.5256ZM80.8619 25.4545V26.6477H77.0991V25.4545H80.8619ZM78.0281 23.8864H79.5707V30.0312C79.5707 30.2386 79.6019 30.3977 79.6644 30.5085C79.7298 30.6165 79.815 30.6903 79.9201 30.7301C80.0252 30.7699 80.1417 30.7898 80.2695 30.7898C80.3661 30.7898 80.4542 30.7827 80.5337 30.7685C80.6161 30.7543 80.6786 30.7415 80.7212 30.7301L80.9812 31.9361C80.8988 31.9645 80.7809 31.9957 80.6275 32.0298C80.4769 32.0639 80.2923 32.0838 80.0735 32.0895C79.6871 32.1009 79.3391 32.0426 79.0295 31.9148C78.7198 31.7841 78.4741 31.5824 78.2923 31.3097C78.1133 31.0369 78.0252 30.696 78.0281 30.2869V23.8864ZM83.8352 23.2727V32H82.2926V23.2727H83.8352ZM88.3192 32.1278C87.663 32.1278 87.0962 31.9915 86.619 31.7188C86.1445 31.4432 85.7795 31.054 85.5238 30.5511C85.2681 30.0455 85.1403 29.4503 85.1403 28.7656C85.1403 28.0923 85.2681 27.5014 85.5238 26.9929C85.7823 26.4815 86.1431 26.0838 86.6062 25.7997C87.0692 25.5128 87.6133 25.3693 88.2383 25.3693C88.6417 25.3693 89.0224 25.4347 89.3803 25.5653C89.7411 25.6932 90.0593 25.892 90.3349 26.1619C90.6133 26.4318 90.832 26.7756 90.9911 27.1932C91.1502 27.608 91.2298 28.1023 91.2298 28.6761V29.1491H85.8647V28.1094H89.7511C89.7482 27.8139 89.6843 27.5511 89.5593 27.321C89.4343 27.0881 89.2596 26.9048 89.0352 26.7713C88.8136 26.6378 88.555 26.571 88.2596 26.571C87.9442 26.571 87.6673 26.6477 87.4286 26.8011C87.19 26.9517 87.0039 27.1506 86.8704 27.3977C86.7397 27.642 86.6729 27.9105 86.6701 28.2031V29.1108C86.6701 29.4915 86.7397 29.8182 86.8789 30.0909C87.0181 30.3608 87.2127 30.5682 87.4627 30.7131C87.7127 30.8551 88.0053 30.9261 88.3406 30.9261C88.565 30.9261 88.7681 30.8949 88.9499 30.8324C89.1317 30.767 89.2894 30.6719 89.4229 30.5469C89.5565 30.4219 89.6573 30.267 89.7255 30.0824L91.1658 30.2443C91.0749 30.625 90.9016 30.9574 90.646 31.2415C90.3931 31.5227 90.0692 31.7415 89.6744 31.8977C89.2795 32.0511 88.8278 32.1278 88.3192 32.1278ZM94.9638 32.1151C94.4496 32.1151 93.9893 31.983 93.5831 31.7188C93.1768 31.4545 92.8558 31.071 92.62 30.5682C92.3842 30.0653 92.2663 29.4545 92.2663 28.7358C92.2663 28.0085 92.3857 27.3949 92.6243 26.8949C92.8658 26.392 93.1911 26.0128 93.6001 25.7571C94.0092 25.4986 94.4652 25.3693 94.968 25.3693C95.3516 25.3693 95.6669 25.4347 95.9141 25.5653C96.1612 25.6932 96.3572 25.848 96.5021 26.0298C96.647 26.2088 96.7592 26.3778 96.8388 26.5369H96.9027V23.2727H98.4496V32H96.9325V30.9688H96.8388C96.7592 31.1278 96.6442 31.2969 96.4936 31.4759C96.343 31.652 96.1442 31.8026 95.897 31.9276C95.6499 32.0526 95.3388 32.1151 94.9638 32.1151ZM95.3942 30.8494C95.7209 30.8494 95.9993 30.7614 96.2294 30.5852C96.4595 30.4062 96.6342 30.1577 96.7536 29.8395C96.8729 29.5213 96.9325 29.1506 96.9325 28.7273C96.9325 28.304 96.8729 27.9361 96.7536 27.6236C96.6371 27.3111 96.4638 27.0682 96.2337 26.8949C96.0064 26.7216 95.7266 26.6349 95.3942 26.6349C95.0504 26.6349 94.7635 26.7244 94.5334 26.9034C94.3033 27.0824 94.13 27.3295 94.0135 27.6449C93.897 27.9602 93.8388 28.321 93.8388 28.7273C93.8388 29.1364 93.897 29.5014 94.0135 29.8224C94.1328 30.1406 94.3075 30.392 94.5376 30.5767C94.7706 30.7585 95.0561 30.8494 95.3942 30.8494ZM103.138 32V23.2727H106.411C107.081 23.2727 107.644 23.3977 108.098 23.6477C108.556 23.8977 108.901 24.2415 109.134 24.679C109.37 25.1136 109.488 25.608 109.488 26.1619C109.488 26.7216 109.37 27.2187 109.134 27.6534C108.898 28.0881 108.55 28.4304 108.09 28.6804C107.63 28.9276 107.063 29.0511 106.39 29.0511H104.221V27.7514H106.176C106.569 27.7514 106.89 27.6832 107.14 27.5469C107.39 27.4105 107.574 27.223 107.694 26.9844C107.816 26.7457 107.877 26.4716 107.877 26.1619C107.877 25.8523 107.816 25.5795 107.694 25.3438C107.574 25.108 107.388 24.9247 107.135 24.794C106.885 24.6605 106.563 24.5938 106.168 24.5938H104.719V32H103.138ZM110.793 32V25.4545H112.288V26.5455H112.357C112.476 26.1676 112.68 25.8764 112.97 25.6719C113.263 25.4645 113.597 25.3608 113.972 25.3608C114.057 25.3608 114.152 25.3651 114.257 25.3736C114.365 25.3793 114.455 25.3892 114.526 25.4034V26.8224C114.46 26.7997 114.357 26.7798 114.214 26.7628C114.075 26.7429 113.94 26.733 113.81 26.733C113.528 26.733 113.276 26.794 113.051 26.9162C112.83 27.0355 112.655 27.2017 112.527 27.4148C112.399 27.6278 112.335 27.8736 112.335 28.152V32H110.793ZM118.136 32.1278C117.497 32.1278 116.943 31.9872 116.474 31.706C116.005 31.4247 115.642 31.0312 115.383 30.5256C115.127 30.0199 115 29.429 115 28.7528C115 28.0767 115.127 27.4844 115.383 26.9759C115.642 26.4673 116.005 26.0724 116.474 25.7912C116.943 25.5099 117.497 25.3693 118.136 25.3693C118.775 25.3693 119.329 25.5099 119.798 25.7912C120.267 26.0724 120.629 26.4673 120.885 26.9759C121.143 27.4844 121.272 28.0767 121.272 28.7528C121.272 29.429 121.143 30.0199 120.885 30.5256C120.629 31.0312 120.267 31.4247 119.798 31.706C119.329 31.9872 118.775 32.1278 118.136 32.1278ZM118.145 30.892C118.491 30.892 118.781 30.7969 119.014 30.6065C119.247 30.4134 119.42 30.1548 119.534 29.831C119.65 29.5071 119.708 29.1463 119.708 28.7486C119.708 28.348 119.65 27.9858 119.534 27.6619C119.42 27.3352 119.247 27.0753 119.014 26.8821C118.781 26.6889 118.491 26.5923 118.145 26.5923C117.789 26.5923 117.494 26.6889 117.258 26.8821C117.025 27.0753 116.85 27.3352 116.734 27.6619C116.62 27.9858 116.564 28.348 116.564 28.7486C116.564 29.1463 116.62 29.5071 116.734 29.831C116.85 30.1548 117.025 30.4134 117.258 30.6065C117.494 30.7969 117.789 30.892 118.145 30.892ZM122.582 25.4545H124.124V32.375C124.124 32.8466 124.035 33.2358 123.856 33.5426C123.677 33.8494 123.418 34.0781 123.08 34.2287C122.742 34.3793 122.332 34.4545 121.849 34.4545C121.792 34.4545 121.739 34.4531 121.691 34.4503C121.643 34.4503 121.59 34.4489 121.533 34.446V33.1889C121.576 33.1918 121.614 33.1932 121.648 33.1932C121.683 33.196 121.718 33.1974 121.755 33.1974C122.05 33.1974 122.262 33.125 122.39 32.9801C122.518 32.8381 122.582 32.6293 122.582 32.3537V25.4545ZM123.349 24.5256C123.102 24.5256 122.89 24.4446 122.714 24.2827C122.54 24.1179 122.454 23.9205 122.454 23.6903C122.454 23.4574 122.54 23.2599 122.714 23.098C122.89 22.9332 123.102 22.8509 123.349 22.8509C123.593 22.8509 123.802 22.9332 123.975 23.098C124.151 23.2599 124.239 23.4574 124.239 23.6903C124.239 23.9205 124.151 24.1179 123.975 24.2827C123.802 24.4446 123.593 24.5256 123.349 24.5256ZM128.608 32.1278C127.952 32.1278 127.385 31.9915 126.908 31.7188C126.434 31.4432 126.069 31.054 125.813 30.5511C125.557 30.0455 125.429 29.4503 125.429 28.7656C125.429 28.0923 125.557 27.5014 125.813 26.9929C126.071 26.4815 126.432 26.0838 126.895 25.7997C127.358 25.5128 127.902 25.3693 128.527 25.3693C128.931 25.3693 129.311 25.4347 129.669 25.5653C130.03 25.6932 130.348 25.892 130.624 26.1619C130.902 26.4318 131.121 26.7756 131.28 27.1932C131.439 27.608 131.519 28.1023 131.519 28.6761V29.1491H126.154V28.1094H130.04C130.037 27.8139 129.973 27.5511 129.848 27.321C129.723 27.0881 129.549 26.9048 129.324 26.7713C129.103 26.6378 128.844 26.571 128.549 26.571C128.233 26.571 127.956 26.6477 127.718 26.8011C127.479 26.9517 127.293 27.1506 127.159 27.3977C127.029 27.642 126.962 27.9105 126.959 28.2031V29.1108C126.959 29.4915 127.029 29.8182 127.168 30.0909C127.307 30.3608 127.502 30.5682 127.752 30.7131C128.002 30.8551 128.294 30.9261 128.63 30.9261C128.854 30.9261 129.057 30.8949 129.239 30.8324C129.421 30.767 129.578 30.6719 129.712 30.5469C129.846 30.4219 129.946 30.267 130.015 30.0824L131.455 30.2443C131.364 30.625 131.191 30.9574 130.935 31.2415C130.682 31.5227 130.358 31.7415 129.963 31.8977C129.569 32.0511 129.117 32.1278 128.608 32.1278ZM135.679 32.1278C135.026 32.1278 134.464 31.9844 133.996 31.6974C133.53 31.4105 133.17 31.0142 132.918 30.5085C132.668 30 132.543 29.4148 132.543 28.7528C132.543 28.0881 132.67 27.5014 132.926 26.9929C133.182 26.4815 133.543 26.0838 134.009 25.7997C134.477 25.5128 135.031 25.3693 135.67 25.3693C136.202 25.3693 136.672 25.4673 137.081 25.6634C137.493 25.8565 137.821 26.1307 138.065 26.4858C138.31 26.8381 138.449 27.25 138.483 27.7216H137.009C136.949 27.4062 136.807 27.1435 136.582 26.9332C136.361 26.7202 136.064 26.6136 135.692 26.6136C135.376 26.6136 135.099 26.6989 134.861 26.8693C134.622 27.0369 134.436 27.2784 134.303 27.5938C134.172 27.9091 134.107 28.2869 134.107 28.7273C134.107 29.1733 134.172 29.5568 134.303 29.8778C134.433 30.196 134.616 30.4418 134.852 30.6151C135.091 30.7855 135.371 30.8707 135.692 30.8707C135.919 30.8707 136.122 30.8281 136.301 30.7429C136.483 30.6548 136.635 30.5284 136.757 30.3636C136.879 30.1989 136.963 29.9986 137.009 29.7628H138.483C138.446 30.2259 138.31 30.6364 138.074 30.9943C137.838 31.3494 137.517 31.6278 137.111 31.8295C136.705 32.0284 136.227 32.1278 135.679 32.1278ZM143.018 25.4545V26.6477H139.255V25.4545H143.018ZM140.184 23.8864H141.727V30.0312C141.727 30.2386 141.758 30.3977 141.821 30.5085C141.886 30.6165 141.971 30.6903 142.076 30.7301C142.181 30.7699 142.298 30.7898 142.426 30.7898C142.522 30.7898 142.61 30.7827 142.69 30.7685C142.772 30.7543 142.835 30.7415 142.877 30.7301L143.137 31.9361C143.055 31.9645 142.937 31.9957 142.784 32.0298C142.633 32.0639 142.449 32.0838 142.23 32.0895C141.843 32.1009 141.495 32.0426 141.186 31.9148C140.876 31.7841 140.63 31.5824 140.449 31.3097C140.27 31.0369 140.181 30.696 140.184 30.2869V23.8864ZM148.827 28.1648V32H147.285V25.4545H148.759V26.5668H148.836C148.987 26.2003 149.227 25.9091 149.556 25.6932C149.888 25.4773 150.299 25.3693 150.788 25.3693C151.239 25.3693 151.633 25.4659 151.968 25.6591C152.306 25.8523 152.567 26.1321 152.752 26.4986C152.94 26.8651 153.032 27.3097 153.029 27.8324V32H151.487V28.071C151.487 27.6335 151.373 27.2912 151.146 27.044C150.921 26.7969 150.61 26.6733 150.212 26.6733C149.942 26.6733 149.702 26.733 149.492 26.8523C149.285 26.9687 149.121 27.1378 149.002 27.3594C148.886 27.581 148.827 27.8494 148.827 28.1648ZM156.481 32.1321C156.066 32.1321 155.692 32.0582 155.36 31.9105C155.031 31.7599 154.769 31.5384 154.576 31.2457C154.386 30.9531 154.29 30.5923 154.29 30.1634C154.29 29.794 154.359 29.4886 154.495 29.2472C154.631 29.0057 154.817 28.8125 155.053 28.6676C155.289 28.5227 155.555 28.4134 155.85 28.3395C156.148 28.2628 156.457 28.2074 156.775 28.1733C157.158 28.1335 157.469 28.098 157.708 28.0668C157.947 28.0327 158.12 27.9815 158.228 27.9134C158.339 27.8423 158.394 27.733 158.394 27.5852V27.5597C158.394 27.2386 158.299 26.9901 158.109 26.8139C157.918 26.6378 157.644 26.5497 157.286 26.5497C156.908 26.5497 156.609 26.6321 156.387 26.7969C156.168 26.9616 156.021 27.1562 155.944 27.3807L154.504 27.1761C154.617 26.7784 154.805 26.446 155.066 26.179C155.327 25.9091 155.647 25.7074 156.025 25.5739C156.403 25.4375 156.82 25.3693 157.278 25.3693C157.593 25.3693 157.907 25.4062 158.219 25.4801C158.532 25.554 158.817 25.6761 159.076 25.8466C159.335 26.0142 159.542 26.2429 159.698 26.5327C159.857 26.8224 159.937 27.1847 159.937 27.6193V32H158.454V31.1009H158.403C158.309 31.2827 158.177 31.4531 158.006 31.6122C157.839 31.7685 157.627 31.8949 157.371 31.9915C157.119 32.0852 156.822 32.1321 156.481 32.1321ZM156.881 30.9986C157.191 30.9986 157.46 30.9375 157.687 30.8153C157.914 30.6903 158.089 30.5256 158.211 30.321C158.336 30.1165 158.398 29.8935 158.398 29.652V28.8807C158.35 28.9205 158.268 28.9574 158.151 28.9915C158.038 29.0256 157.91 29.0554 157.768 29.081C157.626 29.1065 157.485 29.1293 157.346 29.1491C157.207 29.169 157.086 29.1861 156.984 29.2003C156.754 29.2315 156.548 29.2827 156.366 29.3537C156.184 29.4247 156.04 29.5241 155.935 29.652C155.83 29.777 155.778 29.9389 155.778 30.1378C155.778 30.4219 155.881 30.6364 156.089 30.7812C156.296 30.9261 156.56 30.9986 156.881 30.9986ZM161.488 32V25.4545H162.962V26.5668H163.039C163.175 26.1918 163.401 25.8991 163.717 25.6889C164.032 25.4759 164.408 25.3693 164.846 25.3693C165.289 25.3693 165.663 25.4773 165.967 25.6932C166.273 25.9062 166.489 26.1974 166.614 26.5668H166.683C166.827 26.2031 167.072 25.9134 167.415 25.6974C167.762 25.4787 168.173 25.3693 168.647 25.3693C169.249 25.3693 169.741 25.5597 170.121 25.9403C170.502 26.321 170.692 26.8764 170.692 27.6065V32H169.146V27.8452C169.146 27.4389 169.038 27.142 168.822 26.9545C168.606 26.7642 168.342 26.669 168.029 26.669C167.657 26.669 167.366 26.7855 167.156 27.0185C166.948 27.2486 166.844 27.5483 166.844 27.9176V32H165.332V27.7812C165.332 27.4432 165.229 27.1733 165.025 26.9716C164.823 26.7699 164.559 26.669 164.232 26.669C164.011 26.669 163.809 26.7259 163.627 26.8395C163.445 26.9503 163.3 27.108 163.192 27.3125C163.085 27.5142 163.031 27.75 163.031 28.0199V32H161.488ZM175.155 32.1278C174.499 32.1278 173.932 31.9915 173.455 31.7188C172.98 31.4432 172.615 31.054 172.36 30.5511C172.104 30.0455 171.976 29.4503 171.976 28.7656C171.976 28.0923 172.104 27.5014 172.36 26.9929C172.618 26.4815 172.979 26.0838 173.442 25.7997C173.905 25.5128 174.449 25.3693 175.074 25.3693C175.478 25.3693 175.858 25.4347 176.216 25.5653C176.577 25.6932 176.895 25.892 177.171 26.1619C177.449 26.4318 177.668 26.7756 177.827 27.1932C177.986 27.608 178.066 28.1023 178.066 28.6761V29.1491H172.701V28.1094H176.587C176.584 27.8139 176.52 27.5511 176.395 27.321C176.27 27.0881 176.096 26.9048 175.871 26.7713C175.65 26.6378 175.391 26.571 175.096 26.571C174.78 26.571 174.503 26.6477 174.265 26.8011C174.026 26.9517 173.84 27.1506 173.706 27.3977C173.576 27.642 173.509 27.9105 173.506 28.2031V29.1108C173.506 29.4915 173.576 29.8182 173.715 30.0909C173.854 30.3608 174.049 30.5682 174.299 30.7131C174.549 30.8551 174.841 30.9261 175.176 30.9261C175.401 30.9261 175.604 30.8949 175.786 30.8324C175.968 30.767 176.125 30.6719 176.259 30.5469C176.392 30.4219 176.493 30.267 176.561 30.0824L178.002 30.2443C177.911 30.625 177.738 30.9574 177.482 31.2415C177.229 31.5227 176.905 31.7415 176.51 31.8977C176.115 32.0511 175.664 32.1278 175.155 32.1278Z" fill="white"/>
<path opacity="0.5" d="M1439.79 29.874C1439.63 30.042 1439.37 30.042 1439.21 29.874L1437.12 27.732C1436.96 27.565 1436.96 27.293 1437.12 27.126C1437.29 26.958 1437.55 26.958 1437.71 27.126L1439.5 28.965L1441.29 27.127C1441.45 26.959 1441.72 26.959 1441.88 27.127C1442.04 27.294 1442.04 27.566 1441.88 27.733L1439.8 29.876L1439.79 29.874Z" fill="white"/>
</g>
<defs>
<filter id="filter0_d_3024_137" x="11" y="0" width="53" height="62" filterUnits="userSpaceOnUse" color-interpolation-filters="sRGB">
<feFlood flood-opacity="0" result="BackgroundImageFix"/>
<feColorMatrix in="SourceAlpha" type="matrix" values="0 0 0 0 0 0 0 0 0 0 0 0 0 0 0 0 0 0 127 0" result="hardAlpha"/>
<feOffset dx="4" dy="4"/>
<feGaussianBlur stdDeviation="10"/>
<feColorMatrix type="matrix" values="0 0 0 0 0 0 0 0 0 0 0 0 0 0 0 0 0 0 0.19 0"/>
<feBlend mode="normal" in2="BackgroundImageFix" result="effect1_dropShadow_3024_137"/>
<feBlend mode="normal" in="SourceGraphic" in2="effect1_dropShadow_3024_137" result="shape"/>
</filter>
<filter id="filter1_d_3024_137" x="4" y="2" width="53" height="62" filterUnits="userSpaceOnUse" color-interpolation-filters="sRGB">
<feFlood flood-opacity="0" result="BackgroundImageFix"/>
<feColorMatrix in="SourceAlpha" type="matrix" values="0 0 0 0 0 0 0 0 0 0 0 0 0 0 0 0 0 0 127 0" result="hardAlpha"/>
<feOffset dx="4" dy="4"/>
<feGaussianBlur stdDeviation="10"/>
<feColorMatrix type="matrix" values="0 0 0 0 0 0 0 0 0 0 0 0 0 0 0 0 0 0 0.19 0"/>
<feBlend mode="normal" in2="BackgroundImageFix" result="effect1_dropShadow_3024_137"/>
<feBlend mode="normal" in="SourceGraphic" in2="effect1_dropShadow_3024_137" result="shape"/>
</filter>
<clipPath id="clip0_3024_137">
<path d="M0 15C0 6.71573 6.71573 0 15 0H1668C1676.28 0 1683 6.71573 1683 15V53H0V15Z" fill="white"/>
</clipPath>
</defs>
</svg>
