<svg width="135" height="72" viewBox="0 0 135 72" fill="none" xmlns="http://www.w3.org/2000/svg">
<path d="M0.839996 69.1654L9.672 67.8345V3.24107L0.839996 1.99887V0.046875H30.984C40.456 0.046875 47.496 1.91015 52.104 5.6367C56.712 9.36324 59.016 14.746 59.016 21.7851C59.016 28.8241 56.712 34.2069 52.104 37.9334C47.496 41.66 40.456 43.5232 30.984 43.5232H20.232V67.8345L29.064 69.1654V71.0287H0.839996V69.1654ZM29.64 41.3938C41.48 41.3938 47.4 35.4491 47.4 23.5596V20.0105C47.4 8.18021 41.48 2.26507 29.64 2.26507H20.232V41.3938H29.64ZM122.241 71.916C118.657 71.916 115.969 71.1174 114.177 69.5203C112.385 67.9232 111.169 65.2023 110.529 61.3574L108.705 49.468C108.065 45.4457 106.561 42.3106 104.193 40.0629C101.889 37.756 98.273 36.6025 93.345 36.6025H85.857V67.8345L94.689 69.1654V71.0287H66.465V69.1654L75.297 67.8345V3.24107L66.465 1.99887V0.046875H93.345C103.777 0.046875 111.329 1.55524 116.001 4.57196C120.673 7.58869 123.009 12.1729 123.009 18.3247C123.009 28.4988 116.353 34.3843 103.041 35.9814V36.5138C107.969 37.1645 111.905 38.7911 114.849 41.3938C117.857 43.9965 119.745 47.4568 120.513 51.7749L121.761 59.4054C122.273 62.7179 122.849 64.9657 123.489 66.1487C124.193 67.3317 125.249 67.9232 126.657 67.9232C127.617 67.9232 128.641 67.6571 129.729 67.1247C130.817 66.5332 131.841 65.7938 132.801 64.9065L134.433 66.5036C132.577 68.4556 130.657 69.8457 128.673 70.6738C126.689 71.5019 124.545 71.916 122.241 71.916ZM96.609 34.4731C101.281 34.4731 104.897 33.1717 107.457 30.5691C110.081 27.9072 111.393 24.0032 111.393 18.8571V16.9938C111.393 7.17463 105.377 2.26507 93.345 2.26507H85.857V34.4731H96.609Z" fill="white"/>
</svg>
