<svg width="227" height="55" viewBox="0 0 227 55" fill="none" xmlns="http://www.w3.org/2000/svg">
<path opacity="0.5" d="M0.56 12V11.706L1.848 11.496V1.304L0.56 1.108V0.8H4.676V1.108L3.388 1.304V11.496L4.676 11.706V12H0.56ZM5.61433 11.72L6.59433 11.58V5.168L5.61433 5.028V4.748H7.99433V6.26C8.33966 5.756 8.74566 5.35933 9.21233 5.07C9.679 4.77133 10.183 4.622 10.7243 4.622C11.3963 4.622 11.9237 4.79 12.3063 5.126C12.6983 5.462 12.8943 5.96133 12.8943 6.624V11.58L13.8743 11.72V12H10.6543V11.72L11.4943 11.58V6.652C11.4943 6.16667 11.3963 5.79333 11.2003 5.532C11.0043 5.26133 10.701 5.126 10.2903 5.126C9.861 5.126 9.44566 5.28467 9.04433 5.602C8.65233 5.91 8.30233 6.29267 7.99433 6.75V11.58L8.83433 11.72V12H5.61433V11.72ZM14.501 11.72L15.481 11.58V5.168L14.501 5.028V4.748H16.881V6.26C17.2264 5.756 17.6324 5.35933 18.099 5.07C18.5657 4.77133 19.0697 4.622 19.611 4.622C20.283 4.622 20.8104 4.79 21.193 5.126C21.585 5.462 21.781 5.96133 21.781 6.624V11.58L22.761 11.72V12H19.541V11.72L20.381 11.58V6.652C20.381 6.16667 20.283 5.79333 20.087 5.532C19.891 5.26133 19.5877 5.126 19.177 5.126C18.7477 5.126 18.3324 5.28467 17.931 5.602C17.539 5.91 17.189 6.29267 16.881 6.75V11.58L17.721 11.72V12H14.501V11.72ZM27.2378 12.14C26.5658 12.14 25.9544 11.986 25.4038 11.678C24.8531 11.3607 24.4144 10.9173 24.0878 10.348C23.7704 9.76933 23.6118 9.11133 23.6118 8.374C23.6118 7.63667 23.7704 6.98333 24.0878 6.414C24.4144 5.84467 24.8531 5.406 25.4038 5.098C25.9544 4.78067 26.5658 4.622 27.2378 4.622C27.9098 4.622 28.5211 4.78067 29.0718 5.098C29.6224 5.406 30.0564 5.84467 30.3738 6.414C30.7004 6.98333 30.8638 7.63667 30.8638 8.374C30.8638 9.11133 30.7004 9.76933 30.3738 10.348C30.0564 10.9173 29.6224 11.3607 29.0718 11.678C28.5211 11.986 27.9098 12.14 27.2378 12.14ZM27.2378 11.832C27.9284 11.832 28.4464 11.58 28.7918 11.076C29.1464 10.572 29.3238 9.90467 29.3238 9.074V7.674C29.3238 6.84333 29.1464 6.18067 28.7918 5.686C28.4464 5.182 27.9284 4.93 27.2378 4.93C26.5471 4.93 26.0244 5.182 25.6698 5.686C25.3244 6.18067 25.1518 6.84333 25.1518 7.674V9.074C25.1518 9.90467 25.3244 10.572 25.6698 11.076C26.0244 11.58 26.5471 11.832 27.2378 11.832ZM34.8955 12.28L31.8995 5.168L30.9895 5.028V4.748H34.4755V5.028L33.4675 5.21L35.5815 10.474L37.4715 5.392L36.2395 5.042V4.762H38.7455V5.042L37.8635 5.378L35.2875 12.28H34.8955ZM41.1607 12.14C40.5633 12.14 40.0733 11.986 39.6907 11.678C39.308 11.3607 39.1167 10.894 39.1167 10.278C39.1167 9.40067 39.4853 8.78 40.2227 8.416C40.96 8.04267 41.814 7.856 42.7847 7.856H43.7227V6.778C43.7227 6.29267 43.6667 5.91933 43.5547 5.658C43.452 5.38733 43.2887 5.20067 43.0647 5.098C42.8407 4.986 42.5373 4.93 42.1547 4.93C41.716 4.93 41.3893 5.01867 41.1747 5.196C40.96 5.364 40.8527 5.59267 40.8527 5.882C40.8527 6.15267 40.9833 6.33 41.2447 6.414C41.2447 6.64733 41.156 6.85267 40.9787 7.03C40.8013 7.20733 40.5913 7.296 40.3487 7.296C40.0873 7.296 39.8773 7.226 39.7187 7.086C39.56 6.93667 39.4807 6.71267 39.4807 6.414C39.4807 5.87267 39.7513 5.43867 40.2927 5.112C40.834 4.78533 41.5107 4.622 42.3227 4.622C44.1893 4.622 45.1227 5.434 45.1227 7.058V11.062C45.1227 11.2673 45.1647 11.426 45.2487 11.538C45.342 11.6407 45.4727 11.692 45.6407 11.692C45.7993 11.692 45.9253 11.6407 46.0187 11.538C46.112 11.426 46.1587 11.2767 46.1587 11.09H46.4527C46.4527 11.4167 46.3453 11.6733 46.1307 11.86C45.9253 12.0467 45.636 12.14 45.2627 12.14C44.8333 12.14 44.4693 12.0187 44.1707 11.776C43.8813 11.524 43.732 11.1367 43.7227 10.614C43.4987 11.09 43.1533 11.4633 42.6867 11.734C42.2293 12.0047 41.7207 12.14 41.1607 12.14ZM41.9307 11.524C42.1827 11.524 42.4393 11.4493 42.7007 11.3C42.9713 11.1507 43.2 10.936 43.3867 10.656C43.5733 10.3667 43.6853 10.0213 43.7227 9.62V8.164H42.7847C42.0193 8.164 41.4453 8.33667 41.0627 8.682C40.6893 9.018 40.5027 9.494 40.5027 10.11C40.5027 10.6233 40.624 10.9873 40.8667 11.202C41.1093 11.4167 41.464 11.524 41.9307 11.524ZM49.692 12.14C49.076 12.14 48.5813 11.986 48.208 11.678C47.844 11.37 47.662 10.88 47.662 10.208V5.168L46.668 5.028V4.748H47.662V3.586L49.062 3.236V4.748H50.882V5.028L49.062 5.168V10.18C49.062 11.1693 49.4167 11.664 50.126 11.664C50.2753 11.664 50.4153 11.6407 50.546 11.594C50.686 11.5473 50.7933 11.5007 50.868 11.454C50.952 11.4073 51.0033 11.3747 51.022 11.356L51.204 11.58C50.784 11.9533 50.28 12.14 49.692 12.14ZM53.1455 3.124C52.8842 3.124 52.6602 3.03533 52.4735 2.858C52.2869 2.67133 52.1935 2.44733 52.1935 2.186C52.1935 1.92467 52.2822 1.70533 52.4595 1.528C52.6462 1.35067 52.8749 1.262 53.1455 1.262C53.3975 1.262 53.6122 1.35067 53.7895 1.528C53.9669 1.70533 54.0555 1.92467 54.0555 2.186C54.0555 2.44733 53.9669 2.67133 53.7895 2.858C53.6122 3.03533 53.3975 3.124 53.1455 3.124ZM51.6615 12V11.72L52.6415 11.58V5.182L51.6615 5.042V4.762H54.0415V11.58L55.0215 11.72V12H51.6615ZM59.0264 12.28L56.0304 5.168L55.1204 5.028V4.748H58.6064V5.028L57.5984 5.21L59.7124 10.474L61.6024 5.392L60.3704 5.042V4.762H62.8764V5.042L61.9944 5.378L59.4184 12.28H59.0264ZM66.7648 12.14C66.0741 12.14 65.4488 11.986 64.8888 11.678C64.3288 11.3607 63.8855 10.9173 63.5588 10.348C63.2321 9.77867 63.0688 9.12067 63.0688 8.374C63.0688 7.62733 63.2275 6.974 63.5448 6.414C63.8715 5.84467 64.3055 5.406 64.8468 5.098C65.3975 4.78067 66.0088 4.622 66.6808 4.622C67.2688 4.622 67.7961 4.75267 68.2628 5.014C68.7295 5.27533 69.0935 5.63933 69.3548 6.106C69.6161 6.56333 69.7515 7.09067 69.7608 7.688H64.6088V9.074C64.6088 9.89533 64.7908 10.5627 65.1548 11.076C65.5281 11.58 66.0648 11.832 66.7648 11.832C67.4088 11.832 67.9781 11.65 68.4728 11.286C68.9675 10.922 69.2708 10.4507 69.3828 9.872H69.7048C69.5741 10.5627 69.2428 11.1133 68.7108 11.524C68.1788 11.9347 67.5301 12.14 66.7648 12.14ZM68.2208 7.338C68.2208 6.526 68.0948 5.924 67.8428 5.532C67.5908 5.13067 67.1988 4.93 66.6668 4.93C66.0415 4.93 65.5561 5.14933 65.2108 5.588C64.8655 6.02667 64.6695 6.61 64.6228 7.338H68.2208ZM73.9581 15.682L74.9381 15.542V5.182L73.9581 5.042V4.762H76.3381V6.232C76.5714 5.728 76.8841 5.336 77.2761 5.056C77.6774 4.76667 78.1534 4.622 78.7041 4.622C79.3667 4.622 79.9501 4.78067 80.4541 5.098C80.9581 5.406 81.3501 5.84467 81.6301 6.414C81.9101 6.974 82.0501 7.632 82.0501 8.388C82.0501 9.144 81.9101 9.80667 81.6301 10.376C81.3501 10.936 80.9581 11.37 80.4541 11.678C79.9501 11.986 79.3667 12.14 78.7041 12.14C78.1534 12.14 77.6774 12 77.2761 11.72C76.8841 11.4307 76.5714 11.0387 76.3381 10.544V15.542L77.6541 15.682V15.962H73.9581V15.682ZM78.5641 11.79C79.8614 11.79 80.5101 10.8893 80.5101 9.088V7.688C80.5101 5.87733 79.8614 4.972 78.5641 4.972C78.1534 4.972 77.7801 5.09333 77.4441 5.336C77.1081 5.56933 76.8421 5.88667 76.6461 6.288C76.4501 6.68933 76.3474 7.12333 76.3381 7.59V9.088C76.3381 9.564 76.4314 10.012 76.6181 10.432C76.8141 10.8427 77.0801 11.174 77.4161 11.426C77.7614 11.6687 78.1441 11.79 78.5641 11.79ZM83.0245 11.72L84.0045 11.58V5.168L83.0245 5.028V4.748H85.4045V5.826C85.9925 5.02333 86.6552 4.622 87.3925 4.622C87.7472 4.622 88.0598 4.71533 88.3305 4.902C88.6012 5.07933 88.7365 5.336 88.7365 5.672C88.7365 5.91467 88.6572 6.12 88.4985 6.288C88.3398 6.44667 88.1298 6.526 87.8685 6.526C87.5698 6.526 87.3272 6.40933 87.1405 6.176C87.2432 6.04533 87.2945 5.90533 87.2945 5.756C87.2945 5.59733 87.2385 5.47133 87.1265 5.378C87.0238 5.27533 86.8838 5.224 86.7065 5.224C86.5105 5.224 86.3098 5.31733 86.1045 5.504C85.8992 5.68133 85.6658 5.96133 85.4045 6.344V11.58L86.5245 11.72V12H83.0245V11.72ZM92.9311 12.14C92.2591 12.14 91.6478 11.986 91.0971 11.678C90.5465 11.3607 90.1078 10.9173 89.7811 10.348C89.4638 9.76933 89.3051 9.11133 89.3051 8.374C89.3051 7.63667 89.4638 6.98333 89.7811 6.414C90.1078 5.84467 90.5465 5.406 91.0971 5.098C91.6478 4.78067 92.2591 4.622 92.9311 4.622C93.6031 4.622 94.2145 4.78067 94.7651 5.098C95.3158 5.406 95.7498 5.84467 96.0671 6.414C96.3938 6.98333 96.5571 7.63667 96.5571 8.374C96.5571 9.11133 96.3938 9.76933 96.0671 10.348C95.7498 10.9173 95.3158 11.3607 94.7651 11.678C94.2145 11.986 93.6031 12.14 92.9311 12.14ZM92.9311 11.832C93.6218 11.832 94.1398 11.58 94.4851 11.076C94.8398 10.572 95.0171 9.90467 95.0171 9.074V7.674C95.0171 6.84333 94.8398 6.18067 94.4851 5.686C94.1398 5.182 93.6218 4.93 92.9311 4.93C92.2405 4.93 91.7178 5.182 91.3631 5.686C91.0178 6.18067 90.8451 6.84333 90.8451 7.674V9.074C90.8451 9.90467 91.0178 10.572 91.3631 11.076C91.7178 11.58 92.2405 11.832 92.9311 11.832ZM101.1 12.14C100.438 12.14 99.8543 11.986 99.3503 11.678C98.8463 11.3607 98.4543 10.922 98.1743 10.362C97.8943 9.79267 97.7543 9.13 97.7543 8.374C97.7543 7.618 97.8943 6.96 98.1743 6.4C98.4543 5.83067 98.8463 5.392 99.3503 5.084C99.8543 4.776 100.438 4.622 101.1 4.622C101.642 4.622 102.113 4.76667 102.514 5.056C102.916 5.336 103.233 5.72333 103.466 6.218V1.22L102.486 1.08V0.8H104.866V11.58L105.846 11.72V12H103.466V10.544C103.233 11.0387 102.916 11.4307 102.514 11.72C102.113 12 101.642 12.14 101.1 12.14ZM101.24 11.79C101.651 11.79 102.02 11.6733 102.346 11.44C102.682 11.1973 102.948 10.88 103.144 10.488C103.35 10.0867 103.457 9.65267 103.466 9.186V7.576C103.457 7.10933 103.35 6.68 103.144 6.288C102.948 5.88667 102.682 5.56933 102.346 5.336C102.02 5.09333 101.651 4.972 101.24 4.972C99.943 4.972 99.2943 5.87267 99.2943 7.674V9.074C99.2943 10.8847 99.943 11.79 101.24 11.79ZM109.523 12.14C108.851 12.14 108.319 11.972 107.927 11.636C107.544 11.3 107.353 10.8007 107.353 10.138V5.168L106.373 5.028V4.748H108.753V10.11C108.753 10.586 108.851 10.9593 109.047 11.23C109.243 11.5007 109.546 11.636 109.957 11.636C110.386 11.636 110.797 11.496 111.189 11.216C111.59 10.9267 111.945 10.572 112.253 10.152V5.168L111.273 5.028V4.748H113.653V11.58L114.633 11.72V12H112.253V10.656C111.917 11.1227 111.511 11.4867 111.035 11.748C110.568 12.0093 110.064 12.14 109.523 12.14ZM119.208 12.14C118.536 12.14 117.925 11.986 117.374 11.678C116.824 11.3607 116.385 10.9173 116.058 10.348C115.741 9.76933 115.582 9.11133 115.582 8.374C115.582 7.59933 115.75 6.92733 116.086 6.358C116.432 5.78867 116.88 5.35933 117.43 5.07C117.981 4.77133 118.574 4.622 119.208 4.622C119.74 4.622 120.226 4.71533 120.664 4.902C121.103 5.07933 121.448 5.33133 121.7 5.658C121.962 5.98467 122.092 6.35333 122.092 6.764C122.092 7.072 122.013 7.31 121.854 7.478C121.696 7.63667 121.486 7.716 121.224 7.716C120.972 7.716 120.762 7.632 120.594 7.464C120.426 7.296 120.342 7.086 120.342 6.834C120.482 6.74067 120.58 6.638 120.636 6.526C120.692 6.414 120.72 6.274 120.72 6.106C120.72 5.76067 120.58 5.48067 120.3 5.266C120.03 5.042 119.666 4.93 119.208 4.93C118.536 4.93 118.018 5.17267 117.654 5.658C117.3 6.134 117.122 6.806 117.122 7.674V9.074C117.122 9.90467 117.295 10.572 117.64 11.076C117.995 11.58 118.518 11.832 119.208 11.832C119.843 11.832 120.394 11.6547 120.86 11.3C121.336 10.936 121.63 10.46 121.742 9.872H122.064C121.934 10.5627 121.607 11.1133 121.084 11.524C120.571 11.9347 119.946 12.14 119.208 12.14ZM125.913 12.14C125.297 12.14 124.802 11.986 124.429 11.678C124.065 11.37 123.883 10.88 123.883 10.208V5.168L122.889 5.028V4.748H123.883V3.586L125.283 3.236V4.748H127.103V5.028L125.283 5.168V10.18C125.283 11.1693 125.637 11.664 126.347 11.664C126.496 11.664 126.636 11.6407 126.767 11.594C126.907 11.5473 127.014 11.5007 127.089 11.454C127.173 11.4073 127.224 11.3747 127.243 11.356L127.425 11.58C127.005 11.9533 126.501 12.14 125.913 12.14ZM134.788 12.14C134.125 12.14 133.542 11.986 133.038 11.678C132.534 11.3607 132.142 10.922 131.862 10.362C131.582 9.79267 131.442 9.13 131.442 8.374C131.442 7.618 131.582 6.96 131.862 6.4C132.142 5.83067 132.534 5.392 133.038 5.084C133.542 4.776 134.125 4.622 134.788 4.622C135.329 4.622 135.801 4.76667 136.202 5.056C136.603 5.336 136.921 5.72333 137.154 6.218V1.22L136.174 1.08V0.8H138.554V11.58L139.534 11.72V12H137.154V10.544C136.921 11.0387 136.603 11.4307 136.202 11.72C135.801 12 135.329 12.14 134.788 12.14ZM134.928 11.79C135.339 11.79 135.707 11.6733 136.034 11.44C136.37 11.1973 136.636 10.88 136.832 10.488C137.037 10.0867 137.145 9.65267 137.154 9.186V7.576C137.145 7.10933 137.037 6.68 136.832 6.288C136.636 5.88667 136.37 5.56933 136.034 5.336C135.707 5.09333 135.339 4.972 134.928 4.972C133.631 4.972 132.982 5.87267 132.982 7.674V9.074C132.982 10.8847 133.631 11.79 134.928 11.79ZM144.12 12.14C143.43 12.14 142.804 11.986 142.244 11.678C141.684 11.3607 141.241 10.9173 140.914 10.348C140.588 9.77867 140.424 9.12067 140.424 8.374C140.424 7.62733 140.583 6.974 140.9 6.414C141.227 5.84467 141.661 5.406 142.202 5.098C142.753 4.78067 143.364 4.622 144.036 4.622C144.624 4.622 145.152 4.75267 145.618 5.014C146.085 5.27533 146.449 5.63933 146.71 6.106C146.972 6.56333 147.107 7.09067 147.116 7.688H141.964V9.074C141.964 9.89533 142.146 10.5627 142.51 11.076C142.884 11.58 143.42 11.832 144.12 11.832C144.764 11.832 145.334 11.65 145.828 11.286C146.323 10.922 146.626 10.4507 146.738 9.872H147.06C146.93 10.5627 146.598 11.1133 146.066 11.524C145.534 11.9347 144.886 12.14 144.12 12.14ZM145.576 7.338C145.576 6.526 145.45 5.924 145.198 5.532C144.946 5.13067 144.554 4.93 144.022 4.93C143.397 4.93 142.912 5.14933 142.566 5.588C142.221 6.02667 142.025 6.61 141.978 7.338H145.576ZM151.03 12.14C150.265 12.14 149.625 11.9767 149.112 11.65C148.599 11.3233 148.342 10.8987 148.342 10.376C148.342 10.1053 148.412 9.89533 148.552 9.746C148.701 9.58733 148.897 9.508 149.14 9.508C149.327 9.508 149.485 9.55467 149.616 9.648C149.747 9.74133 149.84 9.872 149.896 10.04C149.691 10.264 149.588 10.502 149.588 10.754C149.588 11.0433 149.719 11.2953 149.98 11.51C150.241 11.7247 150.591 11.832 151.03 11.832C151.618 11.832 152.099 11.7013 152.472 11.44C152.845 11.1693 153.032 10.81 153.032 10.362C153.032 10.1007 152.953 9.90467 152.794 9.774C152.635 9.64333 152.327 9.494 151.87 9.326L149.756 8.556C148.925 8.25733 148.51 7.702 148.51 6.89C148.51 6.22733 148.739 5.686 149.196 5.266C149.653 4.83667 150.283 4.622 151.086 4.622C151.749 4.622 152.313 4.776 152.78 5.084C153.256 5.38267 153.494 5.812 153.494 6.372C153.494 6.596 153.433 6.778 153.312 6.918C153.191 7.04867 153.032 7.114 152.836 7.114C152.64 7.114 152.477 7.06267 152.346 6.96C152.225 6.848 152.164 6.69867 152.164 6.512C152.285 6.41867 152.369 6.32067 152.416 6.218C152.463 6.106 152.486 5.97533 152.486 5.826C152.486 5.56467 152.369 5.35 152.136 5.182C151.912 5.014 151.562 4.93 151.086 4.93C150.675 4.93 150.321 4.99533 150.022 5.126C149.733 5.24733 149.513 5.41067 149.364 5.616C149.215 5.82133 149.14 6.03133 149.14 6.246C149.14 6.47 149.219 6.64733 149.378 6.778C149.546 6.90867 149.849 7.05333 150.288 7.212L152.248 7.912C152.705 8.08 153.051 8.31333 153.284 8.612C153.517 8.91067 153.634 9.298 153.634 9.774C153.634 10.4553 153.419 11.02 152.99 11.468C152.561 11.916 151.907 12.14 151.03 12.14ZM156.204 3.124C155.943 3.124 155.719 3.03533 155.532 2.858C155.345 2.67133 155.252 2.44733 155.252 2.186C155.252 1.92467 155.341 1.70533 155.518 1.528C155.705 1.35067 155.933 1.262 156.204 1.262C156.456 1.262 156.671 1.35067 156.848 1.528C157.025 1.70533 157.114 1.92467 157.114 2.186C157.114 2.44733 157.025 2.67133 156.848 2.858C156.671 3.03533 156.456 3.124 156.204 3.124ZM154.72 12V11.72L155.7 11.58V5.182L154.72 5.042V4.762H157.1V11.58L158.08 11.72V12H154.72ZM165.935 4.09C165.935 4.454 165.8 4.76667 165.529 5.028C165.258 5.28933 164.829 5.45733 164.241 5.532C164.484 5.88667 164.605 6.372 164.605 6.988C164.605 7.716 164.344 8.29 163.821 8.71C163.308 9.13 162.654 9.34 161.861 9.34C161.534 9.34 161.236 9.312 160.965 9.256C160.368 9.29333 160.069 9.52667 160.069 9.956C160.069 10.1987 160.167 10.376 160.363 10.488C160.568 10.6 160.89 10.656 161.329 10.656H162.897C163.653 10.656 164.213 10.81 164.577 11.118C164.95 11.426 165.137 11.9533 165.137 12.7C165.137 13.2227 165.002 13.7033 164.731 14.142C164.47 14.5807 164.087 14.926 163.583 15.178C163.079 15.4393 162.477 15.57 161.777 15.57C160.722 15.57 159.943 15.4113 159.439 15.094C158.944 14.7767 158.697 14.3567 158.697 13.834C158.697 13.5167 158.818 13.2367 159.061 12.994C159.304 12.7513 159.635 12.63 160.055 12.63C160.139 12.63 160.312 12.6487 160.573 12.686C160.284 12.994 160.139 13.358 160.139 13.778C160.139 14.1793 160.279 14.5293 160.559 14.828C160.839 15.1267 161.296 15.276 161.931 15.276C162.482 15.276 162.972 15.1687 163.401 14.954C163.84 14.7487 164.176 14.478 164.409 14.142C164.642 13.806 164.759 13.4607 164.759 13.106C164.759 12.714 164.633 12.4293 164.381 12.252C164.129 12.084 163.681 12 163.037 12H161.329C160.676 12 160.181 11.874 159.845 11.622C159.518 11.3607 159.355 10.978 159.355 10.474C159.355 10.138 159.448 9.844 159.635 9.592C159.831 9.33067 160.078 9.16267 160.377 9.088C159.565 8.74267 159.159 8.04267 159.159 6.988C159.159 6.25067 159.416 5.672 159.929 5.252C160.442 4.832 161.086 4.622 161.861 4.622C162.841 4.622 163.55 4.82733 163.989 5.238C164.25 5.19133 164.446 5.10733 164.577 4.986C164.708 4.85533 164.773 4.71067 164.773 4.552C164.773 4.40267 164.731 4.29067 164.647 4.216C164.563 4.132 164.465 4.09 164.353 4.09C164.353 3.88467 164.428 3.70733 164.577 3.558C164.736 3.39933 164.922 3.32 165.137 3.32C165.37 3.32 165.562 3.39 165.711 3.53C165.86 3.67 165.935 3.85667 165.935 4.09ZM163.289 6.638C163.289 6.06867 163.168 5.63 162.925 5.322C162.692 5.014 162.337 4.86 161.861 4.86C160.937 4.86 160.475 5.45267 160.475 6.638V7.324C160.475 7.87467 160.587 8.30867 160.811 8.626C161.044 8.94333 161.394 9.102 161.861 9.102C162.337 9.102 162.692 8.94333 162.925 8.626C163.168 8.30867 163.289 7.87467 163.289 7.324V6.638ZM166.245 11.72L167.225 11.58V5.168L166.245 5.028V4.748H168.625V6.26C168.971 5.756 169.377 5.35933 169.843 5.07C170.31 4.77133 170.814 4.622 171.355 4.622C172.027 4.622 172.555 4.79 172.937 5.126C173.329 5.462 173.525 5.96133 173.525 6.624V11.58L174.505 11.72V12H171.285V11.72L172.125 11.58V6.652C172.125 6.16667 172.027 5.79333 171.831 5.532C171.635 5.26133 171.332 5.126 170.921 5.126C170.492 5.126 170.077 5.28467 169.675 5.602C169.283 5.91 168.933 6.29267 168.625 6.75V11.58L169.465 11.72V12H166.245V11.72ZM180.792 12.14C180.194 12.14 179.704 11.986 179.322 11.678C178.939 11.3607 178.748 10.894 178.748 10.278C178.748 9.40067 179.116 8.78 179.854 8.416C180.591 8.04267 181.445 7.856 182.416 7.856H183.354V6.778C183.354 6.29267 183.298 5.91933 183.186 5.658C183.083 5.38733 182.92 5.20067 182.696 5.098C182.472 4.986 182.168 4.93 181.786 4.93C181.347 4.93 181.02 5.01867 180.806 5.196C180.591 5.364 180.484 5.59267 180.484 5.882C180.484 6.15267 180.614 6.33 180.876 6.414C180.876 6.64733 180.787 6.85267 180.61 7.03C180.432 7.20733 180.222 7.296 179.98 7.296C179.718 7.296 179.508 7.226 179.35 7.086C179.191 6.93667 179.112 6.71267 179.112 6.414C179.112 5.87267 179.382 5.43867 179.924 5.112C180.465 4.78533 181.142 4.622 181.954 4.622C183.82 4.622 184.754 5.434 184.754 7.058V11.062C184.754 11.2673 184.796 11.426 184.88 11.538C184.973 11.6407 185.104 11.692 185.272 11.692C185.43 11.692 185.556 11.6407 185.65 11.538C185.743 11.426 185.79 11.2767 185.79 11.09H186.084C186.084 11.4167 185.976 11.6733 185.762 11.86C185.556 12.0467 185.267 12.14 184.894 12.14C184.464 12.14 184.1 12.0187 183.802 11.776C183.512 11.524 183.363 11.1367 183.354 10.614C183.13 11.09 182.784 11.4633 182.318 11.734C181.86 12.0047 181.352 12.14 180.792 12.14ZM181.562 11.524C181.814 11.524 182.07 11.4493 182.332 11.3C182.602 11.1507 182.831 10.936 183.018 10.656C183.204 10.3667 183.316 10.0213 183.354 9.62V8.164H182.416C181.65 8.164 181.076 8.33667 180.694 8.682C180.32 9.018 180.134 9.494 180.134 10.11C180.134 10.6233 180.255 10.9873 180.498 11.202C180.74 11.4167 181.095 11.524 181.562 11.524ZM193.607 4.09C193.607 4.454 193.472 4.76667 193.201 5.028C192.93 5.28933 192.501 5.45733 191.913 5.532C192.156 5.88667 192.277 6.372 192.277 6.988C192.277 7.716 192.016 8.29 191.493 8.71C190.98 9.13 190.326 9.34 189.533 9.34C189.206 9.34 188.908 9.312 188.637 9.256C188.04 9.29333 187.741 9.52667 187.741 9.956C187.741 10.1987 187.839 10.376 188.035 10.488C188.24 10.6 188.562 10.656 189.001 10.656H190.569C191.325 10.656 191.885 10.81 192.249 11.118C192.622 11.426 192.809 11.9533 192.809 12.7C192.809 13.2227 192.674 13.7033 192.403 14.142C192.142 14.5807 191.759 14.926 191.255 15.178C190.751 15.4393 190.149 15.57 189.449 15.57C188.394 15.57 187.615 15.4113 187.111 15.094C186.616 14.7767 186.369 14.3567 186.369 13.834C186.369 13.5167 186.49 13.2367 186.733 12.994C186.976 12.7513 187.307 12.63 187.727 12.63C187.811 12.63 187.984 12.6487 188.245 12.686C187.956 12.994 187.811 13.358 187.811 13.778C187.811 14.1793 187.951 14.5293 188.231 14.828C188.511 15.1267 188.968 15.276 189.603 15.276C190.154 15.276 190.644 15.1687 191.073 14.954C191.512 14.7487 191.848 14.478 192.081 14.142C192.314 13.806 192.431 13.4607 192.431 13.106C192.431 12.714 192.305 12.4293 192.053 12.252C191.801 12.084 191.353 12 190.709 12H189.001C188.348 12 187.853 11.874 187.517 11.622C187.19 11.3607 187.027 10.978 187.027 10.474C187.027 10.138 187.12 9.844 187.307 9.592C187.503 9.33067 187.75 9.16267 188.049 9.088C187.237 8.74267 186.831 8.04267 186.831 6.988C186.831 6.25067 187.088 5.672 187.601 5.252C188.114 4.832 188.758 4.622 189.533 4.622C190.513 4.622 191.222 4.82733 191.661 5.238C191.922 5.19133 192.118 5.10733 192.249 4.986C192.38 4.85533 192.445 4.71067 192.445 4.552C192.445 4.40267 192.403 4.29067 192.319 4.216C192.235 4.132 192.137 4.09 192.025 4.09C192.025 3.88467 192.1 3.70733 192.249 3.558C192.408 3.39933 192.594 3.32 192.809 3.32C193.042 3.32 193.234 3.39 193.383 3.53C193.532 3.67 193.607 3.85667 193.607 4.09ZM190.961 6.638C190.961 6.06867 190.84 5.63 190.597 5.322C190.364 5.014 190.009 4.86 189.533 4.86C188.609 4.86 188.147 5.45267 188.147 6.638V7.324C188.147 7.87467 188.259 8.30867 188.483 8.626C188.716 8.94333 189.066 9.102 189.533 9.102C190.009 9.102 190.364 8.94333 190.597 8.626C190.84 8.30867 190.961 7.87467 190.961 7.324V6.638ZM197.7 12.14C197.01 12.14 196.384 11.986 195.824 11.678C195.264 11.3607 194.821 10.9173 194.494 10.348C194.168 9.77867 194.004 9.12067 194.004 8.374C194.004 7.62733 194.163 6.974 194.48 6.414C194.807 5.84467 195.241 5.406 195.782 5.098C196.333 4.78067 196.944 4.622 197.616 4.622C198.204 4.622 198.732 4.75267 199.198 5.014C199.665 5.27533 200.029 5.63933 200.29 6.106C200.552 6.56333 200.687 7.09067 200.696 7.688H195.544V9.074C195.544 9.89533 195.726 10.5627 196.09 11.076C196.464 11.58 197 11.832 197.7 11.832C198.344 11.832 198.914 11.65 199.408 11.286C199.903 10.922 200.206 10.4507 200.318 9.872H200.64C200.51 10.5627 200.178 11.1133 199.646 11.524C199.114 11.9347 198.466 12.14 197.7 12.14ZM199.156 7.338C199.156 6.526 199.03 5.924 198.778 5.532C198.526 5.13067 198.134 4.93 197.602 4.93C196.977 4.93 196.492 5.14933 196.146 5.588C195.801 6.02667 195.605 6.61 195.558 7.338H199.156ZM201.628 11.72L202.608 11.58V5.168L201.628 5.028V4.748H204.008V6.26C204.353 5.756 204.759 5.35933 205.226 5.07C205.693 4.77133 206.197 4.622 206.738 4.622C207.41 4.622 207.937 4.79 208.32 5.126C208.712 5.462 208.908 5.96133 208.908 6.624V11.58L209.888 11.72V12H206.668V11.72L207.508 11.58V6.652C207.508 6.16667 207.41 5.79333 207.214 5.532C207.018 5.26133 206.715 5.126 206.304 5.126C205.875 5.126 205.459 5.28467 205.058 5.602C204.666 5.91 204.316 6.29267 204.008 6.75V11.58L204.848 11.72V12H201.628V11.72ZM214.365 12.14C213.693 12.14 213.081 11.986 212.531 11.678C211.98 11.3607 211.541 10.9173 211.215 10.348C210.897 9.76933 210.739 9.11133 210.739 8.374C210.739 7.59933 210.907 6.92733 211.243 6.358C211.588 5.78867 212.036 5.35933 212.587 5.07C213.137 4.77133 213.73 4.622 214.365 4.622C214.897 4.622 215.382 4.71533 215.821 4.902C216.259 5.07933 216.605 5.33133 216.857 5.658C217.118 5.98467 217.249 6.35333 217.249 6.764C217.249 7.072 217.169 7.31 217.011 7.478C216.852 7.63667 216.642 7.716 216.381 7.716C216.129 7.716 215.919 7.632 215.751 7.464C215.583 7.296 215.499 7.086 215.499 6.834C215.639 6.74067 215.737 6.638 215.793 6.526C215.849 6.414 215.877 6.274 215.877 6.106C215.877 5.76067 215.737 5.48067 215.457 5.266C215.186 5.042 214.822 4.93 214.365 4.93C213.693 4.93 213.175 5.17267 212.811 5.658C212.456 6.134 212.279 6.806 212.279 7.674V9.074C212.279 9.90467 212.451 10.572 212.797 11.076C213.151 11.58 213.674 11.832 214.365 11.832C214.999 11.832 215.55 11.6547 216.017 11.3C216.493 10.936 216.787 10.46 216.899 9.872H217.221C217.09 10.5627 216.763 11.1133 216.241 11.524C215.727 11.9347 215.102 12.14 214.365 12.14ZM219.445 16.088C218.96 16.088 218.568 15.9667 218.269 15.724C217.97 15.4813 217.821 15.1547 217.821 14.744C217.821 14.464 217.9 14.2353 218.059 14.058C218.227 13.89 218.432 13.806 218.675 13.806C218.852 13.806 219.011 13.8433 219.151 13.918C219.291 13.9927 219.403 14.1047 219.487 14.254C219.347 14.45 219.277 14.6553 219.277 14.87C219.277 15.0567 219.338 15.2107 219.459 15.332C219.58 15.4533 219.734 15.514 219.921 15.514C220.145 15.514 220.336 15.4393 220.495 15.29C220.663 15.1407 220.812 14.8793 220.943 14.506L221.783 12.098L218.535 5.182L217.597 5.042V4.762H221.083V5.042L220.103 5.21L222.441 10.208L224.107 5.392L222.903 5.042V4.762H225.423V5.042L224.471 5.392L221.335 14.506C221.139 15.0567 220.901 15.458 220.621 15.71C220.35 15.962 219.958 16.088 219.445 16.088ZM4.228 31.14C3.556 31.14 2.94467 30.986 2.394 30.678C1.84333 30.3607 1.40467 29.9173 1.078 29.348C0.760667 28.7693 0.602 28.1113 0.602 27.374C0.602 26.5993 0.77 25.9273 1.106 25.358C1.45133 24.7887 1.89933 24.3593 2.45 24.07C3.00067 23.7713 3.59333 23.622 4.228 23.622C4.76 23.622 5.24533 23.7153 5.684 23.902C6.12267 24.0793 6.468 24.3313 6.72 24.658C6.98133 24.9847 7.112 25.3533 7.112 25.764C7.112 26.072 7.03267 26.31 6.874 26.478C6.71533 26.6367 6.50533 26.716 6.244 26.716C5.992 26.716 5.782 26.632 5.614 26.464C5.446 26.296 5.362 26.086 5.362 25.834C5.502 25.7407 5.6 25.638 5.656 25.526C5.712 25.414 5.74 25.274 5.74 25.106C5.74 24.7607 5.6 24.4807 5.32 24.266C5.04933 24.042 4.68533 23.93 4.228 23.93C3.556 23.93 3.038 24.1727 2.674 24.658C2.31933 25.134 2.142 25.806 2.142 26.674V28.074C2.142 28.9047 2.31467 29.572 2.66 30.076C3.01467 30.58 3.53733 30.832 4.228 30.832C4.86267 30.832 5.41333 30.6547 5.88 30.3C6.356 29.936 6.65 29.46 6.762 28.872H7.084C6.95333 29.5627 6.62667 30.1133 6.104 30.524C5.59067 30.9347 4.96533 31.14 4.228 31.14ZM8.03425 30.72L9.01425 30.58V24.168L8.03425 24.028V23.748H10.4143V24.826C11.0023 24.0233 11.6649 23.622 12.4023 23.622C12.7569 23.622 13.0696 23.7153 13.3403 23.902C13.6109 24.0793 13.7463 24.336 13.7463 24.672C13.7463 24.9147 13.6669 25.12 13.5083 25.288C13.3496 25.4467 13.1396 25.526 12.8783 25.526C12.5796 25.526 12.3369 25.4093 12.1503 25.176C12.2529 25.0453 12.3043 24.9053 12.3043 24.756C12.3043 24.5973 12.2483 24.4713 12.1363 24.378C12.0336 24.2753 11.8936 24.224 11.7163 24.224C11.5203 24.224 11.3196 24.3173 11.1143 24.504C10.9089 24.6813 10.6756 24.9613 10.4143 25.344V30.58L11.5343 30.72V31H8.03425V30.72ZM18.0109 31.14C17.3202 31.14 16.6949 30.986 16.1349 30.678C15.5749 30.3607 15.1316 29.9173 14.8049 29.348C14.4782 28.7787 14.3149 28.1207 14.3149 27.374C14.3149 26.6273 14.4736 25.974 14.7909 25.414C15.1176 24.8447 15.5516 24.406 16.0929 24.098C16.6436 23.7807 17.2549 23.622 17.9269 23.622C18.5149 23.622 19.0422 23.7527 19.5089 24.014C19.9756 24.2753 20.3396 24.6393 20.6009 25.106C20.8622 25.5633 20.9976 26.0907 21.0069 26.688H15.8549V28.074C15.8549 28.8953 16.0369 29.5627 16.4009 30.076C16.7742 30.58 17.3109 30.832 18.0109 30.832C18.6549 30.832 19.2242 30.65 19.7189 30.286C20.2136 29.922 20.5169 29.4507 20.6289 28.872H20.9509C20.8202 29.5627 20.4889 30.1133 19.9569 30.524C19.4249 30.9347 18.7762 31.14 18.0109 31.14ZM19.4669 26.338C19.4669 25.526 19.3409 24.924 19.0889 24.532C18.8369 24.1307 18.4449 23.93 17.9129 23.93C17.2876 23.93 16.8022 24.1493 16.4569 24.588C16.1116 25.0267 15.9156 25.61 15.8689 26.338H19.4669ZM24.2485 31.14C23.6512 31.14 23.1612 30.986 22.7785 30.678C22.3959 30.3607 22.2045 29.894 22.2045 29.278C22.2045 28.4007 22.5732 27.78 23.3105 27.416C24.0479 27.0427 24.9019 26.856 25.8725 26.856H26.8105V25.778C26.8105 25.2927 26.7545 24.9193 26.6425 24.658C26.5399 24.3873 26.3765 24.2007 26.1525 24.098C25.9285 23.986 25.6252 23.93 25.2425 23.93C24.8039 23.93 24.4772 24.0187 24.2625 24.196C24.0479 24.364 23.9405 24.5927 23.9405 24.882C23.9405 25.1527 24.0712 25.33 24.3325 25.414C24.3325 25.6473 24.2439 25.8527 24.0665 26.03C23.8892 26.2073 23.6792 26.296 23.4365 26.296C23.1752 26.296 22.9652 26.226 22.8065 26.086C22.6479 25.9367 22.5685 25.7127 22.5685 25.414C22.5685 24.8727 22.8392 24.4387 23.3805 24.112C23.9219 23.7853 24.5985 23.622 25.4105 23.622C27.2772 23.622 28.2105 24.434 28.2105 26.058V30.062C28.2105 30.2673 28.2525 30.426 28.3365 30.538C28.4299 30.6407 28.5605 30.692 28.7285 30.692C28.8872 30.692 29.0132 30.6407 29.1065 30.538C29.1999 30.426 29.2465 30.2767 29.2465 30.09H29.5405C29.5405 30.4167 29.4332 30.6733 29.2185 30.86C29.0132 31.0467 28.7239 31.14 28.3505 31.14C27.9212 31.14 27.5572 31.0187 27.2585 30.776C26.9692 30.524 26.8199 30.1367 26.8105 29.614C26.5865 30.09 26.2412 30.4633 25.7745 30.734C25.3172 31.0047 24.8085 31.14 24.2485 31.14ZM25.0185 30.524C25.2705 30.524 25.5272 30.4493 25.7885 30.3C26.0592 30.1507 26.2879 29.936 26.4745 29.656C26.6612 29.3667 26.7732 29.0213 26.8105 28.62V27.164H25.8725C25.1072 27.164 24.5332 27.3367 24.1505 27.682C23.7772 28.018 23.5905 28.494 23.5905 29.11C23.5905 29.6233 23.7119 29.9873 23.9545 30.202C24.1972 30.4167 24.5519 30.524 25.0185 30.524ZM32.7799 31.14C32.1639 31.14 31.6692 30.986 31.2959 30.678C30.9319 30.37 30.7499 29.88 30.7499 29.208V24.168L29.7559 24.028V23.748H30.7499V22.586L32.1499 22.236V23.748H33.9699V24.028L32.1499 24.168V29.18C32.1499 30.1693 32.5046 30.664 33.2139 30.664C33.3632 30.664 33.5032 30.6407 33.6339 30.594C33.7739 30.5473 33.8812 30.5007 33.9559 30.454C34.0399 30.4073 34.0912 30.3747 34.1099 30.356L34.2919 30.58C33.8719 30.9533 33.3679 31.14 32.7799 31.14ZM36.2334 22.124C35.9721 22.124 35.7481 22.0353 35.5614 21.858C35.3748 21.6713 35.2814 21.4473 35.2814 21.186C35.2814 20.9247 35.3701 20.7053 35.5474 20.528C35.7341 20.3507 35.9628 20.262 36.2334 20.262C36.4854 20.262 36.7001 20.3507 36.8774 20.528C37.0548 20.7053 37.1434 20.9247 37.1434 21.186C37.1434 21.4473 37.0548 21.6713 36.8774 21.858C36.7001 22.0353 36.4854 22.124 36.2334 22.124ZM34.7494 31V30.72L35.7294 30.58V24.182L34.7494 24.042V23.762H37.1294V30.58L38.1094 30.72V31H34.7494ZM38.7823 30.72L39.7623 30.58V24.168L38.7823 24.028V23.748H41.1623V25.26C41.5076 24.756 41.9136 24.3593 42.3803 24.07C42.847 23.7713 43.351 23.622 43.8923 23.622C44.5643 23.622 45.0916 23.79 45.4743 24.126C45.8663 24.462 46.0623 24.9613 46.0623 25.624V30.58L47.0423 30.72V31H43.8223V30.72L44.6623 30.58V25.652C44.6623 25.1667 44.5643 24.7933 44.3683 24.532C44.1723 24.2613 43.869 24.126 43.4583 24.126C43.029 24.126 42.6136 24.2847 42.2123 24.602C41.8203 24.91 41.4703 25.2927 41.1623 25.75V30.58L42.0023 30.72V31H38.7823V30.72ZM54.851 23.09C54.851 23.454 54.7157 23.7667 54.445 24.028C54.1743 24.2893 53.745 24.4573 53.157 24.532C53.3997 24.8867 53.521 25.372 53.521 25.988C53.521 26.716 53.2597 27.29 52.737 27.71C52.2237 28.13 51.5703 28.34 50.777 28.34C50.4503 28.34 50.1517 28.312 49.881 28.256C49.2837 28.2933 48.985 28.5267 48.985 28.956C48.985 29.1987 49.083 29.376 49.279 29.488C49.4843 29.6 49.8063 29.656 50.245 29.656H51.813C52.569 29.656 53.129 29.81 53.493 30.118C53.8663 30.426 54.053 30.9533 54.053 31.7C54.053 32.2227 53.9177 32.7033 53.647 33.142C53.3857 33.5807 53.003 33.926 52.499 34.178C51.995 34.4393 51.393 34.57 50.693 34.57C49.6383 34.57 48.859 34.4113 48.355 34.094C47.8603 33.7767 47.613 33.3567 47.613 32.834C47.613 32.5167 47.7343 32.2367 47.977 31.994C48.2197 31.7513 48.551 31.63 48.971 31.63C49.055 31.63 49.2277 31.6487 49.489 31.686C49.1997 31.994 49.055 32.358 49.055 32.778C49.055 33.1793 49.195 33.5293 49.475 33.828C49.755 34.1267 50.2123 34.276 50.847 34.276C51.3977 34.276 51.8877 34.1687 52.317 33.954C52.7557 33.7487 53.0917 33.478 53.325 33.142C53.5583 32.806 53.675 32.4607 53.675 32.106C53.675 31.714 53.549 31.4293 53.297 31.252C53.045 31.084 52.597 31 51.953 31H50.245C49.5917 31 49.097 30.874 48.761 30.622C48.4343 30.3607 48.271 29.978 48.271 29.474C48.271 29.138 48.3643 28.844 48.551 28.592C48.747 28.3307 48.9943 28.1627 49.293 28.088C48.481 27.7427 48.075 27.0427 48.075 25.988C48.075 25.2507 48.3317 24.672 48.845 24.252C49.3583 23.832 50.0023 23.622 50.777 23.622C51.757 23.622 52.4663 23.8273 52.905 24.238C53.1663 24.1913 53.3623 24.1073 53.493 23.986C53.6237 23.8553 53.689 23.7107 53.689 23.552C53.689 23.4027 53.647 23.2907 53.563 23.216C53.479 23.132 53.381 23.09 53.269 23.09C53.269 22.8847 53.3437 22.7073 53.493 22.558C53.6517 22.3993 53.8383 22.32 54.053 22.32C54.2863 22.32 54.4777 22.39 54.627 22.53C54.7763 22.67 54.851 22.8567 54.851 23.09ZM52.205 25.638C52.205 25.0687 52.0837 24.63 51.841 24.322C51.6077 24.014 51.253 23.86 50.777 23.86C49.853 23.86 49.391 24.4527 49.391 25.638V26.324C49.391 26.8747 49.503 27.3087 49.727 27.626C49.9603 27.9433 50.3103 28.102 50.777 28.102C51.253 28.102 51.6077 27.9433 51.841 27.626C52.0837 27.3087 52.205 26.8747 52.205 26.324V25.638ZM62.3608 31.14C61.6888 31.14 61.0775 30.986 60.5268 30.678C59.9761 30.3607 59.5375 29.9173 59.2108 29.348C58.8935 28.7693 58.7348 28.1113 58.7348 27.374C58.7348 26.5993 58.9028 25.9273 59.2388 25.358C59.5841 24.7887 60.0321 24.3593 60.5828 24.07C61.1335 23.7713 61.7261 23.622 62.3608 23.622C62.8928 23.622 63.3781 23.7153 63.8168 23.902C64.2555 24.0793 64.6008 24.3313 64.8528 24.658C65.1141 24.9847 65.2448 25.3533 65.2448 25.764C65.2448 26.072 65.1655 26.31 65.0068 26.478C64.8481 26.6367 64.6381 26.716 64.3768 26.716C64.1248 26.716 63.9148 26.632 63.7468 26.464C63.5788 26.296 63.4948 26.086 63.4948 25.834C63.6348 25.7407 63.7328 25.638 63.7888 25.526C63.8448 25.414 63.8728 25.274 63.8728 25.106C63.8728 24.7607 63.7328 24.4807 63.4528 24.266C63.1821 24.042 62.8181 23.93 62.3608 23.93C61.6888 23.93 61.1708 24.1727 60.8068 24.658C60.4521 25.134 60.2748 25.806 60.2748 26.674V28.074C60.2748 28.9047 60.4475 29.572 60.7928 30.076C61.1475 30.58 61.6701 30.832 62.3608 30.832C62.9955 30.832 63.5461 30.6547 64.0128 30.3C64.4888 29.936 64.7828 29.46 64.8948 28.872H65.2168C65.0861 29.5627 64.7595 30.1133 64.2368 30.524C63.7235 30.9347 63.0981 31.14 62.3608 31.14ZM69.1771 31.14C68.5051 31.14 67.9731 30.972 67.5811 30.636C67.1984 30.3 67.0071 29.8007 67.0071 29.138V24.168L66.0271 24.028V23.748H68.4071V29.11C68.4071 29.586 68.5051 29.9593 68.7011 30.23C68.8971 30.5007 69.2004 30.636 69.6111 30.636C70.0404 30.636 70.4511 30.496 70.8431 30.216C71.2444 29.9267 71.5991 29.572 71.9071 29.152V24.168L70.9271 24.028V23.748H73.3071V30.58L74.2871 30.72V31H71.9071V29.656C71.5711 30.1227 71.1651 30.4867 70.6891 30.748C70.2224 31.0093 69.7184 31.14 69.1771 31.14ZM77.9108 31.14C77.2948 31.14 76.8001 30.986 76.4268 30.678C76.0628 30.37 75.8808 29.88 75.8808 29.208V24.168L74.8868 24.028V23.748H75.8808V22.586L77.2808 22.236V23.748H79.1008V24.028L77.2808 24.168V29.18C77.2808 30.1693 77.6354 30.664 78.3448 30.664C78.4941 30.664 78.6341 30.6407 78.7648 30.594C78.9048 30.5473 79.0121 30.5007 79.0868 30.454C79.1708 30.4073 79.2221 30.3747 79.2408 30.356L79.4228 30.58C79.0028 30.9533 78.4988 31.14 77.9108 31.14ZM82.7643 31.14C82.1483 31.14 81.6536 30.986 81.2803 30.678C80.9163 30.37 80.7343 29.88 80.7343 29.208V24.168L79.7403 24.028V23.748H80.7343V22.586L82.1343 22.236V23.748H83.9543V24.028L82.1343 24.168V29.18C82.1343 30.1693 82.4889 30.664 83.1983 30.664C83.3476 30.664 83.4876 30.6407 83.6183 30.594C83.7583 30.5473 83.8656 30.5007 83.9403 30.454C84.0243 30.4073 84.0756 30.3747 84.0943 30.356L84.2763 30.58C83.8563 30.9533 83.3523 31.14 82.7643 31.14ZM86.2178 22.124C85.9565 22.124 85.7325 22.0353 85.5458 21.858C85.3591 21.6713 85.2658 21.4473 85.2658 21.186C85.2658 20.9247 85.3545 20.7053 85.5318 20.528C85.7185 20.3507 85.9471 20.262 86.2178 20.262C86.4698 20.262 86.6845 20.3507 86.8618 20.528C87.0391 20.7053 87.1278 20.9247 87.1278 21.186C87.1278 21.4473 87.0391 21.6713 86.8618 21.858C86.6845 22.0353 86.4698 22.124 86.2178 22.124ZM84.7338 31V30.72L85.7138 30.58V24.182L84.7338 24.042V23.762H87.1138V30.58L88.0938 30.72V31H84.7338ZM88.7667 30.72L89.7467 30.58V24.168L88.7667 24.028V23.748H91.1467V25.26C91.492 24.756 91.898 24.3593 92.3647 24.07C92.8313 23.7713 93.3353 23.622 93.8767 23.622C94.5487 23.622 95.076 23.79 95.4587 24.126C95.8507 24.462 96.0467 24.9613 96.0467 25.624V30.58L97.0267 30.72V31H93.8067V30.72L94.6467 30.58V25.652C94.6467 25.1667 94.5487 24.7933 94.3527 24.532C94.1567 24.2613 93.8533 24.126 93.4427 24.126C93.0133 24.126 92.598 24.2847 92.1967 24.602C91.8047 24.91 91.4547 25.2927 91.1467 25.75V30.58L91.9867 30.72V31H88.7667V30.72ZM104.835 23.09C104.835 23.454 104.7 23.7667 104.429 24.028C104.159 24.2893 103.729 24.4573 103.141 24.532C103.384 24.8867 103.505 25.372 103.505 25.988C103.505 26.716 103.244 27.29 102.721 27.71C102.208 28.13 101.555 28.34 100.761 28.34C100.435 28.34 100.136 28.312 99.8654 28.256C99.2681 28.2933 98.9694 28.5267 98.9694 28.956C98.9694 29.1987 99.0674 29.376 99.2634 29.488C99.4687 29.6 99.7907 29.656 100.229 29.656H101.797C102.553 29.656 103.113 29.81 103.477 30.118C103.851 30.426 104.037 30.9533 104.037 31.7C104.037 32.2227 103.902 32.7033 103.631 33.142C103.37 33.5807 102.987 33.926 102.483 34.178C101.979 34.4393 101.377 34.57 100.677 34.57C99.6227 34.57 98.8434 34.4113 98.3394 34.094C97.8447 33.7767 97.5974 33.3567 97.5974 32.834C97.5974 32.5167 97.7187 32.2367 97.9614 31.994C98.2041 31.7513 98.5354 31.63 98.9554 31.63C99.0394 31.63 99.2121 31.6487 99.4734 31.686C99.1841 31.994 99.0394 32.358 99.0394 32.778C99.0394 33.1793 99.1794 33.5293 99.4594 33.828C99.7394 34.1267 100.197 34.276 100.831 34.276C101.382 34.276 101.872 34.1687 102.301 33.954C102.74 33.7487 103.076 33.478 103.309 33.142C103.543 32.806 103.659 32.4607 103.659 32.106C103.659 31.714 103.533 31.4293 103.281 31.252C103.029 31.084 102.581 31 101.937 31H100.229C99.5761 31 99.0814 30.874 98.7454 30.622C98.4187 30.3607 98.2554 29.978 98.2554 29.474C98.2554 29.138 98.3487 28.844 98.5354 28.592C98.7314 28.3307 98.9787 28.1627 99.2774 28.088C98.4654 27.7427 98.0594 27.0427 98.0594 25.988C98.0594 25.2507 98.3161 24.672 98.8294 24.252C99.3427 23.832 99.9867 23.622 100.761 23.622C101.741 23.622 102.451 23.8273 102.889 24.238C103.151 24.1913 103.347 24.1073 103.477 23.986C103.608 23.8553 103.673 23.7107 103.673 23.552C103.673 23.4027 103.631 23.2907 103.547 23.216C103.463 23.132 103.365 23.09 103.253 23.09C103.253 22.8847 103.328 22.7073 103.477 22.558C103.636 22.3993 103.823 22.32 104.037 22.32C104.271 22.32 104.462 22.39 104.611 22.53C104.761 22.67 104.835 22.8567 104.835 23.09ZM102.189 25.638C102.189 25.0687 102.068 24.63 101.825 24.322C101.592 24.014 101.237 23.86 100.761 23.86C99.8374 23.86 99.3754 24.4527 99.3754 25.638V26.324C99.3754 26.8747 99.4874 27.3087 99.7114 27.626C99.9447 27.9433 100.295 28.102 100.761 28.102C101.237 28.102 101.592 27.9433 101.825 27.626C102.068 27.3087 102.189 26.8747 102.189 26.324V25.638ZM105.678 27.402V26.94H108.744V27.402H105.678ZM113.946 31.14C113.256 31.14 112.63 30.986 112.07 30.678C111.51 30.3607 111.067 29.9173 110.74 29.348C110.414 28.7787 110.25 28.1207 110.25 27.374C110.25 26.6273 110.409 25.974 110.726 25.414C111.053 24.8447 111.487 24.406 112.028 24.098C112.579 23.7807 113.19 23.622 113.862 23.622C114.45 23.622 114.978 23.7527 115.444 24.014C115.911 24.2753 116.275 24.6393 116.536 25.106C116.798 25.5633 116.933 26.0907 116.942 26.688H111.79V28.074C111.79 28.8953 111.972 29.5627 112.336 30.076C112.71 30.58 113.246 30.832 113.946 30.832C114.59 30.832 115.16 30.65 115.654 30.286C116.149 29.922 116.452 29.4507 116.564 28.872H116.886C116.756 29.5627 116.424 30.1133 115.892 30.524C115.36 30.9347 114.712 31.14 113.946 31.14ZM115.402 26.338C115.402 25.526 115.276 24.924 115.024 24.532C114.772 24.1307 114.38 23.93 113.848 23.93C113.223 23.93 112.738 24.1493 112.392 24.588C112.047 25.0267 111.851 25.61 111.804 26.338H115.402ZM121.444 31.14C120.781 31.14 120.198 30.986 119.694 30.678C119.19 30.3607 118.798 29.922 118.518 29.362C118.238 28.7927 118.098 28.13 118.098 27.374C118.098 26.618 118.238 25.96 118.518 25.4C118.798 24.8307 119.19 24.392 119.694 24.084C120.198 23.776 120.781 23.622 121.444 23.622C121.985 23.622 122.457 23.7667 122.858 24.056C123.259 24.336 123.577 24.7233 123.81 25.218V20.22L122.83 20.08V19.8H125.21V30.58L126.19 30.72V31H123.81V29.544C123.577 30.0387 123.259 30.4307 122.858 30.72C122.457 31 121.985 31.14 121.444 31.14ZM121.584 30.79C121.995 30.79 122.363 30.6733 122.69 30.44C123.026 30.1973 123.292 29.88 123.488 29.488C123.693 29.0867 123.801 28.6527 123.81 28.186V26.576C123.801 26.1093 123.693 25.68 123.488 25.288C123.292 24.8867 123.026 24.5693 122.69 24.336C122.363 24.0933 121.995 23.972 121.584 23.972C120.287 23.972 119.638 24.8727 119.638 26.674V28.074C119.638 29.8847 120.287 30.79 121.584 30.79ZM134.039 23.09C134.039 23.454 133.903 23.7667 133.633 24.028C133.362 24.2893 132.933 24.4573 132.345 24.532C132.587 24.8867 132.709 25.372 132.709 25.988C132.709 26.716 132.447 27.29 131.925 27.71C131.411 28.13 130.758 28.34 129.965 28.34C129.638 28.34 129.339 28.312 129.069 28.256C128.471 28.2933 128.173 28.5267 128.173 28.956C128.173 29.1987 128.271 29.376 128.467 29.488C128.672 29.6 128.994 29.656 129.433 29.656H131.001C131.757 29.656 132.317 29.81 132.681 30.118C133.054 30.426 133.241 30.9533 133.241 31.7C133.241 32.2227 133.105 32.7033 132.835 33.142C132.573 33.5807 132.191 33.926 131.687 34.178C131.183 34.4393 130.581 34.57 129.881 34.57C128.826 34.57 128.047 34.4113 127.543 34.094C127.048 33.7767 126.801 33.3567 126.801 32.834C126.801 32.5167 126.922 32.2367 127.165 31.994C127.407 31.7513 127.739 31.63 128.159 31.63C128.243 31.63 128.415 31.6487 128.677 31.686C128.387 31.994 128.243 32.358 128.243 32.778C128.243 33.1793 128.383 33.5293 128.663 33.828C128.943 34.1267 129.4 34.276 130.035 34.276C130.585 34.276 131.075 34.1687 131.505 33.954C131.943 33.7487 132.279 33.478 132.513 33.142C132.746 32.806 132.863 32.4607 132.863 32.106C132.863 31.714 132.737 31.4293 132.485 31.252C132.233 31.084 131.785 31 131.141 31H129.433C128.779 31 128.285 30.874 127.949 30.622C127.622 30.3607 127.459 29.978 127.459 29.474C127.459 29.138 127.552 28.844 127.739 28.592C127.935 28.3307 128.182 28.1627 128.481 28.088C127.669 27.7427 127.263 27.0427 127.263 25.988C127.263 25.2507 127.519 24.672 128.033 24.252C128.546 23.832 129.19 23.622 129.965 23.622C130.945 23.622 131.654 23.8273 132.093 24.238C132.354 24.1913 132.55 24.1073 132.681 23.986C132.811 23.8553 132.877 23.7107 132.877 23.552C132.877 23.4027 132.835 23.2907 132.751 23.216C132.667 23.132 132.569 23.09 132.457 23.09C132.457 22.8847 132.531 22.7073 132.681 22.558C132.839 22.3993 133.026 22.32 133.241 22.32C133.474 22.32 133.665 22.39 133.815 22.53C133.964 22.67 134.039 22.8567 134.039 23.09ZM131.393 25.638C131.393 25.0687 131.271 24.63 131.029 24.322C130.795 24.014 130.441 23.86 129.965 23.86C129.041 23.86 128.579 24.4527 128.579 25.638V26.324C128.579 26.8747 128.691 27.3087 128.915 27.626C129.148 27.9433 129.498 28.102 129.965 28.102C130.441 28.102 130.795 27.9433 131.029 27.626C131.271 27.3087 131.393 26.8747 131.393 26.324V25.638ZM138.132 31.14C137.441 31.14 136.816 30.986 136.256 30.678C135.696 30.3607 135.253 29.9173 134.926 29.348C134.599 28.7787 134.436 28.1207 134.436 27.374C134.436 26.6273 134.595 25.974 134.912 25.414C135.239 24.8447 135.673 24.406 136.214 24.098C136.765 23.7807 137.376 23.622 138.048 23.622C138.636 23.622 139.163 23.7527 139.63 24.014C140.097 24.2753 140.461 24.6393 140.722 25.106C140.983 25.5633 141.119 26.0907 141.128 26.688H135.976V28.074C135.976 28.8953 136.158 29.5627 136.522 30.076C136.895 30.58 137.432 30.832 138.132 30.832C138.776 30.832 139.345 30.65 139.84 30.286C140.335 29.922 140.638 29.4507 140.75 28.872H141.072C140.941 29.5627 140.61 30.1133 140.078 30.524C139.546 30.9347 138.897 31.14 138.132 31.14ZM139.588 26.338C139.588 25.526 139.462 24.924 139.21 24.532C138.958 24.1307 138.566 23.93 138.034 23.93C137.409 23.93 136.923 24.1493 136.578 24.588C136.233 25.0267 136.037 25.61 135.99 26.338H139.588ZM148.391 31.14C147.626 31.14 146.987 30.9767 146.473 30.65C145.96 30.3233 145.703 29.8987 145.703 29.376C145.703 29.1053 145.773 28.8953 145.913 28.746C146.063 28.5873 146.259 28.508 146.501 28.508C146.688 28.508 146.847 28.5547 146.977 28.648C147.108 28.7413 147.201 28.872 147.257 29.04C147.052 29.264 146.949 29.502 146.949 29.754C146.949 30.0433 147.08 30.2953 147.341 30.51C147.603 30.7247 147.953 30.832 148.391 30.832C148.979 30.832 149.46 30.7013 149.833 30.44C150.207 30.1693 150.393 29.81 150.393 29.362C150.393 29.1007 150.314 28.9047 150.155 28.774C149.997 28.6433 149.689 28.494 149.231 28.326L147.117 27.556C146.287 27.2573 145.871 26.702 145.871 25.89C145.871 25.2273 146.1 24.686 146.557 24.266C147.015 23.8367 147.645 23.622 148.447 23.622C149.11 23.622 149.675 23.776 150.141 24.084C150.617 24.3827 150.855 24.812 150.855 25.372C150.855 25.596 150.795 25.778 150.673 25.918C150.552 26.0487 150.393 26.114 150.197 26.114C150.001 26.114 149.838 26.0627 149.707 25.96C149.586 25.848 149.525 25.6987 149.525 25.512C149.647 25.4187 149.731 25.3207 149.777 25.218C149.824 25.106 149.847 24.9753 149.847 24.826C149.847 24.5647 149.731 24.35 149.497 24.182C149.273 24.014 148.923 23.93 148.447 23.93C148.037 23.93 147.682 23.9953 147.383 24.126C147.094 24.2473 146.875 24.4107 146.725 24.616C146.576 24.8213 146.501 25.0313 146.501 25.246C146.501 25.47 146.581 25.6473 146.739 25.778C146.907 25.9087 147.211 26.0533 147.649 26.212L149.609 26.912C150.067 27.08 150.412 27.3133 150.645 27.612C150.879 27.9107 150.995 28.298 150.995 28.774C150.995 29.4553 150.781 30.02 150.351 30.468C149.922 30.916 149.269 31.14 148.391 31.14ZM155.917 31.14C155.245 31.14 154.634 30.986 154.083 30.678C153.533 30.3607 153.094 29.9173 152.767 29.348C152.45 28.7693 152.291 28.1113 152.291 27.374C152.291 26.6367 152.45 25.9833 152.767 25.414C153.094 24.8447 153.533 24.406 154.083 24.098C154.634 23.7807 155.245 23.622 155.917 23.622C156.589 23.622 157.201 23.7807 157.751 24.098C158.302 24.406 158.736 24.8447 159.053 25.414C159.38 25.9833 159.543 26.6367 159.543 27.374C159.543 28.1113 159.38 28.7693 159.053 29.348C158.736 29.9173 158.302 30.3607 157.751 30.678C157.201 30.986 156.589 31.14 155.917 31.14ZM155.917 30.832C156.608 30.832 157.126 30.58 157.471 30.076C157.826 29.572 158.003 28.9047 158.003 28.074V26.674C158.003 25.8433 157.826 25.1807 157.471 24.686C157.126 24.182 156.608 23.93 155.917 23.93C155.227 23.93 154.704 24.182 154.349 24.686C154.004 25.1807 153.831 25.8433 153.831 26.674V28.074C153.831 28.9047 154.004 29.572 154.349 30.076C154.704 30.58 155.227 30.832 155.917 30.832ZM160.419 31V30.72L161.469 30.58V20.22L160.419 20.08V19.8H162.869V30.58L163.849 30.72V31H160.419ZM167.533 31.14C166.861 31.14 166.329 30.972 165.937 30.636C165.554 30.3 165.363 29.8007 165.363 29.138V24.168L164.383 24.028V23.748H166.763V29.11C166.763 29.586 166.861 29.9593 167.057 30.23C167.253 30.5007 167.556 30.636 167.967 30.636C168.396 30.636 168.807 30.496 169.199 30.216C169.6 29.9267 169.955 29.572 170.263 29.152V24.168L169.283 24.028V23.748H171.663V30.58L172.643 30.72V31H170.263V29.656C169.927 30.1227 169.521 30.4867 169.045 30.748C168.578 31.0093 168.074 31.14 167.533 31.14ZM176.266 31.14C175.65 31.14 175.156 30.986 174.782 30.678C174.418 30.37 174.236 29.88 174.236 29.208V24.168L173.242 24.028V23.748H174.236V22.586L175.636 22.236V23.748H177.456V24.028L175.636 24.168V29.18C175.636 30.1693 175.991 30.664 176.7 30.664C176.85 30.664 176.99 30.6407 177.12 30.594C177.26 30.5473 177.368 30.5007 177.442 30.454C177.526 30.4073 177.578 30.3747 177.596 30.356L177.778 30.58C177.358 30.9533 176.854 31.14 176.266 31.14ZM179.72 22.124C179.458 22.124 179.234 22.0353 179.048 21.858C178.861 21.6713 178.768 21.4473 178.768 21.186C178.768 20.9247 178.856 20.7053 179.034 20.528C179.22 20.3507 179.449 20.262 179.72 20.262C179.972 20.262 180.186 20.3507 180.364 20.528C180.541 20.7053 180.63 20.9247 180.63 21.186C180.63 21.4473 180.541 21.6713 180.364 21.858C180.186 22.0353 179.972 22.124 179.72 22.124ZM178.236 31V30.72L179.216 30.58V24.182L178.236 24.042V23.762H180.616V30.58L181.596 30.72V31H178.236ZM186.119 31.14C185.447 31.14 184.835 30.986 184.285 30.678C183.734 30.3607 183.295 29.9173 182.969 29.348C182.651 28.7693 182.493 28.1113 182.493 27.374C182.493 26.6367 182.651 25.9833 182.969 25.414C183.295 24.8447 183.734 24.406 184.285 24.098C184.835 23.7807 185.447 23.622 186.119 23.622C186.791 23.622 187.402 23.7807 187.953 24.098C188.503 24.406 188.937 24.8447 189.255 25.414C189.581 25.9833 189.745 26.6367 189.745 27.374C189.745 28.1113 189.581 28.7693 189.255 29.348C188.937 29.9173 188.503 30.3607 187.953 30.678C187.402 30.986 186.791 31.14 186.119 31.14ZM186.119 30.832C186.809 30.832 187.327 30.58 187.673 30.076C188.027 29.572 188.205 28.9047 188.205 28.074V26.674C188.205 25.8433 188.027 25.1807 187.673 24.686C187.327 24.182 186.809 23.93 186.119 23.93C185.428 23.93 184.905 24.182 184.551 24.686C184.205 25.1807 184.033 25.8433 184.033 26.674V28.074C184.033 28.9047 184.205 29.572 184.551 30.076C184.905 30.58 185.428 30.832 186.119 30.832ZM190.718 30.72L191.698 30.58V24.168L190.718 24.028V23.748H193.098V25.26C193.443 24.756 193.849 24.3593 194.316 24.07C194.783 23.7713 195.287 23.622 195.828 23.622C196.5 23.622 197.027 23.79 197.41 24.126C197.802 24.462 197.998 24.9613 197.998 25.624V30.58L198.978 30.72V31H195.758V30.72L196.598 30.58V25.652C196.598 25.1667 196.5 24.7933 196.304 24.532C196.108 24.2613 195.805 24.126 195.394 24.126C194.965 24.126 194.549 24.2847 194.148 24.602C193.756 24.91 193.406 25.2927 193.098 25.75V30.58L193.938 30.72V31H190.718V30.72ZM202.587 31.14C201.821 31.14 201.182 30.9767 200.669 30.65C200.155 30.3233 199.899 29.8987 199.899 29.376C199.899 29.1053 199.969 28.8953 200.109 28.746C200.258 28.5873 200.454 28.508 200.697 28.508C200.883 28.508 201.042 28.5547 201.173 28.648C201.303 28.7413 201.397 28.872 201.453 29.04C201.247 29.264 201.145 29.502 201.145 29.754C201.145 30.0433 201.275 30.2953 201.537 30.51C201.798 30.7247 202.148 30.832 202.587 30.832C203.175 30.832 203.655 30.7013 204.029 30.44C204.402 30.1693 204.589 29.81 204.589 29.362C204.589 29.1007 204.509 28.9047 204.351 28.774C204.192 28.6433 203.884 28.494 203.427 28.326L201.313 27.556C200.482 27.2573 200.067 26.702 200.067 25.89C200.067 25.2273 200.295 24.686 200.753 24.266C201.21 23.8367 201.84 23.622 202.643 23.622C203.305 23.622 203.87 23.776 204.337 24.084C204.813 24.3827 205.051 24.812 205.051 25.372C205.051 25.596 204.99 25.778 204.869 25.918C204.747 26.0487 204.589 26.114 204.393 26.114C204.197 26.114 204.033 26.0627 203.903 25.96C203.781 25.848 203.721 25.6987 203.721 25.512C203.842 25.4187 203.926 25.3207 203.973 25.218C204.019 25.106 204.043 24.9753 204.043 24.826C204.043 24.5647 203.926 24.35 203.693 24.182C203.469 24.014 203.119 23.93 202.643 23.93C202.232 23.93 201.877 23.9953 201.579 24.126C201.289 24.2473 201.07 24.4107 200.921 24.616C200.771 24.8213 200.697 25.0313 200.697 25.246C200.697 25.47 200.776 25.6473 200.935 25.778C201.103 25.9087 201.406 26.0533 201.845 26.212L203.805 26.912C204.262 27.08 204.607 27.3133 204.841 27.612C205.074 27.9107 205.191 28.298 205.191 28.774C205.191 29.4553 204.976 30.02 204.547 30.468C204.117 30.916 203.464 31.14 202.587 31.14ZM3.276 50.14C2.66 50.14 2.16533 49.986 1.792 49.678C1.428 49.37 1.246 48.88 1.246 48.208V43.168L0.252 43.028V42.748H1.246V41.586L2.646 41.236V42.748H4.466V43.028L2.646 43.168V48.18C2.646 49.1693 3.00067 49.664 3.71 49.664C3.85933 49.664 3.99933 49.6407 4.13 49.594C4.27 49.5473 4.37733 49.5007 4.452 49.454C4.536 49.4073 4.58733 49.3747 4.606 49.356L4.788 49.58C4.368 49.9533 3.864 50.14 3.276 50.14ZM5.14752 49.72L6.12752 49.58V39.22L5.14752 39.08V38.8H7.52752V44.26C7.87285 43.756 8.27885 43.3593 8.74552 43.07C9.21218 42.7713 9.71618 42.622 10.2575 42.622C10.9295 42.622 11.4568 42.79 11.8395 43.126C12.2315 43.462 12.4275 43.9613 12.4275 44.624V49.58L13.4075 49.72V50H10.1875V49.72L11.0275 49.58V44.652C11.0275 44.1667 10.9295 43.7933 10.7335 43.532C10.5375 43.2613 10.2342 43.126 9.82352 43.126C9.39418 43.126 8.97885 43.2847 8.57752 43.602C8.18552 43.91 7.83552 44.2927 7.52752 44.75V49.58L8.36752 49.72V50H5.14752V49.72ZM14.0362 49.72L15.0162 49.58V43.168L14.0362 43.028V42.748H16.4162V43.826C17.0042 43.0233 17.6669 42.622 18.4042 42.622C18.7589 42.622 19.0715 42.7153 19.3422 42.902C19.6129 43.0793 19.7482 43.336 19.7482 43.672C19.7482 43.9147 19.6689 44.12 19.5102 44.288C19.3515 44.4467 19.1415 44.526 18.8802 44.526C18.5815 44.526 18.3389 44.4093 18.1522 44.176C18.2549 44.0453 18.3062 43.9053 18.3062 43.756C18.3062 43.5973 18.2502 43.4713 18.1382 43.378C18.0355 43.2753 17.8955 43.224 17.7182 43.224C17.5222 43.224 17.3215 43.3173 17.1162 43.504C16.9109 43.6813 16.6775 43.9613 16.4162 44.344V49.58L17.5362 49.72V50H14.0362V49.72ZM23.9428 50.14C23.2708 50.14 22.6595 49.986 22.1088 49.678C21.5582 49.3607 21.1195 48.9173 20.7928 48.348C20.4755 47.7693 20.3168 47.1113 20.3168 46.374C20.3168 45.6367 20.4755 44.9833 20.7928 44.414C21.1195 43.8447 21.5582 43.406 22.1088 43.098C22.6595 42.7807 23.2708 42.622 23.9428 42.622C24.6148 42.622 25.2262 42.7807 25.7768 43.098C26.3275 43.406 26.7615 43.8447 27.0788 44.414C27.4055 44.9833 27.5688 45.6367 27.5688 46.374C27.5688 47.1113 27.4055 47.7693 27.0788 48.348C26.7615 48.9173 26.3275 49.3607 25.7768 49.678C25.2262 49.986 24.6148 50.14 23.9428 50.14ZM23.9428 49.832C24.6335 49.832 25.1515 49.58 25.4968 49.076C25.8515 48.572 26.0288 47.9047 26.0288 47.074V45.674C26.0288 44.8433 25.8515 44.1807 25.4968 43.686C25.1515 43.182 24.6335 42.93 23.9428 42.93C23.2522 42.93 22.7295 43.182 22.3748 43.686C22.0295 44.1807 21.8568 44.8433 21.8568 45.674V47.074C21.8568 47.9047 22.0295 48.572 22.3748 49.076C22.7295 49.58 23.2522 49.832 23.9428 49.832ZM31.5521 50.14C30.8801 50.14 30.3481 49.972 29.9561 49.636C29.5734 49.3 29.3821 48.8007 29.3821 48.138V43.168L28.4021 43.028V42.748H30.7821V48.11C30.7821 48.586 30.8801 48.9593 31.0761 49.23C31.2721 49.5007 31.5754 49.636 31.9861 49.636C32.4154 49.636 32.8261 49.496 33.2181 49.216C33.6194 48.9267 33.9741 48.572 34.2821 48.152V43.168L33.3021 43.028V42.748H35.6821V49.58L36.6621 49.72V50H34.2821V48.656C33.9461 49.1227 33.5401 49.4867 33.0641 49.748C32.5974 50.0093 32.0934 50.14 31.5521 50.14ZM44.5698 42.09C44.5698 42.454 44.4344 42.7667 44.1638 43.028C43.8931 43.2893 43.4638 43.4573 42.8758 43.532C43.1184 43.8867 43.2398 44.372 43.2398 44.988C43.2398 45.716 42.9784 46.29 42.4558 46.71C41.9424 47.13 41.2891 47.34 40.4958 47.34C40.1691 47.34 39.8704 47.312 39.5998 47.256C39.0024 47.2933 38.7038 47.5267 38.7038 47.956C38.7038 48.1987 38.8018 48.376 38.9978 48.488C39.2031 48.6 39.5251 48.656 39.9638 48.656H41.5318C42.2878 48.656 42.8478 48.81 43.2118 49.118C43.5851 49.426 43.7718 49.9533 43.7718 50.7C43.7718 51.2227 43.6364 51.7033 43.3658 52.142C43.1044 52.5807 42.7218 52.926 42.2178 53.178C41.7138 53.4393 41.1118 53.57 40.4118 53.57C39.3571 53.57 38.5778 53.4113 38.0738 53.094C37.5791 52.7767 37.3318 52.3567 37.3318 51.834C37.3318 51.5167 37.4531 51.2367 37.6958 50.994C37.9384 50.7513 38.2698 50.63 38.6898 50.63C38.7738 50.63 38.9464 50.6487 39.2078 50.686C38.9184 50.994 38.7738 51.358 38.7738 51.778C38.7738 52.1793 38.9138 52.5293 39.1938 52.828C39.4738 53.1267 39.9311 53.276 40.5658 53.276C41.1164 53.276 41.6064 53.1687 42.0358 52.954C42.4744 52.7487 42.8104 52.478 43.0438 52.142C43.2771 51.806 43.3938 51.4607 43.3938 51.106C43.3938 50.714 43.2678 50.4293 43.0158 50.252C42.7638 50.084 42.3158 50 41.6718 50H39.9638C39.3104 50 38.8158 49.874 38.4798 49.622C38.1531 49.3607 37.9898 48.978 37.9898 48.474C37.9898 48.138 38.0831 47.844 38.2698 47.592C38.4658 47.3307 38.7131 47.1627 39.0118 47.088C38.1998 46.7427 37.7938 46.0427 37.7938 44.988C37.7938 44.2507 38.0504 43.672 38.5638 43.252C39.0771 42.832 39.7211 42.622 40.4958 42.622C41.4758 42.622 42.1851 42.8273 42.6238 43.238C42.8851 43.1913 43.0811 43.1073 43.2118 42.986C43.3424 42.8553 43.4078 42.7107 43.4078 42.552C43.4078 42.4027 43.3658 42.2907 43.2818 42.216C43.1978 42.132 43.0998 42.09 42.9878 42.09C42.9878 41.8847 43.0624 41.7073 43.2118 41.558C43.3704 41.3993 43.5571 41.32 43.7718 41.32C44.0051 41.32 44.1964 41.39 44.3458 41.53C44.4951 41.67 44.5698 41.8567 44.5698 42.09ZM41.9238 44.638C41.9238 44.0687 41.8024 43.63 41.5598 43.322C41.3264 43.014 40.9718 42.86 40.4958 42.86C39.5718 42.86 39.1098 43.4527 39.1098 44.638V45.324C39.1098 45.8747 39.2218 46.3087 39.4458 46.626C39.6791 46.9433 40.0291 47.102 40.4958 47.102C40.9718 47.102 41.3264 46.9433 41.5598 46.626C41.8024 46.3087 41.9238 45.8747 41.9238 45.324V44.638ZM44.796 49.72L45.776 49.58V39.22L44.796 39.08V38.8H47.176V44.26C47.5213 43.756 47.9273 43.3593 48.394 43.07C48.8606 42.7713 49.3646 42.622 49.906 42.622C50.578 42.622 51.1053 42.79 51.488 43.126C51.88 43.462 52.076 43.9613 52.076 44.624V49.58L53.056 49.72V50H49.836V49.72L50.676 49.58V44.652C50.676 44.1667 50.578 43.7933 50.382 43.532C50.186 43.2613 49.8826 43.126 49.472 43.126C49.0426 43.126 48.6273 43.2847 48.226 43.602C47.834 43.91 47.484 44.2927 47.176 44.75V49.58L48.016 49.72V50H44.796V49.72ZM59.9323 50.14C59.3163 50.14 58.8216 49.986 58.4483 49.678C58.0843 49.37 57.9023 48.88 57.9023 48.208V43.168L56.9083 43.028V42.748H57.9023V41.586L59.3023 41.236V42.748H61.1223V43.028L59.3023 43.168V48.18C59.3023 49.1693 59.6569 49.664 60.3663 49.664C60.5156 49.664 60.6556 49.6407 60.7863 49.594C60.9263 49.5473 61.0336 49.5007 61.1083 49.454C61.1923 49.4073 61.2436 49.3747 61.2623 49.356L61.4443 49.58C61.0243 49.9533 60.5203 50.14 59.9323 50.14ZM65.3839 50.14C64.6933 50.14 64.0679 49.986 63.5079 49.678C62.9479 49.3607 62.5046 48.9173 62.1779 48.348C61.8513 47.7787 61.6879 47.1207 61.6879 46.374C61.6879 45.6273 61.8466 44.974 62.1639 44.414C62.4906 43.8447 62.9246 43.406 63.4659 43.098C64.0166 42.7807 64.6279 42.622 65.2999 42.622C65.8879 42.622 66.4153 42.7527 66.8819 43.014C67.3486 43.2753 67.7126 43.6393 67.9739 44.106C68.2353 44.5633 68.3706 45.0907 68.3799 45.688H63.2279V47.074C63.2279 47.8953 63.4099 48.5627 63.7739 49.076C64.1473 49.58 64.6839 49.832 65.3839 49.832C66.0279 49.832 66.5973 49.65 67.0919 49.286C67.5866 48.922 67.8899 48.4507 68.0019 47.872H68.3239C68.1933 48.5627 67.8619 49.1133 67.3299 49.524C66.7979 49.9347 66.1493 50.14 65.3839 50.14ZM66.8399 45.338C66.8399 44.526 66.7139 43.924 66.4619 43.532C66.2099 43.1307 65.8179 42.93 65.2859 42.93C64.6606 42.93 64.1753 43.1493 63.8299 43.588C63.4846 44.0267 63.2886 44.61 63.2419 45.338H66.8399ZM73.1616 50.14C72.4896 50.14 71.8783 49.986 71.3276 49.678C70.7769 49.3607 70.3383 48.9173 70.0116 48.348C69.6943 47.7693 69.5356 47.1113 69.5356 46.374C69.5356 45.5993 69.7036 44.9273 70.0396 44.358C70.3849 43.7887 70.8329 43.3593 71.3836 43.07C71.9343 42.7713 72.5269 42.622 73.1616 42.622C73.6936 42.622 74.1789 42.7153 74.6176 42.902C75.0563 43.0793 75.4016 43.3313 75.6536 43.658C75.9149 43.9847 76.0456 44.3533 76.0456 44.764C76.0456 45.072 75.9663 45.31 75.8076 45.478C75.6489 45.6367 75.4389 45.716 75.1776 45.716C74.9256 45.716 74.7156 45.632 74.5476 45.464C74.3796 45.296 74.2956 45.086 74.2956 44.834C74.4356 44.7407 74.5336 44.638 74.5896 44.526C74.6456 44.414 74.6736 44.274 74.6736 44.106C74.6736 43.7607 74.5336 43.4807 74.2536 43.266C73.9829 43.042 73.6189 42.93 73.1616 42.93C72.4896 42.93 71.9716 43.1727 71.6076 43.658C71.2529 44.134 71.0756 44.806 71.0756 45.674V47.074C71.0756 47.9047 71.2483 48.572 71.5936 49.076C71.9483 49.58 72.4709 49.832 73.1616 49.832C73.7963 49.832 74.3469 49.6547 74.8136 49.3C75.2896 48.936 75.5836 48.46 75.6956 47.872H76.0176C75.8869 48.5627 75.5603 49.1133 75.0376 49.524C74.5243 49.9347 73.8989 50.14 73.1616 50.14ZM76.8838 49.72L77.8638 49.58V39.22L76.8838 39.08V38.8H79.2638V44.26C79.6092 43.756 80.0152 43.3593 80.4818 43.07C80.9485 42.7713 81.4525 42.622 81.9938 42.622C82.6658 42.622 83.1932 42.79 83.5758 43.126C83.9678 43.462 84.1638 43.9613 84.1638 44.624V49.58L85.1438 49.72V50H81.9238V49.72L82.7638 49.58V44.652C82.7638 44.1667 82.6658 43.7933 82.4698 43.532C82.2738 43.2613 81.9705 43.126 81.5598 43.126C81.1305 43.126 80.7152 43.2847 80.3138 43.602C79.9218 43.91 79.5718 44.2927 79.2638 44.75V49.58L80.1038 49.72V50H76.8838V49.72ZM85.7725 49.72L86.7525 49.58V43.168L85.7725 43.028V42.748H88.1525V44.26C88.4979 43.756 88.9039 43.3593 89.3705 43.07C89.8372 42.7713 90.3412 42.622 90.8825 42.622C91.5545 42.622 92.0819 42.79 92.4645 43.126C92.8565 43.462 93.0525 43.9613 93.0525 44.624V49.58L94.0325 49.72V50H90.8125V49.72L91.6525 49.58V44.652C91.6525 44.1667 91.5545 43.7933 91.3585 43.532C91.1625 43.2613 90.8592 43.126 90.4485 43.126C90.0192 43.126 89.6039 43.2847 89.2025 43.602C88.8105 43.91 88.4605 44.2927 88.1525 44.75V49.58L88.9925 49.72V50H85.7725V49.72ZM98.5093 50.14C97.8373 50.14 97.2259 49.986 96.6753 49.678C96.1246 49.3607 95.6859 48.9173 95.3593 48.348C95.0419 47.7693 94.8833 47.1113 94.8833 46.374C94.8833 45.6367 95.0419 44.9833 95.3593 44.414C95.6859 43.8447 96.1246 43.406 96.6753 43.098C97.2259 42.7807 97.8373 42.622 98.5093 42.622C99.1813 42.622 99.7926 42.7807 100.343 43.098C100.894 43.406 101.328 43.8447 101.645 44.414C101.972 44.9833 102.135 45.6367 102.135 46.374C102.135 47.1113 101.972 47.7693 101.645 48.348C101.328 48.9173 100.894 49.3607 100.343 49.678C99.7926 49.986 99.1813 50.14 98.5093 50.14ZM98.5093 49.832C99.1999 49.832 99.7179 49.58 100.063 49.076C100.418 48.572 100.595 47.9047 100.595 47.074V45.674C100.595 44.8433 100.418 44.1807 100.063 43.686C99.7179 43.182 99.1999 42.93 98.5093 42.93C97.8186 42.93 97.2959 43.182 96.9413 43.686C96.5959 44.1807 96.4233 44.8433 96.4233 45.674V47.074C96.4233 47.9047 96.5959 48.572 96.9413 49.076C97.2959 49.58 97.8186 49.832 98.5093 49.832ZM103.01 50V49.72L104.06 49.58V39.22L103.01 39.08V38.8H105.46V49.58L106.44 49.72V50H103.01ZM110.964 50.14C110.292 50.14 109.681 49.986 109.13 49.678C108.58 49.3607 108.141 48.9173 107.814 48.348C107.497 47.7693 107.338 47.1113 107.338 46.374C107.338 45.6367 107.497 44.9833 107.814 44.414C108.141 43.8447 108.58 43.406 109.13 43.098C109.681 42.7807 110.292 42.622 110.964 42.622C111.636 42.622 112.248 42.7807 112.798 43.098C113.349 43.406 113.783 43.8447 114.1 44.414C114.427 44.9833 114.59 45.6367 114.59 46.374C114.59 47.1113 114.427 47.7693 114.1 48.348C113.783 48.9173 113.349 49.3607 112.798 49.678C112.248 49.986 111.636 50.14 110.964 50.14ZM110.964 49.832C111.655 49.832 112.173 49.58 112.518 49.076C112.873 48.572 113.05 47.9047 113.05 47.074V45.674C113.05 44.8433 112.873 44.1807 112.518 43.686C112.173 43.182 111.655 42.93 110.964 42.93C110.274 42.93 109.751 43.182 109.396 43.686C109.051 44.1807 108.878 44.8433 108.878 45.674V47.074C108.878 47.9047 109.051 48.572 109.396 49.076C109.751 49.58 110.274 49.832 110.964 49.832ZM122.746 42.09C122.746 42.454 122.61 42.7667 122.34 43.028C122.069 43.2893 121.64 43.4573 121.052 43.532C121.294 43.8867 121.416 44.372 121.416 44.988C121.416 45.716 121.154 46.29 120.632 46.71C120.118 47.13 119.465 47.34 118.672 47.34C118.345 47.34 118.046 47.312 117.776 47.256C117.178 47.2933 116.88 47.5267 116.88 47.956C116.88 48.1987 116.978 48.376 117.174 48.488C117.379 48.6 117.701 48.656 118.14 48.656H119.708C120.464 48.656 121.024 48.81 121.388 49.118C121.761 49.426 121.948 49.9533 121.948 50.7C121.948 51.2227 121.812 51.7033 121.542 52.142C121.28 52.5807 120.898 52.926 120.394 53.178C119.89 53.4393 119.288 53.57 118.588 53.57C117.533 53.57 116.754 53.4113 116.25 53.094C115.755 52.7767 115.508 52.3567 115.508 51.834C115.508 51.5167 115.629 51.2367 115.872 50.994C116.114 50.7513 116.446 50.63 116.866 50.63C116.95 50.63 117.122 50.6487 117.384 50.686C117.094 50.994 116.95 51.358 116.95 51.778C116.95 52.1793 117.09 52.5293 117.37 52.828C117.65 53.1267 118.107 53.276 118.742 53.276C119.292 53.276 119.782 53.1687 120.212 52.954C120.65 52.7487 120.986 52.478 121.22 52.142C121.453 51.806 121.57 51.4607 121.57 51.106C121.57 50.714 121.444 50.4293 121.192 50.252C120.94 50.084 120.492 50 119.848 50H118.14C117.486 50 116.992 49.874 116.656 49.622C116.329 49.3607 116.166 48.978 116.166 48.474C116.166 48.138 116.259 47.844 116.446 47.592C116.642 47.3307 116.889 47.1627 117.188 47.088C116.376 46.7427 115.97 46.0427 115.97 44.988C115.97 44.2507 116.226 43.672 116.74 43.252C117.253 42.832 117.897 42.622 118.672 42.622C119.652 42.622 120.361 42.8273 120.8 43.238C121.061 43.1913 121.257 43.1073 121.388 42.986C121.518 42.8553 121.584 42.7107 121.584 42.552C121.584 42.4027 121.542 42.2907 121.458 42.216C121.374 42.132 121.276 42.09 121.164 42.09C121.164 41.8847 121.238 41.7073 121.388 41.558C121.546 41.3993 121.733 41.32 121.948 41.32C122.181 41.32 122.372 41.39 122.522 41.53C122.671 41.67 122.746 41.8567 122.746 42.09ZM120.1 44.638C120.1 44.0687 119.978 43.63 119.736 43.322C119.502 43.014 119.148 42.86 118.672 42.86C117.748 42.86 117.286 43.4527 117.286 44.638V45.324C117.286 45.8747 117.398 46.3087 117.622 46.626C117.855 46.9433 118.205 47.102 118.672 47.102C119.148 47.102 119.502 46.9433 119.736 46.626C119.978 46.3087 120.1 45.8747 120.1 45.324V44.638ZM124.33 54.088C123.844 54.088 123.452 53.9667 123.154 53.724C122.855 53.4813 122.706 53.1547 122.706 52.744C122.706 52.464 122.785 52.2353 122.944 52.058C123.112 51.89 123.317 51.806 123.56 51.806C123.737 51.806 123.896 51.8433 124.036 51.918C124.176 51.9927 124.288 52.1047 124.372 52.254C124.232 52.45 124.162 52.6553 124.162 52.87C124.162 53.0567 124.222 53.2107 124.344 53.332C124.465 53.4533 124.619 53.514 124.806 53.514C125.03 53.514 125.221 53.4393 125.38 53.29C125.548 53.1407 125.697 52.8793 125.828 52.506L126.668 50.098L123.42 43.182L122.482 43.042V42.762H125.968V43.042L124.988 43.21L127.326 48.208L128.992 43.392L127.788 43.042V42.762H130.308V43.042L129.356 43.392L126.22 52.506C126.024 53.0567 125.786 53.458 125.506 53.71C125.235 53.962 124.843 54.088 124.33 54.088ZM136.208 50.14C135.61 50.14 135.12 49.986 134.738 49.678C134.355 49.3607 134.164 48.894 134.164 48.278C134.164 47.4007 134.532 46.78 135.27 46.416C136.007 46.0427 136.861 45.856 137.832 45.856H138.77V44.778C138.77 44.2927 138.714 43.9193 138.602 43.658C138.499 43.3873 138.336 43.2007 138.112 43.098C137.888 42.986 137.584 42.93 137.202 42.93C136.763 42.93 136.436 43.0187 136.222 43.196C136.007 43.364 135.9 43.5927 135.9 43.882C135.9 44.1527 136.03 44.33 136.292 44.414C136.292 44.6473 136.203 44.8527 136.026 45.03C135.848 45.2073 135.638 45.296 135.396 45.296C135.134 45.296 134.924 45.226 134.766 45.086C134.607 44.9367 134.528 44.7127 134.528 44.414C134.528 43.8727 134.798 43.4387 135.34 43.112C135.881 42.7853 136.558 42.622 137.37 42.622C139.236 42.622 140.17 43.434 140.17 45.058V49.062C140.17 49.2673 140.212 49.426 140.296 49.538C140.389 49.6407 140.52 49.692 140.688 49.692C140.846 49.692 140.972 49.6407 141.066 49.538C141.159 49.426 141.206 49.2767 141.206 49.09H141.5C141.5 49.4167 141.392 49.6733 141.178 49.86C140.972 50.0467 140.683 50.14 140.31 50.14C139.88 50.14 139.516 50.0187 139.218 49.776C138.928 49.524 138.779 49.1367 138.77 48.614C138.546 49.09 138.2 49.4633 137.734 49.734C137.276 50.0047 136.768 50.14 136.208 50.14ZM136.978 49.524C137.23 49.524 137.486 49.4493 137.748 49.3C138.018 49.1507 138.247 48.936 138.434 48.656C138.62 48.3667 138.732 48.0213 138.77 47.62V46.164H137.832C137.066 46.164 136.492 46.3367 136.11 46.682C135.736 47.018 135.55 47.494 135.55 48.11C135.55 48.6233 135.671 48.9873 135.914 49.202C136.156 49.4167 136.511 49.524 136.978 49.524ZM141.841 49.72L142.821 49.58V43.168L141.841 43.028V42.748H144.221V44.26C144.566 43.756 144.972 43.3593 145.439 43.07C145.906 42.7713 146.41 42.622 146.951 42.622C147.623 42.622 148.15 42.79 148.533 43.126C148.925 43.462 149.121 43.9613 149.121 44.624V49.58L150.101 49.72V50H146.881V49.72L147.721 49.58V44.652C147.721 44.1667 147.623 43.7933 147.427 43.532C147.231 43.2613 146.928 43.126 146.517 43.126C146.088 43.126 145.672 43.2847 145.271 43.602C144.879 43.91 144.529 44.2927 144.221 44.75V49.58L145.061 49.72V50H141.841V49.72ZM154.298 50.14C153.635 50.14 153.052 49.986 152.548 49.678C152.044 49.3607 151.652 48.922 151.372 48.362C151.092 47.7927 150.952 47.13 150.952 46.374C150.952 45.618 151.092 44.96 151.372 44.4C151.652 43.8307 152.044 43.392 152.548 43.084C153.052 42.776 153.635 42.622 154.298 42.622C154.839 42.622 155.31 42.7667 155.712 43.056C156.113 43.336 156.43 43.7233 156.664 44.218V39.22L155.684 39.08V38.8H158.064V49.58L159.044 49.72V50H156.664V48.544C156.43 49.0387 156.113 49.4307 155.712 49.72C155.31 50 154.839 50.14 154.298 50.14ZM154.438 49.79C154.848 49.79 155.217 49.6733 155.544 49.44C155.88 49.1973 156.146 48.88 156.342 48.488C156.547 48.0867 156.654 47.6527 156.664 47.186V45.576C156.654 45.1093 156.547 44.68 156.342 44.288C156.146 43.8867 155.88 43.5693 155.544 43.336C155.217 43.0933 154.848 42.972 154.438 42.972C153.14 42.972 152.492 43.8727 152.492 45.674V47.074C152.492 48.8847 153.14 49.79 154.438 49.79ZM166.91 50.14C166.238 50.14 165.626 49.986 165.076 49.678C164.525 49.3607 164.086 48.9173 163.76 48.348C163.442 47.7693 163.284 47.1113 163.284 46.374C163.284 45.5993 163.452 44.9273 163.788 44.358C164.133 43.7887 164.581 43.3593 165.132 43.07C165.682 42.7713 166.275 42.622 166.91 42.622C167.442 42.622 167.927 42.7153 168.366 42.902C168.804 43.0793 169.15 43.3313 169.402 43.658C169.663 43.9847 169.794 44.3533 169.794 44.764C169.794 45.072 169.714 45.31 169.556 45.478C169.397 45.6367 169.187 45.716 168.926 45.716C168.674 45.716 168.464 45.632 168.296 45.464C168.128 45.296 168.044 45.086 168.044 44.834C168.184 44.7407 168.282 44.638 168.338 44.526C168.394 44.414 168.422 44.274 168.422 44.106C168.422 43.7607 168.282 43.4807 168.002 43.266C167.731 43.042 167.367 42.93 166.91 42.93C166.238 42.93 165.72 43.1727 165.356 43.658C165.001 44.134 164.824 44.806 164.824 45.674V47.074C164.824 47.9047 164.996 48.572 165.342 49.076C165.696 49.58 166.219 49.832 166.91 49.832C167.544 49.832 168.095 49.6547 168.562 49.3C169.038 48.936 169.332 48.46 169.444 47.872H169.766C169.635 48.5627 169.308 49.1133 168.786 49.524C168.272 49.9347 167.647 50.14 166.91 50.14ZM170.716 49.72L171.696 49.58V43.168L170.716 43.028V42.748H173.096V43.826C173.684 43.0233 174.347 42.622 175.084 42.622C175.439 42.622 175.751 42.7153 176.022 42.902C176.293 43.0793 176.428 43.336 176.428 43.672C176.428 43.9147 176.349 44.12 176.19 44.288C176.031 44.4467 175.821 44.526 175.56 44.526C175.261 44.526 175.019 44.4093 174.832 44.176C174.935 44.0453 174.986 43.9053 174.986 43.756C174.986 43.5973 174.93 43.4713 174.818 43.378C174.715 43.2753 174.575 43.224 174.398 43.224C174.202 43.224 174.001 43.3173 173.796 43.504C173.591 43.6813 173.357 43.9613 173.096 44.344V49.58L174.216 49.72V50H170.716V49.72ZM180.693 50.14C180.002 50.14 179.377 49.986 178.817 49.678C178.257 49.3607 177.813 48.9173 177.487 48.348C177.16 47.7787 176.997 47.1207 176.997 46.374C176.997 45.6273 177.155 44.974 177.473 44.414C177.799 43.8447 178.233 43.406 178.775 43.098C179.325 42.7807 179.937 42.622 180.609 42.622C181.197 42.622 181.724 42.7527 182.191 43.014C182.657 43.2753 183.021 43.6393 183.283 44.106C183.544 44.5633 183.679 45.0907 183.689 45.688H178.537V47.074C178.537 47.8953 178.719 48.5627 179.083 49.076C179.456 49.58 179.993 49.832 180.693 49.832C181.337 49.832 181.906 49.65 182.401 49.286C182.895 48.922 183.199 48.4507 183.311 47.872H183.633C183.502 48.5627 183.171 49.1133 182.639 49.524C182.107 49.9347 181.458 50.14 180.693 50.14ZM182.149 45.338C182.149 44.526 182.023 43.924 181.771 43.532C181.519 43.1307 181.127 42.93 180.595 42.93C179.969 42.93 179.484 43.1493 179.139 43.588C178.793 44.0267 178.597 44.61 178.551 45.338H182.149ZM186.93 50.14C186.333 50.14 185.843 49.986 185.46 49.678C185.078 49.3607 184.886 48.894 184.886 48.278C184.886 47.4007 185.255 46.78 185.992 46.416C186.73 46.0427 187.584 45.856 188.554 45.856H189.492V44.778C189.492 44.2927 189.436 43.9193 189.324 43.658C189.222 43.3873 189.058 43.2007 188.834 43.098C188.61 42.986 188.307 42.93 187.924 42.93C187.486 42.93 187.159 43.0187 186.944 43.196C186.73 43.364 186.622 43.5927 186.622 43.882C186.622 44.1527 186.753 44.33 187.014 44.414C187.014 44.6473 186.926 44.8527 186.748 45.03C186.571 45.2073 186.361 45.296 186.118 45.296C185.857 45.296 185.647 45.226 185.488 45.086C185.33 44.9367 185.25 44.7127 185.25 44.414C185.25 43.8727 185.521 43.4387 186.062 43.112C186.604 42.7853 187.28 42.622 188.092 42.622C189.959 42.622 190.892 43.434 190.892 45.058V49.062C190.892 49.2673 190.934 49.426 191.018 49.538C191.112 49.6407 191.242 49.692 191.41 49.692C191.569 49.692 191.695 49.6407 191.788 49.538C191.882 49.426 191.928 49.2767 191.928 49.09H192.222C192.222 49.4167 192.115 49.6733 191.9 49.86C191.695 50.0467 191.406 50.14 191.032 50.14C190.603 50.14 190.239 50.0187 189.94 49.776C189.651 49.524 189.502 49.1367 189.492 48.614C189.268 49.09 188.923 49.4633 188.456 49.734C187.999 50.0047 187.49 50.14 186.93 50.14ZM187.7 49.524C187.952 49.524 188.209 49.4493 188.47 49.3C188.741 49.1507 188.97 48.936 189.156 48.656C189.343 48.3667 189.455 48.0213 189.492 47.62V46.164H188.554C187.789 46.164 187.215 46.3367 186.832 46.682C186.459 47.018 186.272 47.494 186.272 48.11C186.272 48.6233 186.394 48.9873 186.636 49.202C186.879 49.4167 187.234 49.524 187.7 49.524ZM195.462 50.14C194.846 50.14 194.351 49.986 193.978 49.678C193.614 49.37 193.432 48.88 193.432 48.208V43.168L192.438 43.028V42.748H193.432V41.586L194.832 41.236V42.748H196.652V43.028L194.832 43.168V48.18C194.832 49.1693 195.186 49.664 195.896 49.664C196.045 49.664 196.185 49.6407 196.316 49.594C196.456 49.5473 196.563 49.5007 196.638 49.454C196.722 49.4073 196.773 49.3747 196.792 49.356L196.974 49.58C196.554 49.9533 196.05 50.14 195.462 50.14ZM198.915 41.124C198.654 41.124 198.43 41.0353 198.243 40.858C198.056 40.6713 197.963 40.4473 197.963 40.186C197.963 39.9247 198.052 39.7053 198.229 39.528C198.416 39.3507 198.644 39.262 198.915 39.262C199.167 39.262 199.382 39.3507 199.559 39.528C199.736 39.7053 199.825 39.9247 199.825 40.186C199.825 40.4473 199.736 40.6713 199.559 40.858C199.382 41.0353 199.167 41.124 198.915 41.124ZM197.431 50V49.72L198.411 49.58V43.182L197.431 43.042V42.762H199.811V49.58L200.791 49.72V50H197.431ZM204.796 50.28L201.8 43.168L200.89 43.028V42.748H204.376V43.028L203.368 43.21L205.482 48.474L207.372 43.392L206.14 43.042V42.762H208.646V43.042L207.764 43.378L205.188 50.28H204.796ZM210.386 41.124C210.124 41.124 209.9 41.0353 209.714 40.858C209.527 40.6713 209.434 40.4473 209.434 40.186C209.434 39.9247 209.522 39.7053 209.7 39.528C209.886 39.3507 210.115 39.262 210.386 39.262C210.638 39.262 210.852 39.3507 211.03 39.528C211.207 39.7053 211.296 39.9247 211.296 40.186C211.296 40.4473 211.207 40.6713 211.03 40.858C210.852 41.0353 210.638 41.124 210.386 41.124ZM208.902 50V49.72L209.882 49.58V43.182L208.902 43.042V42.762H211.282V49.58L212.262 49.72V50H208.902ZM215.833 50.14C215.217 50.14 214.722 49.986 214.349 49.678C213.985 49.37 213.803 48.88 213.803 48.208V43.168L212.809 43.028V42.748H213.803V41.586L215.203 41.236V42.748H217.023V43.028L215.203 43.168V48.18C215.203 49.1693 215.557 49.664 216.267 49.664C216.416 49.664 216.556 49.6407 216.687 49.594C216.827 49.5473 216.934 49.5007 217.009 49.454C217.093 49.4073 217.144 49.3747 217.163 49.356L217.345 49.58C216.925 49.9533 216.421 50.14 215.833 50.14ZM219.062 54.088C218.577 54.088 218.185 53.9667 217.886 53.724C217.587 53.4813 217.438 53.1547 217.438 52.744C217.438 52.464 217.517 52.2353 217.676 52.058C217.844 51.89 218.049 51.806 218.292 51.806C218.469 51.806 218.628 51.8433 218.768 51.918C218.908 51.9927 219.02 52.1047 219.104 52.254C218.964 52.45 218.894 52.6553 218.894 52.87C218.894 53.0567 218.955 53.2107 219.076 53.332C219.197 53.4533 219.351 53.514 219.538 53.514C219.762 53.514 219.953 53.4393 220.112 53.29C220.28 53.1407 220.429 52.8793 220.56 52.506L221.4 50.098L218.152 43.182L217.214 43.042V42.762H220.7V43.042L219.72 43.21L222.058 48.208L223.724 43.392L222.52 43.042V42.762H225.04V43.042L224.088 43.392L220.952 52.506C220.756 53.0567 220.518 53.458 220.238 53.71C219.967 53.962 219.575 54.088 219.062 54.088ZM225.458 50.14C225.225 50.14 225.024 50.0607 224.856 49.902C224.697 49.734 224.618 49.5333 224.618 49.3C224.618 49.0667 224.697 48.8753 224.856 48.726C225.024 48.5673 225.225 48.488 225.458 48.488C225.691 48.488 225.887 48.5673 226.046 48.726C226.205 48.8753 226.284 49.0667 226.284 49.3C226.284 49.5333 226.205 49.734 226.046 49.902C225.887 50.0607 225.691 50.14 225.458 50.14Z" fill="white"/>
</svg>
