<svg width="12" height="42" viewBox="0 0 12 42" fill="none" xmlns="http://www.w3.org/2000/svg">
<path opacity="0.5" d="M11.098 37.744C11.098 38.3973 10.986 38.9853 10.762 39.508C10.5287 40.0307 10.202 40.4413 9.782 40.74C9.362 41.0387 8.872 41.188 8.312 41.188L8.312 39.48C8.732 39.4427 9.07733 39.2793 9.348 38.99C9.61867 38.6913 9.754 38.276 9.754 37.744C9.754 37.1933 9.62333 36.764 9.362 36.456C9.09133 36.148 8.746 35.994 8.326 35.994C7.99933 35.994 7.73333 36.092 7.528 36.288C7.32267 36.4747 7.164 36.7127 7.052 37.002C6.94 37.282 6.81867 37.674 6.688 38.178C6.52 38.8127 6.352 39.3307 6.184 39.732C6.00667 40.124 5.736 40.46 5.372 40.74C5.008 41.02 4.52267 41.16 3.916 41.16C3.356 41.16 2.866 41.02 2.446 40.74C2.026 40.46 1.704 40.068 1.48 39.564C1.256 39.06 1.144 38.4767 1.144 37.814C1.144 36.8713 1.382 36.1013 1.858 35.504C2.32467 34.8973 2.96867 34.5613 3.79 34.496L3.79 36.26C3.43533 36.288 3.132 36.456 2.88 36.764C2.628 37.072 2.502 37.478 2.502 37.982C2.502 38.4393 2.61867 38.8127 2.852 39.102C3.08533 39.3913 3.42133 39.536 3.86 39.536C4.15867 39.536 4.406 39.4473 4.602 39.27C4.78867 39.0833 4.938 38.85 5.05 38.57C5.162 38.29 5.28333 37.9073 5.414 37.422C5.59133 36.778 5.76867 36.2553 5.946 35.854C6.12333 35.4433 6.39867 35.098 6.772 34.818C7.136 34.5287 7.626 34.384 8.242 34.384C8.73667 34.384 9.20333 34.5193 9.642 34.79C10.0807 35.0513 10.4353 35.4387 10.706 35.952C10.9673 36.456 11.098 37.0533 11.098 37.744ZM11.126 29.1548C11.126 29.8828 10.9627 30.5408 10.636 31.1288C10.3 31.7168 9.83333 32.1788 9.236 32.5148C8.62933 32.8508 7.92933 33.0188 7.136 33.0188C6.352 33.0188 5.65667 32.8461 5.05 32.5008C4.44333 32.1554 3.97667 31.6841 3.65 31.0868C3.32333 30.4894 3.16 29.8221 3.16 29.0848C3.16 28.3474 3.32333 27.6801 3.65 27.0828C3.97667 26.4854 4.44333 26.0141 5.05 25.6688C5.65667 25.3234 6.352 25.1508 7.136 25.1508C7.92 25.1508 8.61533 25.3281 9.222 25.6828C9.82867 26.0374 10.3 26.5228 10.636 27.1388C10.9627 27.7454 11.126 28.4174 11.126 29.1548ZM9.74 29.1548C9.74 28.7441 9.642 28.3614 9.446 28.0068C9.25 27.6428 8.956 27.3488 8.564 27.1248C8.172 26.9008 7.696 26.7888 7.136 26.7888C6.576 26.7888 6.10467 26.8961 5.722 27.1108C5.33 27.3254 5.036 27.6101 4.84 27.9648C4.644 28.3194 4.546 28.7021 4.546 29.1128C4.546 29.5234 4.644 29.9061 4.84 30.2608C5.036 30.6061 5.33 30.8814 5.722 31.0868C6.10467 31.2921 6.576 31.3948 7.136 31.3948C7.96667 31.3948 8.61067 31.1848 9.068 30.7648C9.516 30.3354 9.74 29.7988 9.74 29.1548ZM7.136 24.105C6.34267 24.105 5.64733 23.9464 5.05 23.629C4.44333 23.3024 3.97667 22.8544 3.65 22.285C3.32333 21.7157 3.16 21.0624 3.16 20.325C3.16 19.3917 3.384 18.6217 3.832 18.015C4.27067 17.399 4.90067 16.9837 5.722 16.769L5.722 18.491C5.33933 18.631 5.04067 18.855 4.826 19.163C4.61133 19.471 4.504 19.8584 4.504 20.325C4.504 20.9784 4.73733 21.501 5.204 21.893C5.66133 22.2757 6.30533 22.467 7.136 22.467C7.96667 22.467 8.61533 22.2757 9.082 21.893C9.54867 21.501 9.782 20.9784 9.782 20.325C9.782 19.401 9.376 18.7897 8.564 18.491L8.564 16.769C9.348 16.993 9.97333 17.413 10.44 18.029C10.8973 18.645 11.126 19.4104 11.126 20.325C11.126 21.0624 10.9627 21.7157 10.636 22.285C10.3 22.8544 9.83333 23.3024 9.236 23.629C8.62933 23.9464 7.92933 24.105 7.136 24.105ZM2.264 14.3665C2.264 14.6558 2.166 14.8985 1.97 15.0945C1.774 15.2905 1.53133 15.3885 1.242 15.3885C0.952665 15.3885 0.709998 15.2905 0.513999 15.0945C0.317998 14.8985 0.219998 14.6558 0.219998 14.3665C0.219998 14.0865 0.317998 13.8485 0.513999 13.6525C0.709998 13.4565 0.952665 13.3585 1.242 13.3585C1.53133 13.3585 1.774 13.4565 1.97 13.6525C2.166 13.8485 2.264 14.0865 2.264 14.3665ZM3.286 13.5825L11 13.5825L11 15.1785L3.286 15.1785L3.286 13.5825ZM7.108 12.0191C6.33333 12.0191 5.64733 11.8604 5.05 11.5431C4.45267 11.2164 3.99066 10.7778 3.664 10.2271C3.328 9.66711 3.16 9.05111 3.16 8.37911C3.16 7.77244 3.28133 7.24511 3.524 6.79711C3.75733 6.33978 4.05133 5.97578 4.406 5.70511L3.286 5.70511L3.286 4.09511L11 4.09511L11 5.70511L9.852 5.70511C10.216 5.97578 10.5193 6.34444 10.762 6.81111C11.0047 7.27778 11.126 7.80978 11.126 8.40711C11.126 9.06978 10.958 9.67644 10.622 10.2271C10.2767 10.7778 9.80067 11.2164 9.194 11.5431C8.578 11.8604 7.88267 12.0191 7.108 12.0191ZM7.136 5.70511C6.604 5.70511 6.142 5.81711 5.75 6.04111C5.358 6.25578 5.05933 6.54044 4.854 6.89511C4.64866 7.24978 4.546 7.63244 4.546 8.04311C4.546 8.45378 4.64866 8.83644 4.854 9.19111C5.05 9.54578 5.344 9.83511 5.736 10.0591C6.11867 10.2738 6.576 10.3811 7.108 10.3811C7.64 10.3811 8.10667 10.2738 8.508 10.0591C8.90933 9.83511 9.21733 9.54578 9.432 9.19111C9.63733 8.82711 9.74 8.44444 9.74 8.04311C9.74 7.63244 9.63733 7.24978 9.432 6.89511C9.22667 6.54044 8.928 6.25578 8.536 6.04111C8.13466 5.81711 7.668 5.70511 7.136 5.70511ZM0.639998 0.402828L11 0.402827L11 1.99883L0.639998 1.99883L0.639998 0.402828Z" fill="white"/>
</svg>
