<svg width="399" height="81" viewBox="0 0 399 81" fill="none" xmlns="http://www.w3.org/2000/svg">
<path d="M28.272 80.92C22.32 80.92 16.464 79.224 10.704 75.832L2.544 79.96H0.432V55.288H2.544L10.8 73.144C16.112 76.92 22.192 78.808 29.04 78.808C34.672 78.808 39.312 77.336 42.96 74.392C46.672 71.384 48.528 67.192 48.528 61.816C48.528 57.912 47.344 54.84 44.976 52.6C42.608 50.296 38.768 48.472 33.456 47.128L17.52 43C11.952 41.528 7.76 39.032 4.944 35.512C2.128 31.928 0.72 27.704 0.72 22.84C0.72 18.424 1.584 14.52 3.312 11.128C5.104 7.672 7.696 5.016 11.088 3.16C14.48 1.24 18.512 0.279995 23.184 0.279995C29.008 0.279995 34.224 1.272 38.832 3.256L45.84 0.279995H47.952V19.864H45.84L38.928 5.848C34.128 3.544 28.912 2.392 23.28 2.392C17.712 2.392 13.328 3.832 10.128 6.712C6.928 9.528 5.328 13.272 5.328 17.944C5.328 21.4 6.448 24.12 8.688 26.104C10.992 28.088 14.352 29.656 18.768 30.808L35.952 35.32C41.52 36.728 45.648 39.16 48.336 42.616C51.088 46.008 52.464 51.192 52.464 58.168C52.464 65.272 50.256 70.84 45.84 74.872C41.488 78.904 35.632 80.92 28.272 80.92ZM77.4255 79V76.984L86.2575 75.544V4.6H70.4175L63.1215 23.608H60.3375V2.2H122.834V23.608H119.954L112.754 4.6H96.8175V75.544L105.65 76.984V79H77.4255ZM163.748 80.92C154.34 80.92 147.46 78.84 143.108 74.68C138.756 70.456 136.58 64.888 136.58 57.976V5.65599L127.748 4.31199V2.2H155.972V4.31199L147.14 5.65599V57.976C147.14 64.248 148.9 69.08 152.42 72.472C155.94 75.8 161.284 77.464 168.452 77.464C182.02 77.464 188.804 70.968 188.804 57.976V8.056L179.876 4.31199V2.2H200.324V4.31199L191.108 8.056V57.976C191.108 65.656 188.964 71.416 184.676 75.256C180.388 79.032 173.412 80.92 163.748 80.92ZM206.621 76.984L215.453 75.544V5.65599L206.621 4.31199V2.2H243.389C250.429 2.2 256.669 3.8 262.109 6.99999C267.613 10.136 271.901 14.616 274.973 20.44C278.045 26.2 279.581 32.92 279.581 40.6C279.581 48.28 278.045 55.032 274.973 60.856C271.901 66.616 267.613 71.096 262.109 74.296C256.605 77.432 250.365 79 243.389 79H206.621V76.984ZM243.389 76.696C248.061 76.696 252.189 75.608 255.773 73.432C259.421 71.256 262.269 68.024 264.317 63.736C266.365 59.384 267.389 54.136 267.389 47.992V33.208C267.389 27.064 266.365 21.848 264.317 17.56C262.269 13.272 259.421 10.04 255.773 7.86399C252.189 5.688 248.061 4.6 243.389 4.6H226.013V76.696H243.389ZM288.559 79V76.984L297.391 75.544V5.65599L288.559 4.31199V2.2H316.783V4.31199L307.951 5.65599V75.544L316.783 76.984V79H288.559ZM362.001 80.92C355.025 80.92 348.785 79.224 343.281 75.832C337.777 72.44 333.489 67.704 330.417 61.624C327.345 55.48 325.809 48.472 325.809 40.6C325.809 32.728 327.345 25.752 330.417 19.672C333.489 13.528 337.777 8.76 343.281 5.368C348.785 1.976 355.025 0.279995 362.001 0.279995C368.977 0.279995 375.217 1.976 380.721 5.368C386.225 8.76 390.513 13.528 393.585 19.672C396.657 25.752 398.193 32.728 398.193 40.6C398.193 48.472 396.657 55.48 393.585 61.624C390.513 67.704 386.225 72.44 380.721 75.832C375.217 79.224 368.977 80.92 362.001 80.92ZM362.001 78.712C366.609 78.712 370.737 77.496 374.385 75.064C378.097 72.632 381.009 69.112 383.121 64.504C385.233 59.832 386.289 54.328 386.289 47.992V33.208C386.289 26.872 385.233 21.4 383.121 16.792C381.009 12.12 378.097 8.568 374.385 6.13599C370.737 3.70399 366.609 2.488 362.001 2.488C357.329 2.488 353.169 3.70399 349.521 6.13599C345.873 8.568 342.993 12.12 340.881 16.792C338.769 21.4 337.713 26.872 337.713 33.208V47.992C337.713 54.328 338.769 59.832 340.881 64.504C342.993 69.112 345.873 72.632 349.521 75.064C353.169 77.496 357.329 78.712 362.001 78.712Z" fill="white"/>
</svg>
