<svg width="754" height="979" viewBox="0 0 754 979" fill="none" xmlns="http://www.w3.org/2000/svg">
<path fill-rule="evenodd" clip-rule="evenodd" d="M0 15C0 6.7157 6.71573 0 15 0H739C747.284 0 754 6.71573 754 15V27C754 32.5228 749.523 37 744 37H621C612.716 37 606 43.7157 606 52V354C606 362.284 612.716 369 621 369H744C749.523 369 754 373.477 754 379V964C754 972.284 747.284 979 739 979H359C353.477 979 349 974.523 349 969V584C349 575.716 342.284 569 334 569H10C4.47715 569 0 564.523 0 559V15Z" fill="#171717"/>
</svg>
