<svg width="887" height="94" viewBox="0 0 887 94" fill="none" xmlns="http://www.w3.org/2000/svg">
<path d="M545.952 73.44C540.72 73.44 536.136 72.168 532.2 69.624C528.264 67.08 525.216 63.528 523.056 58.968C520.944 54.408 519.888 49.152 519.888 43.2C519.888 37.248 520.968 31.992 523.128 27.432C525.336 22.824 528.432 19.272 532.416 16.776C536.448 14.232 541.08 12.96 546.312 12.96C548.376 12.96 550.464 13.32 552.576 14.04C554.736 14.76 556.68 15.768 558.408 17.064L563.232 12.96H564.744V30.816H563.232L558.768 19.656C557.088 18.12 555.12 16.896 552.864 15.984C550.656 15.072 548.472 14.616 546.312 14.616C542.952 14.616 539.976 15.48 537.384 17.208C534.84 18.936 532.848 21.456 531.408 24.768C529.968 28.08 529.248 32.016 529.248 36.576V49.752C529.248 54.312 529.944 58.248 531.336 61.56C532.728 64.872 534.672 67.416 537.168 69.192C539.664 70.92 542.592 71.784 545.952 71.784C548.4 71.784 550.848 71.256 553.296 70.2C555.744 69.096 557.784 67.632 559.416 65.808L563.592 54.216H565.104V72.72H563.592L558.408 69.048C556.68 70.44 554.712 71.52 552.504 72.288C550.296 73.056 548.112 73.44 545.952 73.44ZM573.752 70.56L578.792 69.84V36.864L573.752 36.144V34.704H585.992V40.248C589.016 36.12 592.424 34.056 596.216 34.056C598.04 34.056 599.648 34.536 601.04 35.496C602.432 36.408 603.128 37.728 603.128 39.456C603.128 40.704 602.72 41.76 601.904 42.624C601.088 43.44 600.008 43.848 598.664 43.848C597.128 43.848 595.88 43.248 594.92 42.048C595.448 41.376 595.712 40.656 595.712 39.888C595.712 39.072 595.424 38.424 594.848 37.944C594.32 37.416 593.6 37.152 592.688 37.152C591.68 37.152 590.648 37.632 589.592 38.592C588.536 39.504 587.336 40.944 585.992 42.912V69.84L591.752 70.56V72H573.752V70.56ZM627.221 72.72C623.669 72.72 620.453 71.928 617.573 70.344C614.693 68.712 612.413 66.432 610.733 63.504C609.053 60.576 608.213 57.192 608.213 53.352C608.213 49.512 609.029 46.152 610.661 43.272C612.341 40.344 614.573 38.088 617.357 36.504C620.189 34.872 623.333 34.056 626.789 34.056C629.813 34.056 632.525 34.728 634.925 36.072C637.325 37.416 639.197 39.288 640.541 41.688C641.885 44.04 642.581 46.752 642.629 49.824H616.133V56.952C616.133 61.176 617.069 64.608 618.941 67.248C620.861 69.84 623.621 71.136 627.221 71.136C630.533 71.136 633.461 70.2 636.005 68.328C638.549 66.456 640.109 64.032 640.685 61.056H642.341C641.669 64.608 639.965 67.44 637.229 69.552C634.493 71.664 631.157 72.72 627.221 72.72ZM634.709 48.024C634.709 43.848 634.061 40.752 632.765 38.736C631.469 36.672 629.453 35.64 626.717 35.64C623.501 35.64 621.005 36.768 619.229 39.024C617.453 41.28 616.445 44.28 616.205 48.024H634.709ZM661.46 72.72C658.388 72.72 655.868 71.928 653.9 70.344C651.932 68.712 650.948 66.312 650.948 63.144C650.948 58.632 652.844 55.44 656.636 53.568C660.428 51.648 664.82 50.688 669.812 50.688H674.636V45.144C674.636 42.648 674.348 40.728 673.772 39.384C673.244 37.992 672.404 37.032 671.252 36.504C670.1 35.928 668.54 35.64 666.572 35.64C664.316 35.64 662.636 36.096 661.532 37.008C660.428 37.872 659.876 39.048 659.876 40.536C659.876 41.928 660.548 42.84 661.892 43.272C661.892 44.472 661.436 45.528 660.524 46.44C659.612 47.352 658.532 47.808 657.284 47.808C655.94 47.808 654.86 47.448 654.044 46.728C653.228 45.96 652.82 44.808 652.82 43.272C652.82 40.488 654.212 38.256 656.996 36.576C659.78 34.896 663.26 34.056 667.436 34.056C677.036 34.056 681.836 38.232 681.836 46.584V67.176C681.836 68.232 682.052 69.048 682.484 69.624C682.964 70.152 683.636 70.416 684.5 70.416C685.316 70.416 685.964 70.152 686.444 69.624C686.924 69.048 687.164 68.28 687.164 67.32H688.676C688.676 69 688.124 70.32 687.02 71.28C685.964 72.24 684.476 72.72 682.556 72.72C680.348 72.72 678.476 72.096 676.94 70.848C675.452 69.552 674.684 67.56 674.636 64.872C673.484 67.32 671.708 69.24 669.308 70.632C666.956 72.024 664.34 72.72 661.46 72.72ZM665.42 69.552C666.716 69.552 668.036 69.168 669.38 68.4C670.772 67.632 671.948 66.528 672.908 65.088C673.868 63.6 674.444 61.824 674.636 59.76V52.272H669.812C665.876 52.272 662.924 53.16 660.956 54.936C659.036 56.664 658.076 59.112 658.076 62.28C658.076 64.92 658.7 66.792 659.948 67.896C661.196 69 663.02 69.552 665.42 69.552ZM707.496 72.72C704.328 72.72 701.784 71.928 699.864 70.344C697.992 68.76 697.056 66.24 697.056 62.784V36.864L691.944 36.144V34.704H697.056V28.728L704.256 26.928V34.704H713.616V36.144L704.256 36.864V62.64C704.256 67.728 706.08 70.272 709.728 70.272C710.496 70.272 711.216 70.152 711.888 69.912C712.608 69.672 713.16 69.432 713.544 69.192C713.976 68.952 714.24 68.784 714.336 68.688L715.272 69.84C713.112 71.76 710.52 72.72 707.496 72.72ZM727.417 26.352C726.073 26.352 724.921 25.896 723.961 24.984C723.001 24.024 722.521 22.872 722.521 21.528C722.521 20.184 722.977 19.056 723.889 18.144C724.849 17.232 726.025 16.776 727.417 16.776C728.713 16.776 729.817 17.232 730.729 18.144C731.641 19.056 732.097 20.184 732.097 21.528C732.097 22.872 731.641 24.024 730.729 24.984C729.817 25.896 728.713 26.352 727.417 26.352ZM719.785 72V70.56L724.825 69.84V36.936L719.785 36.216V34.776H732.025V69.84L737.065 70.56V72H719.785ZM759.821 73.44L744.413 36.864L739.733 36.144V34.704H757.661V36.144L752.477 37.08L763.349 64.152L773.069 38.016L766.733 36.216V34.776H779.621V36.216L775.085 37.944L761.837 73.44H759.821ZM790.729 26.352C789.385 26.352 788.233 25.896 787.273 24.984C786.313 24.024 785.833 22.872 785.833 21.528C785.833 20.184 786.289 19.056 787.201 18.144C788.161 17.232 789.337 16.776 790.729 16.776C792.025 16.776 793.129 17.232 794.041 18.144C794.953 19.056 795.409 20.184 795.409 21.528C795.409 22.872 794.953 24.024 794.041 24.984C793.129 25.896 792.025 26.352 790.729 26.352ZM783.097 72V70.56L788.137 69.84V36.936L783.097 36.216V34.776H795.337V69.84L800.377 70.56V72H783.097ZM820.901 72.72C817.733 72.72 815.189 71.928 813.269 70.344C811.397 68.76 810.461 66.24 810.461 62.784V36.864L805.349 36.144V34.704H810.461V28.728L817.661 26.928V34.704H827.021V36.144L817.661 36.864V62.64C817.661 67.728 819.485 70.272 823.133 70.272C823.901 70.272 824.621 70.152 825.293 69.912C826.013 69.672 826.565 69.432 826.949 69.192C827.381 68.952 827.645 68.784 827.741 68.688L828.677 69.84C826.517 71.76 823.925 72.72 820.901 72.72ZM839.67 93.024C837.174 93.024 835.158 92.4 833.622 91.152C832.086 89.904 831.318 88.224 831.318 86.112C831.318 84.672 831.726 83.496 832.542 82.584C833.406 81.72 834.462 81.288 835.71 81.288C836.622 81.288 837.438 81.48 838.158 81.864C838.878 82.248 839.454 82.824 839.886 83.592C839.166 84.6 838.806 85.656 838.806 86.76C838.806 87.72 839.118 88.512 839.742 89.136C840.366 89.76 841.158 90.072 842.118 90.072C843.27 90.072 844.254 89.688 845.07 88.92C845.934 88.152 846.702 86.808 847.374 84.888L851.694 72.504L834.99 36.936L830.166 36.216V34.776H848.094V36.216L843.054 37.08L855.078 62.784L863.646 38.016L857.454 36.216V34.776H870.414V36.216L865.518 38.016L849.39 84.888C848.382 87.72 847.158 89.784 845.718 91.08C844.326 92.376 842.31 93.024 839.67 93.024ZM894.132 70.488L900.756 69.408V16.992L894.132 15.984V14.4H921.708C926.988 14.4 931.668 15.6 935.748 18C939.876 20.352 943.092 23.712 945.396 28.08C947.7 32.4 948.852 37.44 948.852 43.2C948.852 48.96 947.7 54.024 945.396 58.392C943.092 62.712 939.876 66.072 935.748 68.472C931.62 70.824 926.94 72 921.708 72H894.132V70.488ZM921.708 70.272C925.212 70.272 928.308 69.456 930.996 67.824C933.732 66.192 935.868 63.768 937.404 60.552C938.94 57.288 939.708 53.352 939.708 48.744V37.656C939.708 33.048 938.94 29.136 937.404 25.92C935.868 22.704 933.732 20.28 930.996 18.648C928.308 17.016 925.212 16.2 921.708 16.2H908.676V70.272H921.708ZM964.513 26.352C963.169 26.352 962.017 25.896 961.057 24.984C960.097 24.024 959.617 22.872 959.617 21.528C959.617 20.184 960.073 19.056 960.985 18.144C961.945 17.232 963.121 16.776 964.513 16.776C965.809 16.776 966.913 17.232 967.825 18.144C968.737 19.056 969.193 20.184 969.193 21.528C969.193 22.872 968.737 24.024 967.825 24.984C966.913 25.896 965.809 26.352 964.513 26.352ZM956.881 72V70.56L961.921 69.84V36.936L956.881 36.216V34.776H969.121V69.84L974.161 70.56V72H956.881ZM1016.72 31.32C1016.72 33.192 1016.02 34.8 1014.63 36.144C1013.24 37.488 1011.03 38.352 1008.01 38.736C1009.25 40.56 1009.88 43.056 1009.88 46.224C1009.88 49.968 1008.53 52.92 1005.85 55.08C1003.21 57.24 999.846 58.32 995.766 58.32C994.086 58.32 992.55 58.176 991.158 57.888C988.086 58.08 986.55 59.28 986.55 61.488C986.55 62.736 987.054 63.648 988.062 64.224C989.118 64.8 990.774 65.088 993.03 65.088H1001.09C1004.98 65.088 1007.86 65.88 1009.73 67.464C1011.65 69.048 1012.61 71.76 1012.61 75.6C1012.61 78.288 1011.92 80.76 1010.53 83.016C1009.18 85.272 1007.21 87.048 1004.62 88.344C1002.03 89.688 998.934 90.36 995.334 90.36C989.91 90.36 985.902 89.544 983.31 87.912C980.766 86.28 979.494 84.12 979.494 81.432C979.494 79.8 980.118 78.36 981.366 77.112C982.614 75.864 984.318 75.24 986.478 75.24C986.91 75.24 987.798 75.336 989.142 75.528C987.654 77.112 986.91 78.984 986.91 81.144C986.91 83.208 987.63 85.008 989.07 86.544C990.51 88.08 992.862 88.848 996.126 88.848C998.958 88.848 1001.48 88.296 1003.69 87.192C1005.94 86.136 1007.67 84.744 1008.87 83.016C1010.07 81.288 1010.67 79.512 1010.67 77.688C1010.67 75.672 1010.02 74.208 1008.73 73.296C1007.43 72.432 1005.13 72 1001.81 72H993.03C989.67 72 987.126 71.352 985.398 70.056C983.718 68.712 982.878 66.744 982.878 64.152C982.878 62.424 983.358 60.912 984.318 59.616C985.326 58.272 986.598 57.408 988.134 57.024C983.958 55.248 981.87 51.648 981.87 46.224C981.87 42.432 983.19 39.456 985.83 37.296C988.47 35.136 991.782 34.056 995.766 34.056C1000.81 34.056 1004.45 35.112 1006.71 37.224C1008.05 36.984 1009.06 36.552 1009.73 35.928C1010.41 35.256 1010.74 34.512 1010.74 33.696C1010.74 32.928 1010.53 32.352 1010.09 31.968C1009.66 31.536 1009.16 31.32 1008.58 31.32C1008.58 30.264 1008.97 29.352 1009.73 28.584C1010.55 27.768 1011.51 27.36 1012.61 27.36C1013.81 27.36 1014.8 27.72 1015.57 28.44C1016.33 29.16 1016.72 30.12 1016.72 31.32ZM1003.11 44.424C1003.11 41.496 1002.49 39.24 1001.24 37.656C1000.04 36.072 998.214 35.28 995.766 35.28C991.014 35.28 988.638 38.328 988.638 44.424V47.952C988.638 50.784 989.214 53.016 990.366 54.648C991.566 56.28 993.366 57.096 995.766 57.096C998.214 57.096 1000.04 56.28 1001.24 54.648C1002.49 53.016 1003.11 50.784 1003.11 47.952V44.424ZM1028.18 26.352C1026.83 26.352 1025.68 25.896 1024.72 24.984C1023.76 24.024 1023.28 22.872 1023.28 21.528C1023.28 20.184 1023.74 19.056 1024.65 18.144C1025.61 17.232 1026.79 16.776 1028.18 16.776C1029.47 16.776 1030.58 17.232 1031.49 18.144C1032.4 19.056 1032.86 20.184 1032.86 21.528C1032.86 22.872 1032.4 24.024 1031.49 24.984C1030.58 25.896 1029.47 26.352 1028.18 26.352ZM1020.55 72V70.56L1025.59 69.84V36.936L1020.55 36.216V34.776H1032.79V69.84L1037.83 70.56V72H1020.55ZM1058.35 72.72C1055.18 72.72 1052.64 71.928 1050.72 70.344C1048.85 68.76 1047.91 66.24 1047.91 62.784V36.864L1042.8 36.144V34.704H1047.91V28.728L1055.11 26.928V34.704H1064.47V36.144L1055.11 36.864V62.64C1055.11 67.728 1056.93 70.272 1060.58 70.272C1061.35 70.272 1062.07 70.152 1062.74 69.912C1063.46 69.672 1064.01 69.432 1064.4 69.192C1064.83 68.952 1065.09 68.784 1065.19 68.688L1066.13 69.84C1063.97 71.76 1061.37 72.72 1058.35 72.72ZM1082.45 72.72C1079.37 72.72 1076.85 71.928 1074.89 70.344C1072.92 68.712 1071.93 66.312 1071.93 63.144C1071.93 58.632 1073.83 55.44 1077.62 53.568C1081.41 51.648 1085.81 50.688 1090.8 50.688H1095.62V45.144C1095.62 42.648 1095.33 40.728 1094.76 39.384C1094.23 37.992 1093.39 37.032 1092.24 36.504C1091.09 35.928 1089.53 35.64 1087.56 35.64C1085.3 35.64 1083.62 36.096 1082.52 37.008C1081.41 37.872 1080.86 39.048 1080.86 40.536C1080.86 41.928 1081.53 42.84 1082.88 43.272C1082.88 44.472 1082.42 45.528 1081.51 46.44C1080.6 47.352 1079.52 47.808 1078.27 47.808C1076.93 47.808 1075.85 47.448 1075.03 46.728C1074.21 45.96 1073.81 44.808 1073.81 43.272C1073.81 40.488 1075.2 38.256 1077.98 36.576C1080.77 34.896 1084.25 34.056 1088.42 34.056C1098.02 34.056 1102.82 38.232 1102.82 46.584V67.176C1102.82 68.232 1103.04 69.048 1103.47 69.624C1103.95 70.152 1104.62 70.416 1105.49 70.416C1106.3 70.416 1106.95 70.152 1107.43 69.624C1107.91 69.048 1108.15 68.28 1108.15 67.32H1109.66C1109.66 69 1109.11 70.32 1108.01 71.28C1106.95 72.24 1105.46 72.72 1103.54 72.72C1101.33 72.72 1099.46 72.096 1097.93 70.848C1096.44 69.552 1095.67 67.56 1095.62 64.872C1094.47 67.32 1092.69 69.24 1090.29 70.632C1087.94 72.024 1085.33 72.72 1082.45 72.72ZM1086.41 69.552C1087.7 69.552 1089.02 69.168 1090.37 68.4C1091.76 67.632 1092.93 66.528 1093.89 65.088C1094.85 63.6 1095.43 61.824 1095.62 59.76V52.272H1090.8C1086.86 52.272 1083.91 53.16 1081.94 54.936C1080.02 56.664 1079.06 59.112 1079.06 62.28C1079.06 64.92 1079.69 66.792 1080.93 67.896C1082.18 69 1084.01 69.552 1086.41 69.552ZM1113.07 72V70.56L1118.47 69.84V16.56L1113.07 15.84V14.4H1125.67V69.84L1130.71 70.56V72H1113.07Z" fill="white"/>
<path d="M-155.12 66.488L-148.496 65.408V12.992L-155.12 11.984V10.4H-127.544C-122.264 10.4 -117.584 11.6 -113.504 14C-109.376 16.352 -106.16 19.712 -103.856 24.08C-101.552 28.4 -100.4 33.44 -100.4 39.2C-100.4 44.96 -101.552 50.024 -103.856 54.392C-106.16 58.712 -109.376 62.072 -113.504 64.472C-117.632 66.824 -122.312 68 -127.544 68H-155.12V66.488ZM-127.544 66.272C-124.04 66.272 -120.944 65.456 -118.256 63.824C-115.52 62.192 -113.384 59.768 -111.848 56.552C-110.312 53.288 -109.544 49.352 -109.544 44.744V33.656C-109.544 29.048 -110.312 25.136 -111.848 21.92C-113.384 18.704 -115.52 16.28 -118.256 14.648C-120.944 13.016 -124.04 12.2 -127.544 12.2H-140.576V66.272H-127.544ZM-84.7389 22.352C-86.0829 22.352 -87.2349 21.896 -88.1949 20.984C-89.1549 20.024 -89.6349 18.872 -89.6349 17.528C-89.6349 16.184 -89.1789 15.056 -88.2669 14.144C-87.3069 13.232 -86.1309 12.776 -84.7389 12.776C-83.4429 12.776 -82.3389 13.232 -81.4269 14.144C-80.5149 15.056 -80.0589 16.184 -80.0589 17.528C-80.0589 18.872 -80.5149 20.024 -81.4269 20.984C-82.3389 21.896 -83.4429 22.352 -84.7389 22.352ZM-92.3709 68V66.56L-87.3309 65.84V32.936L-92.3709 32.216V30.776H-80.1309V65.84L-75.0909 66.56V68H-92.3709ZM-32.5344 27.32C-32.5344 29.192 -33.2304 30.8 -34.6224 32.144C-36.0144 33.488 -38.2224 34.352 -41.2464 34.736C-39.9984 36.56 -39.3744 39.056 -39.3744 42.224C-39.3744 45.968 -40.7184 48.92 -43.4064 51.08C-46.0464 53.24 -49.4064 54.32 -53.4864 54.32C-55.1664 54.32 -56.7024 54.176 -58.0944 53.888C-61.1664 54.08 -62.7024 55.28 -62.7024 57.488C-62.7024 58.736 -62.1984 59.648 -61.1904 60.224C-60.1344 60.8 -58.4784 61.088 -56.2224 61.088H-48.1584C-44.2704 61.088 -41.3904 61.88 -39.5184 63.464C-37.5984 65.048 -36.6384 67.76 -36.6384 71.6C-36.6384 74.288 -37.3344 76.76 -38.7264 79.016C-40.0704 81.272 -42.0384 83.048 -44.6304 84.344C-47.2224 85.688 -50.3184 86.36 -53.9184 86.36C-59.3424 86.36 -63.3504 85.544 -65.9424 83.912C-68.4864 82.28 -69.7584 80.12 -69.7584 77.432C-69.7584 75.8 -69.1344 74.36 -67.8864 73.112C-66.6384 71.864 -64.9344 71.24 -62.7744 71.24C-62.3424 71.24 -61.4544 71.336 -60.1104 71.528C-61.5984 73.112 -62.3424 74.984 -62.3424 77.144C-62.3424 79.208 -61.6224 81.008 -60.1824 82.544C-58.7424 84.08 -56.3904 84.848 -53.1264 84.848C-50.2944 84.848 -47.7744 84.296 -45.5664 83.192C-43.3104 82.136 -41.5824 80.744 -40.3824 79.016C-39.1824 77.288 -38.5824 75.512 -38.5824 73.688C-38.5824 71.672 -39.2304 70.208 -40.5264 69.296C-41.8224 68.432 -44.1264 68 -47.4384 68H-56.2224C-59.5824 68 -62.1264 67.352 -63.8544 66.056C-65.5344 64.712 -66.3744 62.744 -66.3744 60.152C-66.3744 58.424 -65.8944 56.912 -64.9344 55.616C-63.9264 54.272 -62.6544 53.408 -61.1184 53.024C-65.2944 51.248 -67.3824 47.648 -67.3824 42.224C-67.3824 38.432 -66.0624 35.456 -63.4224 33.296C-60.7824 31.136 -57.4704 30.056 -53.4864 30.056C-48.4464 30.056 -44.7984 31.112 -42.5424 33.224C-41.1984 32.984 -40.1904 32.552 -39.5184 31.928C-38.8464 31.256 -38.5104 30.512 -38.5104 29.696C-38.5104 28.928 -38.7264 28.352 -39.1584 27.968C-39.5904 27.536 -40.0944 27.32 -40.6704 27.32C-40.6704 26.264 -40.2864 25.352 -39.5184 24.584C-38.7024 23.768 -37.7424 23.36 -36.6384 23.36C-35.4384 23.36 -34.4544 23.72 -33.6864 24.44C-32.9184 25.16 -32.5344 26.12 -32.5344 27.32ZM-46.1424 40.424C-46.1424 37.496 -46.7664 35.24 -48.0144 33.656C-49.2144 32.072 -51.0384 31.28 -53.4864 31.28C-58.2384 31.28 -60.6144 34.328 -60.6144 40.424V43.952C-60.6144 46.784 -60.0384 49.016 -58.8864 50.648C-57.6864 52.28 -55.8864 53.096 -53.4864 53.096C-51.0384 53.096 -49.2144 52.28 -48.0144 50.648C-46.7664 49.016 -46.1424 46.784 -46.1424 43.952V40.424ZM-21.0751 22.352C-22.4191 22.352 -23.5711 21.896 -24.5311 20.984C-25.4911 20.024 -25.9711 18.872 -25.9711 17.528C-25.9711 16.184 -25.5151 15.056 -24.6031 14.144C-23.6431 13.232 -22.4671 12.776 -21.0751 12.776C-19.7791 12.776 -18.6751 13.232 -17.7631 14.144C-16.8511 15.056 -16.3951 16.184 -16.3951 17.528C-16.3951 18.872 -16.8511 20.024 -17.7631 20.984C-18.6751 21.896 -19.7791 22.352 -21.0751 22.352ZM-28.7071 68V66.56L-23.6671 65.84V32.936L-28.7071 32.216V30.776H-16.4671V65.84L-11.4271 66.56V68H-28.7071ZM9.09738 68.72C5.92938 68.72 3.38538 67.928 1.46537 66.344C-0.406625 64.76 -1.34263 62.24 -1.34263 58.784V32.864L-6.45463 32.144V30.704H-1.34263V24.728L5.85738 22.928V30.704H15.2174V32.144L5.85738 32.864V58.64C5.85738 63.728 7.68138 66.272 11.3294 66.272C12.0974 66.272 12.8174 66.152 13.4894 65.912C14.2094 65.672 14.7614 65.432 15.1454 65.192C15.5774 64.952 15.8414 64.784 15.9374 64.688L16.8734 65.84C14.7134 67.76 12.1214 68.72 9.09738 68.72ZM33.1943 68.72C30.1223 68.72 27.6023 67.928 25.6343 66.344C23.6663 64.712 22.6823 62.312 22.6823 59.144C22.6823 54.632 24.5783 51.44 28.3703 49.568C32.1623 47.648 36.5543 46.688 41.5463 46.688H46.3703V41.144C46.3703 38.648 46.0823 36.728 45.5063 35.384C44.9783 33.992 44.1383 33.032 42.9863 32.504C41.8343 31.928 40.2743 31.64 38.3063 31.64C36.0503 31.64 34.3703 32.096 33.2663 33.008C32.1623 33.872 31.6103 35.048 31.6103 36.536C31.6103 37.928 32.2823 38.84 33.6263 39.272C33.6263 40.472 33.1703 41.528 32.2583 42.44C31.3463 43.352 30.2663 43.808 29.0183 43.808C27.6743 43.808 26.5943 43.448 25.7783 42.728C24.9623 41.96 24.5543 40.808 24.5543 39.272C24.5543 36.488 25.9463 34.256 28.7303 32.576C31.5143 30.896 34.9943 30.056 39.1703 30.056C48.7703 30.056 53.5703 34.232 53.5703 42.584V63.176C53.5703 64.232 53.7863 65.048 54.2183 65.624C54.6983 66.152 55.3703 66.416 56.2343 66.416C57.0503 66.416 57.6983 66.152 58.1783 65.624C58.6583 65.048 58.8983 64.28 58.8983 63.32H60.4103C60.4103 65 59.8583 66.32 58.7543 67.28C57.6983 68.24 56.2103 68.72 54.2903 68.72C52.0823 68.72 50.2103 68.096 48.6743 66.848C47.1863 65.552 46.4183 63.56 46.3703 60.872C45.2183 63.32 43.4423 65.24 41.0423 66.632C38.6903 68.024 36.0743 68.72 33.1943 68.72ZM37.1543 65.552C38.4503 65.552 39.7703 65.168 41.1143 64.4C42.5063 63.632 43.6823 62.528 44.6423 61.088C45.6023 59.6 46.1783 57.824 46.3703 55.76V48.272H41.5463C37.6103 48.272 34.6583 49.16 32.6903 50.936C30.7703 52.664 29.8103 55.112 29.8103 58.28C29.8103 60.92 30.4343 62.792 31.6823 63.896C32.9303 65 34.7543 65.552 37.1543 65.552ZM63.8219 68V66.56L69.2219 65.84V12.56L63.8219 11.84V10.4H76.4219V65.84L81.4619 66.56V68H63.8219ZM130.234 69.44C125.77 69.44 121.378 68.168 117.058 65.624L110.938 68.72H109.354V50.216H110.938L117.13 63.608C121.114 66.44 125.674 67.856 130.81 67.856C135.034 67.856 138.514 66.752 141.25 64.544C144.034 62.288 145.426 59.144 145.426 55.112C145.426 52.184 144.538 49.88 142.762 48.2C140.986 46.472 138.106 45.104 134.122 44.096L122.17 41C117.994 39.896 114.85 38.024 112.738 35.384C110.626 32.696 109.57 29.528 109.57 25.88C109.57 22.568 110.218 19.64 111.514 17.096C112.858 14.504 114.802 12.512 117.346 11.12C119.89 9.68 122.914 8.96 126.418 8.96C130.786 8.96 134.698 9.704 138.154 11.192L143.41 8.96H144.994V23.648H143.41L138.226 13.136C134.626 11.408 130.714 10.544 126.49 10.544C122.314 10.544 119.026 11.624 116.626 13.784C114.226 15.896 113.026 18.704 113.026 22.208C113.026 24.8 113.866 26.84 115.546 28.328C117.274 29.816 119.794 30.992 123.106 31.856L135.994 35.24C140.17 36.296 143.266 38.12 145.282 40.712C147.346 43.256 148.378 47.144 148.378 52.376C148.378 57.704 146.722 61.88 143.41 64.904C140.146 67.928 135.754 69.44 130.234 69.44ZM176.387 68.72C172.931 68.72 169.787 67.928 166.955 66.344C164.123 64.712 161.867 62.432 160.187 59.504C158.555 56.528 157.739 53.144 157.739 49.352C157.739 45.56 158.555 42.2 160.187 39.272C161.867 36.344 164.123 34.088 166.955 32.504C169.787 30.872 172.931 30.056 176.387 30.056C179.843 30.056 182.987 30.872 185.819 32.504C188.651 34.088 190.883 36.344 192.515 39.272C194.195 42.2 195.035 45.56 195.035 49.352C195.035 53.144 194.195 56.528 192.515 59.504C190.883 62.432 188.651 64.712 185.819 66.344C182.987 67.928 179.843 68.72 176.387 68.72ZM176.387 67.136C179.939 67.136 182.603 65.84 184.379 63.248C186.203 60.656 187.115 57.224 187.115 52.952V45.752C187.115 41.48 186.203 38.072 184.379 35.528C182.603 32.936 179.939 31.64 176.387 31.64C172.835 31.64 170.147 32.936 168.323 35.528C166.547 38.072 165.659 41.48 165.659 45.752V52.952C165.659 57.224 166.547 60.656 168.323 63.248C170.147 65.84 172.835 67.136 176.387 67.136ZM201.696 68V66.56L207.096 65.84V12.56L201.696 11.84V10.4H214.296V65.84L219.336 66.56V68H201.696ZM240.442 68.72C236.986 68.72 234.25 67.856 232.234 66.128C230.266 64.4 229.282 61.832 229.282 58.424V32.864L224.242 32.144V30.704H236.482V58.28C236.482 60.728 236.986 62.648 237.994 64.04C239.002 65.432 240.562 66.128 242.674 66.128C244.882 66.128 246.994 65.408 249.01 63.968C251.074 62.48 252.898 60.656 254.482 58.496V32.864L249.442 32.144V30.704H261.682V65.84L266.722 66.56V68H254.482V61.088C252.754 63.488 250.666 65.36 248.218 66.704C245.818 68.048 243.226 68.72 240.442 68.72ZM287.518 68.72C284.35 68.72 281.806 67.928 279.886 66.344C278.014 64.76 277.078 62.24 277.078 58.784V32.864L271.966 32.144V30.704H277.078V24.728L284.278 22.928V30.704H293.638V32.144L284.278 32.864V58.64C284.278 63.728 286.102 66.272 289.75 66.272C290.518 66.272 291.238 66.152 291.91 65.912C292.63 65.672 293.182 65.432 293.566 65.192C293.998 64.952 294.262 64.784 294.358 64.688L295.294 65.84C293.134 67.76 290.542 68.72 287.518 68.72ZM307.439 22.352C306.095 22.352 304.943 21.896 303.983 20.984C303.023 20.024 302.543 18.872 302.543 17.528C302.543 16.184 302.999 15.056 303.911 14.144C304.871 13.232 306.047 12.776 307.439 12.776C308.735 12.776 309.839 13.232 310.751 14.144C311.663 15.056 312.119 16.184 312.119 17.528C312.119 18.872 311.663 20.024 310.751 20.984C309.839 21.896 308.735 22.352 307.439 22.352ZM299.807 68V66.56L304.847 65.84V32.936L299.807 32.216V30.776H312.047V65.84L317.087 66.56V68H299.807ZM342.507 68.72C339.051 68.72 335.907 67.928 333.075 66.344C330.243 64.712 327.987 62.432 326.307 59.504C324.675 56.528 323.859 53.144 323.859 49.352C323.859 45.56 324.675 42.2 326.307 39.272C327.987 36.344 330.243 34.088 333.075 32.504C335.907 30.872 339.051 30.056 342.507 30.056C345.963 30.056 349.107 30.872 351.939 32.504C354.771 34.088 357.003 36.344 358.635 39.272C360.315 42.2 361.155 45.56 361.155 49.352C361.155 53.144 360.315 56.528 358.635 59.504C357.003 62.432 354.771 64.712 351.939 66.344C349.107 67.928 345.963 68.72 342.507 68.72ZM342.507 67.136C346.059 67.136 348.723 65.84 350.499 63.248C352.323 60.656 353.235 57.224 353.235 52.952V45.752C353.235 41.48 352.323 38.072 350.499 35.528C348.723 32.936 346.059 31.64 342.507 31.64C338.955 31.64 336.267 32.936 334.443 35.528C332.667 38.072 331.779 41.48 331.779 45.752V52.952C331.779 57.224 332.667 60.656 334.443 63.248C336.267 65.84 338.955 67.136 342.507 67.136ZM368.321 66.56L373.361 65.84V32.864L368.321 32.144V30.704H380.561V38.48C382.337 35.888 384.425 33.848 386.825 32.36C389.225 30.824 391.817 30.056 394.601 30.056C398.057 30.056 400.769 30.92 402.737 32.648C404.753 34.376 405.761 36.944 405.761 40.352V65.84L410.801 66.56V68H394.241V66.56L398.561 65.84V40.496C398.561 38 398.057 36.08 397.049 34.736C396.041 33.344 394.481 32.648 392.369 32.648C390.161 32.648 388.025 33.464 385.961 35.096C383.945 36.68 382.145 38.648 380.561 41V65.84L384.881 66.56V68H368.321V66.56ZM431.52 68.72C427.584 68.72 424.296 67.88 421.656 66.2C419.016 64.52 417.696 62.336 417.696 59.648C417.696 58.256 418.056 57.176 418.776 56.408C419.544 55.592 420.552 55.184 421.8 55.184C422.76 55.184 423.576 55.424 424.248 55.904C424.92 56.384 425.4 57.056 425.688 57.92C424.632 59.072 424.104 60.296 424.104 61.592C424.104 63.08 424.776 64.376 426.12 65.48C427.464 66.584 429.264 67.136 431.52 67.136C434.544 67.136 437.016 66.464 438.936 65.12C440.856 63.728 441.816 61.88 441.816 59.576C441.816 58.232 441.408 57.224 440.592 56.552C439.776 55.88 438.192 55.112 435.84 54.248L424.968 50.288C420.696 48.752 418.56 45.896 418.56 41.72C418.56 38.312 419.736 35.528 422.088 33.368C424.44 31.16 427.68 30.056 431.808 30.056C435.216 30.056 438.12 30.848 440.52 32.432C442.968 33.968 444.192 36.176 444.192 39.056C444.192 40.208 443.88 41.144 443.256 41.864C442.632 42.536 441.816 42.872 440.808 42.872C439.8 42.872 438.96 42.608 438.288 42.08C437.664 41.504 437.352 40.736 437.352 39.776C437.976 39.296 438.408 38.792 438.648 38.264C438.888 37.688 439.008 37.016 439.008 36.248C439.008 34.904 438.408 33.8 437.208 32.936C436.056 32.072 434.256 31.64 431.808 31.64C429.696 31.64 427.872 31.976 426.336 32.648C424.848 33.272 423.72 34.112 422.952 35.168C422.184 36.224 421.8 37.304 421.8 38.408C421.8 39.56 422.208 40.472 423.024 41.144C423.888 41.816 425.448 42.56 427.704 43.376L437.784 46.976C440.136 47.84 441.912 49.04 443.112 50.576C444.312 52.112 444.912 54.104 444.912 56.552C444.912 60.056 443.808 62.96 441.6 65.264C439.392 67.568 436.032 68.72 431.52 68.72Z" fill="white"/>
</svg>
