<svg width="1339" height="94" viewBox="0 0 1339 94" fill="none" xmlns="http://www.w3.org/2000/svg">
<path d="M703.952 73.44C698.72 73.44 694.136 72.168 690.2 69.624C686.264 67.08 683.216 63.528 681.056 58.968C678.944 54.408 677.888 49.152 677.888 43.2C677.888 37.248 678.968 31.992 681.128 27.432C683.336 22.824 686.432 19.272 690.416 16.776C694.448 14.232 699.08 12.96 704.312 12.96C706.376 12.96 708.464 13.32 710.576 14.04C712.736 14.76 714.68 15.768 716.408 17.064L721.232 12.96H722.744V30.816H721.232L716.768 19.656C715.088 18.12 713.12 16.896 710.864 15.984C708.656 15.072 706.472 14.616 704.312 14.616C700.952 14.616 697.976 15.48 695.384 17.208C692.84 18.936 690.848 21.456 689.408 24.768C687.968 28.08 687.248 32.016 687.248 36.576V49.752C687.248 54.312 687.944 58.248 689.336 61.56C690.728 64.872 692.672 67.416 695.168 69.192C697.664 70.92 700.592 71.784 703.952 71.784C706.4 71.784 708.848 71.256 711.296 70.2C713.744 69.096 715.784 67.632 717.416 65.808L721.592 54.216H723.104V72.72H721.592L716.408 69.048C714.68 70.44 712.712 71.52 710.504 72.288C708.296 73.056 706.112 73.44 703.952 73.44ZM731.752 70.56L736.792 69.84V36.864L731.752 36.144V34.704H743.992V40.248C747.016 36.12 750.424 34.056 754.216 34.056C756.04 34.056 757.648 34.536 759.04 35.496C760.432 36.408 761.128 37.728 761.128 39.456C761.128 40.704 760.72 41.76 759.904 42.624C759.088 43.44 758.008 43.848 756.664 43.848C755.128 43.848 753.88 43.248 752.92 42.048C753.448 41.376 753.712 40.656 753.712 39.888C753.712 39.072 753.424 38.424 752.848 37.944C752.32 37.416 751.6 37.152 750.688 37.152C749.68 37.152 748.648 37.632 747.592 38.592C746.536 39.504 745.336 40.944 743.992 42.912V69.84L749.752 70.56V72H731.752V70.56ZM785.221 72.72C781.669 72.72 778.453 71.928 775.573 70.344C772.693 68.712 770.413 66.432 768.733 63.504C767.053 60.576 766.213 57.192 766.213 53.352C766.213 49.512 767.029 46.152 768.661 43.272C770.341 40.344 772.573 38.088 775.357 36.504C778.189 34.872 781.333 34.056 784.789 34.056C787.813 34.056 790.525 34.728 792.925 36.072C795.325 37.416 797.197 39.288 798.541 41.688C799.885 44.04 800.581 46.752 800.629 49.824H774.133V56.952C774.133 61.176 775.069 64.608 776.941 67.248C778.861 69.84 781.621 71.136 785.221 71.136C788.533 71.136 791.461 70.2 794.005 68.328C796.549 66.456 798.109 64.032 798.685 61.056H800.341C799.669 64.608 797.965 67.44 795.229 69.552C792.493 71.664 789.157 72.72 785.221 72.72ZM792.709 48.024C792.709 43.848 792.061 40.752 790.765 38.736C789.469 36.672 787.453 35.64 784.717 35.64C781.501 35.64 779.005 36.768 777.229 39.024C775.453 41.28 774.445 44.28 774.205 48.024H792.709ZM819.46 72.72C816.388 72.72 813.868 71.928 811.9 70.344C809.932 68.712 808.948 66.312 808.948 63.144C808.948 58.632 810.844 55.44 814.636 53.568C818.428 51.648 822.82 50.688 827.812 50.688H832.636V45.144C832.636 42.648 832.348 40.728 831.772 39.384C831.244 37.992 830.404 37.032 829.252 36.504C828.1 35.928 826.54 35.64 824.572 35.64C822.316 35.64 820.636 36.096 819.532 37.008C818.428 37.872 817.876 39.048 817.876 40.536C817.876 41.928 818.548 42.84 819.892 43.272C819.892 44.472 819.436 45.528 818.524 46.44C817.612 47.352 816.532 47.808 815.284 47.808C813.94 47.808 812.86 47.448 812.044 46.728C811.228 45.96 810.82 44.808 810.82 43.272C810.82 40.488 812.212 38.256 814.996 36.576C817.78 34.896 821.26 34.056 825.436 34.056C835.036 34.056 839.836 38.232 839.836 46.584V67.176C839.836 68.232 840.052 69.048 840.484 69.624C840.964 70.152 841.636 70.416 842.5 70.416C843.316 70.416 843.964 70.152 844.444 69.624C844.924 69.048 845.164 68.28 845.164 67.32H846.676C846.676 69 846.124 70.32 845.02 71.28C843.964 72.24 842.476 72.72 840.556 72.72C838.348 72.72 836.476 72.096 834.94 70.848C833.452 69.552 832.684 67.56 832.636 64.872C831.484 67.32 829.708 69.24 827.308 70.632C824.956 72.024 822.34 72.72 819.46 72.72ZM823.42 69.552C824.716 69.552 826.036 69.168 827.38 68.4C828.772 67.632 829.948 66.528 830.908 65.088C831.868 63.6 832.444 61.824 832.636 59.76V52.272H827.812C823.876 52.272 820.924 53.16 818.956 54.936C817.036 56.664 816.076 59.112 816.076 62.28C816.076 64.92 816.7 66.792 817.948 67.896C819.196 69 821.02 69.552 823.42 69.552ZM865.496 72.72C862.328 72.72 859.784 71.928 857.864 70.344C855.992 68.76 855.056 66.24 855.056 62.784V36.864L849.944 36.144V34.704H855.056V28.728L862.256 26.928V34.704H871.616V36.144L862.256 36.864V62.64C862.256 67.728 864.08 70.272 867.728 70.272C868.496 70.272 869.216 70.152 869.888 69.912C870.608 69.672 871.16 69.432 871.544 69.192C871.976 68.952 872.24 68.784 872.336 68.688L873.272 69.84C871.112 71.76 868.52 72.72 865.496 72.72ZM885.417 26.352C884.073 26.352 882.921 25.896 881.961 24.984C881.001 24.024 880.521 22.872 880.521 21.528C880.521 20.184 880.977 19.056 881.889 18.144C882.849 17.232 884.025 16.776 885.417 16.776C886.713 16.776 887.817 17.232 888.729 18.144C889.641 19.056 890.097 20.184 890.097 21.528C890.097 22.872 889.641 24.024 888.729 24.984C887.817 25.896 886.713 26.352 885.417 26.352ZM877.785 72V70.56L882.825 69.84V36.936L877.785 36.216V34.776H890.025V69.84L895.065 70.56V72H877.785ZM917.821 73.44L902.413 36.864L897.733 36.144V34.704H915.661V36.144L910.477 37.08L921.349 64.152L931.069 38.016L924.733 36.216V34.776H937.621V36.216L933.085 37.944L919.837 73.44H917.821ZM948.729 26.352C947.385 26.352 946.233 25.896 945.273 24.984C944.313 24.024 943.833 22.872 943.833 21.528C943.833 20.184 944.289 19.056 945.201 18.144C946.161 17.232 947.337 16.776 948.729 16.776C950.025 16.776 951.129 17.232 952.041 18.144C952.953 19.056 953.409 20.184 953.409 21.528C953.409 22.872 952.953 24.024 952.041 24.984C951.129 25.896 950.025 26.352 948.729 26.352ZM941.097 72V70.56L946.137 69.84V36.936L941.097 36.216V34.776H953.337V69.84L958.377 70.56V72H941.097ZM978.901 72.72C975.733 72.72 973.189 71.928 971.269 70.344C969.397 68.76 968.461 66.24 968.461 62.784V36.864L963.349 36.144V34.704H968.461V28.728L975.661 26.928V34.704H985.021V36.144L975.661 36.864V62.64C975.661 67.728 977.485 70.272 981.133 70.272C981.901 70.272 982.621 70.152 983.293 69.912C984.013 69.672 984.565 69.432 984.949 69.192C985.381 68.952 985.645 68.784 985.741 68.688L986.677 69.84C984.517 71.76 981.925 72.72 978.901 72.72ZM997.67 93.024C995.174 93.024 993.158 92.4 991.622 91.152C990.086 89.904 989.318 88.224 989.318 86.112C989.318 84.672 989.726 83.496 990.542 82.584C991.406 81.72 992.462 81.288 993.71 81.288C994.622 81.288 995.438 81.48 996.158 81.864C996.878 82.248 997.454 82.824 997.886 83.592C997.166 84.6 996.806 85.656 996.806 86.76C996.806 87.72 997.118 88.512 997.742 89.136C998.366 89.76 999.158 90.072 1000.12 90.072C1001.27 90.072 1002.25 89.688 1003.07 88.92C1003.93 88.152 1004.7 86.808 1005.37 84.888L1009.69 72.504L992.99 36.936L988.166 36.216V34.776H1006.09V36.216L1001.05 37.08L1013.08 62.784L1021.65 38.016L1015.45 36.216V34.776H1028.41V36.216L1023.52 38.016L1007.39 84.888C1006.38 87.72 1005.16 89.784 1003.72 91.08C1002.33 92.376 1000.31 93.024 997.67 93.024ZM1052.13 70.488L1058.76 69.408V16.992L1052.13 15.984V14.4H1079.71C1084.99 14.4 1089.67 15.6 1093.75 18C1097.88 20.352 1101.09 23.712 1103.4 28.08C1105.7 32.4 1106.85 37.44 1106.85 43.2C1106.85 48.96 1105.7 54.024 1103.4 58.392C1101.09 62.712 1097.88 66.072 1093.75 68.472C1089.62 70.824 1084.94 72 1079.71 72H1052.13V70.488ZM1079.71 70.272C1083.21 70.272 1086.31 69.456 1089 67.824C1091.73 66.192 1093.87 63.768 1095.4 60.552C1096.94 57.288 1097.71 53.352 1097.71 48.744V37.656C1097.71 33.048 1096.94 29.136 1095.4 25.92C1093.87 22.704 1091.73 20.28 1089 18.648C1086.31 17.016 1083.21 16.2 1079.71 16.2H1066.68V70.272H1079.71ZM1122.51 26.352C1121.17 26.352 1120.02 25.896 1119.06 24.984C1118.1 24.024 1117.62 22.872 1117.62 21.528C1117.62 20.184 1118.07 19.056 1118.99 18.144C1119.95 17.232 1121.12 16.776 1122.51 16.776C1123.81 16.776 1124.91 17.232 1125.83 18.144C1126.74 19.056 1127.19 20.184 1127.19 21.528C1127.19 22.872 1126.74 24.024 1125.83 24.984C1124.91 25.896 1123.81 26.352 1122.51 26.352ZM1114.88 72V70.56L1119.92 69.84V36.936L1114.88 36.216V34.776H1127.12V69.84L1132.16 70.56V72H1114.88ZM1174.72 31.32C1174.72 33.192 1174.02 34.8 1172.63 36.144C1171.24 37.488 1169.03 38.352 1166.01 38.736C1167.25 40.56 1167.88 43.056 1167.88 46.224C1167.88 49.968 1166.53 52.92 1163.85 55.08C1161.21 57.24 1157.85 58.32 1153.77 58.32C1152.09 58.32 1150.55 58.176 1149.16 57.888C1146.09 58.08 1144.55 59.28 1144.55 61.488C1144.55 62.736 1145.05 63.648 1146.06 64.224C1147.12 64.8 1148.77 65.088 1151.03 65.088H1159.09C1162.98 65.088 1165.86 65.88 1167.73 67.464C1169.65 69.048 1170.61 71.76 1170.61 75.6C1170.61 78.288 1169.92 80.76 1168.53 83.016C1167.18 85.272 1165.21 87.048 1162.62 88.344C1160.03 89.688 1156.93 90.36 1153.33 90.36C1147.91 90.36 1143.9 89.544 1141.31 87.912C1138.77 86.28 1137.49 84.12 1137.49 81.432C1137.49 79.8 1138.12 78.36 1139.37 77.112C1140.61 75.864 1142.32 75.24 1144.48 75.24C1144.91 75.24 1145.8 75.336 1147.14 75.528C1145.65 77.112 1144.91 78.984 1144.91 81.144C1144.91 83.208 1145.63 85.008 1147.07 86.544C1148.51 88.08 1150.86 88.848 1154.13 88.848C1156.96 88.848 1159.48 88.296 1161.69 87.192C1163.94 86.136 1165.67 84.744 1166.87 83.016C1168.07 81.288 1168.67 79.512 1168.67 77.688C1168.67 75.672 1168.02 74.208 1166.73 73.296C1165.43 72.432 1163.13 72 1159.81 72H1151.03C1147.67 72 1145.13 71.352 1143.4 70.056C1141.72 68.712 1140.88 66.744 1140.88 64.152C1140.88 62.424 1141.36 60.912 1142.32 59.616C1143.33 58.272 1144.6 57.408 1146.13 57.024C1141.96 55.248 1139.87 51.648 1139.87 46.224C1139.87 42.432 1141.19 39.456 1143.83 37.296C1146.47 35.136 1149.78 34.056 1153.77 34.056C1158.81 34.056 1162.45 35.112 1164.71 37.224C1166.05 36.984 1167.06 36.552 1167.73 35.928C1168.41 35.256 1168.74 34.512 1168.74 33.696C1168.74 32.928 1168.53 32.352 1168.09 31.968C1167.66 31.536 1167.16 31.32 1166.58 31.32C1166.58 30.264 1166.97 29.352 1167.73 28.584C1168.55 27.768 1169.51 27.36 1170.61 27.36C1171.81 27.36 1172.8 27.72 1173.57 28.44C1174.33 29.16 1174.72 30.12 1174.72 31.32ZM1161.11 44.424C1161.11 41.496 1160.49 39.24 1159.24 37.656C1158.04 36.072 1156.21 35.28 1153.77 35.28C1149.01 35.28 1146.64 38.328 1146.64 44.424V47.952C1146.64 50.784 1147.21 53.016 1148.37 54.648C1149.57 56.28 1151.37 57.096 1153.77 57.096C1156.21 57.096 1158.04 56.28 1159.24 54.648C1160.49 53.016 1161.11 50.784 1161.11 47.952V44.424ZM1186.18 26.352C1184.83 26.352 1183.68 25.896 1182.72 24.984C1181.76 24.024 1181.28 22.872 1181.28 21.528C1181.28 20.184 1181.74 19.056 1182.65 18.144C1183.61 17.232 1184.79 16.776 1186.18 16.776C1187.47 16.776 1188.58 17.232 1189.49 18.144C1190.4 19.056 1190.86 20.184 1190.86 21.528C1190.86 22.872 1190.4 24.024 1189.49 24.984C1188.58 25.896 1187.47 26.352 1186.18 26.352ZM1178.55 72V70.56L1183.59 69.84V36.936L1178.55 36.216V34.776H1190.79V69.84L1195.83 70.56V72H1178.55ZM1216.35 72.72C1213.18 72.72 1210.64 71.928 1208.72 70.344C1206.85 68.76 1205.91 66.24 1205.91 62.784V36.864L1200.8 36.144V34.704H1205.91V28.728L1213.11 26.928V34.704H1222.47V36.144L1213.11 36.864V62.64C1213.11 67.728 1214.93 70.272 1218.58 70.272C1219.35 70.272 1220.07 70.152 1220.74 69.912C1221.46 69.672 1222.01 69.432 1222.4 69.192C1222.83 68.952 1223.09 68.784 1223.19 68.688L1224.13 69.84C1221.97 71.76 1219.37 72.72 1216.35 72.72ZM1240.45 72.72C1237.37 72.72 1234.85 71.928 1232.89 70.344C1230.92 68.712 1229.93 66.312 1229.93 63.144C1229.93 58.632 1231.83 55.44 1235.62 53.568C1239.41 51.648 1243.81 50.688 1248.8 50.688H1253.62V45.144C1253.62 42.648 1253.33 40.728 1252.76 39.384C1252.23 37.992 1251.39 37.032 1250.24 36.504C1249.09 35.928 1247.53 35.64 1245.56 35.64C1243.3 35.64 1241.62 36.096 1240.52 37.008C1239.41 37.872 1238.86 39.048 1238.86 40.536C1238.86 41.928 1239.53 42.84 1240.88 43.272C1240.88 44.472 1240.42 45.528 1239.51 46.44C1238.6 47.352 1237.52 47.808 1236.27 47.808C1234.93 47.808 1233.85 47.448 1233.03 46.728C1232.21 45.96 1231.81 44.808 1231.81 43.272C1231.81 40.488 1233.2 38.256 1235.98 36.576C1238.77 34.896 1242.25 34.056 1246.42 34.056C1256.02 34.056 1260.82 38.232 1260.82 46.584V67.176C1260.82 68.232 1261.04 69.048 1261.47 69.624C1261.95 70.152 1262.62 70.416 1263.49 70.416C1264.3 70.416 1264.95 70.152 1265.43 69.624C1265.91 69.048 1266.15 68.28 1266.15 67.32H1267.66C1267.66 69 1267.11 70.32 1266.01 71.28C1264.95 72.24 1263.46 72.72 1261.54 72.72C1259.33 72.72 1257.46 72.096 1255.93 70.848C1254.44 69.552 1253.67 67.56 1253.62 64.872C1252.47 67.32 1250.69 69.24 1248.29 70.632C1245.94 72.024 1243.33 72.72 1240.45 72.72ZM1244.41 69.552C1245.7 69.552 1247.02 69.168 1248.37 68.4C1249.76 67.632 1250.93 66.528 1251.89 65.088C1252.85 63.6 1253.43 61.824 1253.62 59.76V52.272H1248.8C1244.86 52.272 1241.91 53.16 1239.94 54.936C1238.02 56.664 1237.06 59.112 1237.06 62.28C1237.06 64.92 1237.69 66.792 1238.93 67.896C1240.18 69 1242.01 69.552 1244.41 69.552ZM1271.07 72V70.56L1276.47 69.84V16.56L1271.07 15.84V14.4H1283.67V69.84L1288.71 70.56V72H1271.07Z" fill="white"/>
<path d="M2.88 66.488L9.504 65.408V12.992L2.88 11.984V10.4H30.456C35.736 10.4 40.416 11.6 44.496 14C48.624 16.352 51.84 19.712 54.144 24.08C56.448 28.4 57.6 33.44 57.6 39.2C57.6 44.96 56.448 50.024 54.144 54.392C51.84 58.712 48.624 62.072 44.496 64.472C40.368 66.824 35.688 68 30.456 68H2.88V66.488ZM30.456 66.272C33.96 66.272 37.056 65.456 39.744 63.824C42.48 62.192 44.616 59.768 46.152 56.552C47.688 53.288 48.456 49.352 48.456 44.744V33.656C48.456 29.048 47.688 25.136 46.152 21.92C44.616 18.704 42.48 16.28 39.744 14.648C37.056 13.016 33.96 12.2 30.456 12.2H17.424V66.272H30.456ZM73.2611 22.352C71.9171 22.352 70.7651 21.896 69.8051 20.984C68.8451 20.024 68.3651 18.872 68.3651 17.528C68.3651 16.184 68.8211 15.056 69.7331 14.144C70.6931 13.232 71.8691 12.776 73.2611 12.776C74.5571 12.776 75.6611 13.232 76.5731 14.144C77.4851 15.056 77.9411 16.184 77.9411 17.528C77.9411 18.872 77.4851 20.024 76.5731 20.984C75.6611 21.896 74.5571 22.352 73.2611 22.352ZM65.6291 68V66.56L70.6691 65.84V32.936L65.6291 32.216V30.776H77.8691V65.84L82.9091 66.56V68H65.6291ZM125.466 27.32C125.466 29.192 124.77 30.8 123.378 32.144C121.986 33.488 119.778 34.352 116.754 34.736C118.002 36.56 118.626 39.056 118.626 42.224C118.626 45.968 117.282 48.92 114.594 51.08C111.954 53.24 108.594 54.32 104.514 54.32C102.834 54.32 101.298 54.176 99.9056 53.888C96.8336 54.08 95.2976 55.28 95.2976 57.488C95.2976 58.736 95.8016 59.648 96.8096 60.224C97.8656 60.8 99.5216 61.088 101.778 61.088H109.842C113.73 61.088 116.61 61.88 118.482 63.464C120.402 65.048 121.362 67.76 121.362 71.6C121.362 74.288 120.666 76.76 119.274 79.016C117.93 81.272 115.962 83.048 113.37 84.344C110.778 85.688 107.682 86.36 104.082 86.36C98.6576 86.36 94.6496 85.544 92.0576 83.912C89.5136 82.28 88.2416 80.12 88.2416 77.432C88.2416 75.8 88.8656 74.36 90.1136 73.112C91.3616 71.864 93.0656 71.24 95.2256 71.24C95.6576 71.24 96.5456 71.336 97.8896 71.528C96.4016 73.112 95.6576 74.984 95.6576 77.144C95.6576 79.208 96.3776 81.008 97.8176 82.544C99.2576 84.08 101.61 84.848 104.874 84.848C107.706 84.848 110.226 84.296 112.434 83.192C114.69 82.136 116.418 80.744 117.618 79.016C118.818 77.288 119.418 75.512 119.418 73.688C119.418 71.672 118.77 70.208 117.474 69.296C116.178 68.432 113.874 68 110.562 68H101.778C98.4176 68 95.8736 67.352 94.1456 66.056C92.4656 64.712 91.6256 62.744 91.6256 60.152C91.6256 58.424 92.1056 56.912 93.0656 55.616C94.0736 54.272 95.3456 53.408 96.8816 53.024C92.7056 51.248 90.6176 47.648 90.6176 42.224C90.6176 38.432 91.9376 35.456 94.5776 33.296C97.2176 31.136 100.53 30.056 104.514 30.056C109.554 30.056 113.202 31.112 115.458 33.224C116.802 32.984 117.81 32.552 118.482 31.928C119.154 31.256 119.49 30.512 119.49 29.696C119.49 28.928 119.274 28.352 118.842 27.968C118.41 27.536 117.906 27.32 117.33 27.32C117.33 26.264 117.714 25.352 118.482 24.584C119.298 23.768 120.258 23.36 121.362 23.36C122.562 23.36 123.546 23.72 124.314 24.44C125.082 25.16 125.466 26.12 125.466 27.32ZM111.858 40.424C111.858 37.496 111.234 35.24 109.986 33.656C108.786 32.072 106.962 31.28 104.514 31.28C99.7616 31.28 97.3856 34.328 97.3856 40.424V43.952C97.3856 46.784 97.9616 49.016 99.1136 50.648C100.314 52.28 102.114 53.096 104.514 53.096C106.962 53.096 108.786 52.28 109.986 50.648C111.234 49.016 111.858 46.784 111.858 43.952V40.424ZM136.925 22.352C135.581 22.352 134.429 21.896 133.469 20.984C132.509 20.024 132.029 18.872 132.029 17.528C132.029 16.184 132.485 15.056 133.397 14.144C134.357 13.232 135.533 12.776 136.925 12.776C138.221 12.776 139.325 13.232 140.237 14.144C141.149 15.056 141.605 16.184 141.605 17.528C141.605 18.872 141.149 20.024 140.237 20.984C139.325 21.896 138.221 22.352 136.925 22.352ZM129.293 68V66.56L134.333 65.84V32.936L129.293 32.216V30.776H141.533V65.84L146.573 66.56V68H129.293ZM167.097 68.72C163.929 68.72 161.385 67.928 159.465 66.344C157.593 64.76 156.657 62.24 156.657 58.784V32.864L151.545 32.144V30.704H156.657V24.728L163.857 22.928V30.704H173.217V32.144L163.857 32.864V58.64C163.857 63.728 165.681 66.272 169.329 66.272C170.097 66.272 170.817 66.152 171.489 65.912C172.209 65.672 172.761 65.432 173.145 65.192C173.577 64.952 173.841 64.784 173.937 64.688L174.873 65.84C172.713 67.76 170.121 68.72 167.097 68.72ZM191.194 68.72C188.122 68.72 185.602 67.928 183.634 66.344C181.666 64.712 180.682 62.312 180.682 59.144C180.682 54.632 182.578 51.44 186.37 49.568C190.162 47.648 194.554 46.688 199.546 46.688H204.37V41.144C204.37 38.648 204.082 36.728 203.506 35.384C202.978 33.992 202.138 33.032 200.986 32.504C199.834 31.928 198.274 31.64 196.306 31.64C194.05 31.64 192.37 32.096 191.266 33.008C190.162 33.872 189.61 35.048 189.61 36.536C189.61 37.928 190.282 38.84 191.626 39.272C191.626 40.472 191.17 41.528 190.258 42.44C189.346 43.352 188.266 43.808 187.018 43.808C185.674 43.808 184.594 43.448 183.778 42.728C182.962 41.96 182.554 40.808 182.554 39.272C182.554 36.488 183.946 34.256 186.73 32.576C189.514 30.896 192.994 30.056 197.17 30.056C206.77 30.056 211.57 34.232 211.57 42.584V63.176C211.57 64.232 211.786 65.048 212.218 65.624C212.698 66.152 213.37 66.416 214.234 66.416C215.05 66.416 215.698 66.152 216.178 65.624C216.658 65.048 216.898 64.28 216.898 63.32H218.41C218.41 65 217.858 66.32 216.754 67.28C215.698 68.24 214.21 68.72 212.29 68.72C210.082 68.72 208.21 68.096 206.674 66.848C205.186 65.552 204.418 63.56 204.37 60.872C203.218 63.32 201.442 65.24 199.042 66.632C196.69 68.024 194.074 68.72 191.194 68.72ZM195.154 65.552C196.45 65.552 197.77 65.168 199.114 64.4C200.506 63.632 201.682 62.528 202.642 61.088C203.602 59.6 204.178 57.824 204.37 55.76V48.272H199.546C195.61 48.272 192.658 49.16 190.69 50.936C188.77 52.664 187.81 55.112 187.81 58.28C187.81 60.92 188.434 62.792 189.682 63.896C190.93 65 192.754 65.552 195.154 65.552ZM221.822 68V66.56L227.222 65.84V12.56L221.822 11.84V10.4H234.422V65.84L239.462 66.56V68H221.822ZM288.234 69.44C283.77 69.44 279.378 68.168 275.058 65.624L268.938 68.72H267.354V50.216H268.938L275.13 63.608C279.114 66.44 283.674 67.856 288.81 67.856C293.034 67.856 296.514 66.752 299.25 64.544C302.034 62.288 303.426 59.144 303.426 55.112C303.426 52.184 302.538 49.88 300.762 48.2C298.986 46.472 296.106 45.104 292.122 44.096L280.17 41C275.994 39.896 272.85 38.024 270.738 35.384C268.626 32.696 267.57 29.528 267.57 25.88C267.57 22.568 268.218 19.64 269.514 17.096C270.858 14.504 272.802 12.512 275.346 11.12C277.89 9.68 280.914 8.96 284.418 8.96C288.786 8.96 292.698 9.704 296.154 11.192L301.41 8.96H302.994V23.648H301.41L296.226 13.136C292.626 11.408 288.714 10.544 284.49 10.544C280.314 10.544 277.026 11.624 274.626 13.784C272.226 15.896 271.026 18.704 271.026 22.208C271.026 24.8 271.866 26.84 273.546 28.328C275.274 29.816 277.794 30.992 281.106 31.856L293.994 35.24C298.17 36.296 301.266 38.12 303.282 40.712C305.346 43.256 306.378 47.144 306.378 52.376C306.378 57.704 304.722 61.88 301.41 64.904C298.146 67.928 293.754 69.44 288.234 69.44ZM334.387 68.72C330.931 68.72 327.787 67.928 324.955 66.344C322.123 64.712 319.867 62.432 318.187 59.504C316.555 56.528 315.739 53.144 315.739 49.352C315.739 45.56 316.555 42.2 318.187 39.272C319.867 36.344 322.123 34.088 324.955 32.504C327.787 30.872 330.931 30.056 334.387 30.056C337.843 30.056 340.987 30.872 343.819 32.504C346.651 34.088 348.883 36.344 350.515 39.272C352.195 42.2 353.035 45.56 353.035 49.352C353.035 53.144 352.195 56.528 350.515 59.504C348.883 62.432 346.651 64.712 343.819 66.344C340.987 67.928 337.843 68.72 334.387 68.72ZM334.387 67.136C337.939 67.136 340.603 65.84 342.379 63.248C344.203 60.656 345.115 57.224 345.115 52.952V45.752C345.115 41.48 344.203 38.072 342.379 35.528C340.603 32.936 337.939 31.64 334.387 31.64C330.835 31.64 328.147 32.936 326.323 35.528C324.547 38.072 323.659 41.48 323.659 45.752V52.952C323.659 57.224 324.547 60.656 326.323 63.248C328.147 65.84 330.835 67.136 334.387 67.136ZM359.696 68V66.56L365.096 65.84V12.56L359.696 11.84V10.4H372.296V65.84L377.336 66.56V68H359.696ZM398.442 68.72C394.986 68.72 392.25 67.856 390.234 66.128C388.266 64.4 387.282 61.832 387.282 58.424V32.864L382.242 32.144V30.704H394.482V58.28C394.482 60.728 394.986 62.648 395.994 64.04C397.002 65.432 398.562 66.128 400.674 66.128C402.882 66.128 404.994 65.408 407.01 63.968C409.074 62.48 410.898 60.656 412.482 58.496V32.864L407.442 32.144V30.704H419.682V65.84L424.722 66.56V68H412.482V61.088C410.754 63.488 408.666 65.36 406.218 66.704C403.818 68.048 401.226 68.72 398.442 68.72ZM445.518 68.72C442.35 68.72 439.806 67.928 437.886 66.344C436.014 64.76 435.078 62.24 435.078 58.784V32.864L429.966 32.144V30.704H435.078V24.728L442.278 22.928V30.704H451.638V32.144L442.278 32.864V58.64C442.278 63.728 444.102 66.272 447.75 66.272C448.518 66.272 449.238 66.152 449.91 65.912C450.63 65.672 451.182 65.432 451.566 65.192C451.998 64.952 452.262 64.784 452.358 64.688L453.294 65.84C451.134 67.76 448.542 68.72 445.518 68.72ZM465.439 22.352C464.095 22.352 462.943 21.896 461.983 20.984C461.023 20.024 460.543 18.872 460.543 17.528C460.543 16.184 460.999 15.056 461.911 14.144C462.871 13.232 464.047 12.776 465.439 12.776C466.735 12.776 467.839 13.232 468.751 14.144C469.663 15.056 470.119 16.184 470.119 17.528C470.119 18.872 469.663 20.024 468.751 20.984C467.839 21.896 466.735 22.352 465.439 22.352ZM457.807 68V66.56L462.847 65.84V32.936L457.807 32.216V30.776H470.047V65.84L475.087 66.56V68H457.807ZM500.507 68.72C497.051 68.72 493.907 67.928 491.075 66.344C488.243 64.712 485.987 62.432 484.307 59.504C482.675 56.528 481.859 53.144 481.859 49.352C481.859 45.56 482.675 42.2 484.307 39.272C485.987 36.344 488.243 34.088 491.075 32.504C493.907 30.872 497.051 30.056 500.507 30.056C503.963 30.056 507.107 30.872 509.939 32.504C512.771 34.088 515.003 36.344 516.635 39.272C518.315 42.2 519.155 45.56 519.155 49.352C519.155 53.144 518.315 56.528 516.635 59.504C515.003 62.432 512.771 64.712 509.939 66.344C507.107 67.928 503.963 68.72 500.507 68.72ZM500.507 67.136C504.059 67.136 506.723 65.84 508.499 63.248C510.323 60.656 511.235 57.224 511.235 52.952V45.752C511.235 41.48 510.323 38.072 508.499 35.528C506.723 32.936 504.059 31.64 500.507 31.64C496.955 31.64 494.267 32.936 492.443 35.528C490.667 38.072 489.779 41.48 489.779 45.752V52.952C489.779 57.224 490.667 60.656 492.443 63.248C494.267 65.84 496.955 67.136 500.507 67.136ZM526.321 66.56L531.361 65.84V32.864L526.321 32.144V30.704H538.561V38.48C540.337 35.888 542.425 33.848 544.825 32.36C547.225 30.824 549.817 30.056 552.601 30.056C556.057 30.056 558.769 30.92 560.737 32.648C562.753 34.376 563.761 36.944 563.761 40.352V65.84L568.801 66.56V68H552.241V66.56L556.561 65.84V40.496C556.561 38 556.057 36.08 555.049 34.736C554.041 33.344 552.481 32.648 550.369 32.648C548.161 32.648 546.025 33.464 543.961 35.096C541.945 36.68 540.145 38.648 538.561 41V65.84L542.881 66.56V68H526.321V66.56ZM589.52 68.72C585.584 68.72 582.296 67.88 579.656 66.2C577.016 64.52 575.696 62.336 575.696 59.648C575.696 58.256 576.056 57.176 576.776 56.408C577.544 55.592 578.552 55.184 579.8 55.184C580.76 55.184 581.576 55.424 582.248 55.904C582.92 56.384 583.4 57.056 583.688 57.92C582.632 59.072 582.104 60.296 582.104 61.592C582.104 63.08 582.776 64.376 584.12 65.48C585.464 66.584 587.264 67.136 589.52 67.136C592.544 67.136 595.016 66.464 596.936 65.12C598.856 63.728 599.816 61.88 599.816 59.576C599.816 58.232 599.408 57.224 598.592 56.552C597.776 55.88 596.192 55.112 593.84 54.248L582.968 50.288C578.696 48.752 576.56 45.896 576.56 41.72C576.56 38.312 577.736 35.528 580.088 33.368C582.44 31.16 585.68 30.056 589.808 30.056C593.216 30.056 596.12 30.848 598.52 32.432C600.968 33.968 602.192 36.176 602.192 39.056C602.192 40.208 601.88 41.144 601.256 41.864C600.632 42.536 599.816 42.872 598.808 42.872C597.8 42.872 596.96 42.608 596.288 42.08C595.664 41.504 595.352 40.736 595.352 39.776C595.976 39.296 596.408 38.792 596.648 38.264C596.888 37.688 597.008 37.016 597.008 36.248C597.008 34.904 596.408 33.8 595.208 32.936C594.056 32.072 592.256 31.64 589.808 31.64C587.696 31.64 585.872 31.976 584.336 32.648C582.848 33.272 581.72 34.112 580.952 35.168C580.184 36.224 579.8 37.304 579.8 38.408C579.8 39.56 580.208 40.472 581.024 41.144C581.888 41.816 583.448 42.56 585.704 43.376L595.784 46.976C598.136 47.84 599.912 49.04 601.112 50.576C602.312 52.112 602.912 54.104 602.912 56.552C602.912 60.056 601.808 62.96 599.6 65.264C597.392 67.568 594.032 68.72 589.52 68.72Z" fill="white"/>
</svg>
