<svg width="165" height="50" viewBox="0 0 165 50" fill="none" xmlns="http://www.w3.org/2000/svg">
<path opacity="0.5" d="M0.307983 10.3515V10.0798L1.59601 9.88571V0.465816L0.307983 0.28468V0H4.42401V0.28468L3.13599 0.465816V9.88571L4.42401 10.0798V10.3515H0.307983ZM5.362 10.0927L6.34198 9.96333V4.0371L5.362 3.90772V3.64891H7.742V5.04638C8.088 4.58057 8.49396 4.21364 8.95996 3.94653C9.42696 3.67018 9.93098 3.53247 10.472 3.53247C11.144 3.53247 11.672 3.68775 12.054 3.99829C12.446 4.30884 12.642 4.77002 12.642 5.38279V9.96333L13.622 10.0927V10.3515H10.402V10.0927L11.242 9.96333V5.40869C11.242 4.96043 11.144 4.61477 10.948 4.37354C10.752 4.12307 10.449 3.99829 10.038 3.99829C9.60896 3.99829 9.19399 4.14523 8.79199 4.43821C8.39999 4.72288 8.05 5.07688 7.742 5.49925V9.96333L8.58197 10.0927V10.3515H5.362V10.0927ZM14.249 10.0927L15.229 9.96333V4.0371L14.249 3.90772V3.64891H16.629V5.04638C16.974 4.58057 17.38 4.21364 17.847 3.94653C18.314 3.67018 18.818 3.53247 19.359 3.53247C20.031 3.53247 20.558 3.68775 20.941 3.99829C21.333 4.30884 21.529 4.77002 21.529 5.38279V9.96333L22.509 10.0927V10.3515H19.289V10.0927L20.129 9.96333V5.40869C20.129 4.96043 20.031 4.61477 19.835 4.37354C19.639 4.12307 19.336 3.99829 18.925 3.99829C18.496 3.99829 18.08 4.14523 17.679 4.43821C17.287 4.72288 16.937 5.07688 16.629 5.49925V9.96333L17.469 10.0927V10.3515H14.249V10.0927ZM26.986 10.4809C26.314 10.4809 25.702 10.3386 25.152 10.0539C24.601 9.76094 24.162 9.35056 23.836 8.82467C23.518 8.28953 23.36 7.68138 23.36 7.00022C23.36 6.31905 23.518 5.7146 23.836 5.18871C24.162 4.66282 24.601 4.25706 25.152 3.9724C25.702 3.67941 26.314 3.53247 26.986 3.53247C27.658 3.53247 28.269 3.67941 28.82 3.9724C29.37 4.25706 29.804 4.66282 30.122 5.18871C30.448 5.7146 30.612 6.31905 30.612 7.00022C30.612 7.68138 30.448 8.28953 30.122 8.82467C29.804 9.35056 29.37 9.76094 28.82 10.0539C28.269 10.3386 27.658 10.4809 26.986 10.4809ZM26.986 10.1963C27.676 10.1963 28.194 9.96333 28.54 9.49752C28.894 9.0317 29.072 8.41524 29.072 7.6472V6.35326C29.072 5.58522 28.894 4.97336 28.54 4.51586C28.194 4.05005 27.676 3.81713 26.986 3.81713C26.295 3.81713 25.772 4.05005 25.418 4.51586C25.072 4.97336 24.9 5.58522 24.9 6.35326V7.6472C24.9 8.41524 25.072 9.0317 25.418 9.49752C25.772 9.96333 26.295 10.1963 26.986 10.1963ZM34.644 10.6103L31.648 4.0371L30.738 3.90772V3.64891H34.224V3.90772L33.216 4.07591L35.33 8.94113L37.22 4.24413L35.988 3.92064V3.66185H38.494V3.92064L37.612 4.23118L35.036 10.6103H34.644ZM40.909 10.4809C40.311 10.4809 39.821 10.3386 39.439 10.0539C39.056 9.76094 38.865 9.32933 38.865 8.76C38.865 7.94943 39.233 7.37545 39.971 7.03903C40.708 6.69429 41.562 6.52145 42.533 6.52145H43.471V5.52515C43.471 5.07689 43.415 4.7312 43.303 4.48997C43.2 4.2395 43.037 4.0676 42.813 3.9724C42.589 3.86888 42.285 3.81713 41.903 3.81713C41.464 3.81713 41.137 3.8994 40.923 4.06299C40.708 4.21827 40.601 4.42989 40.601 4.697C40.601 4.94747 40.731 5.11107 40.993 5.18871C40.993 5.40406 40.904 5.59445 40.727 5.75804C40.549 5.92163 40.339 6.00388 40.097 6.00388C39.835 6.00388 39.625 5.93919 39.467 5.8098C39.308 5.67209 39.229 5.46506 39.229 5.18871C39.229 4.68869 39.499 4.28757 40.041 3.98534C40.582 3.68312 41.259 3.53247 42.071 3.53247C43.937 3.53247 44.871 4.28296 44.871 5.78393V9.4846C44.871 9.67407 44.913 9.82101 44.997 9.92452C45.09 10.0197 45.221 10.0668 45.389 10.0668C45.547 10.0668 45.673 10.0197 45.767 9.92452C45.86 9.82101 45.907 9.6833 45.907 9.51046H46.201C46.201 9.81269 46.093 10.0493 45.879 10.2221C45.673 10.395 45.384 10.4809 45.011 10.4809C44.581 10.4809 44.217 10.3691 43.919 10.1445C43.629 9.91159 43.48 9.55392 43.471 9.07054C43.247 9.51048 42.901 9.85522 42.435 10.1057C41.977 10.3562 41.469 10.4809 40.909 10.4809ZM41.679 9.91158C41.931 9.91158 42.187 9.84226 42.449 9.70455C42.719 9.56683 42.948 9.36814 43.135 9.10935C43.321 8.84224 43.433 8.52245 43.471 8.15182V6.80613H42.533C41.767 6.80613 41.193 6.96603 40.811 7.2849C40.437 7.59544 40.251 8.03536 40.251 8.60469C40.251 9.07883 40.372 9.41527 40.615 9.61398C40.857 9.81269 41.212 9.91158 41.679 9.91158ZM49.44 10.4809C48.824 10.4809 48.329 10.3386 47.956 10.0539C47.592 9.76926 47.41 9.31638 47.41 8.69529V4.0371L46.416 3.90772V3.64891H47.41V2.57495L48.81 2.25146V3.64891H50.63V3.90772L48.81 4.0371V8.6694C48.81 9.58347 49.165 10.041 49.874 10.041C50.023 10.041 50.163 10.0197 50.294 9.97628C50.434 9.93284 50.541 9.89034 50.616 9.8469C50.7 9.80346 50.751 9.77386 50.77 9.7563L50.952 9.96333C50.532 10.3081 50.028 10.4809 49.44 10.4809ZM52.894 2.14794C52.632 2.14794 52.408 2.06569 52.222 1.9021C52.035 1.72927 51.942 1.52224 51.942 1.28102C51.942 1.03979 52.03 0.836465 52.208 0.672874C52.394 0.509283 52.623 0.427005 52.894 0.427005C53.146 0.427005 53.36 0.509283 53.538 0.672874C53.715 0.836465 53.804 1.03979 53.804 1.28102C53.804 1.52224 53.715 1.72927 53.538 1.9021C53.36 2.06569 53.146 2.14794 52.894 2.14794ZM51.41 10.3515V10.0927L52.39 9.96333V4.05005L51.41 3.92064V3.66185H53.79V9.96333L54.77 10.0927V10.3515H51.41ZM58.774 10.6103L55.778 4.0371L54.868 3.90772V3.64891H58.354V3.90772L57.346 4.07591L59.46 8.94113L61.35 4.24413L60.118 3.92064V3.66185H62.624V3.92064L61.742 4.23118L59.166 10.6103H58.774ZM66.513 10.4809C65.822 10.4809 65.197 10.3386 64.637 10.0539C64.077 9.76094 63.633 9.35056 63.307 8.82467C62.98 8.29878 62.817 7.69063 62.817 7.00022C62.817 6.30981 62.975 5.70629 63.293 5.18871C63.619 4.66282 64.053 4.25706 64.595 3.9724C65.145 3.67941 65.757 3.53247 66.429 3.53247C67.017 3.53247 67.544 3.65355 68.011 3.89478C68.477 4.136 68.841 4.47241 69.103 4.90403C69.364 5.32641 69.499 5.81441 69.509 6.36618H64.357V7.6472C64.357 8.406 64.539 9.02338 64.903 9.49752C65.276 9.96333 65.813 10.1963 66.513 10.1963C67.157 10.1963 67.726 10.0281 68.221 9.69163C68.715 9.3552 69.019 8.91988 69.131 8.38475H69.453C69.322 9.0234 68.991 9.53171 68.459 9.91158C67.927 10.2914 67.278 10.4809 66.513 10.4809ZM67.969 6.04272C67.969 5.29224 67.843 4.73584 67.591 4.37354C67.339 4.00292 66.947 3.81713 66.415 3.81713C65.789 3.81713 65.304 4.01955 64.959 4.4253C64.613 4.83104 64.417 5.36987 64.371 6.04272H67.969ZM73.706 13.7546L74.686 13.6252V4.05005L73.706 3.92064V3.66185H76.086V5.02049C76.319 4.55467 76.632 4.19237 77.024 3.93359C77.425 3.66648 77.901 3.53247 78.452 3.53247C79.115 3.53247 79.698 3.67941 80.202 3.9724C80.706 4.25706 81.098 4.66282 81.378 5.18871C81.658 5.70629 81.798 6.31444 81.798 7.01316C81.798 7.71189 81.658 8.32467 81.378 8.85056C81.098 9.36814 80.706 9.76926 80.202 10.0539C79.698 10.3386 79.115 10.4809 78.452 10.4809C77.901 10.4809 77.425 10.3515 77.024 10.0927C76.632 9.82563 76.319 9.46334 76.086 9.00584V13.6252L77.402 13.7546V14.0134H73.706V13.7546ZM78.312 10.1574C79.609 10.1574 80.258 9.32471 80.258 7.66014V6.36618C80.258 4.69238 79.609 3.85594 78.312 3.85594C77.901 3.85594 77.528 3.96778 77.192 4.19237C76.856 4.40772 76.59 4.70163 76.394 5.07225C76.198 5.44287 76.095 5.84399 76.086 6.27561V7.66014C76.086 8.10008 76.179 8.51414 76.366 8.90232C76.562 9.28218 76.828 9.5881 77.164 9.82101C77.509 10.0456 77.892 10.1574 78.312 10.1574ZM82.772 10.0927L83.752 9.96333V4.0371L82.772 3.90772V3.64891H85.152V4.64524C85.74 3.90308 86.403 3.53247 87.14 3.53247C87.495 3.53247 87.808 3.61843 88.078 3.79126C88.349 3.95485 88.484 4.19237 88.484 4.50292C88.484 4.72751 88.405 4.91698 88.246 5.07225C88.088 5.2192 87.878 5.29222 87.616 5.29222C87.318 5.29222 87.075 5.18408 86.888 4.96873C86.991 4.84766 87.042 4.71828 87.042 4.58057C87.042 4.43361 86.986 4.31714 86.874 4.23118C86.772 4.13599 86.632 4.08886 86.454 4.08886C86.258 4.08886 86.058 4.17481 85.852 4.34765C85.647 4.51124 85.414 4.77002 85.152 5.12401V9.96333L86.272 10.0927V10.3515H82.772V10.0927ZM92.679 10.4809C92.007 10.4809 91.396 10.3386 90.845 10.0539C90.294 9.76094 89.856 9.35056 89.529 8.82467C89.212 8.28953 89.053 7.68138 89.053 7.00022C89.053 6.31905 89.212 5.7146 89.529 5.18871C89.856 4.66282 90.294 4.25706 90.845 3.9724C91.396 3.67941 92.007 3.53247 92.679 3.53247C93.351 3.53247 93.962 3.67941 94.513 3.9724C95.064 4.25706 95.498 4.66282 95.815 5.18871C96.142 5.7146 96.305 6.31905 96.305 7.00022C96.305 7.68138 96.142 8.28953 95.815 8.82467C95.498 9.35056 95.064 9.76094 94.513 10.0539C93.962 10.3386 93.351 10.4809 92.679 10.4809ZM92.679 10.1963C93.37 10.1963 93.888 9.96333 94.233 9.49752C94.588 9.0317 94.765 8.41524 94.765 7.6472V6.35326C94.765 5.58522 94.588 4.97336 94.233 4.51586C93.888 4.05005 93.37 3.81713 92.679 3.81713C91.988 3.81713 91.466 4.05005 91.111 4.51586C90.766 4.97336 90.593 5.58522 90.593 6.35326V7.6472C90.593 8.41524 90.766 9.0317 91.111 9.49752C91.466 9.96333 91.988 10.1963 92.679 10.1963ZM100.848 10.4809C100.186 10.4809 99.602 10.3386 99.098 10.0539C98.594 9.76094 98.202 9.35519 97.922 8.83762C97.642 8.31172 97.502 7.69894 97.502 7.00022C97.502 6.30149 97.642 5.69334 97.922 5.17576C98.202 4.64987 98.594 4.24415 99.098 3.95948C99.602 3.67481 100.186 3.53247 100.848 3.53247C101.39 3.53247 101.861 3.66648 102.262 3.93359C102.664 4.19237 102.981 4.55005 103.214 5.00754V0.388194L102.234 0.258787V0H104.614V9.96333L105.594 10.0927V10.3515H103.214V9.00584C102.981 9.46334 102.664 9.82563 102.262 10.0927C101.861 10.3515 101.39 10.4809 100.848 10.4809ZM100.988 10.1574C101.399 10.1574 101.768 10.0493 102.094 9.83395C102.43 9.60936 102.696 9.31638 102.892 8.95408C103.098 8.58346 103.205 8.18233 103.214 7.75071V6.26267C103.205 5.83105 103.098 5.43455 102.892 5.07225C102.696 4.70163 102.43 4.40772 102.094 4.19237C101.768 3.96778 101.399 3.85594 100.988 3.85594C99.691 3.85594 99.042 4.6887 99.042 6.35326V7.6472C99.042 9.321 99.691 10.1574 100.988 10.1574ZM109.271 10.4809C108.599 10.4809 108.067 10.3256 107.675 10.0151C107.292 9.70454 107.101 9.24336 107.101 8.63059V4.0371L106.121 3.90772V3.64891H108.501V8.60469C108.501 9.04463 108.599 9.3894 108.795 9.63987C108.991 9.89034 109.294 10.0151 109.705 10.0151C110.134 10.0151 110.545 9.88571 110.937 9.62692C111.338 9.35982 111.693 9.03172 112.001 8.64353V4.0371L111.021 3.90772V3.64891H113.401V9.96333L114.381 10.0927V10.3515H112.001V9.10935C111.665 9.54097 111.259 9.87738 110.783 10.1186C110.316 10.3598 109.812 10.4809 109.271 10.4809ZM118.956 10.4809C118.284 10.4809 117.673 10.3386 117.122 10.0539C116.572 9.76094 116.133 9.35056 115.806 8.82467C115.489 8.28953 115.33 7.68138 115.33 7.00022C115.33 6.28393 115.498 5.66285 115.834 5.13695C116.18 4.61106 116.628 4.21364 117.178 3.94653C117.729 3.67018 118.322 3.53247 118.956 3.53247C119.488 3.53247 119.974 3.61843 120.412 3.79126C120.851 3.95485 121.196 4.18774 121.448 4.48997C121.71 4.7922 121.84 5.13234 121.84 5.5122C121.84 5.79687 121.761 6.01683 121.602 6.1721C121.444 6.31905 121.234 6.39208 120.972 6.39208C120.72 6.39208 120.51 6.31443 120.342 6.15915C120.174 6.00388 120.09 5.80981 120.09 5.5769C120.23 5.49095 120.328 5.39574 120.384 5.29222C120.44 5.18871 120.468 5.0593 120.468 4.90403C120.468 4.58517 120.328 4.32638 120.048 4.12767C119.778 3.92064 119.414 3.81713 118.956 3.81713C118.284 3.81713 117.766 4.04171 117.402 4.48997C117.048 4.92991 116.87 5.55102 116.87 6.35326V7.6472C116.87 8.41524 117.043 9.0317 117.388 9.49752C117.743 9.96333 118.266 10.1963 118.956 10.1963C119.591 10.1963 120.142 10.0327 120.608 9.70455C121.084 9.36812 121.378 8.9282 121.49 8.38475H121.812C121.682 9.0234 121.355 9.53171 120.832 9.91158C120.319 10.2914 119.694 10.4809 118.956 10.4809ZM125.661 10.4809C125.045 10.4809 124.55 10.3386 124.177 10.0539C123.813 9.76926 123.631 9.31638 123.631 8.69529V4.0371L122.637 3.90772V3.64891H123.631V2.57495L125.031 2.25146V3.64891H126.851V3.90772L125.031 4.0371V8.6694C125.031 9.58347 125.385 10.041 126.095 10.041C126.244 10.041 126.384 10.0197 126.515 9.97628C126.655 9.93284 126.762 9.89034 126.837 9.8469C126.921 9.80346 126.972 9.77386 126.991 9.7563L127.173 9.96333C126.753 10.3081 126.249 10.4809 125.661 10.4809ZM134.536 10.4809C133.873 10.4809 133.29 10.3386 132.786 10.0539C132.282 9.76094 131.89 9.35519 131.61 8.83762C131.33 8.31172 131.19 7.69894 131.19 7.00022C131.19 6.30149 131.33 5.69334 131.61 5.17576C131.89 4.64987 132.282 4.24415 132.786 3.95948C133.29 3.67481 133.873 3.53247 134.536 3.53247C135.077 3.53247 135.549 3.66648 135.95 3.93359C136.351 4.19237 136.669 4.55005 136.902 5.00754V0.388194L135.922 0.258787V0H138.302V9.96333L139.282 10.0927V10.3515H136.902V9.00584C136.669 9.46334 136.351 9.82563 135.95 10.0927C135.549 10.3515 135.077 10.4809 134.536 10.4809ZM134.676 10.1574C135.087 10.1574 135.455 10.0493 135.782 9.83395C136.118 9.60936 136.384 9.31638 136.58 8.95408C136.785 8.58346 136.893 8.18233 136.902 7.75071V6.26267C136.893 5.83105 136.785 5.43455 136.58 5.07225C136.384 4.70163 136.118 4.40772 135.782 4.19237C135.455 3.96778 135.087 3.85594 134.676 3.85594C133.379 3.85594 132.73 4.6887 132.73 6.35326V7.6472C132.73 9.321 133.379 10.1574 134.676 10.1574ZM143.868 10.4809C143.178 10.4809 142.552 10.3386 141.992 10.0539C141.432 9.76094 140.989 9.35056 140.662 8.82467C140.336 8.29878 140.172 7.69063 140.172 7.00022C140.172 6.30981 140.331 5.70629 140.648 5.18871C140.975 4.66282 141.409 4.25706 141.95 3.9724C142.501 3.67941 143.112 3.53247 143.784 3.53247C144.372 3.53247 144.9 3.65355 145.366 3.89478C145.833 4.136 146.197 4.47241 146.458 4.90403C146.72 5.32641 146.855 5.81441 146.864 6.36618H141.712V7.6472C141.712 8.406 141.894 9.02338 142.258 9.49752C142.632 9.96333 143.168 10.1963 143.868 10.1963C144.512 10.1963 145.082 10.0281 145.576 9.69163C146.071 9.3552 146.374 8.91988 146.486 8.38475H146.808C146.678 9.0234 146.346 9.53171 145.814 9.91158C145.282 10.2914 144.634 10.4809 143.868 10.4809ZM145.324 6.04272C145.324 5.29224 145.198 4.73584 144.946 4.37354C144.694 4.00292 144.302 3.81713 143.77 3.81713C143.145 3.81713 142.66 4.01955 142.314 4.4253C141.969 4.83104 141.773 5.36987 141.726 6.04272H145.324ZM150.778 10.4809C150.013 10.4809 149.373 10.3303 148.86 10.028C148.347 9.72581 148.09 9.33394 148.09 8.85056C148.09 8.60009 148.16 8.406 148.3 8.26829C148.449 8.12133 148.645 8.04831 148.888 8.04831C149.075 8.04831 149.233 8.09176 149.364 8.17772C149.495 8.26367 149.588 8.38475 149.644 8.54002C149.439 8.74705 149.336 8.96701 149.336 9.19992C149.336 9.46702 149.467 9.69994 149.728 9.89866C149.989 10.0974 150.339 10.1963 150.778 10.1963C151.366 10.1963 151.847 10.0752 152.22 9.83395C152.593 9.58348 152.78 9.25168 152.78 8.83762C152.78 8.59639 152.701 8.41523 152.542 8.29415C152.383 8.17307 152.075 8.03537 151.618 7.88009L149.504 7.16844C148.673 6.89209 148.258 6.37915 148.258 5.62866C148.258 5.01589 148.487 4.51585 148.944 4.12767C149.401 3.73117 150.031 3.53247 150.834 3.53247C151.497 3.53247 152.061 3.67481 152.528 3.95948C153.004 4.23583 153.242 4.63232 153.242 5.1499C153.242 5.35693 153.181 5.52513 153.06 5.65453C152.939 5.7756 152.78 5.83569 152.584 5.83569C152.388 5.83569 152.225 5.78853 152.094 5.69334C151.973 5.58982 151.912 5.45211 151.912 5.27928C152.033 5.19332 152.117 5.10274 152.164 5.00754C152.211 4.90403 152.234 4.78296 152.234 4.64524C152.234 4.40402 152.117 4.20532 151.884 4.05005C151.66 3.89478 151.31 3.81713 150.834 3.81713C150.423 3.81713 150.069 3.87721 149.77 3.99829C149.481 4.11012 149.261 4.26169 149.112 4.45116C148.963 4.64063 148.888 4.83473 148.888 5.03344C148.888 5.24047 148.967 5.40407 149.126 5.52515C149.294 5.64622 149.597 5.7793 150.036 5.92626L151.996 6.57321C152.453 6.72848 152.799 6.94384 153.032 7.22019C153.265 7.49654 153.382 7.85421 153.382 8.29415C153.382 8.92356 153.167 9.44576 152.738 9.85982C152.309 10.2739 151.655 10.4809 150.778 10.4809ZM155.952 2.14794C155.691 2.14794 155.467 2.06569 155.28 1.9021C155.093 1.72927 155 1.52224 155 1.28102C155 1.03979 155.089 0.836465 155.266 0.672874C155.453 0.509283 155.681 0.427005 155.952 0.427005C156.204 0.427005 156.419 0.509283 156.596 0.672874C156.773 0.836465 156.862 1.03979 156.862 1.28102C156.862 1.52224 156.773 1.72927 156.596 1.9021C156.419 2.06569 156.204 2.14794 155.952 2.14794ZM154.468 10.3515V10.0927L155.448 9.96333V4.05005L154.468 3.92064V3.66185H156.848V9.96333L157.828 10.0927V10.3515H154.468ZM165.683 3.04077C165.683 3.37719 165.548 3.6665 165.277 3.90772C165.006 4.14895 164.577 4.30422 163.989 4.37354C164.232 4.70164 164.353 5.1499 164.353 5.71923C164.353 6.39208 164.092 6.92258 163.569 7.31076C163.056 7.69894 162.402 7.89304 161.609 7.89304C161.282 7.89304 160.984 7.86717 160.713 7.81542C160.116 7.84961 159.817 8.06587 159.817 8.46237C159.817 8.68696 159.915 8.85056 160.111 8.95408C160.316 9.05759 160.638 9.10935 161.077 9.10935H162.645C163.401 9.10935 163.961 9.25169 164.325 9.53636C164.698 9.82102 164.885 10.3081 164.885 10.9985C164.885 11.4819 164.75 11.9255 164.479 12.3313C164.218 12.737 163.835 13.0559 163.331 13.2888C162.827 13.53 162.225 13.6511 161.525 13.6511C160.47 13.6511 159.691 13.5041 159.187 13.2111C158.692 12.9181 158.445 12.53 158.445 12.0466C158.445 11.7536 158.566 11.4948 158.809 11.2702C159.052 11.0456 159.383 10.9338 159.803 10.9338C159.887 10.9338 160.06 10.9514 160.321 10.9856C160.032 11.2702 159.887 11.6067 159.887 11.9948C159.887 12.3655 160.027 12.6889 160.307 12.9653C160.587 13.2416 161.044 13.3793 161.679 13.3793C162.23 13.3793 162.72 13.2805 163.149 13.0817C163.588 12.8923 163.924 12.6418 164.157 12.3313C164.39 12.0207 164.507 11.7018 164.507 11.3737C164.507 11.0114 164.381 10.748 164.129 10.5844C163.877 10.4292 163.429 10.3515 162.785 10.3515H161.077C160.424 10.3515 159.929 10.2351 159.593 10.0022C159.266 9.76094 159.103 9.40695 159.103 8.94113C159.103 8.63059 159.196 8.35887 159.383 8.12596C159.579 7.88473 159.826 7.72946 160.125 7.66014C159.313 7.34128 158.907 6.69431 158.907 5.71923C158.907 5.03806 159.164 4.50293 159.677 4.11475C160.19 3.72657 160.834 3.53247 161.609 3.53247C162.589 3.53247 163.298 3.72194 163.737 4.10181C163.998 4.05837 164.194 3.98072 164.325 3.86888C164.456 3.74781 164.521 3.61473 164.521 3.46777C164.521 3.33006 164.479 3.22654 164.395 3.15723C164.311 3.07959 164.213 3.04077 164.101 3.04077C164.101 2.8513 164.176 2.6868 164.325 2.54908C164.484 2.40213 164.67 2.32911 164.885 2.32911C165.118 2.32911 165.31 2.3938 165.459 2.52319C165.608 2.65259 165.683 2.82542 165.683 3.04077ZM163.037 5.39574C163.037 4.86984 162.916 4.46409 162.673 4.17943C162.44 3.89476 162.085 3.75242 161.609 3.75242C160.685 3.75242 160.223 4.30051 160.223 5.39574V6.02977C160.223 6.53903 160.335 6.94015 160.559 7.23314C160.792 7.52612 161.142 7.67306 161.609 7.67306C162.085 7.67306 162.44 7.52612 162.673 7.23314C162.916 6.94015 163.037 6.53903 163.037 6.02977V5.39574ZM165.993 10.0927L166.973 9.96333V4.0371L165.993 3.90772V3.64891H168.373V5.04638C168.719 4.58057 169.125 4.21364 169.591 3.94653C170.058 3.67018 170.562 3.53247 171.103 3.53247C171.775 3.53247 172.303 3.68775 172.685 3.99829C173.077 4.30884 173.273 4.77002 173.273 5.38279V9.96333L174.253 10.0927V10.3515H171.033V10.0927L171.873 9.96333V5.40869C171.873 4.96043 171.775 4.61477 171.579 4.37354C171.383 4.12307 171.08 3.99829 170.669 3.99829C170.24 3.99829 169.825 4.14523 169.423 4.43821C169.031 4.72288 168.681 5.07688 168.373 5.49925V9.96333L169.213 10.0927V10.3515H165.993V10.0927ZM180.54 10.4809C179.942 10.4809 179.452 10.3386 179.07 10.0539C178.687 9.76094 178.496 9.32933 178.496 8.76C178.496 7.94943 178.864 7.37545 179.602 7.03903C180.339 6.69429 181.193 6.52145 182.164 6.52145H183.102V5.52515C183.102 5.07689 183.046 4.7312 182.934 4.48997C182.831 4.2395 182.668 4.0676 182.444 3.9724C182.22 3.86888 181.916 3.81713 181.534 3.81713C181.095 3.81713 180.768 3.8994 180.554 4.06299C180.339 4.21827 180.232 4.42989 180.232 4.697C180.232 4.94747 180.362 5.11107 180.624 5.18871C180.624 5.40406 180.535 5.59445 180.358 5.75804C180.18 5.92163 179.97 6.00388 179.728 6.00388C179.466 6.00388 179.256 5.93919 179.098 5.8098C178.939 5.67209 178.86 5.46506 178.86 5.18871C178.86 4.68869 179.13 4.28757 179.672 3.98534C180.213 3.68312 180.89 3.53247 181.702 3.53247C183.568 3.53247 184.502 4.28296 184.502 5.78393V9.4846C184.502 9.67407 184.544 9.82101 184.628 9.92452C184.721 10.0197 184.852 10.0668 185.02 10.0668C185.178 10.0668 185.304 10.0197 185.398 9.92452C185.491 9.82101 185.538 9.6833 185.538 9.51046H185.832C185.832 9.81269 185.724 10.0493 185.51 10.2221C185.304 10.395 185.015 10.4809 184.642 10.4809C184.212 10.4809 183.848 10.3691 183.55 10.1445C183.26 9.91159 183.111 9.55392 183.102 9.07054C182.878 9.51048 182.532 9.85522 182.066 10.1057C181.608 10.3562 181.1 10.4809 180.54 10.4809ZM181.31 9.91158C181.562 9.91158 181.818 9.84226 182.08 9.70455C182.35 9.56683 182.579 9.36814 182.766 9.10935C182.952 8.84224 183.064 8.52245 183.102 8.15182V6.80613H182.164C181.398 6.80613 180.824 6.96603 180.442 7.2849C180.068 7.59544 179.882 8.03536 179.882 8.60469C179.882 9.07883 180.003 9.41527 180.246 9.61398C180.488 9.81269 180.843 9.91158 181.31 9.91158ZM193.355 3.04077C193.355 3.37719 193.22 3.6665 192.949 3.90772C192.678 4.14895 192.249 4.30422 191.661 4.37354C191.904 4.70164 192.025 5.1499 192.025 5.71923C192.025 6.39208 191.764 6.92258 191.241 7.31076C190.728 7.69894 190.074 7.89304 189.281 7.89304C188.954 7.89304 188.656 7.86717 188.385 7.81542C187.788 7.84961 187.489 8.06587 187.489 8.46237C187.489 8.68696 187.587 8.85056 187.783 8.95408C187.988 9.05759 188.31 9.10935 188.749 9.10935H190.317C191.073 9.10935 191.633 9.25169 191.997 9.53636C192.37 9.82102 192.557 10.3081 192.557 10.9985C192.557 11.4819 192.422 11.9255 192.151 12.3313C191.89 12.737 191.507 13.0559 191.003 13.2888C190.499 13.53 189.897 13.6511 189.197 13.6511C188.142 13.6511 187.363 13.5041 186.859 13.2111C186.364 12.9181 186.117 12.53 186.117 12.0466C186.117 11.7536 186.238 11.4948 186.481 11.2702C186.724 11.0456 187.055 10.9338 187.475 10.9338C187.559 10.9338 187.732 10.9514 187.993 10.9856C187.704 11.2702 187.559 11.6067 187.559 11.9948C187.559 12.3655 187.699 12.6889 187.979 12.9653C188.259 13.2416 188.716 13.3793 189.351 13.3793C189.902 13.3793 190.392 13.2805 190.821 13.0817C191.26 12.8923 191.596 12.6418 191.829 12.3313C192.062 12.0207 192.179 11.7018 192.179 11.3737C192.179 11.0114 192.053 10.748 191.801 10.5844C191.549 10.4292 191.101 10.3515 190.457 10.3515H188.749C188.096 10.3515 187.601 10.2351 187.265 10.0022C186.938 9.76094 186.775 9.40695 186.775 8.94113C186.775 8.63059 186.868 8.35887 187.055 8.12596C187.251 7.88473 187.498 7.72946 187.797 7.66014C186.985 7.34128 186.579 6.69431 186.579 5.71923C186.579 5.03806 186.836 4.50293 187.349 4.11475C187.862 3.72657 188.506 3.53247 189.281 3.53247C190.261 3.53247 190.97 3.72194 191.409 4.10181C191.67 4.05837 191.866 3.98072 191.997 3.86888C192.128 3.74781 192.193 3.61473 192.193 3.46777C192.193 3.33006 192.151 3.22654 192.067 3.15723C191.983 3.07959 191.885 3.04077 191.773 3.04077C191.773 2.8513 191.848 2.6868 191.997 2.54908C192.156 2.40213 192.342 2.32911 192.557 2.32911C192.79 2.32911 192.982 2.3938 193.131 2.52319C193.28 2.65259 193.355 2.82542 193.355 3.04077ZM190.709 5.39574C190.709 4.86984 190.588 4.46409 190.345 4.17943C190.112 3.89476 189.757 3.75242 189.281 3.75242C188.357 3.75242 187.895 4.30051 187.895 5.39574V6.02977C187.895 6.53903 188.007 6.94015 188.231 7.23314C188.464 7.52612 188.814 7.67306 189.281 7.67306C189.757 7.67306 190.112 7.52612 190.345 7.23314C190.588 6.94015 190.709 6.53903 190.709 6.02977V5.39574ZM197.448 10.4809C196.758 10.4809 196.132 10.3386 195.572 10.0539C195.012 9.76094 194.569 9.35056 194.242 8.82467C193.916 8.29878 193.752 7.69063 193.752 7.00022C193.752 6.30981 193.911 5.70629 194.228 5.18871C194.555 4.66282 194.989 4.25706 195.53 3.9724C196.081 3.67941 196.692 3.53247 197.364 3.53247C197.952 3.53247 198.48 3.65355 198.946 3.89478C199.413 4.136 199.777 4.47241 200.038 4.90403C200.3 5.32641 200.435 5.81441 200.444 6.36618H195.292V7.6472C195.292 8.406 195.474 9.02338 195.838 9.49752C196.212 9.96333 196.748 10.1963 197.448 10.1963C198.092 10.1963 198.662 10.0281 199.156 9.69163C199.651 9.3552 199.954 8.91988 200.066 8.38475H200.388C200.258 9.0234 199.926 9.53171 199.394 9.91158C198.862 10.2914 198.214 10.4809 197.448 10.4809ZM198.904 6.04272C198.904 5.29224 198.778 4.73584 198.526 4.37354C198.274 4.00292 197.882 3.81713 197.35 3.81713C196.725 3.81713 196.24 4.01955 195.894 4.4253C195.549 4.83104 195.353 5.36987 195.306 6.04272H198.904ZM201.376 10.0927L202.356 9.96333V4.0371L201.376 3.90772V3.64891H203.756V5.04638C204.101 4.58057 204.507 4.21364 204.974 3.94653C205.441 3.67018 205.945 3.53247 206.486 3.53247C207.158 3.53247 207.685 3.68775 208.068 3.99829C208.46 4.30884 208.656 4.77002 208.656 5.38279V9.96333L209.636 10.0927V10.3515H206.416V10.0927L207.256 9.96333V5.40869C207.256 4.96043 207.158 4.61477 206.962 4.37354C206.766 4.12307 206.463 3.99829 206.052 3.99829C205.623 3.99829 205.207 4.14523 204.806 4.43821C204.414 4.72288 204.064 5.07688 203.756 5.49925V9.96333L204.596 10.0927V10.3515H201.376V10.0927ZM214.113 10.4809C213.441 10.4809 212.829 10.3386 212.279 10.0539C211.728 9.76094 211.289 9.35056 210.963 8.82467C210.645 8.28953 210.487 7.68138 210.487 7.00022C210.487 6.28393 210.655 5.66285 210.991 5.13695C211.336 4.61106 211.784 4.21364 212.335 3.94653C212.885 3.67018 213.478 3.53247 214.113 3.53247C214.645 3.53247 215.13 3.61843 215.569 3.79126C216.007 3.95485 216.353 4.18774 216.605 4.48997C216.866 4.7922 216.997 5.13234 216.997 5.5122C216.997 5.79687 216.917 6.01683 216.759 6.1721C216.6 6.31905 216.39 6.39208 216.129 6.39208C215.877 6.39208 215.667 6.31443 215.499 6.15915C215.331 6.00388 215.247 5.80981 215.247 5.5769C215.387 5.49095 215.485 5.39574 215.541 5.29222C215.597 5.18871 215.625 5.0593 215.625 4.90403C215.625 4.58517 215.485 4.32638 215.205 4.12767C214.934 3.92064 214.57 3.81713 214.113 3.81713C213.441 3.81713 212.923 4.04171 212.559 4.48997C212.204 4.92991 212.027 5.55102 212.027 6.35326V7.6472C212.027 8.41524 212.199 9.0317 212.545 9.49752C212.899 9.96333 213.422 10.1963 214.113 10.1963C214.747 10.1963 215.298 10.0327 215.765 9.70455C216.241 9.36812 216.535 8.9282 216.647 8.38475H216.969C216.838 9.0234 216.511 9.53171 215.989 9.91158C215.475 10.2914 214.85 10.4809 214.113 10.4809ZM219.193 14.1298C218.708 14.1298 218.316 14.018 218.017 13.7934C217.718 13.5688 217.569 13.2675 217.569 12.8876C217.569 12.6288 217.648 12.4172 217.807 12.2536C217.975 12.0984 218.18 12.0207 218.423 12.0207C218.6 12.0207 218.759 12.0549 218.899 12.1242C219.039 12.1935 219.151 12.2971 219.235 12.4348C219.095 12.6159 219.025 12.8054 219.025 13.0041C219.025 13.1769 219.086 13.3193 219.207 13.4311C219.328 13.5429 219.482 13.5993 219.669 13.5993C219.893 13.5993 220.084 13.53 220.243 13.3923C220.411 13.2546 220.56 13.0124 220.691 12.6677L221.531 10.4421L218.283 4.05005L217.345 3.92064V3.66185H220.831V3.92064L219.851 4.07591L222.189 8.69529L223.855 4.24413L222.651 3.92064V3.66185H225.171V3.92064L224.219 4.24413L221.083 12.6677C220.887 13.1769 220.649 13.5475 220.369 13.7805C220.098 14.0134 219.706 14.1298 219.193 14.1298ZM3.97601 28.0415C3.30401 28.0415 2.69297 27.8992 2.14197 27.6145C1.59097 27.3216 1.15299 26.9112 0.825989 26.3853C0.508989 25.8501 0.349976 25.242 0.349976 24.5608C0.349976 23.8445 0.518004 23.2235 0.854004 22.6976C1.199 22.1717 1.647 21.7742 2.198 21.5071C2.749 21.2308 3.34101 21.0931 3.97601 21.0931C4.50801 21.0931 4.99301 21.179 5.43201 21.3519C5.87101 21.5155 6.21596 21.7484 6.46796 22.0506C6.72896 22.3528 6.85999 22.6929 6.85999 23.0728C6.85999 23.3575 6.78101 23.5774 6.62201 23.7327C6.46301 23.8797 6.253 23.9527 5.992 23.9527C5.74 23.9527 5.53 23.875 5.362 23.7198C5.194 23.5645 5.10999 23.3704 5.10999 23.1375C5.24999 23.0516 5.34799 22.9563 5.40399 22.8528C5.45999 22.7493 5.48798 22.6199 5.48798 22.4646C5.48798 22.1458 5.34799 21.887 5.06799 21.6883C4.79699 21.4812 4.43301 21.3777 3.97601 21.3777C3.30401 21.3777 2.786 21.6023 2.422 22.0506C2.067 22.4905 1.89001 23.1116 1.89001 23.9139V25.2078C1.89001 25.9758 2.06296 26.5923 2.40796 27.0581C2.76296 27.5239 3.28501 27.7569 3.97601 27.7569C4.61101 27.7569 5.16099 27.5933 5.62799 27.2652C6.10399 26.9287 6.39801 26.4888 6.51001 25.9454H6.83197C6.70097 26.584 6.37499 27.0923 5.85199 27.4722C5.33899 27.852 4.71301 28.0415 3.97601 28.0415ZM7.78198 27.6533L8.76196 27.5239V21.5977L7.78198 21.4683V21.2095H10.162V22.2059C10.75 21.4637 11.413 21.0931 12.15 21.0931C12.505 21.0931 12.818 21.179 13.088 21.3519C13.359 21.5155 13.494 21.753 13.494 22.0635C13.494 22.2881 13.415 22.4776 13.256 22.6329C13.098 22.7798 12.888 22.8528 12.626 22.8528C12.328 22.8528 12.085 22.7447 11.898 22.5293C12.001 22.4083 12.052 22.2789 12.052 22.1412C12.052 21.9942 11.996 21.8777 11.884 21.7918C11.782 21.6966 11.642 21.6495 11.464 21.6495C11.268 21.6495 11.068 21.7354 10.862 21.9083C10.657 22.0718 10.424 22.3306 10.162 22.6846V27.5239L11.282 27.6533V27.9121H7.78198V27.6533ZM17.759 28.0415C17.068 28.0415 16.443 27.8992 15.883 27.6145C15.323 27.3216 14.88 26.9112 14.553 26.3853C14.226 25.8594 14.063 25.2512 14.063 24.5608C14.063 23.8704 14.222 23.2669 14.539 22.7493C14.866 22.2234 15.3 21.8177 15.841 21.533C16.392 21.24 17.003 21.0931 17.675 21.0931C18.263 21.0931 18.79 21.2142 19.257 21.4554C19.724 21.6966 20.088 22.033 20.349 22.4646C20.61 22.887 20.746 23.375 20.755 23.9268H15.603V25.2078C15.603 25.9666 15.785 26.584 16.149 27.0581C16.522 27.5239 17.059 27.7569 17.759 27.7569C18.403 27.7569 18.972 27.5887 19.467 27.2522C19.962 26.9158 20.265 26.4805 20.377 25.9454H20.699C20.568 26.584 20.237 27.0923 19.705 27.4722C19.173 27.852 18.524 28.0415 17.759 28.0415ZM19.215 23.6033C19.215 22.8528 19.089 22.2964 18.837 21.9341C18.585 21.5635 18.193 21.3777 17.661 21.3777C17.036 21.3777 16.55 21.5802 16.205 21.9859C15.86 22.3916 15.664 22.9305 15.617 23.6033H19.215ZM23.997 28.0415C23.399 28.0415 22.909 27.8992 22.527 27.6145C22.144 27.3216 21.953 26.8899 21.953 26.3206C21.953 25.51 22.321 24.9361 23.059 24.5996C23.796 24.2549 24.65 24.0821 25.621 24.0821H26.559V23.0858C26.559 22.6375 26.503 22.2918 26.391 22.0506C26.288 21.8001 26.125 21.6282 25.901 21.533C25.677 21.4295 25.373 21.3777 24.991 21.3777C24.552 21.3777 24.225 21.46 24.011 21.6236C23.796 21.7789 23.689 21.9905 23.689 22.2576C23.689 22.5081 23.819 22.6717 24.081 22.7493C24.081 22.9647 23.992 23.1551 23.815 23.3186C23.637 23.4822 23.427 23.5645 23.185 23.5645C22.923 23.5645 22.713 23.4998 22.555 23.3704C22.396 23.2327 22.317 23.0257 22.317 22.7493C22.317 22.2493 22.587 21.8482 23.129 21.5459C23.67 21.2437 24.347 21.0931 25.159 21.0931C27.025 21.0931 27.959 21.8436 27.959 23.3445V27.0452C27.959 27.2347 28.001 27.3816 28.085 27.4851C28.178 27.5803 28.309 27.6275 28.477 27.6275C28.635 27.6275 28.761 27.5803 28.855 27.4851C28.948 27.3816 28.995 27.2439 28.995 27.0711H29.289C29.289 27.3733 29.181 27.6099 28.967 27.7827C28.761 27.9556 28.472 28.0415 28.099 28.0415C27.669 28.0415 27.305 27.9297 27.007 27.7051C26.717 27.4722 26.568 27.1145 26.559 26.6311C26.335 27.0711 25.989 27.4158 25.523 27.6663C25.065 27.9168 24.557 28.0415 23.997 28.0415ZM24.767 27.4722C25.019 27.4722 25.275 27.4029 25.537 27.2652C25.807 27.1274 26.036 26.9287 26.223 26.67C26.409 26.4029 26.521 26.0831 26.559 25.7124V24.3667H25.621C24.855 24.3667 24.281 24.5266 23.899 24.8455C23.525 25.156 23.339 25.596 23.339 26.1653C23.339 26.6394 23.46 26.9759 23.703 27.1746C23.945 27.3733 24.3 27.4722 24.767 27.4722ZM32.528 28.0415C31.912 28.0415 31.417 27.8992 31.044 27.6145C30.68 27.3299 30.498 26.877 30.498 26.2559V21.5977L29.504 21.4683V21.2095H30.498V20.1356L31.898 19.8121V21.2095H33.718V21.4683L31.898 21.5977V26.23C31.898 27.1441 32.253 27.6016 32.962 27.6016C33.111 27.6016 33.251 27.5803 33.382 27.5369C33.522 27.4934 33.629 27.4509 33.704 27.4075C33.788 27.3641 33.839 27.3345 33.858 27.3169L34.04 27.5239C33.62 27.8687 33.116 28.0415 32.528 28.0415ZM35.981 19.7086C35.72 19.7086 35.496 19.6263 35.309 19.4627C35.123 19.2899 35.029 19.0828 35.029 18.8416C35.029 18.6004 35.118 18.3971 35.295 18.2335C35.482 18.0699 35.711 17.9876 35.981 17.9876C36.233 17.9876 36.448 18.0699 36.625 18.2335C36.803 18.3971 36.891 18.6004 36.891 18.8416C36.891 19.0828 36.803 19.2899 36.625 19.4627C36.448 19.6263 36.233 19.7086 35.981 19.7086ZM34.497 27.9121V27.6533L35.477 27.5239V21.6107L34.497 21.4812V21.2225H36.877V27.5239L37.857 27.6533V27.9121H34.497ZM38.53 27.6533L39.51 27.5239V21.5977L38.53 21.4683V21.2095H40.91V22.607C41.256 22.1412 41.662 21.7742 42.128 21.5071C42.595 21.2308 43.099 21.0931 43.64 21.0931C44.312 21.0931 44.84 21.2484 45.222 21.5589C45.614 21.8694 45.81 22.3306 45.81 22.9434V27.5239L46.79 27.6533V27.9121H43.57V27.6533L44.41 27.5239V22.9693C44.41 22.521 44.312 22.1754 44.116 21.9341C43.92 21.6837 43.617 21.5589 43.206 21.5589C42.777 21.5589 42.362 21.7058 41.96 21.9988C41.568 22.2835 41.218 22.6375 40.91 23.0599V27.5239L41.75 27.6533V27.9121H38.53V27.6533ZM54.599 20.6014C54.599 20.9378 54.464 21.2271 54.193 21.4683C53.922 21.7096 53.493 21.8648 52.905 21.9341C53.148 22.2623 53.269 22.7105 53.269 23.2798C53.269 23.9527 53.008 24.4832 52.485 24.8714C51.972 25.2596 51.318 25.4536 50.525 25.4536C50.198 25.4536 49.9 25.4278 49.629 25.376C49.032 25.4102 48.733 25.6265 48.733 26.023C48.733 26.2476 48.831 26.4112 49.027 26.5147C49.232 26.6182 49.554 26.67 49.993 26.67H51.561C52.317 26.67 52.877 26.8123 53.241 27.097C53.614 27.3816 53.801 27.8687 53.801 28.5591C53.801 29.0425 53.666 29.4861 53.395 29.8919C53.134 30.2976 52.751 30.6165 52.247 30.8494C51.743 31.0906 51.141 31.2117 50.441 31.2117C49.386 31.2117 48.607 31.0647 48.103 30.7717C47.608 30.4787 47.361 30.0906 47.361 29.6072C47.361 29.3142 47.482 29.0554 47.725 28.8308C47.968 28.6062 48.299 28.4944 48.719 28.4944C48.803 28.4944 48.976 28.512 49.237 28.5462C48.948 28.8308 48.803 29.1673 48.803 29.5555C48.803 29.9261 48.943 30.2495 49.223 30.5259C49.503 30.8022 49.96 30.94 50.595 30.94C51.146 30.94 51.636 30.8411 52.065 30.6424C52.504 30.4529 52.84 30.2024 53.073 29.8919C53.306 29.5813 53.423 29.2624 53.423 28.9343C53.423 28.572 53.297 28.3086 53.045 28.1451C52.793 27.9898 52.345 27.9121 51.701 27.9121H49.993C49.34 27.9121 48.845 27.7957 48.509 27.5628C48.182 27.3216 48.019 26.9676 48.019 26.5017C48.019 26.1912 48.112 25.9195 48.299 25.6866C48.495 25.4453 48.742 25.2901 49.041 25.2208C48.229 24.9019 47.823 24.2549 47.823 23.2798C47.823 22.5987 48.08 22.0635 48.593 21.6754C49.106 21.2872 49.75 21.0931 50.525 21.0931C51.505 21.0931 52.214 21.2825 52.653 21.6624C52.914 21.619 53.11 21.5413 53.241 21.4295C53.372 21.3084 53.437 21.1753 53.437 21.0284C53.437 20.8907 53.395 20.7872 53.311 20.7178C53.227 20.6402 53.129 20.6014 53.017 20.6014C53.017 20.4119 53.092 20.2474 53.241 20.1097C53.4 19.9627 53.586 19.8897 53.801 19.8897C54.034 19.8897 54.226 19.9544 54.375 20.0838C54.524 20.2132 54.599 20.386 54.599 20.6014ZM51.953 22.9563C51.953 22.4305 51.832 22.0247 51.589 21.74C51.356 21.4554 51.001 21.313 50.525 21.313C49.601 21.313 49.139 21.8611 49.139 22.9563V23.5904C49.139 24.0996 49.251 24.5008 49.475 24.7937C49.708 25.0867 50.058 25.2337 50.525 25.2337C51.001 25.2337 51.356 25.0867 51.589 24.7937C51.832 24.5008 51.953 24.0996 51.953 23.5904V22.9563ZM62.109 28.0415C61.437 28.0415 60.825 27.8992 60.275 27.6145C59.724 27.3216 59.285 26.9112 58.959 26.3853C58.641 25.8501 58.483 25.242 58.483 24.5608C58.483 23.8445 58.651 23.2235 58.987 22.6976C59.332 22.1717 59.78 21.7742 60.331 21.5071C60.881 21.2308 61.474 21.0931 62.109 21.0931C62.641 21.0931 63.126 21.179 63.565 21.3519C64.003 21.5155 64.349 21.7484 64.601 22.0506C64.862 22.3528 64.993 22.6929 64.993 23.0728C64.993 23.3575 64.913 23.5774 64.755 23.7327C64.596 23.8797 64.386 23.9527 64.125 23.9527C63.873 23.9527 63.663 23.875 63.495 23.7198C63.327 23.5645 63.243 23.3704 63.243 23.1375C63.383 23.0516 63.481 22.9563 63.537 22.8528C63.593 22.7493 63.621 22.6199 63.621 22.4646C63.621 22.1458 63.481 21.887 63.201 21.6883C62.93 21.4812 62.566 21.3777 62.109 21.3777C61.437 21.3777 60.919 21.6023 60.555 22.0506C60.2 22.4905 60.023 23.1116 60.023 23.9139V25.2078C60.023 25.9758 60.195 26.5923 60.541 27.0581C60.895 27.5239 61.418 27.7569 62.109 27.7569C62.743 27.7569 63.294 27.5933 63.761 27.2652C64.237 26.9287 64.531 26.4888 64.643 25.9454H64.965C64.834 26.584 64.507 27.0923 63.985 27.4722C63.471 27.852 62.846 28.0415 62.109 28.0415ZM68.925 28.0415C68.253 28.0415 67.721 27.8862 67.329 27.5757C66.946 27.2652 66.755 26.804 66.755 26.1912V21.5977L65.775 21.4683V21.2095H68.155V26.1653C68.155 26.6052 68.253 26.95 68.449 27.2005C68.645 27.4509 68.948 27.5757 69.359 27.5757C69.788 27.5757 70.199 27.4463 70.591 27.1875C70.992 26.9204 71.347 26.5923 71.655 26.2041V21.5977L70.675 21.4683V21.2095H73.055V27.5239L74.035 27.6533V27.9121H71.655V26.67C71.319 27.1016 70.913 27.438 70.437 27.6792C69.97 27.9204 69.466 28.0415 68.925 28.0415ZM77.659 28.0415C77.043 28.0415 76.548 27.8992 76.175 27.6145C75.811 27.3299 75.629 26.877 75.629 26.2559V21.5977L74.635 21.4683V21.2095H75.629V20.1356L77.029 19.8121V21.2095H78.849V21.4683L77.029 21.5977V26.23C77.029 27.1441 77.383 27.6016 78.093 27.6016C78.242 27.6016 78.382 27.5803 78.513 27.5369C78.653 27.4934 78.76 27.4509 78.835 27.4075C78.919 27.3641 78.97 27.3345 78.989 27.3169L79.171 27.5239C78.751 27.8687 78.247 28.0415 77.659 28.0415ZM82.512 28.0415C81.896 28.0415 81.402 27.8992 81.028 27.6145C80.664 27.3299 80.482 26.877 80.482 26.2559V21.5977L79.488 21.4683V21.2095H80.482V20.1356L81.882 19.8121V21.2095H83.702V21.4683L81.882 21.5977V26.23C81.882 27.1441 82.237 27.6016 82.946 27.6016C83.096 27.6016 83.236 27.5803 83.366 27.5369C83.506 27.4934 83.614 27.4509 83.688 27.4075C83.772 27.3641 83.824 27.3345 83.842 27.3169L84.024 27.5239C83.604 27.8687 83.1 28.0415 82.512 28.0415ZM85.966 19.7086C85.704 19.7086 85.48 19.6263 85.294 19.4627C85.107 19.2899 85.014 19.0828 85.014 18.8416C85.014 18.6004 85.102 18.3971 85.28 18.2335C85.466 18.0699 85.695 17.9876 85.966 17.9876C86.218 17.9876 86.432 18.0699 86.61 18.2335C86.787 18.3971 86.876 18.6004 86.876 18.8416C86.876 19.0828 86.787 19.2899 86.61 19.4627C86.432 19.6263 86.218 19.7086 85.966 19.7086ZM84.482 27.9121V27.6533L85.462 27.5239V21.6107L84.482 21.4812V21.2225H86.862V27.5239L87.842 27.6533V27.9121H84.482ZM88.515 27.6533L89.495 27.5239V21.5977L88.515 21.4683V21.2095H90.895V22.607C91.24 22.1412 91.646 21.7742 92.113 21.5071C92.579 21.2308 93.083 21.0931 93.625 21.0931C94.297 21.0931 94.824 21.2484 95.207 21.5589C95.599 21.8694 95.795 22.3306 95.795 22.9434V27.5239L96.775 27.6533V27.9121H93.555V27.6533L94.395 27.5239V22.9693C94.395 22.521 94.297 22.1754 94.101 21.9341C93.905 21.6837 93.601 21.5589 93.191 21.5589C92.761 21.5589 92.346 21.7058 91.945 21.9988C91.553 22.2835 91.203 22.6375 90.895 23.0599V27.5239L91.735 27.6533V27.9121H88.515V27.6533ZM104.583 20.6014C104.583 20.9378 104.448 21.2271 104.177 21.4683C103.907 21.7096 103.477 21.8648 102.889 21.9341C103.132 22.2623 103.253 22.7105 103.253 23.2798C103.253 23.9527 102.992 24.4832 102.469 24.8714C101.956 25.2596 101.303 25.4536 100.509 25.4536C100.183 25.4536 99.884 25.4278 99.613 25.376C99.016 25.4102 98.717 25.6265 98.717 26.023C98.717 26.2476 98.815 26.4112 99.011 26.5147C99.217 26.6182 99.539 26.67 99.977 26.67H101.545C102.301 26.67 102.861 26.8123 103.225 27.097C103.599 27.3816 103.785 27.8687 103.785 28.5591C103.785 29.0425 103.65 29.4861 103.379 29.8919C103.118 30.2976 102.735 30.6165 102.231 30.8494C101.727 31.0906 101.125 31.2117 100.425 31.2117C99.371 31.2117 98.591 31.0647 98.087 30.7717C97.593 30.4787 97.345 30.0906 97.345 29.6072C97.345 29.3142 97.467 29.0554 97.709 28.8308C97.952 28.6062 98.283 28.4944 98.703 28.4944C98.787 28.4944 98.96 28.512 99.221 28.5462C98.932 28.8308 98.787 29.1673 98.787 29.5555C98.787 29.9261 98.927 30.2495 99.207 30.5259C99.487 30.8022 99.945 30.94 100.579 30.94C101.13 30.94 101.62 30.8411 102.049 30.6424C102.488 30.4529 102.824 30.2024 103.057 29.8919C103.291 29.5813 103.407 29.2624 103.407 28.9343C103.407 28.572 103.281 28.3086 103.029 28.1451C102.777 27.9898 102.329 27.9121 101.685 27.9121H99.977C99.324 27.9121 98.829 27.7957 98.493 27.5628C98.167 27.3216 98.003 26.9676 98.003 26.5017C98.003 26.1912 98.097 25.9195 98.283 25.6866C98.479 25.4453 98.727 25.2901 99.025 25.2208C98.213 24.9019 97.807 24.2549 97.807 23.2798C97.807 22.5987 98.064 22.0635 98.577 21.6754C99.091 21.2872 99.735 21.0931 100.509 21.0931C101.489 21.0931 102.199 21.2825 102.637 21.6624C102.899 21.619 103.095 21.5413 103.225 21.4295C103.356 21.3084 103.421 21.1753 103.421 21.0284C103.421 20.8907 103.379 20.7872 103.295 20.7178C103.211 20.6402 103.113 20.6014 103.001 20.6014C103.001 20.4119 103.076 20.2474 103.225 20.1097C103.384 19.9627 103.571 19.8897 103.785 19.8897C104.019 19.8897 104.21 19.9544 104.359 20.0838C104.509 20.2132 104.583 20.386 104.583 20.6014ZM101.937 22.9563C101.937 22.4305 101.816 22.0247 101.573 21.74C101.34 21.4554 100.985 21.313 100.509 21.313C99.585 21.313 99.123 21.8611 99.123 22.9563V23.5904C99.123 24.0996 99.235 24.5008 99.459 24.7937C99.693 25.0867 100.043 25.2337 100.509 25.2337C100.985 25.2337 101.34 25.0867 101.573 24.7937C101.816 24.5008 101.937 24.0996 101.937 23.5904V22.9563ZM105.426 24.5867V24.1597H108.492V24.5867H105.426ZM113.694 28.0415C113.004 28.0415 112.378 27.8992 111.818 27.6145C111.258 27.3216 110.815 26.9112 110.488 26.3853C110.162 25.8594 109.998 25.2512 109.998 24.5608C109.998 23.8704 110.157 23.2669 110.474 22.7493C110.801 22.2234 111.235 21.8177 111.776 21.533C112.327 21.24 112.938 21.0931 113.61 21.0931C114.198 21.0931 114.726 21.2142 115.192 21.4554C115.659 21.6966 116.023 22.033 116.284 22.4646C116.546 22.887 116.681 23.375 116.69 23.9268H111.538V25.2078C111.538 25.9666 111.72 26.584 112.084 27.0581C112.458 27.5239 112.994 27.7569 113.694 27.7569C114.338 27.7569 114.908 27.5887 115.402 27.2522C115.897 26.9158 116.2 26.4805 116.312 25.9454H116.634C116.504 26.584 116.172 27.0923 115.64 27.4722C115.108 27.852 114.46 28.0415 113.694 28.0415ZM115.15 23.6033C115.15 22.8528 115.024 22.2964 114.772 21.9341C114.52 21.5635 114.128 21.3777 113.596 21.3777C112.971 21.3777 112.486 21.5802 112.14 21.9859C111.795 22.3916 111.599 22.9305 111.552 23.6033H115.15ZM121.192 28.0415C120.529 28.0415 119.946 27.8992 119.442 27.6145C118.938 27.3216 118.546 26.9158 118.266 26.3982C117.986 25.8723 117.846 25.2596 117.846 24.5608C117.846 23.8621 117.986 23.2539 118.266 22.7364C118.546 22.2105 118.938 21.8048 119.442 21.5201C119.946 21.2354 120.529 21.0931 121.192 21.0931C121.733 21.0931 122.205 21.2271 122.606 21.4942C123.007 21.753 123.325 22.1107 123.558 22.5682V17.9488L122.578 17.8194V17.5606H124.958V27.5239L125.938 27.6533V27.9121H123.558V26.5664C123.325 27.0239 123.007 27.3862 122.606 27.6533C122.205 27.9121 121.733 28.0415 121.192 28.0415ZM121.332 27.7181C121.743 27.7181 122.111 27.6099 122.438 27.3946C122.774 27.17 123.04 26.877 123.236 26.5147C123.441 26.1441 123.549 25.7429 123.558 25.3113V23.8233C123.549 23.3917 123.441 22.9952 123.236 22.6329C123.04 22.2622 122.774 21.9683 122.438 21.753C122.111 21.5284 121.743 21.4165 121.332 21.4165C120.035 21.4165 119.386 22.2493 119.386 23.9139V25.2078C119.386 26.8816 120.035 27.7181 121.332 27.7181ZM133.787 20.6014C133.787 20.9378 133.651 21.2271 133.381 21.4683C133.11 21.7096 132.681 21.8648 132.093 21.9341C132.335 22.2623 132.457 22.7105 132.457 23.2798C132.457 23.9527 132.195 24.4832 131.673 24.8714C131.159 25.2596 130.506 25.4536 129.713 25.4536C129.386 25.4536 129.087 25.4278 128.817 25.376C128.219 25.4102 127.921 25.6265 127.921 26.023C127.921 26.2476 128.019 26.4112 128.215 26.5147C128.42 26.6182 128.742 26.67 129.181 26.67H130.749C131.505 26.67 132.065 26.8123 132.429 27.097C132.802 27.3816 132.989 27.8687 132.989 28.5591C132.989 29.0425 132.853 29.4861 132.583 29.8919C132.321 30.2976 131.939 30.6165 131.435 30.8494C130.931 31.0906 130.329 31.2117 129.629 31.2117C128.574 31.2117 127.795 31.0647 127.291 30.7717C126.796 30.4787 126.549 30.0906 126.549 29.6072C126.549 29.3142 126.67 29.0554 126.913 28.8308C127.155 28.6062 127.487 28.4944 127.907 28.4944C127.991 28.4944 128.163 28.512 128.425 28.5462C128.135 28.8308 127.991 29.1673 127.991 29.5555C127.991 29.9261 128.131 30.2495 128.411 30.5259C128.691 30.8022 129.148 30.94 129.783 30.94C130.333 30.94 130.823 30.8411 131.253 30.6424C131.691 30.4529 132.027 30.2024 132.261 29.8919C132.494 29.5813 132.611 29.2624 132.611 28.9343C132.611 28.572 132.485 28.3086 132.233 28.1451C131.981 27.9898 131.533 27.9121 130.889 27.9121H129.181C128.527 27.9121 128.033 27.7957 127.697 27.5628C127.37 27.3216 127.207 26.9676 127.207 26.5017C127.207 26.1912 127.3 25.9195 127.487 25.6866C127.683 25.4453 127.93 25.2901 128.229 25.2208C127.417 24.9019 127.011 24.2549 127.011 23.2798C127.011 22.5987 127.267 22.0635 127.781 21.6754C128.294 21.2872 128.938 21.0931 129.713 21.0931C130.693 21.0931 131.402 21.2825 131.841 21.6624C132.102 21.619 132.298 21.5413 132.429 21.4295C132.559 21.3084 132.625 21.1753 132.625 21.0284C132.625 20.8907 132.583 20.7872 132.499 20.7178C132.415 20.6402 132.317 20.6014 132.205 20.6014C132.205 20.4119 132.279 20.2474 132.429 20.1097C132.587 19.9627 132.774 19.8897 132.989 19.8897C133.222 19.8897 133.413 19.9544 133.563 20.0838C133.712 20.2132 133.787 20.386 133.787 20.6014ZM131.141 22.9563C131.141 22.4305 131.019 22.0247 130.777 21.74C130.543 21.4554 130.189 21.313 129.713 21.313C128.789 21.313 128.327 21.8611 128.327 22.9563V23.5904C128.327 24.0996 128.439 24.5008 128.663 24.7937C128.896 25.0867 129.246 25.2337 129.713 25.2337C130.189 25.2337 130.543 25.0867 130.777 24.7937C131.019 24.5008 131.141 24.0996 131.141 23.5904V22.9563ZM137.88 28.0415C137.189 28.0415 136.564 27.8992 136.004 27.6145C135.444 27.3216 135.001 26.9112 134.674 26.3853C134.347 25.8594 134.184 25.2512 134.184 24.5608C134.184 23.8704 134.343 23.2669 134.66 22.7493C134.987 22.2234 135.421 21.8177 135.962 21.533C136.513 21.24 137.124 21.0931 137.796 21.0931C138.384 21.0931 138.911 21.2142 139.378 21.4554C139.845 21.6966 140.209 22.033 140.47 22.4646C140.731 22.887 140.867 23.375 140.876 23.9268H135.724V25.2078C135.724 25.9666 135.906 26.584 136.27 27.0581C136.643 27.5239 137.18 27.7569 137.88 27.7569C138.524 27.7569 139.093 27.5887 139.588 27.2522C140.083 26.9158 140.386 26.4805 140.498 25.9454H140.82C140.689 26.584 140.358 27.0923 139.826 27.4722C139.294 27.852 138.645 28.0415 137.88 28.0415ZM139.336 23.6033C139.336 22.8528 139.21 22.2964 138.958 21.9341C138.706 21.5635 138.314 21.3777 137.782 21.3777C137.157 21.3777 136.671 21.5802 136.326 21.9859C135.981 22.3916 135.785 22.9305 135.738 23.6033H139.336ZM148.139 28.0415C147.374 28.0415 146.735 27.8909 146.221 27.5886C145.708 27.2864 145.451 26.8945 145.451 26.4112C145.451 26.1607 145.521 25.9666 145.661 25.8289C145.811 25.6819 146.007 25.6089 146.249 25.6089C146.436 25.6089 146.595 25.6524 146.725 25.7383C146.856 25.8243 146.949 25.9454 147.005 26.1006C146.8 26.3077 146.697 26.5276 146.697 26.7605C146.697 27.0276 146.828 27.2606 147.089 27.4593C147.351 27.658 147.701 27.7569 148.139 27.7569C148.727 27.7569 149.208 27.6358 149.581 27.3946C149.955 27.1441 150.141 26.8123 150.141 26.3982C150.141 26.157 150.062 25.9758 149.903 25.8548C149.745 25.7337 149.437 25.596 148.979 25.4407L146.865 24.729C146.035 24.4527 145.619 23.9398 145.619 23.1893C145.619 22.5765 145.848 22.0765 146.305 21.6883C146.763 21.2918 147.393 21.0931 148.195 21.0931C148.858 21.0931 149.423 21.2354 149.889 21.5201C150.365 21.7964 150.603 22.1929 150.603 22.7105C150.603 22.9175 150.543 23.0857 150.421 23.2151C150.3 23.3362 150.141 23.3963 149.945 23.3963C149.749 23.3963 149.586 23.3491 149.455 23.2539C149.334 23.1504 149.273 23.0127 149.273 22.8399C149.395 22.7539 149.479 22.6633 149.525 22.5682C149.572 22.4646 149.595 22.3436 149.595 22.2059C149.595 21.9646 149.479 21.7659 149.245 21.6107C149.021 21.4554 148.671 21.3777 148.195 21.3777C147.785 21.3777 147.43 21.4378 147.131 21.5589C146.842 21.6707 146.623 21.8223 146.473 22.0118C146.324 22.2012 146.249 22.3953 146.249 22.594C146.249 22.8011 146.329 22.9647 146.487 23.0858C146.655 23.2068 146.959 23.3399 147.397 23.4869L149.357 24.1338C149.815 24.2891 150.16 24.5044 150.393 24.7808C150.627 25.0571 150.743 25.4148 150.743 25.8548C150.743 26.4842 150.529 27.0064 150.099 27.4204C149.67 27.8345 149.017 28.0415 148.139 28.0415ZM155.665 28.0415C154.993 28.0415 154.382 27.8992 153.831 27.6145C153.281 27.3216 152.842 26.9112 152.515 26.3853C152.198 25.8501 152.039 25.242 152.039 24.5608C152.039 23.8797 152.198 23.2752 152.515 22.7493C152.842 22.2234 153.281 21.8177 153.831 21.533C154.382 21.24 154.993 21.0931 155.665 21.0931C156.337 21.0931 156.949 21.24 157.499 21.533C158.05 21.8177 158.484 22.2234 158.801 22.7493C159.128 23.2752 159.291 23.8797 159.291 24.5608C159.291 25.242 159.128 25.8501 158.801 26.3853C158.484 26.9112 158.05 27.3216 157.499 27.6145C156.949 27.8992 156.337 28.0415 155.665 28.0415ZM155.665 27.7569C156.356 27.7569 156.874 27.5239 157.219 27.0581C157.574 26.5923 157.751 25.9758 157.751 25.2078V23.9139C157.751 23.1458 157.574 22.534 157.219 22.0765C156.874 21.6107 156.356 21.3777 155.665 21.3777C154.975 21.3777 154.452 21.6107 154.097 22.0765C153.752 22.534 153.579 23.1458 153.579 23.9139V25.2078C153.579 25.9758 153.752 26.5923 154.097 27.0581C154.452 27.5239 154.975 27.7569 155.665 27.7569ZM160.167 27.9121V27.6533L161.217 27.5239V17.9488L160.167 17.8194V17.5606H162.617V27.5239L163.597 27.6533V27.9121H160.167ZM167.281 28.0415C166.609 28.0415 166.077 27.8862 165.685 27.5757C165.302 27.2652 165.111 26.804 165.111 26.1912V21.5977L164.131 21.4683V21.2095H166.511V26.1653C166.511 26.6052 166.609 26.95 166.805 27.2005C167.001 27.4509 167.304 27.5757 167.715 27.5757C168.144 27.5757 168.555 27.4463 168.947 27.1875C169.348 26.9204 169.703 26.5923 170.011 26.2041V21.5977L169.031 21.4683V21.2095H171.411V27.5239L172.391 27.6533V27.9121H170.011V26.67C169.675 27.1016 169.269 27.438 168.793 27.6792C168.326 27.9204 167.822 28.0415 167.281 28.0415ZM176.014 28.0415C175.398 28.0415 174.904 27.8992 174.53 27.6145C174.166 27.3299 173.984 26.877 173.984 26.2559V21.5977L172.99 21.4683V21.2095H173.984V20.1356L175.384 19.8121V21.2095H177.204V21.4683L175.384 21.5977V26.23C175.384 27.1441 175.739 27.6016 176.448 27.6016C176.598 27.6016 176.738 27.5803 176.868 27.5369C177.008 27.4934 177.116 27.4509 177.19 27.4075C177.274 27.3641 177.326 27.3345 177.344 27.3169L177.526 27.5239C177.106 27.8687 176.602 28.0415 176.014 28.0415ZM179.468 19.7086C179.206 19.7086 178.982 19.6263 178.796 19.4627C178.609 19.2899 178.516 19.0828 178.516 18.8416C178.516 18.6004 178.604 18.3971 178.782 18.2335C178.968 18.0699 179.197 17.9876 179.468 17.9876C179.72 17.9876 179.934 18.0699 180.112 18.2335C180.289 18.3971 180.378 18.6004 180.378 18.8416C180.378 19.0828 180.289 19.2899 180.112 19.4627C179.934 19.6263 179.72 19.7086 179.468 19.7086ZM177.984 27.9121V27.6533L178.964 27.5239V21.6107L177.984 21.4812V21.2225H180.364V27.5239L181.344 27.6533V27.9121H177.984ZM185.867 28.0415C185.195 28.0415 184.583 27.8992 184.033 27.6145C183.482 27.3216 183.043 26.9112 182.717 26.3853C182.399 25.8501 182.241 25.242 182.241 24.5608C182.241 23.8797 182.399 23.2752 182.717 22.7493C183.043 22.2234 183.482 21.8177 184.033 21.533C184.583 21.24 185.195 21.0931 185.867 21.0931C186.539 21.0931 187.15 21.24 187.701 21.533C188.251 21.8177 188.685 22.2234 189.003 22.7493C189.329 23.2752 189.493 23.8797 189.493 24.5608C189.493 25.242 189.329 25.8501 189.003 26.3853C188.685 26.9112 188.251 27.3216 187.701 27.6145C187.15 27.8992 186.539 28.0415 185.867 28.0415ZM185.867 27.7569C186.557 27.7569 187.075 27.5239 187.421 27.0581C187.775 26.5923 187.953 25.9758 187.953 25.2078V23.9139C187.953 23.1458 187.775 22.534 187.421 22.0765C187.075 21.6107 186.557 21.3777 185.867 21.3777C185.176 21.3777 184.653 21.6107 184.299 22.0765C183.953 22.534 183.781 23.1458 183.781 23.9139V25.2078C183.781 25.9758 183.953 26.5923 184.299 27.0581C184.653 27.5239 185.176 27.7569 185.867 27.7569ZM190.466 27.6533L191.446 27.5239V21.5977L190.466 21.4683V21.2095H192.846V22.607C193.191 22.1412 193.597 21.7742 194.064 21.5071C194.531 21.2308 195.035 21.0931 195.576 21.0931C196.248 21.0931 196.775 21.2484 197.158 21.5589C197.55 21.8694 197.746 22.3306 197.746 22.9434V27.5239L198.726 27.6533V27.9121H195.506V27.6533L196.346 27.5239V22.9693C196.346 22.521 196.248 22.1754 196.052 21.9341C195.856 21.6837 195.553 21.5589 195.142 21.5589C194.713 21.5589 194.297 21.7058 193.896 21.9988C193.504 22.2835 193.154 22.6375 192.846 23.0599V27.5239L193.686 27.6533V27.9121H190.466V27.6533ZM202.335 28.0415C201.569 28.0415 200.93 27.8909 200.417 27.5886C199.903 27.2864 199.647 26.8945 199.647 26.4112C199.647 26.1607 199.717 25.9666 199.857 25.8289C200.006 25.6819 200.202 25.6089 200.445 25.6089C200.631 25.6089 200.79 25.6524 200.921 25.7383C201.051 25.8243 201.145 25.9454 201.201 26.1006C200.995 26.3077 200.893 26.5276 200.893 26.7605C200.893 27.0276 201.023 27.2606 201.285 27.4593C201.546 27.658 201.896 27.7569 202.335 27.7569C202.923 27.7569 203.403 27.6358 203.777 27.3946C204.15 27.1441 204.337 26.8123 204.337 26.3982C204.337 26.157 204.257 25.9758 204.099 25.8548C203.94 25.7337 203.632 25.596 203.175 25.4407L201.061 24.729C200.23 24.4527 199.815 23.9398 199.815 23.1893C199.815 22.5765 200.043 22.0765 200.501 21.6883C200.958 21.2918 201.588 21.0931 202.391 21.0931C203.053 21.0931 203.618 21.2354 204.085 21.5201C204.561 21.7964 204.799 22.1929 204.799 22.7105C204.799 22.9175 204.738 23.0857 204.617 23.2151C204.495 23.3362 204.337 23.3963 204.141 23.3963C203.945 23.3963 203.781 23.3491 203.651 23.2539C203.529 23.1504 203.469 23.0127 203.469 22.8399C203.59 22.7539 203.674 22.6633 203.721 22.5682C203.767 22.4646 203.791 22.3436 203.791 22.2059C203.791 21.9646 203.674 21.7659 203.441 21.6107C203.217 21.4554 202.867 21.3777 202.391 21.3777C201.98 21.3777 201.625 21.4378 201.327 21.5589C201.037 21.6707 200.818 21.8223 200.669 22.0118C200.519 22.2012 200.445 22.3953 200.445 22.594C200.445 22.8011 200.524 22.9647 200.683 23.0858C200.851 23.2068 201.154 23.3399 201.593 23.4869L203.553 24.1338C204.01 24.2891 204.355 24.5044 204.589 24.7808C204.822 25.0571 204.939 25.4148 204.939 25.8548C204.939 26.4842 204.724 27.0064 204.295 27.4204C203.865 27.8345 203.212 28.0415 202.335 28.0415ZM3.02399 45.6021C2.40799 45.6021 1.91298 45.4598 1.53998 45.1751C1.17598 44.8905 0.993958 44.4376 0.993958 43.8165V39.1583L0 39.0289V38.7701H0.993958V37.6962L2.39398 37.3727V38.7701H4.21399V39.0289L2.39398 39.1583V43.7906C2.39398 44.7047 2.74901 45.1622 3.45801 45.1622C3.60701 45.1622 3.74699 45.1409 3.87799 45.0975C4.01799 45.0541 4.12501 45.0116 4.20001 44.9681C4.28401 44.9247 4.335 44.8951 4.354 44.8775L4.53601 45.0845C4.11601 45.4293 3.61199 45.6021 3.02399 45.6021ZM4.896 45.214L5.87598 45.0845V35.5094L4.896 35.38V35.1212H7.276V40.1676C7.621 39.7018 8.02696 39.3349 8.49396 39.0677C8.95996 38.7914 9.46398 38.6537 10.006 38.6537C10.678 38.6537 11.205 38.809 11.588 39.1195C11.98 39.43 12.176 39.8912 12.176 40.504V45.0845L13.156 45.214V45.4727H9.93597V45.214L10.776 45.0845V40.5299C10.776 40.0816 10.678 39.736 10.482 39.4948C10.286 39.2443 9.98196 39.1195 9.57196 39.1195C9.14196 39.1195 8.72699 39.2664 8.32599 39.5594C7.93399 39.8441 7.584 40.1981 7.276 40.6205V45.0845L8.11597 45.214V45.4727H4.896V45.214ZM13.784 45.214L14.764 45.0845V39.1583L13.784 39.0289V38.7701H16.164V39.7665C16.752 39.0243 17.415 38.6537 18.152 38.6537C18.507 38.6537 18.82 38.7396 19.09 38.9125C19.361 39.0761 19.496 39.3136 19.496 39.6241C19.496 39.8487 19.417 40.0382 19.258 40.1935C19.1 40.3404 18.89 40.4134 18.628 40.4134C18.33 40.4134 18.087 40.3053 17.9 40.0899C18.003 39.9689 18.054 39.8395 18.054 39.7018C18.054 39.5548 17.998 39.4384 17.886 39.3524C17.784 39.2572 17.644 39.2101 17.466 39.2101C17.27 39.2101 17.07 39.296 16.864 39.4689C16.659 39.6325 16.426 39.8912 16.164 40.2452V45.0845L17.284 45.214V45.4727H13.784V45.214ZM23.691 45.6021C23.019 45.6021 22.408 45.4598 21.857 45.1751C21.306 44.8822 20.868 44.4718 20.541 43.9459C20.224 43.4107 20.065 42.8026 20.065 42.1214C20.065 41.4403 20.224 40.8358 20.541 40.3099C20.868 39.784 21.306 39.3783 21.857 39.0936C22.408 38.8006 23.019 38.6537 23.691 38.6537C24.363 38.6537 24.974 38.8006 25.525 39.0936C26.076 39.3783 26.51 39.784 26.827 40.3099C27.154 40.8358 27.317 41.4403 27.317 42.1214C27.317 42.8026 27.154 43.4107 26.827 43.9459C26.51 44.4718 26.076 44.8822 25.525 45.1751C24.974 45.4598 24.363 45.6021 23.691 45.6021ZM23.691 45.3175C24.382 45.3175 24.9 45.0845 25.245 44.6187C25.6 44.1529 25.777 43.5365 25.777 42.7684V41.4745C25.777 40.7064 25.6 40.0946 25.245 39.6371C24.9 39.1713 24.382 38.9383 23.691 38.9383C23 38.9383 22.478 39.1713 22.123 39.6371C21.778 40.0946 21.605 40.7064 21.605 41.4745V42.7684C21.605 43.5365 21.778 44.1529 22.123 44.6187C22.478 45.0845 23 45.3175 23.691 45.3175ZM31.3 45.6021C30.628 45.6021 30.096 45.4468 29.704 45.1363C29.321 44.8258 29.13 44.3646 29.13 43.7518V39.1583L28.15 39.0289V38.7701H30.53V43.7259C30.53 44.1658 30.628 44.5106 30.824 44.7611C31.02 45.0116 31.323 45.1363 31.734 45.1363C32.163 45.1363 32.574 45.0069 32.966 44.7481C33.367 44.481 33.722 44.1529 34.03 43.7647V39.1583L33.05 39.0289V38.7701H35.43V45.0845L36.41 45.214V45.4727H34.03V44.2306C33.694 44.6622 33.288 44.9986 32.812 45.2398C32.345 45.481 31.841 45.6021 31.3 45.6021ZM44.318 38.162C44.318 38.4984 44.182 38.7877 43.912 39.0289C43.641 39.2702 43.212 39.4254 42.624 39.4948C42.866 39.8229 42.988 40.2711 42.988 40.8404C42.988 41.5133 42.726 42.0438 42.204 42.432C41.69 42.8202 41.037 43.0143 40.244 43.0143C39.917 43.0143 39.618 42.9884 39.348 42.9366C38.75 42.9708 38.452 43.1871 38.452 43.5836C38.452 43.8082 38.55 43.9718 38.746 44.0753C38.951 44.1788 39.273 44.2306 39.712 44.2306H41.28C42.036 44.2306 42.596 44.3729 42.96 44.6576C43.333 44.9422 43.52 45.4293 43.52 46.1197C43.52 46.6031 43.384 47.0467 43.114 47.4525C42.852 47.8582 42.47 48.1771 41.966 48.41C41.462 48.6512 40.86 48.7723 40.16 48.7723C39.105 48.7723 38.326 48.6253 37.822 48.3323C37.327 48.0394 37.08 47.6512 37.08 47.1678C37.08 46.8748 37.201 46.616 37.444 46.3914C37.686 46.1668 38.018 46.055 38.438 46.055C38.522 46.055 38.694 46.0726 38.956 46.1068C38.666 46.3914 38.522 46.7279 38.522 47.1161C38.522 47.4867 38.662 47.8102 38.942 48.0865C39.222 48.3628 39.679 48.5006 40.314 48.5006C40.864 48.5006 41.354 48.4017 41.784 48.203C42.222 48.0135 42.558 47.763 42.792 47.4525C43.025 47.1419 43.142 46.823 43.142 46.4949C43.142 46.1326 43.016 45.8693 42.764 45.7057C42.512 45.5504 42.064 45.4727 41.42 45.4727H39.712C39.058 45.4727 38.564 45.3563 38.228 45.1234C37.901 44.8822 37.738 44.5282 37.738 44.0623C37.738 43.7518 37.831 43.4801 38.018 43.2472C38.214 43.0059 38.461 42.8507 38.76 42.7814C37.948 42.4625 37.542 41.8155 37.542 40.8404C37.542 40.1593 37.798 39.6241 38.312 39.236C38.825 38.8478 39.469 38.6537 40.244 38.6537C41.224 38.6537 41.933 38.8432 42.372 39.223C42.633 39.1796 42.829 39.1019 42.96 38.9901C43.09 38.869 43.156 38.7359 43.156 38.589C43.156 38.4513 43.114 38.3478 43.03 38.2784C42.946 38.2008 42.848 38.162 42.736 38.162C42.736 37.9725 42.81 37.808 42.96 37.6703C43.118 37.5233 43.305 37.4503 43.52 37.4503C43.753 37.4503 43.944 37.515 44.094 37.6444C44.243 37.7738 44.318 37.9466 44.318 38.162ZM41.672 40.517C41.672 39.9911 41.55 39.5853 41.308 39.3006C41.074 39.016 40.72 38.8736 40.244 38.8736C39.32 38.8736 38.858 39.4217 38.858 40.517V41.151C38.858 41.6602 38.97 42.0614 39.194 42.3544C39.427 42.6473 39.777 42.7943 40.244 42.7943C40.72 42.7943 41.074 42.6473 41.308 42.3544C41.55 42.0614 41.672 41.6602 41.672 41.151V40.517ZM44.544 45.214L45.524 45.0845V35.5094L44.544 35.38V35.1212H46.924V40.1676C47.269 39.7018 47.675 39.3349 48.142 39.0677C48.609 38.7914 49.113 38.6537 49.654 38.6537C50.326 38.6537 50.853 38.809 51.236 39.1195C51.628 39.43 51.824 39.8912 51.824 40.504V45.0845L52.804 45.214V45.4727H49.584V45.214L50.424 45.0845V40.5299C50.424 40.0816 50.326 39.736 50.13 39.4948C49.934 39.2443 49.631 39.1195 49.22 39.1195C48.791 39.1195 48.375 39.2664 47.974 39.5594C47.582 39.8441 47.232 40.1981 46.924 40.6205V45.0845L47.764 45.214V45.4727H44.544V45.214ZM59.68 45.6021C59.064 45.6021 58.57 45.4598 58.196 45.1751C57.832 44.8905 57.65 44.4376 57.65 43.8165V39.1583L56.656 39.0289V38.7701H57.65V37.6962L59.05 37.3727V38.7701H60.87V39.0289L59.05 39.1583V43.7906C59.05 44.7047 59.405 45.1622 60.114 45.1622C60.264 45.1622 60.404 45.1409 60.534 45.0975C60.674 45.0541 60.782 45.0116 60.856 44.9681C60.94 44.9247 60.992 44.8951 61.01 44.8775L61.192 45.0845C60.772 45.4293 60.268 45.6021 59.68 45.6021ZM65.132 45.6021C64.441 45.6021 63.816 45.4598 63.256 45.1751C62.696 44.8822 62.253 44.4718 61.926 43.9459C61.599 43.42 61.436 42.8118 61.436 42.1214C61.436 41.431 61.595 40.8275 61.912 40.3099C62.239 39.784 62.673 39.3783 63.214 39.0936C63.765 38.8006 64.376 38.6537 65.048 38.6537C65.636 38.6537 66.163 38.7748 66.63 39.016C67.097 39.2572 67.461 39.5936 67.722 40.0252C67.983 40.4476 68.119 40.9356 68.128 41.4874H62.976V42.7684C62.976 43.5272 63.158 44.1446 63.522 44.6187C63.895 45.0845 64.432 45.3175 65.132 45.3175C65.776 45.3175 66.345 45.1493 66.84 44.8128C67.335 44.4764 67.638 44.0411 67.75 43.506H68.072C67.941 44.1446 67.61 44.6529 67.078 45.0328C66.546 45.4127 65.897 45.6021 65.132 45.6021ZM66.588 41.1639C66.588 40.4134 66.462 39.8571 66.21 39.4948C65.958 39.1241 65.566 38.9383 65.034 38.9383C64.409 38.9383 63.923 39.1408 63.578 39.5465C63.233 39.9523 63.037 40.4911 62.99 41.1639H66.588ZM72.91 45.6021C72.238 45.6021 71.626 45.4598 71.076 45.1751C70.525 44.8822 70.086 44.4718 69.76 43.9459C69.442 43.4107 69.284 42.8026 69.284 42.1214C69.284 41.4051 69.452 40.7841 69.788 40.2582C70.133 39.7323 70.581 39.3349 71.132 39.0677C71.682 38.7914 72.275 38.6537 72.91 38.6537C73.442 38.6537 73.927 38.7396 74.366 38.9125C74.804 39.0761 75.15 39.309 75.402 39.6112C75.663 39.9134 75.794 40.2535 75.794 40.6334C75.794 40.9181 75.714 41.138 75.556 41.2933C75.397 41.4403 75.187 41.5133 74.926 41.5133C74.674 41.5133 74.464 41.4356 74.296 41.2804C74.128 41.1251 74.044 40.931 74.044 40.6981C74.184 40.6122 74.282 40.517 74.338 40.4134C74.394 40.3099 74.422 40.1805 74.422 40.0252C74.422 39.7064 74.282 39.4476 74.002 39.2489C73.731 39.0419 73.367 38.9383 72.91 38.9383C72.238 38.9383 71.72 39.1629 71.356 39.6112C71.001 40.0511 70.824 40.6722 70.824 41.4745V42.7684C70.824 43.5365 70.996 44.1529 71.342 44.6187C71.696 45.0845 72.219 45.3175 72.91 45.3175C73.544 45.3175 74.095 45.1539 74.562 44.8258C75.038 44.4893 75.332 44.0494 75.444 43.506H75.766C75.635 44.1446 75.308 44.6529 74.786 45.0328C74.272 45.4127 73.647 45.6021 72.91 45.6021ZM76.632 45.214L77.612 45.0845V35.5094L76.632 35.38V35.1212H79.012V40.1676C79.357 39.7018 79.763 39.3349 80.23 39.0677C80.697 38.7914 81.201 38.6537 81.742 38.6537C82.414 38.6537 82.941 38.809 83.324 39.1195C83.716 39.43 83.912 39.8912 83.912 40.504V45.0845L84.892 45.214V45.4727H81.672V45.214L82.512 45.0845V40.5299C82.512 40.0816 82.414 39.736 82.218 39.4948C82.022 39.2443 81.719 39.1195 81.308 39.1195C80.879 39.1195 80.463 39.2664 80.062 39.5594C79.67 39.8441 79.32 40.1981 79.012 40.6205V45.0845L79.852 45.214V45.4727H76.632V45.214ZM85.521 45.214L86.501 45.0845V39.1583L85.521 39.0289V38.7701H87.901V40.1676C88.246 39.7018 88.652 39.3349 89.119 39.0677C89.585 38.7914 90.089 38.6537 90.631 38.6537C91.303 38.6537 91.83 38.809 92.213 39.1195C92.605 39.43 92.801 39.8912 92.801 40.504V45.0845L93.781 45.214V45.4727H90.561V45.214L91.401 45.0845V40.5299C91.401 40.0816 91.303 39.736 91.107 39.4948C90.911 39.2443 90.607 39.1195 90.197 39.1195C89.767 39.1195 89.352 39.2664 88.951 39.5594C88.559 39.8441 88.209 40.1981 87.901 40.6205V45.0845L88.741 45.214V45.4727H85.521V45.214ZM98.257 45.6021C97.585 45.6021 96.974 45.4598 96.423 45.1751C95.873 44.8822 95.434 44.4718 95.107 43.9459C94.79 43.4107 94.631 42.8026 94.631 42.1214C94.631 41.4403 94.79 40.8358 95.107 40.3099C95.434 39.784 95.873 39.3783 96.423 39.0936C96.974 38.8006 97.585 38.6537 98.257 38.6537C98.929 38.6537 99.541 38.8006 100.091 39.0936C100.642 39.3783 101.076 39.784 101.393 40.3099C101.72 40.8358 101.883 41.4403 101.883 42.1214C101.883 42.8026 101.72 43.4107 101.393 43.9459C101.076 44.4718 100.642 44.8822 100.091 45.1751C99.541 45.4598 98.929 45.6021 98.257 45.6021ZM98.257 45.3175C98.948 45.3175 99.466 45.0845 99.811 44.6187C100.166 44.1529 100.343 43.5365 100.343 42.7684V41.4745C100.343 40.7064 100.166 40.0946 99.811 39.6371C99.466 39.1713 98.948 38.9383 98.257 38.9383C97.567 38.9383 97.044 39.1713 96.689 39.6371C96.344 40.0946 96.171 40.7064 96.171 41.4745V42.7684C96.171 43.5365 96.344 44.1529 96.689 44.6187C97.044 45.0845 97.567 45.3175 98.257 45.3175ZM102.758 45.4727V45.214L103.808 45.0845V35.5094L102.758 35.38V35.1212H105.208V45.0845L106.188 45.214V45.4727H102.758ZM110.712 45.6021C110.04 45.6021 109.429 45.4598 108.878 45.1751C108.328 44.8822 107.889 44.4718 107.562 43.9459C107.245 43.4107 107.086 42.8026 107.086 42.1214C107.086 41.4403 107.245 40.8358 107.562 40.3099C107.889 39.784 108.328 39.3783 108.878 39.0936C109.429 38.8006 110.04 38.6537 110.712 38.6537C111.384 38.6537 111.996 38.8006 112.546 39.0936C113.097 39.3783 113.531 39.784 113.848 40.3099C114.175 40.8358 114.338 41.4403 114.338 42.1214C114.338 42.8026 114.175 43.4107 113.848 43.9459C113.531 44.4718 113.097 44.8822 112.546 45.1751C111.996 45.4598 111.384 45.6021 110.712 45.6021ZM110.712 45.3175C111.403 45.3175 111.921 45.0845 112.266 44.6187C112.621 44.1529 112.798 43.5365 112.798 42.7684V41.4745C112.798 40.7064 112.621 40.0946 112.266 39.6371C111.921 39.1713 111.403 38.9383 110.712 38.9383C110.022 38.9383 109.499 39.1713 109.144 39.6371C108.799 40.0946 108.626 40.7064 108.626 41.4745V42.7684C108.626 43.5365 108.799 44.1529 109.144 44.6187C109.499 45.0845 110.022 45.3175 110.712 45.3175ZM122.494 38.162C122.494 38.4984 122.358 38.7877 122.088 39.0289C121.817 39.2702 121.388 39.4254 120.8 39.4948C121.042 39.8229 121.164 40.2711 121.164 40.8404C121.164 41.5133 120.902 42.0438 120.38 42.432C119.866 42.8202 119.213 43.0143 118.42 43.0143C118.093 43.0143 117.794 42.9884 117.524 42.9366C116.926 42.9708 116.628 43.1871 116.628 43.5836C116.628 43.8082 116.726 43.9718 116.922 44.0753C117.127 44.1788 117.449 44.2306 117.888 44.2306H119.456C120.212 44.2306 120.772 44.3729 121.136 44.6576C121.509 44.9422 121.696 45.4293 121.696 46.1197C121.696 46.6031 121.56 47.0467 121.29 47.4525C121.028 47.8582 120.646 48.1771 120.142 48.41C119.638 48.6512 119.036 48.7723 118.336 48.7723C117.281 48.7723 116.502 48.6253 115.998 48.3323C115.503 48.0394 115.256 47.6512 115.256 47.1678C115.256 46.8748 115.377 46.616 115.62 46.3914C115.862 46.1668 116.194 46.055 116.614 46.055C116.698 46.055 116.87 46.0726 117.132 46.1068C116.842 46.3914 116.698 46.7279 116.698 47.1161C116.698 47.4867 116.838 47.8102 117.118 48.0865C117.398 48.3628 117.855 48.5006 118.49 48.5006C119.04 48.5006 119.53 48.4017 119.96 48.203C120.398 48.0135 120.734 47.763 120.968 47.4525C121.201 47.1419 121.318 46.823 121.318 46.4949C121.318 46.1326 121.192 45.8693 120.94 45.7057C120.688 45.5504 120.24 45.4727 119.596 45.4727H117.888C117.234 45.4727 116.74 45.3563 116.404 45.1234C116.077 44.8822 115.914 44.5282 115.914 44.0623C115.914 43.7518 116.007 43.4801 116.194 43.2472C116.39 43.0059 116.637 42.8507 116.936 42.7814C116.124 42.4625 115.718 41.8155 115.718 40.8404C115.718 40.1593 115.974 39.6241 116.488 39.236C117.001 38.8478 117.645 38.6537 118.42 38.6537C119.4 38.6537 120.109 38.8432 120.548 39.223C120.809 39.1796 121.005 39.1019 121.136 38.9901C121.266 38.869 121.332 38.7359 121.332 38.589C121.332 38.4513 121.29 38.3478 121.206 38.2784C121.122 38.2008 121.024 38.162 120.912 38.162C120.912 37.9725 120.986 37.808 121.136 37.6703C121.294 37.5233 121.481 37.4503 121.696 37.4503C121.929 37.4503 122.12 37.515 122.27 37.6444C122.419 37.7738 122.494 37.9466 122.494 38.162ZM119.848 40.517C119.848 39.9911 119.726 39.5853 119.484 39.3006C119.25 39.016 118.896 38.8736 118.42 38.8736C117.496 38.8736 117.034 39.4217 117.034 40.517V41.151C117.034 41.6602 117.146 42.0614 117.37 42.3544C117.603 42.6473 117.953 42.7943 118.42 42.7943C118.896 42.7943 119.25 42.6473 119.484 42.3544C119.726 42.0614 119.848 41.6602 119.848 41.151V40.517ZM124.078 49.2511C123.592 49.2511 123.2 49.1392 122.902 48.9146C122.603 48.69 122.454 48.3887 122.454 48.0089C122.454 47.7501 122.533 47.5384 122.692 47.3748C122.86 47.2196 123.065 47.1419 123.308 47.1419C123.485 47.1419 123.644 47.1761 123.784 47.2454C123.924 47.3148 124.036 47.4183 124.12 47.556C123.98 47.7371 123.91 47.9266 123.91 48.1253C123.91 48.2981 123.97 48.4405 124.092 48.5523C124.213 48.6642 124.367 48.7205 124.554 48.7205C124.778 48.7205 124.969 48.6512 125.128 48.5135C125.296 48.3758 125.445 48.1336 125.576 47.7889L126.416 45.5633L123.168 39.1713L122.23 39.0419V38.7831H125.716V39.0419L124.736 39.1971L127.074 43.8165L128.74 39.3653L127.536 39.0419V38.7831H130.056V39.0419L129.104 39.3653L125.968 47.7889C125.772 48.2982 125.534 48.6688 125.254 48.9017C124.983 49.1346 124.591 49.2511 124.078 49.2511ZM135.956 45.6021C135.358 45.6021 134.868 45.4598 134.486 45.1751C134.103 44.8822 133.912 44.4505 133.912 43.8812C133.912 43.0706 134.28 42.4967 135.018 42.1602C135.755 41.8155 136.609 41.6427 137.58 41.6427H138.518V40.6464C138.518 40.1981 138.462 39.8524 138.35 39.6112C138.247 39.3607 138.084 39.1888 137.86 39.0936C137.636 38.9901 137.332 38.9383 136.95 38.9383C136.511 38.9383 136.184 39.0206 135.97 39.1842C135.755 39.3395 135.648 39.5511 135.648 39.8182C135.648 40.0687 135.778 40.2323 136.04 40.3099C136.04 40.5253 135.951 40.7157 135.774 40.8793C135.596 41.0428 135.386 41.1251 135.144 41.1251C134.882 41.1251 134.672 41.0604 134.514 40.931C134.355 40.7933 134.276 40.5863 134.276 40.3099C134.276 39.8099 134.546 39.4088 135.088 39.1066C135.629 38.8043 136.306 38.6537 137.118 38.6537C138.984 38.6537 139.918 39.4042 139.918 40.9051V44.6058C139.918 44.7953 139.96 44.9422 140.044 45.0457C140.137 45.1409 140.268 45.1881 140.436 45.1881C140.594 45.1881 140.72 45.1409 140.814 45.0457C140.907 44.9422 140.954 44.8045 140.954 44.6317H141.248C141.248 44.9339 141.14 45.1705 140.926 45.3433C140.72 45.5162 140.431 45.6021 140.058 45.6021C139.628 45.6021 139.264 45.4903 138.966 45.2657C138.676 45.0328 138.527 44.6751 138.518 44.1918C138.294 44.6317 137.948 44.9764 137.482 45.2269C137.024 45.4774 136.516 45.6021 135.956 45.6021ZM136.726 45.0328C136.978 45.0328 137.234 44.9635 137.496 44.8258C137.766 44.688 137.995 44.4893 138.182 44.2306C138.368 43.9635 138.48 43.6437 138.518 43.273V41.9273H137.58C136.814 41.9273 136.24 42.0872 135.858 42.4061C135.484 42.7167 135.298 43.1566 135.298 43.7259C135.298 44.2 135.419 44.5365 135.662 44.7352C135.904 44.9339 136.259 45.0328 136.726 45.0328ZM141.589 45.214L142.569 45.0845V39.1583L141.589 39.0289V38.7701H143.969V40.1676C144.314 39.7018 144.72 39.3349 145.187 39.0677C145.654 38.7914 146.158 38.6537 146.699 38.6537C147.371 38.6537 147.898 38.809 148.281 39.1195C148.673 39.43 148.869 39.8912 148.869 40.504V45.0845L149.849 45.214V45.4727H146.629V45.214L147.469 45.0845V40.5299C147.469 40.0816 147.371 39.736 147.175 39.4948C146.979 39.2443 146.676 39.1195 146.265 39.1195C145.836 39.1195 145.42 39.2664 145.019 39.5594C144.627 39.8441 144.277 40.1981 143.969 40.6205V45.0845L144.809 45.214V45.4727H141.589V45.214ZM154.046 45.6021C153.383 45.6021 152.8 45.4598 152.296 45.1751C151.792 44.8822 151.4 44.4764 151.12 43.9588C150.84 43.4329 150.7 42.8202 150.7 42.1214C150.7 41.4227 150.84 40.8146 151.12 40.297C151.4 39.7711 151.792 39.3654 152.296 39.0807C152.8 38.796 153.383 38.6537 154.046 38.6537C154.587 38.6537 155.058 38.7877 155.46 39.0548C155.861 39.3136 156.178 39.6713 156.412 40.1288V35.5094L155.432 35.38V35.1212H157.812V45.0845L158.792 45.214V45.4727H156.412V44.127C156.178 44.5845 155.861 44.9468 155.46 45.214C155.058 45.4727 154.587 45.6021 154.046 45.6021ZM154.186 45.2787C154.596 45.2787 154.965 45.1705 155.292 44.9552C155.628 44.7306 155.894 44.4376 156.09 44.0753C156.295 43.7047 156.402 43.3035 156.412 42.8719V41.3839C156.402 40.9523 156.295 40.5558 156.09 40.1935C155.894 39.8228 155.628 39.5289 155.292 39.3136C154.965 39.089 154.596 38.9771 154.186 38.9771C152.888 38.9771 152.24 39.8099 152.24 41.4745V42.7684C152.24 44.4422 152.888 45.2787 154.186 45.2787ZM166.658 45.6021C165.986 45.6021 165.374 45.4598 164.824 45.1751C164.273 44.8822 163.834 44.4718 163.508 43.9459C163.19 43.4107 163.032 42.8026 163.032 42.1214C163.032 41.4051 163.2 40.7841 163.536 40.2582C163.881 39.7323 164.329 39.3349 164.88 39.0677C165.43 38.7914 166.023 38.6537 166.658 38.6537C167.19 38.6537 167.675 38.7396 168.114 38.9125C168.552 39.0761 168.898 39.309 169.15 39.6112C169.411 39.9134 169.542 40.2535 169.542 40.6334C169.542 40.9181 169.462 41.138 169.304 41.2933C169.145 41.4403 168.935 41.5133 168.674 41.5133C168.422 41.5133 168.212 41.4356 168.044 41.2804C167.876 41.1251 167.792 40.931 167.792 40.6981C167.932 40.6122 168.03 40.517 168.086 40.4134C168.142 40.3099 168.17 40.1805 168.17 40.0252C168.17 39.7064 168.03 39.4476 167.75 39.2489C167.479 39.0419 167.115 38.9383 166.658 38.9383C165.986 38.9383 165.468 39.1629 165.104 39.6112C164.749 40.0511 164.572 40.6722 164.572 41.4745V42.7684C164.572 43.5365 164.744 44.1529 165.09 44.6187C165.444 45.0845 165.967 45.3175 166.658 45.3175C167.292 45.3175 167.843 45.1539 168.31 44.8258C168.786 44.4893 169.08 44.0494 169.192 43.506H169.514C169.383 44.1446 169.056 44.6529 168.534 45.0328C168.02 45.4127 167.395 45.6021 166.658 45.6021ZM170.464 45.214L171.444 45.0845V39.1583L170.464 39.0289V38.7701H172.844V39.7665C173.432 39.0243 174.095 38.6537 174.832 38.6537C175.187 38.6537 175.499 38.7396 175.77 38.9125C176.041 39.0761 176.176 39.3136 176.176 39.6241C176.176 39.8487 176.097 40.0382 175.938 40.1935C175.779 40.3404 175.569 40.4134 175.308 40.4134C175.009 40.4134 174.767 40.3053 174.58 40.0899C174.683 39.9689 174.734 39.8395 174.734 39.7018C174.734 39.5548 174.678 39.4384 174.566 39.3524C174.463 39.2572 174.323 39.2101 174.146 39.2101C173.95 39.2101 173.749 39.296 173.544 39.4689C173.339 39.6325 173.105 39.8912 172.844 40.2452V45.0845L173.964 45.214V45.4727H170.464V45.214ZM180.441 45.6021C179.75 45.6021 179.125 45.4598 178.565 45.1751C178.005 44.8822 177.561 44.4718 177.235 43.9459C176.908 43.42 176.745 42.8118 176.745 42.1214C176.745 41.431 176.903 40.8275 177.221 40.3099C177.547 39.784 177.981 39.3783 178.523 39.0936C179.073 38.8006 179.685 38.6537 180.357 38.6537C180.945 38.6537 181.472 38.7748 181.939 39.016C182.405 39.2572 182.769 39.5936 183.031 40.0252C183.292 40.4476 183.427 40.9356 183.437 41.4874H178.285V42.7684C178.285 43.5272 178.467 44.1446 178.831 44.6187C179.204 45.0845 179.741 45.3175 180.441 45.3175C181.085 45.3175 181.654 45.1493 182.149 44.8128C182.643 44.4764 182.947 44.0411 183.059 43.506H183.381C183.25 44.1446 182.919 44.6529 182.387 45.0328C181.855 45.4127 181.206 45.6021 180.441 45.6021ZM181.897 41.1639C181.897 40.4134 181.771 39.8571 181.519 39.4948C181.267 39.1241 180.875 38.9383 180.343 38.9383C179.717 38.9383 179.232 39.1408 178.887 39.5465C178.541 39.9523 178.345 40.4911 178.299 41.1639H181.897ZM186.678 45.6021C186.081 45.6021 185.591 45.4598 185.208 45.1751C184.826 44.8822 184.634 44.4505 184.634 43.8812C184.634 43.0706 185.003 42.4967 185.74 42.1602C186.478 41.8155 187.332 41.6427 188.302 41.6427H189.24V40.6464C189.24 40.1981 189.184 39.8524 189.072 39.6112C188.97 39.3607 188.806 39.1888 188.582 39.0936C188.358 38.9901 188.055 38.9383 187.672 38.9383C187.234 38.9383 186.907 39.0206 186.692 39.1842C186.478 39.3395 186.37 39.5511 186.37 39.8182C186.37 40.0687 186.501 40.2323 186.762 40.3099C186.762 40.5253 186.674 40.7157 186.496 40.8793C186.319 41.0428 186.109 41.1251 185.866 41.1251C185.605 41.1251 185.395 41.0604 185.236 40.931C185.078 40.7933 184.998 40.5863 184.998 40.3099C184.998 39.8099 185.269 39.4088 185.81 39.1066C186.352 38.8043 187.028 38.6537 187.84 38.6537C189.707 38.6537 190.64 39.4042 190.64 40.9051V44.6058C190.64 44.7953 190.682 44.9422 190.766 45.0457C190.86 45.1409 190.99 45.1881 191.158 45.1881C191.317 45.1881 191.443 45.1409 191.536 45.0457C191.63 44.9422 191.676 44.8045 191.676 44.6317H191.97C191.97 44.9339 191.863 45.1705 191.648 45.3433C191.443 45.5162 191.154 45.6021 190.78 45.6021C190.351 45.6021 189.987 45.4903 189.688 45.2657C189.399 45.0328 189.25 44.6751 189.24 44.1918C189.016 44.6317 188.671 44.9764 188.204 45.2269C187.747 45.4774 187.238 45.6021 186.678 45.6021ZM187.448 45.0328C187.7 45.0328 187.957 44.9635 188.218 44.8258C188.489 44.688 188.718 44.4893 188.904 44.2306C189.091 43.9635 189.203 43.6437 189.24 43.273V41.9273H188.302C187.537 41.9273 186.963 42.0872 186.58 42.4061C186.207 42.7167 186.02 43.1566 186.02 43.7259C186.02 44.2 186.142 44.5365 186.384 44.7352C186.627 44.9339 186.982 45.0328 187.448 45.0328ZM195.21 45.6021C194.594 45.6021 194.099 45.4598 193.726 45.1751C193.362 44.8905 193.18 44.4376 193.18 43.8165V39.1583L192.186 39.0289V38.7701H193.18V37.6962L194.58 37.3727V38.7701H196.4V39.0289L194.58 39.1583V43.7906C194.58 44.7047 194.934 45.1622 195.644 45.1622C195.793 45.1622 195.933 45.1409 196.064 45.0975C196.204 45.0541 196.311 45.0116 196.386 44.9681C196.47 44.9247 196.521 44.8951 196.54 44.8775L196.722 45.0845C196.302 45.4293 195.798 45.6021 195.21 45.6021ZM198.663 37.2692C198.402 37.2692 198.178 37.1869 197.991 37.0233C197.804 36.8505 197.711 36.6435 197.711 36.4022C197.711 36.161 197.8 35.9577 197.977 35.7941C198.164 35.6305 198.392 35.5482 198.663 35.5482C198.915 35.5482 199.13 35.6305 199.307 35.7941C199.484 35.9577 199.573 36.161 199.573 36.4022C199.573 36.6435 199.484 36.8505 199.307 37.0233C199.13 37.1869 198.915 37.2692 198.663 37.2692ZM197.179 45.4727V45.214L198.159 45.0845V39.1713L197.179 39.0419V38.7831H199.559V45.0845L200.539 45.214V45.4727H197.179ZM204.544 45.7315L201.548 39.1583L200.638 39.0289V38.7701H204.124V39.0289L203.116 39.1971L205.23 44.0623L207.12 39.3653L205.888 39.0419V38.7831H208.394V39.0419L207.512 39.3524L204.936 45.7315H204.544ZM210.134 37.2692C209.872 37.2692 209.648 37.1869 209.462 37.0233C209.275 36.8505 209.182 36.6435 209.182 36.4022C209.182 36.161 209.27 35.9577 209.448 35.7941C209.634 35.6305 209.863 35.5482 210.134 35.5482C210.386 35.5482 210.6 35.6305 210.778 35.7941C210.955 35.9577 211.044 36.161 211.044 36.4022C211.044 36.6435 210.955 36.8505 210.778 37.0233C210.6 37.1869 210.386 37.2692 210.134 37.2692ZM208.65 45.4727V45.214L209.63 45.0845V39.1713L208.65 39.0419V38.7831H211.03V45.0845L212.01 45.214V45.4727H208.65ZM215.581 45.6021C214.965 45.6021 214.47 45.4598 214.097 45.1751C213.733 44.8905 213.551 44.4376 213.551 43.8165V39.1583L212.557 39.0289V38.7701H213.551V37.6962L214.951 37.3727V38.7701H216.771V39.0289L214.951 39.1583V43.7906C214.951 44.7047 215.305 45.1622 216.015 45.1622C216.164 45.1622 216.304 45.1409 216.435 45.0975C216.575 45.0541 216.682 45.0116 216.757 44.9681C216.841 44.9247 216.892 44.8951 216.911 44.8775L217.093 45.0845C216.673 45.4293 216.169 45.6021 215.581 45.6021ZM218.81 49.2511C218.325 49.2511 217.933 49.1392 217.634 48.9146C217.335 48.69 217.186 48.3887 217.186 48.0089C217.186 47.7501 217.265 47.5384 217.424 47.3748C217.592 47.2196 217.797 47.1419 218.04 47.1419C218.217 47.1419 218.376 47.1761 218.516 47.2454C218.656 47.3148 218.768 47.4183 218.852 47.556C218.712 47.7371 218.642 47.9266 218.642 48.1253C218.642 48.2981 218.703 48.4405 218.824 48.5523C218.945 48.6642 219.099 48.7205 219.286 48.7205C219.51 48.7205 219.701 48.6512 219.86 48.5135C220.028 48.3758 220.177 48.1336 220.308 47.7889L221.148 45.5633L217.9 39.1713L216.962 39.0419V38.7831H220.448V39.0419L219.468 39.1971L221.806 43.8165L223.472 39.3653L222.268 39.0419V38.7831H224.788V39.0419L223.836 39.3653L220.7 47.7889C220.504 48.2982 220.266 48.6688 219.986 48.9017C219.715 49.1346 219.323 49.2511 218.81 49.2511ZM225.206 45.6021C224.973 45.6021 224.772 45.5291 224.604 45.3822C224.445 45.2269 224.366 45.0411 224.366 44.8258C224.366 44.6104 224.445 44.433 224.604 44.2953C224.772 44.1483 224.973 44.0753 225.206 44.0753C225.439 44.0753 225.635 44.1483 225.794 44.2953C225.953 44.433 226.032 44.6104 226.032 44.8258C226.032 45.0411 225.953 45.2269 225.794 45.3822C225.635 45.5291 225.439 45.6021 225.206 45.6021Z" fill="white"/>
</svg>
