<svg xmlns="http://www.w3.org/2000/svg" width="120" height="124" viewBox="0 0 120 124" fill="none">
<path d="M101.295 0H18.705C8.37455 0 0 8.37452 0 18.705V101.295C0 111.625 8.37455 120 18.705 120H101.295C111.625 120 120 111.625 120 101.295V18.705C120 8.37452 111.625 0 101.295 0Z" fill="url(#paint0_linear_572_342)"/>
<g filter="url(#filter0_d_572_342)">
<path d="M62.6403 75.7471C62.4086 75.7471 62.1829 75.8386 62.0182 76.0033L49.6377 88.3838C49.0827 88.9388 49.473 89.8902 50.2597 89.8902H90.9876C91.4755 89.8902 91.8718 89.4938 91.8718 89.0059V21.2848C91.8718 20.4981 90.9205 20.1078 90.3655 20.6628L75.1367 35.8915C74.9721 36.0561 74.8806 36.2818 74.8806 36.5135L74.8989 47.5341C74.8989 48.022 74.5025 48.4184 74.0146 48.4184H67.5681C67.3364 48.4184 67.1107 48.5099 66.9461 48.6746L54.5655 61.0551C54.0105 61.6101 54.4008 62.5615 55.1876 62.5615H74.0146C74.5025 62.5615 74.8989 62.9579 74.8989 63.4458L74.8806 74.8628C74.8806 75.3507 74.4842 75.7471 73.9963 75.7471H62.6403Z" fill="white"/>
<path d="M46.0096 44.2523H57.3595C57.5913 44.2523 57.8169 44.1608 57.9816 43.9962L70.3621 31.6156C70.9171 31.0606 70.5268 30.1092 69.7401 30.1092H29.0123C28.5244 30.1092 28.1279 30.5056 28.1279 30.9935V98.7207C28.1279 99.5074 29.0794 99.8978 29.6344 99.3428L44.863 84.1141C45.0277 83.9494 45.1192 83.7238 45.1192 83.492L45.1009 72.4715C45.1009 71.9836 45.4973 71.5871 45.9852 71.5871H52.4317C52.6634 71.5871 52.8891 71.4957 53.0538 71.331L65.4343 58.9504C65.9893 58.3954 65.599 57.444 64.8122 57.444H45.9852C45.4973 57.444 45.1009 57.0476 45.1009 56.5597L45.1192 45.1427C45.1192 44.6548 45.5156 44.2584 46.0035 44.2584L46.0096 44.2523Z" fill="white"/>
</g>
<defs>
<filter id="filter0_d_572_342" x="12.1279" y="4.40234" width="103.744" height="119.201" filterUnits="userSpaceOnUse" color-interpolation-filters="sRGB">
<feFlood flood-opacity="0" result="BackgroundImageFix"/>
<feColorMatrix in="SourceAlpha" type="matrix" values="0 0 0 0 0 0 0 0 0 0 0 0 0 0 0 0 0 0 127 0" result="hardAlpha"/>
<feOffset dx="4" dy="4"/>
<feGaussianBlur stdDeviation="10"/>
<feColorMatrix type="matrix" values="0 0 0 0 0 0 0 0 0 0 0 0 0 0 0 0 0 0 0.19 0"/>
<feBlend mode="normal" in2="BackgroundImageFix" result="effect1_dropShadow_572_342"/>
<feBlend mode="normal" in="SourceGraphic" in2="effect1_dropShadow_572_342" result="shape"/>
</filter>
<linearGradient id="paint0_linear_572_342" x1="7.80115e-06" y1="108.277" x2="120" y2="11.7229" gradientUnits="userSpaceOnUse">
<stop/>
<stop offset="1" stop-color="#373A3D"/>
</linearGradient>
</defs>
</svg>