<svg xmlns="http://www.w3.org/2000/svg" width="210" height="210" viewBox="0 0 210 210" fill="none">
<path d="M177.266 0H32.7338C14.6555 0 0 14.6554 0 32.7338V177.266C0 195.345 14.6555 210 32.7338 210H177.266C195.345 210 210 195.345 210 177.266V32.7338C210 14.6554 195.345 0 177.266 0Z" fill="#2B2B2B"/>
<g filter="url(#filter0_d_572_342)">
<path d="M109.62 132.556C109.215 132.556 108.82 132.717 108.532 133.005L86.8657 154.671C85.8944 155.642 86.5775 157.307 87.9543 157.307H159.228C160.082 157.307 160.775 156.613 160.775 155.759V37.2475C160.775 35.8707 159.111 35.1876 158.139 36.1588L131.489 62.8091C131.201 63.0972 131.041 63.4922 131.041 63.8977L131.073 83.1837C131.073 84.0375 130.379 84.7312 129.525 84.7312H118.244C117.838 84.7312 117.444 84.8913 117.155 85.1795L95.4894 106.845C94.5181 107.817 95.2012 109.482 96.578 109.482H129.525C130.379 109.482 131.073 110.175 131.073 111.029L131.041 131.009C131.041 131.863 130.347 132.556 129.493 132.556H109.62Z" fill="white"/>
<path d="M80.5166 77.4406H100.379C100.784 77.4406 101.179 77.2805 101.467 76.9923L123.133 55.3263C124.105 54.3551 123.422 52.6901 122.045 52.6901H50.7712C49.9174 52.6901 49.2236 53.3839 49.2236 54.2377V172.76C49.2236 174.137 50.8886 174.82 51.8599 173.849L78.5101 147.199C78.7982 146.91 78.9584 146.516 78.9584 146.11L78.9263 126.824C78.9263 125.97 79.6201 125.277 80.4739 125.277H91.7552C92.1608 125.277 92.5557 125.116 92.8438 124.828L114.51 103.162C115.481 102.191 114.798 100.526 113.421 100.526H80.4739C79.6201 100.526 78.9263 99.8323 78.9263 98.9785L78.9584 78.9988C78.9584 78.145 79.6521 77.4513 80.506 77.4513L80.5166 77.4406Z" fill="white"/>
</g>
<defs>
<filter id="filter0_d_572_342" x="33.2236" y="19.7031" width="151.552" height="178.602" filterUnits="userSpaceOnUse" color-interpolation-filters="sRGB">
<feFlood flood-opacity="0" result="BackgroundImageFix"/>
<feColorMatrix in="SourceAlpha" type="matrix" values="0 0 0 0 0 0 0 0 0 0 0 0 0 0 0 0 0 0 127 0" result="hardAlpha"/>
<feOffset dx="4" dy="4"/>
<feGaussianBlur stdDeviation="10"/>
<feColorMatrix type="matrix" values="0 0 0 0 0 0 0 0 0 0 0 0 0 0 0 0 0 0 0.19 0"/>
<feBlend mode="normal" in2="BackgroundImageFix" result="effect1_dropShadow_572_342"/>
<feBlend mode="normal" in="SourceGraphic" in2="effect1_dropShadow_572_342" result="shape"/>
</filter>
</defs>
</svg>