<svg width="24" height="14" viewBox="0 0 24 14" fill="none" xmlns="http://www.w3.org/2000/svg">
<path opacity="0.5" d="M7.95908 6.2821C8.14566 6.10118 8.39534 6 8.65523 6H21.6918C22.5672 6 23.0201 7.04528 22.4213 7.68394L16.7963 13.6839C16.6073 13.8856 16.3432 14 16.0668 14H2.46773C1.56939 14 1.12667 12.9075 1.77158 12.2821L7.95908 6.2821Z" fill="white"/>
<path opacity="0.8" d="M7.95908 3.2821C8.14566 3.10118 8.39534 3 8.65523 3H21.6918C22.5672 3 23.0201 4.04528 22.4213 4.68394L16.7963 10.6839C16.6073 10.8856 16.3432 11 16.0668 11H2.46773C1.56939 11 1.12667 9.90748 1.77158 9.2821L7.95908 3.2821Z" fill="white"/>
<path d="M7.95908 0.282099C8.14566 0.101178 8.39534 0 8.65523 0H21.6918C22.5672 0 23.0201 1.04528 22.4213 1.68394L16.7963 7.68394C16.6073 7.88559 16.3432 8 16.0668 8H2.46773C1.56939 8 1.12667 6.90748 1.77158 6.2821L7.95908 0.282099Z" fill="white"/>
</svg>
