<svg width="31" height="19" viewBox="0 0 31 19" fill="none" xmlns="http://www.w3.org/2000/svg">
<path opacity="0.5" d="M10.3616 8.30421C10.5499 8.10976 10.8091 8 11.0798 8H28.7868C29.6475 8 30.1061 9.01502 29.5373 9.66092L21.6111 18.6609C21.4213 18.8765 21.1479 19 20.8607 19H2.36104C1.47777 19 1.02822 17.9386 1.6428 17.3042L10.3616 8.30421Z" fill="white"/>
<path opacity="0.8" d="M10.3677 0.270796C10.5531 0.0968282 10.7978 0 11.052 0H28.639C29.5222 0 29.9718 1.06139 29.3572 1.6958L21.6072 9.6958C21.4188 9.89024 21.1597 10 20.889 10H2.52698C1.62068 10 1.18181 8.89097 1.84268 8.2708L10.3677 0.270796Z" fill="white"/>
<path d="M10.3677 4.2708C10.5531 4.09683 10.7978 4 11.052 4H28.639C29.5222 4 29.9718 5.06139 29.3572 5.6958L21.6072 13.6958C21.4188 13.8902 21.1597 14 20.889 14H2.52698C1.62068 14 1.18181 12.891 1.84268 12.2708L10.3677 4.2708Z" fill="white"/>
</svg>
