<svg width="27" height="26" viewBox="0 0 27 26" fill="none" xmlns="http://www.w3.org/2000/svg">
<path d="M10.386 4.74334C10.5843 4.45048 11.0157 4.45048 11.214 4.74334L14.6387 9.80062C14.7456 9.95855 14.8817 10.0946 15.0396 10.2016L20.0969 13.6262C20.3898 13.8245 20.3898 14.2559 20.0969 14.4542L15.0396 17.8789C14.8817 17.9858 14.7456 18.1219 14.6387 18.2798L11.214 23.3371C11.0157 23.63 10.5843 23.63 10.386 23.3371L6.96135 18.2798C6.8544 18.1219 6.71832 17.9858 6.56039 17.8789L1.50311 14.4542C1.21025 14.2559 1.21025 13.8245 1.50311 13.6262L6.56039 10.2016C6.71832 10.0946 6.8544 9.95855 6.96135 9.80062L10.386 4.74334Z" fill="url(#paint0_linear_1371_479)" stroke="white"/>
<path d="M22.1403 0.891732L23.6346 3.0984C23.7059 3.20369 23.7966 3.29441 23.9019 3.36571L26.1085 4.86L23.9019 6.35429C23.7966 6.42559 23.7059 6.51631 23.6346 6.6216L22.1403 8.82827L20.646 6.6216C20.5747 6.51631 20.484 6.42559 20.3787 6.35429L20.0983 6.7683L20.3787 6.35429L18.172 4.86L20.3787 3.36571C20.484 3.29441 20.5747 3.20369 20.646 3.0984L22.1403 0.891732Z" fill="url(#paint1_linear_1371_479)" stroke="white"/>
<path d="M22.1404 19.2521L23.1986 20.8148C23.2699 20.9201 23.3606 21.0108 23.4659 21.0821L25.0286 22.1404L23.4659 23.1986C23.3606 23.2699 23.2699 23.3606 23.1986 23.4659L22.1404 25.0286L21.0821 23.4659C21.0108 23.3606 20.9201 23.2699 20.8148 23.1986L20.5345 23.6126L20.8148 23.1986L19.2521 22.1404L20.8148 21.0821C20.9201 21.0108 21.0108 20.9201 21.0821 20.8148L22.1404 19.2521Z" fill="url(#paint2_linear_1371_479)" stroke="white"/>
<defs>
<linearGradient id="paint0_linear_1371_479" x1="0" y1="14.0402" x2="21.6" y2="14.0402" gradientUnits="userSpaceOnUse">
<stop stop-color="#4B95FF"/>
<stop offset="1" stop-color="#A946FC"/>
<stop offset="1.0001" stop-color="#E960FF"/>
</linearGradient>
<linearGradient id="paint1_linear_1371_479" x1="17.2803" y1="4.86" x2="27.0003" y2="4.86" gradientUnits="userSpaceOnUse">
<stop stop-color="#4B95FF"/>
<stop offset="1" stop-color="#A946FC"/>
<stop offset="1.0001" stop-color="#E960FF"/>
</linearGradient>
<linearGradient id="paint2_linear_1371_479" x1="18.3604" y1="22.1404" x2="25.9204" y2="22.1404" gradientUnits="userSpaceOnUse">
<stop stop-color="#4B95FF"/>
<stop offset="1" stop-color="#A946FC"/>
<stop offset="1.0001" stop-color="#E960FF"/>
</linearGradient>
</defs>
</svg>
