<svg width="11" height="15" viewBox="0 0 11 15" fill="none" xmlns="http://www.w3.org/2000/svg">
<path d="M9.16667 13.5938C9.41875 13.5938 9.625 13.3828 9.625 13.125V4.6875H7.33333C6.8263 4.6875 6.41667 4.26855 6.41667 3.75V1.40625H1.83333C1.58125 1.40625 1.375 1.61719 1.375 1.875V13.125C1.375 13.3828 1.58125 13.5938 1.83333 13.5938H9.16667ZM0 1.875C0 0.84082 0.822135 0 1.83333 0H6.57422C7.0612 0 7.52812 0.196289 7.87187 0.547852L10.4643 3.19922C10.8081 3.55078 11 4.02832 11 4.52637V13.125C11 14.1592 10.1779 15 9.16667 15H1.83333C0.822135 15 0 14.1592 0 13.125V1.875Z" fill="white"/>
</svg>
