<svg width="15" height="20" viewBox="0 0 15 20" fill="none" xmlns="http://www.w3.org/2000/svg">
<g clip-path="url(#clip0_1411_99)">
<path d="M2.5 18.125C2.15625 18.125 1.875 17.8438 1.875 17.5V2.5C1.875 2.15625 2.15625 1.875 2.5 1.875H8.75V5C8.75 5.69141 9.30859 6.25 10 6.25H13.125V17.5C13.125 17.8438 12.8438 18.125 12.5 18.125H2.5ZM2.5 0C1.12109 0 0 1.12109 0 2.5V17.5C0 18.8789 1.12109 20 2.5 20H12.5C13.8789 20 15 18.8789 15 17.5V6.03516C15 5.37109 14.7383 4.73437 14.2695 4.26562L10.7305 0.730469C10.2617 0.261719 9.62891 0 8.96484 0H2.5ZM6.25 10C6.25 9.66848 6.1183 9.35054 5.88388 9.11612C5.64946 8.8817 5.33152 8.75 5 8.75C4.66848 8.75 4.35054 8.8817 4.11612 9.11612C3.8817 9.35054 3.75 9.66848 3.75 10C3.75 10.3315 3.8817 10.6495 4.11612 10.8839C4.35054 11.1183 4.66848 11.25 5 11.25C5.33152 11.25 5.64946 11.1183 5.88388 10.8839C6.1183 10.6495 6.25 10.3315 6.25 10ZM8.95312 11.832C8.83594 11.6641 8.64453 11.5625 8.4375 11.5625C8.23047 11.5625 8.03906 11.6641 7.92188 11.832L6.30859 14.1641L5.84375 13.418C5.73047 13.2344 5.52734 13.125 5.3125 13.125C5.09766 13.125 4.89844 13.2344 4.78125 13.418L3.21875 15.918C3.09766 16.1094 3.09375 16.3516 3.20312 16.5508C3.3125 16.75 3.52344 16.8711 3.75 16.8711H5.625H6.875H8.4375H11.25C11.4844 16.8711 11.6953 16.7422 11.8047 16.5352C11.9141 16.3281 11.8984 16.082 11.7656 15.8906L8.95312 11.8281V11.832Z" fill="white"/>
</g>
<defs>
<clipPath id="clip0_1411_99">
<rect width="15" height="20" fill="white"/>
</clipPath>
</defs>
</svg>
