<svg width="32" height="22" viewBox="0 0 32 22" fill="none" xmlns="http://www.w3.org/2000/svg">
<rect opacity="0.8" x="12" width="8" height="22" rx="4" fill="white"/>
<rect opacity="0.5" x="22" y="3" width="6" height="16" rx="3" fill="white"/>
<rect opacity="0.5" x="4" y="3" width="6" height="16" rx="3" fill="white"/>
<path d="M31.9163 11.6765C32.0279 11.5789 32.0279 11.4203 31.9163 11.3227L30.4881 10.0732C30.3765 9.9756 30.1953 9.9756 30.0837 10.0732C29.9721 10.1708 29.9721 10.3294 30.0837 10.427L31.3102 11.5L30.0846 12.573C29.973 12.6706 29.973 12.8292 30.0846 12.9268C30.1962 13.0244 30.3774 13.0244 30.489 12.9268L31.9172 11.6773L31.9163 11.6765Z" fill="white"/>
<path d="M0.0836866 11.6765C-0.0278956 11.5789 -0.0278956 11.4203 0.0836866 11.3227L1.51194 10.0732C1.62352 9.9756 1.80473 9.9756 1.91631 10.0732C2.0279 10.1708 2.0279 10.3294 1.91631 10.427L0.689801 11.5L1.91542 12.573C2.027 12.6706 2.027 12.8292 1.91542 12.9268C1.80384 13.0244 1.62263 13.0244 1.51105 12.9268L0.082794 11.6773L0.0836866 11.6765Z" fill="white"/>
</svg>
