<svg width="10" height="10" viewBox="0 0 10 10" fill="none" xmlns="http://www.w3.org/2000/svg">
<path d="M6.52139 2.39116C6.63917 2.13575 7.00714 2.13575 7.12491 2.39116L7.91134 4.09665C7.9445 4.16857 8.00296 4.22621 8.07591 4.2589L9.80571 5.03427C10.0648 5.15039 10.0648 5.51319 9.80571 5.62931L8.07591 6.40468C8.00296 6.43737 7.9445 6.49501 7.91134 6.56693L7.12491 8.27242C7.00714 8.52783 6.63917 8.52783 6.52139 8.27242L5.73497 6.56693C5.7018 6.49501 5.64334 6.43737 5.5704 6.40468L3.84059 5.62931C3.58154 5.51319 3.58154 5.15039 3.84059 5.03427L5.5704 4.2589C5.64334 4.22621 5.7018 4.16857 5.73497 4.09665L6.52139 2.39116Z" fill="white"/>
<path d="M2.04049 0.205144C2.15178 -0.0683809 2.54451 -0.0683815 2.6558 0.205143L3.07916 1.24569C3.10883 1.31861 3.16415 1.37855 3.23498 1.41454L4.26237 1.93646C4.50191 2.05814 4.50191 2.39582 4.26237 2.51751L3.23498 3.03942C3.16415 3.07541 3.10883 3.13535 3.07916 3.20827L2.6558 4.24882C2.54451 4.52234 2.15178 4.52234 2.04049 4.24882L1.61713 3.20827C1.58746 3.13535 1.53214 3.07541 1.4613 3.03942L0.43392 2.51751C0.194381 2.39582 0.194381 2.05814 0.43392 1.93646L1.4613 1.41454C1.53214 1.37855 1.58746 1.31861 1.61713 1.24569L2.04049 0.205144Z" fill="white"/>
<path d="M1.21768 6.63985C1.33545 6.38443 1.70342 6.38443 1.8212 6.63985L2.08961 7.22195C2.12278 7.29387 2.18124 7.35151 2.25418 7.38421L2.84459 7.64885C3.10364 7.76497 3.10364 8.12776 2.84459 8.24388L2.25418 8.50852C2.18124 8.54122 2.12278 8.59886 2.08961 8.67078L1.8212 9.25288C1.70342 9.5083 1.33545 9.5083 1.21768 9.25288L0.949263 8.67078C0.9161 8.59886 0.857638 8.54122 0.784693 8.50852L0.194292 8.24388C-0.0647641 8.12776 -0.0647639 7.76497 0.194292 7.64885L0.784693 7.38421C0.857638 7.35151 0.9161 7.29387 0.949263 7.22195L1.21768 6.63985Z" fill="white"/>
</svg>
