<svg width="133" height="25" viewBox="0 0 133 25" fill="none" xmlns="http://www.w3.org/2000/svg">
<rect width="25" height="25" rx="4" fill="url(#paint0_linear_3330_2)"/>
<path d="M15.0721 9.22146C15.239 8.85963 15.7603 8.85963 15.9271 9.22146L17.0412 11.6376C17.0882 11.7395 17.171 11.8211 17.2744 11.8674L19.7249 12.9659C20.0919 13.1304 20.0919 13.6443 19.7249 13.8088L17.2744 14.9073C17.171 14.9536 17.0882 15.0353 17.0412 15.1371L15.9271 17.5532C15.7603 17.9151 15.239 17.9151 15.0721 17.5532L13.958 15.1371C13.9111 15.0353 13.8282 14.9536 13.7249 14.9073L11.2743 13.8088C10.9073 13.6443 10.9073 13.1304 11.2743 12.9659L13.7249 11.8674C13.8282 11.8211 13.9111 11.7395 13.958 11.6376L15.0721 9.22146Z" fill="white"/>
<path d="M8.72419 6.1246C8.88185 5.73711 9.43822 5.73711 9.59587 6.1246L10.1956 7.59871C10.2377 7.70202 10.316 7.78693 10.4164 7.83791L11.8719 8.5773C12.2112 8.74969 12.2112 9.22806 11.8719 9.40045L10.4164 10.1398C10.316 10.1908 10.2377 10.2757 10.1956 10.379L9.59587 11.8531C9.43822 12.2406 8.88185 12.2406 8.72419 11.8531L8.12443 10.379C8.0824 10.2757 8.00403 10.1908 7.90368 10.1398L6.44822 9.40045C6.10887 9.22806 6.10887 8.74969 6.44822 8.5773L7.90368 7.83791C8.00403 7.78693 8.0824 7.70202 8.12443 7.59871L8.72419 6.1246Z" fill="white"/>
<path d="M7.55854 15.2404C7.72539 14.8786 8.24668 14.8786 8.41353 15.2404L8.79378 16.0651C8.84076 16.167 8.92359 16.2486 9.02692 16.2949L9.86333 16.6699C10.2303 16.8344 10.2303 17.3483 9.86333 17.5128L9.02692 17.8877C8.92359 17.934 8.84076 18.0157 8.79378 18.1176L8.41353 18.9422C8.24668 19.3041 7.72539 19.3041 7.55854 18.9422L7.17829 18.1176C7.1313 18.0157 7.04848 17.934 6.94514 17.8877L6.10874 17.5128C5.74175 17.3483 5.74175 16.8344 6.10874 16.6699L6.94514 16.2949C7.04848 16.2486 7.1313 16.167 7.17829 16.0651L7.55854 15.2404Z" fill="white"/>
<path d="M42.984 16.016H38.792L38.12 18H35.256L39.32 6.768H42.488L46.552 18H43.656L42.984 16.016ZM42.28 13.904L40.888 9.792L39.512 13.904H42.28ZM50.5249 6.768V18H47.7889V6.768H50.5249ZM59.3876 11.248V13.52H52.3476V11.248H59.3876ZM70.3489 10.384C70.3489 11.0347 70.1995 11.632 69.9009 12.176C69.6022 12.7093 69.1435 13.1413 68.5249 13.472C67.9062 13.8027 67.1382 13.968 66.2209 13.968H64.5249V18H61.7889V6.768H66.2209C67.1169 6.768 67.8742 6.92267 68.4929 7.232C69.1115 7.54133 69.5755 7.968 69.8849 8.512C70.1942 9.056 70.3489 9.68 70.3489 10.384ZM66.0129 11.792C66.5355 11.792 66.9249 11.6693 67.1809 11.424C67.4369 11.1787 67.5649 10.832 67.5649 10.384C67.5649 9.936 67.4369 9.58933 67.1809 9.344C66.9249 9.09867 66.5355 8.976 66.0129 8.976H64.5249V11.792H66.0129ZM75.8373 18.128C74.9626 18.128 74.1733 17.9413 73.4693 17.568C72.7759 17.1947 72.2266 16.6613 71.8213 15.968C71.4266 15.2747 71.2293 14.464 71.2293 13.536C71.2293 12.6187 71.4319 11.8133 71.8372 11.12C72.2426 10.416 72.7973 9.87733 73.5013 9.504C74.2053 9.13067 74.9946 8.944 75.8693 8.944C76.7439 8.944 77.5333 9.13067 78.2373 9.504C78.9413 9.87733 79.4959 10.416 79.9013 11.12C80.3066 11.8133 80.5093 12.6187 80.5093 13.536C80.5093 14.4533 80.3013 15.264 79.8853 15.968C79.4799 16.6613 78.9199 17.1947 78.2053 17.568C77.5013 17.9413 76.7119 18.128 75.8373 18.128ZM75.8373 15.76C76.3599 15.76 76.8026 15.568 77.1653 15.184C77.5386 14.8 77.7253 14.2507 77.7253 13.536C77.7253 12.8213 77.5439 12.272 77.1813 11.888C76.8293 11.504 76.3919 11.312 75.8693 11.312C75.3359 11.312 74.8933 11.504 74.5413 11.888C74.1893 12.2613 74.0133 12.8107 74.0133 13.536C74.0133 14.2507 74.1839 14.8 74.5253 15.184C74.8773 15.568 75.3146 15.76 75.8373 15.76ZM94.7768 9.072L92.3608 18H89.3368L87.9288 12.208L86.4728 18H83.4648L81.0328 9.072H83.7688L85.0328 15.456L86.5368 9.072H89.4328L90.9528 15.424L92.2008 9.072H94.7768ZM104.236 13.392C104.236 13.648 104.22 13.9147 104.188 14.192H97.9961C98.0388 14.7467 98.2148 15.1733 98.5241 15.472C98.8441 15.76 99.2335 15.904 99.6921 15.904C100.375 15.904 100.849 15.616 101.116 15.04H104.028C103.879 15.6267 103.607 16.1547 103.212 16.624C102.828 17.0933 102.343 17.4613 101.756 17.728C101.169 17.9947 100.513 18.128 99.7881 18.128C98.9135 18.128 98.1348 17.9413 97.4521 17.568C96.7695 17.1947 96.2361 16.6613 95.8521 15.968C95.4681 15.2747 95.2761 14.464 95.2761 13.536C95.2761 12.608 95.4628 11.7973 95.8361 11.104C96.2201 10.4107 96.7535 9.87733 97.4361 9.504C98.1188 9.13067 98.9028 8.944 99.7881 8.944C100.652 8.944 101.42 9.12533 102.092 9.488C102.764 9.85067 103.287 10.368 103.66 11.04C104.044 11.712 104.236 12.496 104.236 13.392ZM101.436 12.672C101.436 12.2027 101.276 11.8293 100.956 11.552C100.636 11.2747 100.236 11.136 99.7561 11.136C99.2975 11.136 98.9081 11.2693 98.5881 11.536C98.2788 11.8027 98.0868 12.1813 98.0121 12.672H101.436ZM108.416 10.56C108.736 10.0693 109.136 9.68533 109.616 9.408C110.096 9.12 110.629 8.976 111.216 8.976V11.872H110.464C109.781 11.872 109.269 12.0213 108.928 12.32C108.586 12.608 108.416 13.12 108.416 13.856V18H105.68V9.072H108.416V10.56ZM120.939 13.392C120.939 13.648 120.923 13.9147 120.891 14.192H114.699C114.742 14.7467 114.918 15.1733 115.227 15.472C115.547 15.76 115.937 15.904 116.395 15.904C117.078 15.904 117.553 15.616 117.819 15.04H120.731C120.582 15.6267 120.31 16.1547 119.915 16.624C119.531 17.0933 119.046 17.4613 118.459 17.728C117.873 17.9947 117.217 18.128 116.491 18.128C115.617 18.128 114.838 17.9413 114.155 17.568C113.473 17.1947 112.939 16.6613 112.555 15.968C112.171 15.2747 111.979 14.464 111.979 13.536C111.979 12.608 112.166 11.7973 112.539 11.104C112.923 10.4107 113.457 9.87733 114.139 9.504C114.822 9.13067 115.606 8.944 116.491 8.944C117.355 8.944 118.123 9.12533 118.795 9.488C119.467 9.85067 119.99 10.368 120.363 11.04C120.747 11.712 120.939 12.496 120.939 13.392ZM118.139 12.672C118.139 12.2027 117.979 11.8293 117.659 11.552C117.339 11.2747 116.939 11.136 116.459 11.136C116.001 11.136 115.611 11.2693 115.291 11.536C114.982 11.8027 114.79 12.1813 114.715 12.672H118.139ZM121.839 13.52C121.839 12.6027 122.009 11.7973 122.351 11.104C122.703 10.4107 123.177 9.87733 123.775 9.504C124.372 9.13067 125.039 8.944 125.775 8.944C126.361 8.944 126.895 9.06667 127.375 9.312C127.865 9.55733 128.249 9.888 128.527 10.304V6.16H131.263V18H128.527V16.72C128.271 17.1467 127.903 17.488 127.423 17.744C126.953 18 126.404 18.128 125.775 18.128C125.039 18.128 124.372 17.9413 123.775 17.568C123.177 17.184 122.703 16.6453 122.351 15.952C122.009 15.248 121.839 14.4373 121.839 13.52ZM128.527 13.536C128.527 12.8533 128.335 12.3147 127.951 11.92C127.577 11.5253 127.119 11.328 126.575 11.328C126.031 11.328 125.567 11.5253 125.183 11.92C124.809 12.304 124.623 12.8373 124.623 13.52C124.623 14.2027 124.809 14.7467 125.183 15.152C125.567 15.5467 126.031 15.744 126.575 15.744C127.119 15.744 127.577 15.5467 127.951 15.152C128.335 14.7573 128.527 14.2187 128.527 13.536Z" fill="url(#paint1_linear_3330_2)"/>
<defs>
<linearGradient id="paint0_linear_3330_2" x1="0" y1="0" x2="25" y2="25" gradientUnits="userSpaceOnUse">
<stop stop-color="#459AFF"/>
<stop offset="1" stop-color="#E960FF"/>
</linearGradient>
<linearGradient id="paint1_linear_3330_2" x1="35" y1="12.5" x2="133" y2="12.5" gradientUnits="userSpaceOnUse">
<stop stop-color="#459AFF"/>
<stop offset="1" stop-color="#E960FF"/>
</linearGradient>
</defs>
</svg>
