<svg width="24" height="24" viewBox="0 0 24 24" fill="none" xmlns="http://www.w3.org/2000/svg">
<path d="M11.172 1.22275C11.5686 0.637031 12.4314 0.637031 12.828 1.22275L16.7372 6.99553C16.8085 7.10081 16.8992 7.19153 17.0045 7.26283L22.7772 11.172C23.363 11.5686 23.363 12.4314 22.7772 12.828L17.0045 16.7372C16.8992 16.8085 16.8085 16.8992 16.7372 17.0045L12.828 22.7772C12.4314 23.363 11.5686 23.363 11.172 22.7772L7.26283 17.0045C7.19153 16.8992 7.10081 16.8085 6.99552 16.7372L1.22275 12.828C0.637031 12.4314 0.637031 11.5686 1.22275 11.172L6.99553 7.26283C7.10081 7.19153 7.19153 7.10081 7.26283 6.99552L11.172 1.22275Z" fill="white"/>
</svg>
