<svg width="65" height="65" viewBox="0 0 65 65" fill="none" xmlns="http://www.w3.org/2000/svg">
<path opacity="0.8" d="M44.6875 12.1875C44.6875 14.0029 44.2939 15.7295 43.5703 17.291L50.2734 28.8691C47.2646 32.0811 43.3926 34.4678 39.0381 35.6738L32.5 24.375L23.8672 39.292C26.5967 40.1553 29.4912 40.625 32.5127 40.625C41.4883 40.625 49.499 36.4736 54.7168 29.9609C56.126 28.209 58.6777 27.9297 60.4297 29.3262C62.1816 30.7227 62.4609 33.2871 61.0645 35.0391C54.3486 43.3926 44.0527 48.75 32.5 48.75C28.0059 48.75 23.6895 47.9375 19.7158 46.4521L12.5303 58.8682C11.9336 59.8965 11.0449 60.7344 9.97852 61.2676L2.94531 64.7842C2.31055 65.1016 1.56152 65.0635 0.964844 64.6953C0.368164 64.3271 0 63.667 0 62.9687V55.9355C0 54.8691 0.279297 53.8154 0.825195 52.876L8.44238 39.7109C6.81738 38.2891 5.30664 36.7275 3.96094 35.0391C2.55176 33.2871 2.84375 30.7353 4.5957 29.3262C6.34766 27.917 8.89941 28.209 10.3086 29.9609C11.0322 30.8623 11.8066 31.7129 12.6191 32.5127L21.4297 17.291C20.7188 15.7422 20.3125 14.0156 20.3125 12.1875C20.3125 5.45898 25.7715 0 32.5 0C39.2285 0 44.6875 5.45898 44.6875 12.1875ZM47.3535 50.0068C51.4922 48.3818 55.2881 46.0967 58.6396 43.291L64.1875 52.876C64.7207 53.8027 65.0127 54.8564 65.0127 55.9355V62.9687C65.0127 63.667 64.6445 64.3271 64.0479 64.6953C63.4512 65.0635 62.7021 65.1016 62.0674 64.7842L55.0342 61.2676C53.9678 60.7344 53.0791 59.8965 52.4824 58.8682L47.3535 50.0068ZM32.5 16.25C33.5774 16.25 34.6108 15.822 35.3726 15.0601C36.1345 14.2983 36.5625 13.2649 36.5625 12.1875C36.5625 11.1101 36.1345 10.0767 35.3726 9.31488C34.6108 8.55301 33.5774 8.125 32.5 8.125C31.4226 8.125 30.3892 8.55301 29.6274 9.31488C28.8655 10.0767 28.4375 11.1101 28.4375 12.1875C28.4375 13.2649 28.8655 14.2983 29.6274 15.0601C30.3892 15.822 31.4226 16.25 32.5 16.25Z" fill="white"/>
</svg>
