<svg width="64" height="64" viewBox="0 0 64 64" fill="none" xmlns="http://www.w3.org/2000/svg">
<g opacity="0.8">
<path d="M16.9 14.675L13.6375 24H50.3625L47.1 14.675C46.5375 13.075 45.025 12 43.325 12H20.675C18.975 12 17.4625 13.075 16.9 14.675ZM4.95 24.6L9.35 12.0375C11.0375 7.225 15.575 4 20.675 4H43.325C48.425 4 52.9625 7.225 54.65 12.0375L59.05 24.6C61.95 25.8 64 28.6625 64 32V50V56C64 58.2125 62.2125 60 60 60H56C53.7875 60 52 58.2125 52 56V50H12V56C12 58.2125 10.2125 60 8 60H4C1.7875 60 0 58.2125 0 56V50V32C0 28.6625 2.05 25.8 4.95 24.6ZM16 36C16 34.9391 15.5786 33.9217 14.8284 33.1716C14.0783 32.4214 13.0609 32 12 32C10.9391 32 9.92172 32.4214 9.17157 33.1716C8.42143 33.9217 8 34.9391 8 36C8 37.0609 8.42143 38.0783 9.17157 38.8284C9.92172 39.5786 10.9391 40 12 40C13.0609 40 14.0783 39.5786 14.8284 38.8284C15.5786 38.0783 16 37.0609 16 36ZM52 40C53.0609 40 54.0783 39.5786 54.8284 38.8284C55.5786 38.0783 56 37.0609 56 36C56 34.9391 55.5786 33.9217 54.8284 33.1716C54.0783 32.4214 53.0609 32 52 32C50.9391 32 49.9217 32.4214 49.1716 33.1716C48.4214 33.9217 48 34.9391 48 36C48 37.0609 48.4214 38.0783 49.1716 38.8284C49.9217 39.5786 50.9391 40 52 40Z" fill="white"/>
</g>
</svg>
