<svg width="74" height="58" viewBox="0 0 74 58" fill="none" xmlns="http://www.w3.org/2000/svg">
<path opacity="0.8" d="M73.335 0.474609C64.9924 69.6206 20.9932 48.0078 13.8904 47.2243L0.648871 57.5097L1.10303 53.7455L12.641 44.7968C12.7141 39.0771 9.81909 26.1838 21.7428 14.4027C33.67 2.59261 45.9757 4.81173 73.335 0.474609ZM65.283 11.2099C69.5534 4.42493 64.0419 10.2964 64.0419 10.2964C58.7353 16.2953 52.2189 18.5644 45.1074 21.261C35.8415 24.7699 23.502 30.2582 18.3093 39.2087C13.1201 48.1301 15.9022 43.9417 19.4351 40.2258C22.997 36.5134 33.2221 31.8716 39.8747 29.3253C49.1152 25.7839 58.111 22.5655 65.283 11.2099Z" fill="white"/>
</svg>
