<svg width="65" height="65" viewBox="0 0 65 65" fill="none" xmlns="http://www.w3.org/2000/svg">
<path opacity="0.8" d="M30.4761 0.533203C31.7201 -0.177734 33.256 -0.177734 34.5127 0.533203L56.3207 12.9873L56.8666 13.2031V13.3174L62.9469 16.7959C64.5463 17.71 65.3333 19.5889 64.8637 21.3662C64.394 23.1436 62.7819 24.3877 60.9413 24.3877H4.06025C2.21965 24.3877 0.607532 23.1436 0.137861 21.3662C-0.33181 19.5889 0.455207 17.71 2.05463 16.7959L8.12228 13.3174V13.2031L8.6808 13L30.4761 0.533203ZM8.12228 28.4375H16.2463V52.8125H21.3239V28.4375H29.4479V52.8125H35.5409V28.4375H43.665V52.8125H48.7425V28.4375H56.8666V53.3584C56.9427 53.3965 57.0189 53.4473 57.095 53.498L63.1881 57.5605C64.6733 58.5508 65.346 60.4043 64.8256 62.1182C64.3051 63.832 62.7184 65 60.9286 65H4.06025C2.27042 65 0.696389 63.832 0.175942 62.1182C-0.344504 60.4043 0.315574 58.5508 1.81345 57.5605L7.90648 53.498C7.98264 53.4473 8.05881 53.4092 8.13497 53.3584V28.4375H8.12228Z" fill="white"/>
</svg>
