<svg width="18" height="14" viewBox="0 0 18 14" fill="none" xmlns="http://www.w3.org/2000/svg">
<path d="M3.2 3.5C3.2 2.70897 3.52308 1.94739 4.10295 1.38362C4.68331 0.819394 5.47335 0.5 6.3 0.5C7.12664 0.5 7.91669 0.819394 8.49705 1.38362C9.07692 1.94739 9.4 2.70897 9.4 3.5C9.4 4.29103 9.07692 5.05261 8.49705 5.61638C7.91669 6.18061 7.12664 6.5 6.3 6.5C5.47335 6.5 4.68331 6.18061 4.10295 5.61638C3.52308 5.05261 3.2 4.29103 3.2 3.5ZM0.5 13.1879C0.5 10.7839 2.50715 8.8125 5.01469 8.8125H7.58531C10.0929 8.8125 12.1 10.7839 12.1 13.1879C12.1 13.347 11.9632 13.5 11.7647 13.5H0.835312C0.636834 13.5 0.5 13.347 0.5 13.1879ZM17.1366 13.5H13.9677C13.9889 13.3784 14 13.2531 14 13.125V12.9062C14 11.528 13.5195 10.2585 12.7165 9.25H13.4634C15.7066 9.25 17.5 11.0135 17.5 13.1605C17.5 13.335 17.3502 13.5 17.1366 13.5ZM12.15 6.5C11.5648 6.5 11.0263 6.3169 10.5889 6.00811C11.0405 5.27538 11.3 4.41692 11.3 3.5C11.3 2.85055 11.1693 2.22934 10.9316 1.6616C11.2965 1.47886 11.7103 1.375 12.15 1.375C13.6282 1.375 14.8 2.53425 14.8 3.9375C14.8 5.34075 13.6282 6.5 12.15 6.5Z" stroke="white"/>
</svg>
