<svg width="28" height="28" viewBox="0 0 28 28" fill="none" xmlns="http://www.w3.org/2000/svg">
<path d="M16.5 3.00523L15.36 3L4.9997 3.00103C3.34296 3.00119 2 4.34429 2 6.00103V23.0013C2 24.6582 3.34315 26.0013 5 26.0013H22C23.6569 26.0013 25 24.6582 25 23.0013V11.0039" stroke="white" stroke-width="3" stroke-linecap="round"/>
<path d="M13.5159 14.2993C12.8367 13.6201 12.8367 12.5189 13.5159 11.8397L24.8462 0.509395C25.5254 -0.169799 26.6266 -0.169798 27.3058 0.509397C27.985 1.18859 27.985 2.28978 27.3058 2.96898L15.9755 14.2993C15.2963 14.9785 14.1951 14.9785 13.5159 14.2993Z" fill="white"/>
<path d="M12 15.8449C12.276 13.9348 12.5848 13.0368 13.5 11.8445L15.9755 14.2993C14.7601 15.1928 13.8964 15.5855 12 15.8449Z" fill="white"/>
</svg>
