<svg width="64" height="62" viewBox="0 0 64 62" fill="none" xmlns="http://www.w3.org/2000/svg">
<g opacity="0.8">
<path d="M31.1329 14.2044C31.4021 14.075 31.7152 14.0727 31.9863 14.1982L56.5578 25.5739C57.3376 25.9349 57.329 27.0463 56.5438 27.3952L31.972 38.316C31.7089 38.433 31.4082 38.4308 31.1468 38.3102L7.48535 27.3895C6.71746 27.0351 6.70889 25.9467 7.47111 25.5803L31.1329 14.2044Z" fill="white"/>
<path d="M1.29974 17.5201C0.581913 15.9525 1.27081 14.0997 2.83844 13.3819L32.0622 0.00015313L34.6617 5.67703L5.43791 19.0588C3.87029 19.7766 2.01756 19.0877 1.29974 17.5201V17.5201Z" fill="white"/>
<path d="M29.0581 5.67773L58.2819 19.0595C59.8495 19.7773 61.7023 19.0884 62.4201 17.5208V17.5208C63.1379 15.9532 62.449 14.1004 60.8814 13.3826L31.6576 0.00085708L29.0581 5.67773Z" fill="white"/>
<path d="M10.0571 36.5726C10.0572 35.8412 10.8166 35.3573 11.4796 35.6662L32.0046 45.2316C32.357 45.3958 32.5822 45.7493 32.5822 46.138L32.5818 59.9404C32.5818 60.6803 31.806 61.164 31.1416 60.8382L10.6163 50.7759C10.2737 50.6079 10.0565 50.2596 10.0565 49.878L10.0571 36.5726Z" fill="white"/>
<path d="M53.9263 36.5726C53.9262 35.8412 53.1668 35.3573 52.5038 35.6662L31.9788 45.2316C31.6264 45.3958 31.4012 45.7493 31.4012 46.138L31.4016 59.9404C31.4016 60.6803 32.1774 61.164 32.8418 60.8382L53.3671 50.7759C53.7097 50.6079 53.9269 50.2596 53.9269 49.878L53.9263 36.5726Z" fill="white"/>
</g>
</svg>
