<svg width="19" height="17" viewBox="0 0 19 17" fill="none" xmlns="http://www.w3.org/2000/svg">
<path d="M7.74184 1.41777L6.49826 1.88594C6.3993 1.92246 6.33333 2.01875 6.33333 2.125C6.33333 2.23125 6.3993 2.32754 6.49826 2.36406L7.74184 2.83223L8.20694 4.08398C8.24323 4.18359 8.33889 4.25 8.44444 4.25C8.55 4.25 8.64566 4.18359 8.68194 4.08398L9.14705 2.83223L10.3906 2.36406C10.4896 2.32754 10.5556 2.23125 10.5556 2.125C10.5556 2.01875 10.4896 1.92246 10.3906 1.88594L9.14705 1.41777L8.68194 0.166016C8.64566 0.0664063 8.55 0 8.44444 0C8.33889 0 8.24323 0.0664063 8.20694 0.166016L7.74184 1.41777ZM1.52066 13.1285C0.903819 13.7494 0.903819 14.7588 1.52066 15.383L2.66198 16.5318C3.27882 17.1527 4.2816 17.1527 4.90174 16.5318L17.4793 3.86816C18.0962 3.24727 18.0962 2.23789 17.4793 1.61367L16.338 0.468164C15.7212 -0.152734 14.7184 -0.152734 14.0983 0.468164L1.52066 13.1285ZM15.9851 2.74258L12.5215 6.22891L11.7529 5.45527L15.2165 1.96895L15.9851 2.74258ZM0.247396 3.89141C0.0989583 3.94785 0 4.09063 0 4.25C0 4.40938 0.0989583 4.55215 0.247396 4.60859L2.11111 5.3125L2.81042 7.18848C2.86649 7.33789 3.00833 7.4375 3.16667 7.4375C3.325 7.4375 3.46684 7.33789 3.52292 7.18848L4.22222 5.3125L6.08594 4.60859C6.23437 4.55215 6.33333 4.40938 6.33333 4.25C6.33333 4.09063 6.23437 3.94785 6.08594 3.89141L4.22222 3.1875L3.52292 1.31152C3.46684 1.16211 3.325 1.0625 3.16667 1.0625C3.00833 1.0625 2.86649 1.16211 2.81042 1.31152L2.11111 3.1875L0.247396 3.89141ZM11.8585 12.3914C11.7101 12.4479 11.6111 12.5906 11.6111 12.75C11.6111 12.9094 11.7101 13.0521 11.8585 13.1086L13.7222 13.8125L14.4215 15.6885C14.4776 15.8379 14.6194 15.9375 14.7778 15.9375C14.9361 15.9375 15.0779 15.8379 15.134 15.6885L15.8333 13.8125L17.697 13.1086C17.8455 13.0521 17.9444 12.9094 17.9444 12.75C17.9444 12.5906 17.8455 12.4479 17.697 12.3914L15.8333 11.6875L15.134 9.81152C15.0779 9.66211 14.9361 9.5625 14.7778 9.5625C14.6194 9.5625 14.4776 9.66211 14.4215 9.81152L13.7222 11.6875L11.8585 12.3914Z" fill="white"/>
</svg>
