<svg width="33" height="25" viewBox="0 0 33 25" fill="none" xmlns="http://www.w3.org/2000/svg">
<path id="element" fill-rule="evenodd" clip-rule="evenodd" d="M22.3431 12.1716L12.1716 2L2 12.1716L12.1716 22.3431L22.3431 12.1716ZM13.5858 0.585786C12.8047 -0.195263 11.5384 -0.195261 10.7574 0.585787L0.585786 10.7574C-0.195263 11.5384 -0.195261 12.8047 0.585787 13.5858L10.7574 23.7574C11.5384 24.5384 12.8047 24.5384 13.5858 23.7574L23.7574 13.5858C24.5384 12.8047 24.5384 11.5384 23.7574 10.7574L13.5858 0.585786ZM30.3431 12.1716L20.1716 2L10 12.1716L20.1716 22.3431L30.3431 12.1716ZM21.5858 0.585786C20.8047 -0.195263 19.5384 -0.195261 18.7574 0.585787L8.58579 10.7574C7.80474 11.5384 7.80474 12.8047 8.58579 13.5858L18.7574 23.7574C19.5384 24.5384 20.8047 24.5384 21.5858 23.7574L31.7574 13.5858C32.5384 12.8047 32.5384 11.5384 31.7574 10.7574L21.5858 0.585786Z" fill="white"/>
</svg>
