<svg width="550" height="1178" viewBox="0 0 550 1178" fill="none" xmlns="http://www.w3.org/2000/svg">
<path opacity="0.2" d="M155.623 121.91L155.619 121.916C131.766 162.252 119.873 212.983 119.873 274.051V333.811H89.5818C40.6594 333.811 1 373.47 1 422.392C1 471.315 40.6595 510.974 89.5818 510.974H119.873L119.873 1059.19C119.873 1124.03 172.438 1176.6 237.281 1176.6C302.123 1176.6 354.688 1124.03 354.688 1059.19L354.688 510.974H433.734C482.656 510.974 522.316 471.315 522.316 422.392C522.316 373.47 482.656 333.811 433.734 333.811H354.688V278.43C354.688 250.116 361.409 228.301 374.715 212.849L374.722 212.84C387.952 197.12 411.501 189.111 445.719 189.111C459.535 189.111 472.983 190.383 486.066 192.925L486.071 192.926C505.067 196.517 524.778 185.302 529.278 166.369L546.992 91.8415C556.002 53.9323 533.629 16.2514 495.201 9.22715C465.55 3.74056 432.803 1 396.965 1C343.882 1 296.437 11.0604 254.65 31.2054C212.839 51.3621 179.825 81.6036 155.623 121.91Z" stroke="white" stroke-width="2"/>
</svg>
