<svg width="64" height="64" viewBox="0 0 64 64" fill="none" xmlns="http://www.w3.org/2000/svg">
<g opacity="0.8">
<path d="M56 4H45.2375L45.1125 4.125L29.2375 20H40.75L40.875 19.875L56.725 4.0375C56.4875 4.0125 56.25 4 56 4ZM64 20V12C64 10.1125 63.3375 8.3625 62.25 7L49.25 20H64ZM36.7625 4H25.2375L25.1125 4.125L9.2375 20H20.75L20.875 19.875L36.75 4H36.7625ZM8 4C3.5875 4 0 7.5875 0 12V20H0.7625L0.8875 19.875L16.7625 4H8ZM64 24H0V52C0 56.4125 3.5875 60 8 60H56C60.4125 60 64 56.4125 64 52V24Z" fill="white"/>
</g>
</svg>
