<svg width="58" height="51" viewBox="0 0 58 51" fill="none" xmlns="http://www.w3.org/2000/svg">
<g opacity="0.8">
<rect y="10.0137" width="54.0754" height="6.00838" fill="white"/>
<rect x="9.0127" y="20.0273" width="20.0279" height="3.00419" rx="1.5021" fill="white"/>
<rect x="1" y="1" width="52.0754" height="38.0559" rx="5" stroke="white" stroke-width="2"/>
<mask id="path-4-inside-1_915_456" fill="white">
<path fill-rule="evenodd" clip-rule="evenodd" d="M3.00488 37.784L4.5098 46.0723C5.10179 49.3327 8.22477 51.4958 11.4852 50.9038L52.8837 43.3871C56.1441 42.7951 58.3073 39.6721 57.7153 36.4117L52.7031 8.80715C52.6533 8.5326 52.5855 8.26582 52.5012 8.00781V31.9532C52.5012 35.2669 49.8149 37.9532 46.5012 37.9532H4.42571C3.9362 37.9532 3.46038 37.8946 3.00488 37.784Z"/>
</mask>
<path d="M4.5098 46.0723L2.54197 46.4296L2.54197 46.4296L4.5098 46.0723ZM3.00488 37.784L3.47682 35.8404L0.487496 35.1146L1.03706 38.1413L3.00488 37.784ZM11.4852 50.9038L11.1279 48.936L11.1279 48.936L11.4852 50.9038ZM52.8837 43.3871L53.241 45.3549L53.241 45.3549L52.8837 43.3871ZM57.7153 36.4117L55.7475 36.769L55.7475 36.769L57.7153 36.4117ZM52.7031 8.80715L50.7353 9.16444L50.7353 9.16445L52.7031 8.80715ZM52.5012 8.00781L54.4022 7.38655L50.5012 8.00781H52.5012ZM6.47762 45.715L4.97271 37.4267L1.03706 38.1413L2.54197 46.4296L6.47762 45.715ZM11.1279 48.936C8.95428 49.3307 6.87229 47.8886 6.47762 45.715L2.54197 46.4296C3.3313 50.7768 7.49527 53.661 11.8425 52.8717L11.1279 48.936ZM52.5264 41.4192L11.1279 48.936L11.8425 52.8717L53.241 45.3549L52.5264 41.4192ZM55.7475 36.769C56.1422 38.9426 54.7 41.0246 52.5264 41.4192L53.241 45.3549C57.5882 44.5656 60.4725 40.4016 59.6831 36.0544L55.7475 36.769ZM50.7353 9.16445L55.7475 36.769L59.6831 36.0544L54.671 8.44985L50.7353 9.16445ZM50.6001 8.62908C50.6563 8.80098 50.7017 8.97957 50.7353 9.16444L54.671 8.44986C54.6048 8.08562 54.5147 7.73066 54.4022 7.38655L50.6001 8.62908ZM50.5012 8.00781V31.9532H54.5012V8.00781H50.5012ZM50.5012 31.9532C50.5012 34.1623 48.7103 35.9532 46.5012 35.9532V39.9532C50.9194 39.9532 54.5012 36.3715 54.5012 31.9532H50.5012ZM46.5012 35.9532H4.42571V39.9532H46.5012V35.9532ZM4.42571 35.9532C4.09641 35.9532 3.77899 35.9138 3.47682 35.8404L2.53295 39.7275C3.14177 39.8753 3.77599 39.9532 4.42571 39.9532V35.9532Z" fill="white" mask="url(#path-4-inside-1_915_456)"/>
</g>
</svg>
