<svg width="35" height="33" viewBox="0 0 35 33" fill="none" xmlns="http://www.w3.org/2000/svg">
<path id="flows" d="M1 4.71429C1 2.65335 2.65117 1 4.66667 1H14C16.0155 1 17.6667 2.65335 17.6667 4.71429V28.2857C17.6667 30.3467 16.0155 32 14 32H4.66667C2.65117 32 1 30.3467 1 28.2857V4.71429ZM22 9.42857C22 7.36763 23.6512 5.71429 25.6667 5.71429H30.3333C32.3488 5.71429 34 7.36763 34 9.42857V23.5714C34 25.6324 32.3488 27.2857 30.3333 27.2857H25.6667C23.6512 27.2857 22 25.6324 22 23.5714V9.42857Z" stroke="white" stroke-width="2"/>
</svg>
