<svg width="66" height="62" viewBox="0 0 66 62" fill="none" xmlns="http://www.w3.org/2000/svg">
<g opacity="0.8">
<path d="M63.1604 4.61424C61.4762 15.8936 54.0286 23.5 46 23.5C37.9714 23.5 30.5238 15.8936 28.8396 4.61423C28.6952 3.64714 29.4989 2.5 31 2.5H61C62.5011 2.5 63.3048 3.64714 63.1604 4.61424Z" stroke="white" stroke-width="5" stroke-linecap="round"/>
<rect x="43.0239" y="24.832" width="6.17261" height="22.3757" fill="white"/>
<path d="M12.687 24.3576C11.3679 23.1429 12.1907 20.9398 13.9832 20.8872L23.2977 20.6138C23.8248 20.5984 24.3366 20.7917 24.7219 21.1517L55.9222 50.3062C57.2481 51.5451 56.3714 53.7675 54.5567 53.7675L45.4061 53.7675C44.9042 53.7675 44.4206 53.5788 44.0514 53.2388L12.687 24.3576Z" fill="white"/>
<path d="M33.5474 51.4653L7.89956 27.4204C7.06824 26.6411 5.74561 26.7119 5.07098 27.6302C-2.06654 37.3463 -0.249723 48.3765 2.00503 53.8013C2.29578 54.5008 2.99467 54.9244 3.75221 54.9244H32.1795C33.9926 54.9244 34.8701 52.7053 33.5474 51.4653Z" fill="white"/>
</g>
</svg>
