<svg width="66" height="53" viewBox="0 0 66 53" fill="none" xmlns="http://www.w3.org/2000/svg">
<path opacity="0.8" d="M9.9 13.25C9.9 9.73588 11.2907 6.36569 13.7662 3.88084C16.2417 1.39598 19.5991 0 23.1 0C26.6009 0 29.9583 1.39598 32.4338 3.88084C34.9093 6.36569 36.3 9.73588 36.3 13.25C36.3 16.7641 34.9093 20.1343 32.4338 22.6192C29.9583 25.104 26.6009 26.5 23.1 26.5C19.5991 26.5 16.2417 25.104 13.7662 22.6192C11.2907 20.1343 9.9 16.7641 9.9 13.25ZM0 49.9256C0 39.7293 8.22938 31.4688 18.3872 31.4688H27.8128C37.9706 31.4688 46.2 39.7293 46.2 49.9256C46.2 51.6232 44.8284 53 43.1372 53H3.06281C1.37156 53 0 51.6232 0 49.9256ZM62.8341 53H48.6131C49.17 52.027 49.5 50.8986 49.5 49.6875V48.8594C49.5 42.576 46.7053 36.9344 42.3019 33.1457C42.5494 33.1354 42.7866 33.125 43.0341 33.125H49.3659C58.5544 33.125 66 40.5988 66 49.8221C66 51.5818 64.5769 53 62.8341 53ZM44.55 26.5C41.3531 26.5 38.4656 25.1957 36.3722 23.0943C38.4038 20.3408 39.6 16.9352 39.6 13.25C39.6 10.4758 38.9194 7.85684 37.7128 5.55879C39.6309 4.15098 41.9925 3.3125 44.55 3.3125C50.9334 3.3125 56.1 8.49863 56.1 14.9062C56.1 21.3139 50.9334 26.5 44.55 26.5Z" fill="white"/>
</svg>
