<svg width="3" height="14" viewBox="0 0 3 14" fill="none" xmlns="http://www.w3.org/2000/svg">
<path d="M1.50288 0C2.29764 0 2.93567 0.65595 2.91366 1.45041L2.7213 8.39311C2.70302 9.05288 2.16291 9.57824 1.50288 9.57824V9.57824C0.842863 9.57824 0.302752 9.05288 0.284471 8.39311L0.0921095 1.45041C0.0700975 0.65595 0.708125 0 1.50288 0V0ZM1.5 14C1.08846 14 0.734615 13.8292 0.438462 13.4877C0.146154 13.1462 0 12.7328 0 12.2475C0 11.7711 0.146154 11.3645 0.438462 11.0274C0.734615 10.6859 1.08846 10.5152 1.5 10.5152C1.89615 10.5152 2.24423 10.6859 2.54423 11.0274C2.84808 11.3645 3 11.7711 3 12.2475C3 12.571 2.92885 12.8654 2.78654 13.1305C2.64808 13.3956 2.46538 13.6068 2.23846 13.7641C2.01538 13.9214 1.76923 14 1.5 14Z" fill="white"/>
</svg>
