<svg width="9" height="10" viewBox="0 0 9 10" fill="none" xmlns="http://www.w3.org/2000/svg">
<path d="M3.96914 9.14411L3.9252 9.09919L0.845508 5.92145C0.305859 5.36481 0 4.58356 0 3.7652V3.70075C0 2.32575 0.878906 1.14606 2.09531 0.888249C2.78789 0.739811 3.49629 0.917546 4.06055 1.35895C4.21875 1.48395 4.36641 1.62848 4.5 1.7945C4.57383 1.70075 4.65293 1.61481 4.7373 1.53473C4.80234 1.47223 4.86914 1.41364 4.93945 1.35895C5.50371 0.917546 6.21211 0.739811 6.90469 0.886296C8.12109 1.14411 9 2.32575 9 3.70075V3.7652C9 4.58356 8.69414 5.36481 8.15449 5.92145L5.0748 9.09919L5.03086 9.14411C4.88672 9.29255 4.69687 9.37653 4.5 9.37653C4.30313 9.37653 4.11328 9.2945 3.96914 9.14411ZM4.20293 2.83161C4.1959 2.82575 4.19063 2.81794 4.18535 2.81012L3.87246 2.4195L3.8707 2.41755C3.46465 1.91169 2.85117 1.68122 2.25352 1.80817C1.43437 1.982 0.84375 2.77497 0.84375 3.70075V3.7652C0.84375 4.32184 1.05293 4.85505 1.42031 5.23395L4.5 8.41169L7.57969 5.23395C7.94707 4.85505 8.15625 4.32184 8.15625 3.7652V3.70075C8.15625 2.77692 7.56562 1.982 6.74824 1.80817C6.15059 1.68122 5.53535 1.91364 5.13105 2.41755C5.13105 2.41755 5.13105 2.41755 5.1293 2.4195C5.12754 2.42145 5.1293 2.4195 5.12754 2.42145L4.81465 2.81208C4.80937 2.81989 4.80234 2.82575 4.79707 2.83356C4.71797 2.92145 4.61074 2.97028 4.5 2.97028C4.38926 2.97028 4.28203 2.92145 4.20293 2.83356V2.83161Z" fill="white"/>
</svg>
