<svg width="66" height="66" viewBox="0 0 66 66" fill="none" xmlns="http://www.w3.org/2000/svg">
<path opacity="0.8" d="M45.375 33C45.375 35.8617 45.2203 38.6203 44.9496 41.25H21.0504C20.7668 38.6203 20.625 35.8617 20.625 33C20.625 30.1383 20.7797 27.3797 21.0504 24.75H44.9496C45.2332 27.3797 45.375 30.1383 45.375 33ZM49.0875 24.75H64.9559C65.6391 27.3926 66 30.1512 66 33C66 35.8488 65.6391 38.6074 64.9559 41.25H49.0875C49.3582 38.5945 49.5 35.8359 49.5 33C49.5 30.1641 49.3582 27.4055 49.0875 24.75ZM63.6023 20.625H48.559C47.2699 12.3879 44.7176 5.49141 41.4305 1.08281C51.5238 3.75117 59.7352 11.073 63.5895 20.625H63.6023ZM44.3824 20.625H21.6176C22.4039 15.9328 23.6156 11.782 25.098 8.41758C26.4516 5.37539 27.9598 3.17109 29.4164 1.77891C30.8602 0.4125 32.059 0 33 0C33.941 0 35.1398 0.4125 36.5836 1.77891C38.0402 3.17109 39.5484 5.37539 40.902 8.41758C42.3973 11.7691 43.5961 15.9199 44.3824 20.625ZM17.441 20.625H2.39766C6.26484 11.073 14.4633 3.75117 24.5695 1.08281C21.2824 5.49141 18.7301 12.3879 17.441 20.625ZM1.04414 24.75H16.9125C16.6418 27.4055 16.5 30.1641 16.5 33C16.5 35.8359 16.6418 38.5945 16.9125 41.25H1.04414C0.360938 38.6074 0 35.8488 0 33C0 30.1512 0.360938 27.3926 1.04414 24.75ZM25.098 57.5695C23.6027 54.218 22.4039 50.0672 21.6176 45.375H44.3824C43.5961 50.0672 42.3844 54.218 40.902 57.5695C39.5484 60.6117 38.0402 62.816 36.5836 64.2082C35.1398 65.5875 33.941 66 33 66C32.059 66 30.8602 65.5875 29.4164 64.2211C27.9598 62.8289 26.4516 60.6246 25.098 57.5824V57.5695ZM17.441 45.375C18.7301 53.6121 21.2824 60.5086 24.5695 64.9172C14.4633 62.2488 6.26484 54.927 2.39766 45.375H17.441ZM63.6023 45.375C59.7352 54.927 51.5367 62.2488 41.4434 64.9172C44.7305 60.5086 47.2699 53.6121 48.5719 45.375H63.6023Z" fill="white"/>
</svg>
