<svg width="34" height="34" viewBox="0 0 34 34" fill="none" xmlns="http://www.w3.org/2000/svg">
<circle cx="12" cy="12" r="11" stroke="white" stroke-width="2"/>
<path d="M9.74438 17C9.10917 17 8.54952 16.5824 8.36864 15.9735L6.43916 9.47834C6.22004 8.7407 6.77269 8 7.54219 8V8C8.07626 8 8.54013 8.36749 8.66233 8.88739L9.83102 13.8597C9.83622 13.8818 9.85594 13.8975 9.87864 13.8975V13.8975C9.90077 13.8975 9.92014 13.8826 9.92588 13.8612L11.2403 8.96584C11.3933 8.39608 11.9098 8 12.4997 8V8C13.0899 8 13.6066 8.39644 13.7593 8.96655L15.0741 13.8744C15.0799 13.8958 15.0992 13.9106 15.1214 13.9106V13.9106C15.1441 13.9106 15.1638 13.895 15.169 13.8729L16.3423 8.88586C16.4644 8.36683 16.9276 8 17.4608 8V8C18.2289 8 18.7808 8.73924 18.5624 9.4757L16.6361 15.971C16.4551 16.5813 15.8942 17 15.2576 17V17C14.6242 17 14.0655 16.5856 13.8817 15.9795L12.5463 11.5763C12.5401 11.5559 12.5213 11.542 12.5 11.542V11.542C12.4787 11.542 12.4599 11.5559 12.4537 11.5763L11.1178 15.9814C10.9343 16.5863 10.3766 17 9.74438 17V17Z" fill="white"/>
<rect x="19" y="20.4141" width="2" height="4" transform="rotate(-45 19 20.4141)" fill="white"/>
<rect x="21.4142" y="24.2422" width="4" height="10.9768" rx="2" transform="rotate(-45 21.4142 24.2422)" stroke="white" stroke-width="2"/>
</svg>
