<svg width="60" height="64" viewBox="0 0 60 64" fill="none" xmlns="http://www.w3.org/2000/svg">
<g filter="url(#filter0_d_1034_110)">
<path d="M29.6817 32.509H26.2961C26.227 32.509 26.1597 32.5363 26.1106 32.5854L22.4175 36.2784C22.252 36.444 22.3684 36.7278 22.6031 36.7278H34.7519C34.8975 36.7278 35.0157 36.6095 35.0157 36.464V16.2632C35.0157 16.0286 34.7319 15.9121 34.5664 16.0777L30.0237 20.6203C29.9746 20.6694 29.9473 20.7367 29.9473 20.8059L29.9528 24.0932C29.9528 24.2388 29.8345 24.357 29.689 24.357H27.7661C27.6969 24.357 27.6296 24.3843 27.5805 24.4334L23.8875 28.1265C23.7219 28.292 23.8384 28.5758 24.073 28.5758H29.689C29.8345 28.5758 29.9528 28.6941 29.9528 28.8396L29.9473 32.2452C29.9473 32.3907 29.8291 32.509 29.6835 32.509H29.6817Z" fill="white"/>
</g>
<g filter="url(#filter1_d_1034_110)">
<path d="M21.334 23.1163H24.7196C24.7887 23.1163 24.856 23.089 24.9051 23.0399L28.5982 19.3468C28.7637 19.1813 28.6473 18.8975 28.4126 18.8975H16.2638C16.1183 18.8975 16 19.0157 16 19.1612V39.3638C16 39.5985 16.2838 39.7149 16.4494 39.5494L20.992 35.0068C21.0411 34.9576 21.0684 34.8903 21.0684 34.8212L21.0629 31.5338C21.0629 31.3883 21.1812 31.2701 21.3267 31.2701H23.2496C23.3188 31.2701 23.3861 31.2428 23.4352 31.1937L27.1283 27.5006C27.2938 27.3351 27.1774 27.0513 26.9427 27.0513H21.3267C21.1812 27.0513 21.0629 26.933 21.0629 26.7875L21.0684 23.3819C21.0684 23.2363 21.1866 23.1181 21.3322 23.1181L21.334 23.1163Z" fill="white"/>
</g>
<defs>
<filter id="filter0_d_1034_110" x="6.33984" y="0" width="52.6758" height="60.7275" filterUnits="userSpaceOnUse" color-interpolation-filters="sRGB">
<feFlood flood-opacity="0" result="BackgroundImageFix"/>
<feColorMatrix in="SourceAlpha" type="matrix" values="0 0 0 0 0 0 0 0 0 0 0 0 0 0 0 0 0 0 127 0" result="hardAlpha"/>
<feOffset dx="4" dy="4"/>
<feGaussianBlur stdDeviation="10"/>
<feColorMatrix type="matrix" values="0 0 0 0 0 0 0 0 0 0 0 0 0 0 0 0 0 0 0.19 0"/>
<feBlend mode="normal" in2="BackgroundImageFix" result="effect1_dropShadow_1034_110"/>
<feBlend mode="normal" in="SourceGraphic" in2="effect1_dropShadow_1034_110" result="shape"/>
</filter>
<filter id="filter1_d_1034_110" x="0" y="2.89746" width="52.6758" height="60.7295" filterUnits="userSpaceOnUse" color-interpolation-filters="sRGB">
<feFlood flood-opacity="0" result="BackgroundImageFix"/>
<feColorMatrix in="SourceAlpha" type="matrix" values="0 0 0 0 0 0 0 0 0 0 0 0 0 0 0 0 0 0 127 0" result="hardAlpha"/>
<feOffset dx="4" dy="4"/>
<feGaussianBlur stdDeviation="10"/>
<feColorMatrix type="matrix" values="0 0 0 0 0 0 0 0 0 0 0 0 0 0 0 0 0 0 0.19 0"/>
<feBlend mode="normal" in2="BackgroundImageFix" result="effect1_dropShadow_1034_110"/>
<feBlend mode="normal" in="SourceGraphic" in2="effect1_dropShadow_1034_110" result="shape"/>
</filter>
</defs>
</svg>
