<svg width="214" height="214" viewBox="0 0 214 214" fill="none" xmlns="http://www.w3.org/2000/svg">
<rect x="21" y="21" width="172" height="172" fill="url(#paint0_linear_1373_107)"/>
<path d="M96.116 66.9322C97.3059 65.175 99.8941 65.175 101.084 66.9322L110.099 80.2449C110.456 80.7713 110.909 81.225 111.436 81.5814L124.748 90.5964C126.505 91.7863 126.505 94.3746 124.748 95.5645L111.436 104.579C110.909 104.936 110.456 105.39 110.099 105.916L101.084 119.229C99.8941 120.986 97.3059 120.986 96.116 119.229L87.101 105.916C86.7445 105.39 86.2909 104.936 85.7644 104.58L85.2037 105.408L85.7644 104.579L72.4517 95.5645C70.6946 94.3746 70.6946 91.7863 72.4517 90.5964L85.7644 81.5814C86.2909 81.225 86.7445 80.7713 87.101 80.2449L96.116 66.9322Z" fill="url(#paint1_linear_1373_107)" stroke="white" stroke-width="2"/>
<path d="M130.953 55.0062C131.349 54.4205 132.212 54.4205 132.609 55.0062L136.478 60.7205C136.692 61.0364 136.964 61.3085 137.28 61.5224L142.994 65.392C143.58 65.7886 143.58 66.6514 142.994 67.048L137.28 70.9176C136.964 71.1315 136.692 71.4036 136.478 71.7195L132.609 77.4338C132.212 78.0195 131.349 78.0195 130.953 77.4338L127.083 71.7195C126.869 71.4036 126.597 71.1315 126.281 70.9176L120.567 67.048C119.981 66.6514 119.981 65.7886 120.567 65.392L126.281 61.5224C126.597 61.3085 126.869 61.0364 127.083 60.7205L130.953 55.0062Z" fill="url(#paint2_linear_1373_107)" stroke="white" stroke-width="2"/>
<path d="M135.31 120.845L136.138 121.406L135.31 120.845L131.781 126.057L128.251 120.845C128.108 120.634 127.927 120.453 127.716 120.31L127.156 121.138L127.716 120.31L122.504 116.781L127.716 113.251C127.927 113.108 128.108 112.927 128.251 112.716L131.781 107.504L135.31 112.716C135.453 112.927 135.634 113.108 135.845 113.251L141.057 116.781L135.845 120.31C135.634 120.453 135.453 120.634 135.31 120.845Z" fill="url(#paint3_linear_1373_107)" stroke="white" stroke-width="2"/>
<path d="M72.517 151.545H77.0682L81.875 163.273H82.0795L86.8864 151.545H91.4375V169H87.858V157.639H87.7131L83.196 168.915H80.7585L76.2415 157.597H76.0966V169H72.517V151.545ZM98.1428 169.247C97.3075 169.247 96.5632 169.102 95.9098 168.812C95.2564 168.517 94.7393 168.082 94.3587 167.509C93.9837 166.929 93.7962 166.207 93.7962 165.344C93.7962 164.616 93.9297 164.006 94.1967 163.511C94.4638 163.017 94.8274 162.619 95.2876 162.318C95.7479 162.017 96.2706 161.79 96.8558 161.636C97.4467 161.483 98.0661 161.375 98.7138 161.312C99.4751 161.233 100.089 161.159 100.555 161.091C101.021 161.017 101.359 160.909 101.569 160.767C101.779 160.625 101.884 160.415 101.884 160.136V160.085C101.884 159.545 101.714 159.128 101.373 158.832C101.038 158.537 100.56 158.389 99.9411 158.389C99.2876 158.389 98.7678 158.534 98.3814 158.824C97.995 159.108 97.7393 159.466 97.6143 159.898L94.2564 159.625C94.4268 158.83 94.7621 158.142 95.2621 157.562C95.7621 156.977 96.407 156.528 97.1967 156.216C97.9922 155.898 98.9126 155.739 99.9581 155.739C100.685 155.739 101.381 155.824 102.046 155.994C102.717 156.165 103.31 156.429 103.827 156.787C104.35 157.145 104.762 157.605 105.063 158.168C105.364 158.724 105.515 159.392 105.515 160.17V169H102.072V167.185H101.969C101.759 167.594 101.478 167.955 101.126 168.267C100.773 168.574 100.35 168.815 99.8558 168.991C99.3615 169.162 98.7905 169.247 98.1428 169.247ZM99.1825 166.741C99.7166 166.741 100.188 166.636 100.597 166.426C101.006 166.21 101.327 165.92 101.56 165.557C101.793 165.193 101.91 164.781 101.91 164.321V162.932C101.796 163.006 101.64 163.074 101.441 163.136C101.248 163.193 101.029 163.247 100.785 163.298C100.54 163.344 100.296 163.386 100.052 163.426C99.8075 163.46 99.5859 163.491 99.3871 163.52C98.9609 163.582 98.5888 163.682 98.2706 163.818C97.9524 163.955 97.7053 164.139 97.5291 164.372C97.353 164.599 97.2649 164.884 97.2649 165.224C97.2649 165.719 97.4439 166.097 97.8018 166.358C98.1655 166.614 98.6257 166.741 99.1825 166.741ZM114.229 174.182C113.053 174.182 112.045 174.02 111.204 173.696C110.369 173.378 109.704 172.943 109.21 172.392C108.715 171.841 108.394 171.222 108.246 170.534L111.604 170.082C111.707 170.344 111.869 170.588 112.09 170.815C112.312 171.043 112.604 171.224 112.968 171.361C113.337 171.503 113.786 171.574 114.315 171.574C115.104 171.574 115.755 171.381 116.266 170.994C116.783 170.614 117.042 169.974 117.042 169.077V166.682H116.888C116.729 167.045 116.491 167.389 116.173 167.713C115.854 168.037 115.445 168.301 114.945 168.506C114.445 168.71 113.849 168.812 113.156 168.812C112.173 168.812 111.278 168.585 110.471 168.131C109.67 167.67 109.031 166.969 108.553 166.026C108.082 165.077 107.846 163.878 107.846 162.429C107.846 160.946 108.087 159.707 108.57 158.713C109.053 157.719 109.695 156.974 110.496 156.48C111.303 155.986 112.187 155.739 113.147 155.739C113.88 155.739 114.494 155.864 114.988 156.114C115.482 156.358 115.88 156.665 116.181 157.034C116.488 157.398 116.724 157.756 116.888 158.108H117.025V155.909H120.63V169.128C120.63 170.241 120.357 171.173 119.812 171.923C119.266 172.673 118.511 173.236 117.545 173.611C116.585 173.991 115.479 174.182 114.229 174.182ZM114.306 166.085C114.891 166.085 115.386 165.94 115.789 165.651C116.198 165.355 116.511 164.935 116.727 164.389C116.948 163.838 117.059 163.179 117.059 162.412C117.059 161.645 116.951 160.98 116.735 160.418C116.519 159.849 116.207 159.409 115.798 159.097C115.388 158.784 114.891 158.628 114.306 158.628C113.71 158.628 113.207 158.79 112.798 159.114C112.388 159.432 112.079 159.875 111.869 160.443C111.658 161.011 111.553 161.668 111.553 162.412C111.553 163.168 111.658 163.821 111.869 164.372C112.085 164.918 112.394 165.341 112.798 165.642C113.207 165.937 113.71 166.085 114.306 166.085ZM123.519 169V155.909H127.15V169H123.519ZM125.343 154.222C124.803 154.222 124.34 154.043 123.954 153.685C123.573 153.321 123.383 152.886 123.383 152.381C123.383 151.881 123.573 151.452 123.954 151.094C124.34 150.73 124.803 150.548 125.343 150.548C125.883 150.548 126.343 150.73 126.724 151.094C127.11 151.452 127.303 151.881 127.303 152.381C127.303 152.886 127.11 153.321 126.724 153.685C126.343 154.043 125.883 154.222 125.343 154.222ZM135.973 169.256C134.632 169.256 133.479 168.972 132.513 168.403C131.553 167.83 130.814 167.034 130.297 166.017C129.786 165 129.53 163.83 129.53 162.506C129.53 161.165 129.788 159.989 130.305 158.977C130.828 157.96 131.57 157.168 132.53 156.599C133.49 156.026 134.632 155.739 135.956 155.739C137.098 155.739 138.098 155.946 138.956 156.361C139.814 156.776 140.493 157.358 140.993 158.108C141.493 158.858 141.768 159.739 141.82 160.75H138.393C138.297 160.097 138.041 159.571 137.626 159.173C137.217 158.77 136.68 158.568 136.016 158.568C135.453 158.568 134.962 158.722 134.541 159.028C134.126 159.33 133.803 159.77 133.57 160.349C133.337 160.929 133.22 161.631 133.22 162.455C133.22 163.29 133.334 164 133.561 164.585C133.794 165.17 134.121 165.616 134.541 165.923C134.962 166.23 135.453 166.384 136.016 166.384C136.43 166.384 136.803 166.298 137.132 166.128C137.467 165.957 137.743 165.71 137.959 165.386C138.18 165.057 138.325 164.662 138.393 164.202H141.82C141.763 165.202 141.49 166.082 141.001 166.844C140.518 167.599 139.851 168.19 138.999 168.616C138.146 169.043 137.138 169.256 135.973 169.256Z" fill="white"/>
<rect x="1.5" y="1.5" width="211" height="211" stroke="#459AFF" stroke-width="3"/>
<defs>
<linearGradient id="paint0_linear_1373_107" x1="21" y1="21" x2="193" y2="193" gradientUnits="userSpaceOnUse">
<stop stop-color="#459AFF"/>
<stop offset="1" stop-color="#E960FF"/>
</linearGradient>
<linearGradient id="paint1_linear_1373_107" x1="67" y1="93.0805" x2="130.2" y2="93.0805" gradientUnits="userSpaceOnUse">
<stop stop-color="#4B95FF"/>
<stop offset="1" stop-color="#A946FC"/>
<stop offset="1.0001" stop-color="#E960FF"/>
</linearGradient>
<linearGradient id="paint2_linear_1373_107" x1="117.561" y1="66.22" x2="146.001" y2="66.22" gradientUnits="userSpaceOnUse">
<stop stop-color="#4B95FF"/>
<stop offset="1" stop-color="#A946FC"/>
<stop offset="1.0001" stop-color="#E960FF"/>
</linearGradient>
<linearGradient id="paint3_linear_1373_107" x1="120.721" y1="116.781" x2="142.841" y2="116.781" gradientUnits="userSpaceOnUse">
<stop stop-color="#4B95FF"/>
<stop offset="1" stop-color="#A946FC"/>
<stop offset="1.0001" stop-color="#E960FF"/>
</linearGradient>
</defs>
</svg>
