<svg width="20" height="20" viewBox="0 0 20 20" fill="none" xmlns="http://www.w3.org/2000/svg">
<path d="M16.6991 5.82017L6.85876 15.5594C5.46999 16.0977 4.44346 16.4345 3.70809 16.5763C3.32452 16.6502 3.07669 16.6593 2.92785 16.6423C2.90448 16.6397 2.88555 16.6366 2.87046 16.6337C2.86744 16.6181 2.86436 16.5985 2.86171 16.5742C2.84538 16.4243 2.85551 16.1762 2.9301 15.7939C3.07299 15.0618 3.40881 14.0437 3.94066 12.6716L13.7428 2.85257C14.5219 2.07213 15.7858 2.06959 16.568 2.84688L16.7019 2.97998C17.4901 3.76314 17.4888 5.03858 16.6991 5.82017ZM2.82012 16.6195C2.82018 16.6194 2.82133 16.6199 2.82338 16.621C2.82109 16.6201 2.82006 16.6195 2.82012 16.6195ZM2.88307 16.6809C2.88416 16.6829 2.88463 16.684 2.88458 16.6841C2.88454 16.6841 2.88399 16.6831 2.88307 16.6809Z" stroke="white" stroke-width="2"/>
<rect x="17.0645" y="7.9834" width="1.44551" height="6.17484" rx="0.722757" transform="rotate(46.0804 17.0645 7.9834)" fill="white"/>
<path d="M17.805 7.91965C18.1894 8.31621 18.1795 8.9493 17.7829 9.33369L17.4556 9.65098L14.8351 6.94749L15.8805 5.9342L17.805 7.91965Z" fill="white"/>
</svg>
