<svg width="66" height="66" viewBox="0 0 66 66" fill="none" xmlns="http://www.w3.org/2000/svg">
<g opacity="0.8" clip-path="url(#clip0_915_478)">
<path d="M44.4727 5.04023L60.9469 21.7078C67.7016 28.5398 67.7016 39.5227 60.9469 46.3547L46.5094 60.9598C45.3105 62.1715 43.3512 62.1844 42.1395 60.9855C40.9277 59.7867 40.9148 57.8273 42.1137 56.6156L56.5383 42.0105C60.9082 37.5891 60.9082 30.4863 56.5383 26.0648L40.077 9.39727C38.8781 8.18555 38.891 6.22617 40.1027 5.02734C41.3145 3.82852 43.2738 3.84141 44.4727 5.05313V5.04023ZM0 29.584V10.3125C0 6.89648 2.77148 4.125 6.1875 4.125H25.459C27.6504 4.125 29.7516 4.98867 31.2984 6.53555L52.9547 28.1918C56.1773 31.4145 56.1773 36.6352 52.9547 39.8578L35.7457 57.0668C32.523 60.2895 27.3023 60.2895 24.0797 57.0668L2.42344 35.4105C0.863672 33.8637 0 31.7754 0 29.584ZM18.5625 18.5625C18.5625 17.4685 18.1279 16.4193 17.3543 15.6457C16.5807 14.8721 15.5315 14.4375 14.4375 14.4375C13.3435 14.4375 12.2943 14.8721 11.5207 15.6457C10.7471 16.4193 10.3125 17.4685 10.3125 18.5625C10.3125 19.6565 10.7471 20.7057 11.5207 21.4793C12.2943 22.2529 13.3435 22.6875 14.4375 22.6875C15.5315 22.6875 16.5807 22.2529 17.3543 21.4793C18.1279 20.7057 18.5625 19.6565 18.5625 18.5625Z" fill="white"/>
</g>
<defs>
<clipPath id="clip0_915_478">
<rect width="66" height="66" fill="white"/>
</clipPath>
</defs>
</svg>
