<svg width="65" height="74" viewBox="0 0 65 74" fill="none" xmlns="http://www.w3.org/2000/svg">
<g opacity="0.8" clip-path="url(#clip0_918_484)">
<path d="M41.7857 0H23.2143H18.5714C16.0033 0 13.9286 2.0668 13.9286 4.625C13.9286 7.1832 16.0033 9.25 18.5714 9.25V28.4438C18.5714 30.1492 18.0926 31.8402 17.1931 33.2855L1.49442 58.7086C0.522321 60.2984 0 62.1051 0 63.9695C0 69.5051 4.51228 74 10.0692 74H54.9308C60.4877 74 65 69.5051 65 63.9695C65 62.1195 64.4777 60.2984 63.5056 58.7086L47.8069 33.3C46.9074 31.8402 46.4286 30.1637 46.4286 28.4582V9.25C48.9967 9.25 51.0714 7.1832 51.0714 4.625C51.0714 2.0668 48.9967 0 46.4286 0H41.7857ZM27.8571 28.4438V9.25H37.1429V28.4438C37.1429 31.8691 38.1004 35.2223 39.8996 38.1418L44.9051 46.25H20.0949L25.1004 38.1418C26.8996 35.2223 27.8571 31.8691 27.8571 28.4438Z" fill="white"/>
</g>
<defs>
<clipPath id="clip0_918_484">
<rect width="65" height="74" fill="white"/>
</clipPath>
</defs>
</svg>
