<svg width="121" height="121" viewBox="0 0 121 121" fill="none" xmlns="http://www.w3.org/2000/svg">
<path d="M89.8777 36.8125C87.6814 23.3518 83.6382 11.8088 78.3873 3.73072C94.8722 8.934 108.275 21.1094 115.078 36.8125H89.8777ZM74.0733 15.8387L74.0737 15.8397C76.6502 21.6146 78.7509 28.7322 80.1811 36.8125H40.8196C42.2512 28.7568 44.3719 21.6375 46.9276 15.8369C49.3736 10.3396 52.0715 6.42157 54.6192 3.98594C57.1358 1.60481 59.099 1 60.5 1C61.901 1 63.8642 1.60479 66.3807 3.98584C68.9287 6.42174 71.627 10.3404 74.0733 15.8387ZM54.6187 117.014C52.1007 114.606 49.4362 110.751 47.0131 105.354V105.331L46.9263 105.137C44.3501 99.3625 42.2496 92.246 40.8195 84.1875H80.1804C78.7487 92.2439 76.6278 99.3619 74.0725 105.139C71.6259 110.638 68.9273 114.557 66.379 116.992C63.8624 119.396 61.8998 120 60.5 120C59.0989 120 57.1355 119.395 54.6187 117.014ZM82.1875 60.5C82.1875 65.3859 81.9398 70.1072 81.5025 74.625H39.4936C39.0398 70.1115 38.8125 65.3903 38.8125 60.5C38.8125 55.6141 39.0602 50.8928 39.4975 46.375H81.5064C81.9602 50.8885 82.1875 55.6097 82.1875 60.5ZM118.306 74.625H91.0966C91.526 70.0626 91.75 65.3417 91.75 60.5C91.75 55.6583 91.526 50.9374 91.0966 46.375H118.306C119.415 50.9099 120 55.6311 120 60.5C120 65.3689 119.415 70.0901 118.306 74.625ZM42.6135 3.72946C37.3622 11.8076 33.3188 23.3511 31.1223 36.8125H5.89968C12.7233 21.1073 26.1099 8.93178 42.6135 3.72946ZM1 60.5C1 55.6311 1.58452 50.9099 2.69383 46.375H29.9034C29.474 50.9374 29.25 55.6583 29.25 60.5C29.25 65.3417 29.474 70.0626 29.9034 74.625H2.69383C1.58452 70.0901 1 65.3689 1 60.5ZM31.1223 84.1875C33.3188 97.6489 37.3622 109.192 42.6135 117.271C26.1099 112.068 12.7233 99.8927 5.89967 84.1875H31.1223ZM89.9 84.1875H115.1C108.277 99.8916 94.8925 112.067 78.4103 117.269C83.6585 109.191 87.6844 97.6469 89.9 84.1875Z" stroke="white" stroke-width="2"/>
</svg>
