<svg width="18" height="18" viewBox="0 0 18 18" fill="none" xmlns="http://www.w3.org/2000/svg">
<path d="M7.53353 0.200195C3.49213 0.200195 0.200195 3.49213 0.200195 7.53353C0.200195 11.5749 3.49213 14.8669 7.53353 14.8669C9.29097 14.8669 10.9049 14.2428 12.1699 13.2068L16.5484 17.5854C16.6159 17.6557 16.6969 17.7119 16.7864 17.7506C16.876 17.7893 16.9724 17.8098 17.07 17.8108C17.1675 17.8118 17.2643 17.7933 17.3546 17.7564C17.445 17.7195 17.527 17.665 17.596 17.596C17.665 17.527 17.7195 17.445 17.7564 17.3546C17.7933 17.2643 17.8118 17.1675 17.8108 17.07C17.8098 16.9724 17.7893 16.876 17.7506 16.7864C17.7119 16.6969 17.6557 16.6159 17.5854 16.5484L13.2068 12.1699C14.2428 10.9049 14.8669 9.29097 14.8669 7.53353C14.8669 3.49213 11.5749 0.200195 7.53353 0.200195ZM7.53353 1.66686C10.7823 1.66686 13.4002 4.28477 13.4002 7.53353C13.4002 10.7823 10.7823 13.4002 7.53353 13.4002C4.28477 13.4002 1.66686 10.7823 1.66686 7.53353C1.66686 4.28477 4.28477 1.66686 7.53353 1.66686Z" fill="white"/>
</svg>
