<svg width="8" height="8" viewBox="0 0 8 8" fill="none" xmlns="http://www.w3.org/2000/svg">
<path d="M6.66667 0C6.31304 0 5.97391 0.140476 5.72386 0.390524C5.47381 0.640573 5.33333 0.979711 5.33333 1.33333C5.33393 1.42706 5.3444 1.52045 5.36458 1.61198L2.33724 3.12565C2.21238 2.9819 2.05818 2.86656 1.88502 2.78739C1.71185 2.70822 1.52374 2.66706 1.33333 2.66667C0.979711 2.66667 0.640573 2.80714 0.390524 3.05719C0.140476 3.30724 0 3.64638 0 4C0 4.35362 0.140476 4.69276 0.390524 4.94281C0.640573 5.19286 0.979711 5.33333 1.33333 5.33333C1.5238 5.33312 1.71201 5.2921 1.88529 5.21304C2.05857 5.13398 2.2129 5.01871 2.33789 4.875L5.36328 6.38802C5.34354 6.47959 5.3335 6.57299 5.33333 6.66667C5.33333 7.02029 5.47381 7.35943 5.72386 7.60948C5.97391 7.85952 6.31304 8 6.66667 8C7.02029 8 7.35943 7.85952 7.60948 7.60948C7.85952 7.35943 8 7.02029 8 6.66667C8 6.31304 7.85952 5.97391 7.60948 5.72386C7.35943 5.47381 7.02029 5.33333 6.66667 5.33333C6.4762 5.33355 6.28799 5.37457 6.11471 5.45363C5.94143 5.53269 5.7871 5.64795 5.66211 5.79167L2.63672 4.27865C2.65646 4.18707 2.6665 4.09368 2.66667 4C2.66603 3.9065 2.65555 3.81332 2.63542 3.72201L5.66276 2.20833C5.78768 2.35196 5.94191 2.46718 6.11507 2.54624C6.28823 2.6253 6.47631 2.66636 6.66667 2.66667C7.02029 2.66667 7.35943 2.52619 7.60948 2.27614C7.85952 2.02609 8 1.68696 8 1.33333C8 0.979711 7.85952 0.640573 7.60948 0.390524C7.35943 0.140476 7.02029 0 6.66667 0Z" fill="white"/>
</svg>
