<svg width="75" height="52" viewBox="0 0 75 52" fill="none" xmlns="http://www.w3.org/2000/svg">
<path opacity="0.8" d="M7.5 14.8571C7.5 6.65089 14.2148 0 22.5 0H52.5C60.7852 0 67.5 6.65089 67.5 14.8571V18.7571C63.2227 19.6161 60 23.3652 60 27.8571V33.4286H15V27.8571C15 23.3652 11.7773 19.6161 7.5 18.7571V14.8571ZM63.75 27.8571C63.75 25.4312 65.3203 23.3652 67.5 22.5991C68.0859 22.3902 68.7188 22.2857 69.375 22.2857C72.4805 22.2857 75 24.7812 75 27.8571V48.2857C75 50.3402 73.3242 52 71.25 52H67.5C65.4258 52 63.75 50.3402 63.75 48.2857H11.25C11.25 50.3402 9.57422 52 7.5 52H3.75C1.67578 52 0 50.3402 0 48.2857V27.8571C0 24.7812 2.51953 22.2857 5.625 22.2857C6.28125 22.2857 6.91406 22.4018 7.5 22.5991C9.67969 23.3652 11.25 25.4312 11.25 27.8571V33.4286V37.1429H15H60H63.75V33.4286V27.8571Z" fill="white"/>
</svg>
