<svg width="62" height="63" viewBox="0 0 62 63" fill="none" xmlns="http://www.w3.org/2000/svg">
<g opacity="0.8">
<rect width="2.3934" height="8.90006" rx="1.1967" transform="matrix(0.707107 0.707107 0.707107 -0.707107 38.2192 47.6992)" fill="#D9D9D9"/>
<rect width="2.3934" height="8.90006" rx="1.1967" transform="matrix(0.707107 0.707107 0.707107 -0.707107 46.0684 55.082)" fill="#D9D9D9"/>
<rect width="1.60295" height="9.36786" transform="matrix(-0.707107 0.707107 0.707107 0.707107 43.5244 45.4512)" fill="#D9D9D9"/>
<rect width="2.3934" height="6.1793" rx="1.1967" transform="matrix(0.707107 0.707107 0.707107 -0.707107 37 44.3496)" fill="#D9D9D9"/>
<rect width="2.3934" height="6.1793" rx="1.1967" transform="matrix(0.707107 0.707107 0.707107 -0.707107 49.1143 56.6035)" fill="#D9D9D9"/>
<circle cx="0.761536" cy="0.761536" r="0.761536" transform="matrix(1 0 0 -1 37.5825 42.1953)" fill="#D9D9D9"/>
<circle cx="0.761536" cy="0.761536" r="0.761536" transform="matrix(1 0 0 -1 53.2485 57.6445)" fill="#D9D9D9"/>
</g>
<g opacity="0.8">
<rect x="4.15039" y="36.0723" width="8.14672" height="30.2943" rx="4.07336" transform="rotate(-45 4.15039 36.0723)" fill="#D9D9D9"/>
<rect x="30.8672" y="10.9434" width="8.14672" height="30.2943" rx="4.07336" transform="rotate(-45 30.8672 10.9434)" fill="#D9D9D9"/>
<rect x="22.2085" y="43.7207" width="5.45616" height="31.8866" transform="rotate(-135 22.2085 43.7207)" fill="#D9D9D9"/>
<rect y="47.4727" width="8.14672" height="21.0333" rx="4.07336" transform="rotate(-45 0 47.4727)" fill="#D9D9D9"/>
<rect x="41.2354" y="5.75977" width="8.14672" height="21.0333" rx="4.07336" transform="rotate(-45 41.2354 5.75977)" fill="#D9D9D9"/>
<circle cx="4.57554" cy="57.3968" r="2.59214" fill="#D9D9D9"/>
<circle cx="57.8993" cy="4.8148" r="2.59214" fill="#D9D9D9"/>
</g>
</svg>
