<svg viewBox="0 0 13 13" fill="none" xmlns="http://www.w3.org/2000/svg">
<path d="M6.91401 1.50311L8.60249 3.99655C8.70944 4.15448 8.84552 4.29056 9.00345 4.39751L11.4969 6.08599C11.7898 6.28431 11.7898 6.71569 11.4969 6.91401L9.00345 8.60249C8.84552 8.70944 8.70944 8.84552 8.60249 9.00345L6.91401 11.4969C6.71569 11.7898 6.28431 11.7898 6.08599 11.4969L4.39751 9.00345C4.29056 8.84552 4.15448 8.70944 3.99655 8.60249L1.50311 6.91401C1.21025 6.71569 1.21025 6.28431 1.50311 6.08599L3.99655 4.39751C4.15448 4.29056 4.29056 4.15448 4.39751 3.99655L6.08599 1.50311C6.28431 1.21025 6.71569 1.21025 6.91401 1.50311Z" stroke="white"/>
</svg>
