<svg width="61" height="62" viewBox="0 0 61 62" fill="none" xmlns="http://www.w3.org/2000/svg">
<g opacity="0.8">
<circle cx="9.51641" cy="16.7293" r="6.51641" stroke="white" stroke-width="6"/>
<rect x="6.57373" y="24.3887" width="9.51641" height="24.8418" transform="rotate(-22.7392 6.57373 24.3887)" fill="white"/>
<path d="M10.1724 45.1055H50.0987C52.3078 45.1055 54.0987 46.8963 54.0987 49.1055V58.1383H6.17236V49.1055C6.17236 46.8963 7.96322 45.1055 10.1724 45.1055Z" stroke="white" stroke-width="6"/>
<rect x="16.6538" y="13.5566" width="23.791" height="6.34428" fill="white"/>
<path d="M39.9988 17.8786C38.5111 19.0494 38.4286 21.275 39.8255 22.5527L42.4864 24.9864C43.6163 26.0198 45.0922 26.5928 46.6234 26.5926L55.3404 26.5911C56.8531 26.5908 58.0793 25.3645 58.0793 23.8517V23.8517C58.0793 22.3702 56.9014 21.1571 55.4205 21.1136L48.6198 20.9136C47.3319 20.8757 46.1131 20.3227 45.2364 19.3786L44.1437 18.2019C43.0569 17.0315 41.2539 16.8908 39.9988 17.8786V17.8786Z" fill="white"/>
<path d="M39.9988 15.557C38.5111 14.3862 38.4286 12.1605 39.8255 10.8828L42.4864 8.44916C43.6163 7.41571 45.0922 6.8427 46.6234 6.84297L55.3404 6.84446C56.8531 6.84471 58.0793 8.07109 58.0793 9.5838V9.5838C58.0793 11.0653 56.9014 12.2784 55.4205 12.322L48.6198 12.522C47.3319 12.5599 46.1131 13.1128 45.2364 14.057L44.1437 15.2337C43.0569 16.4041 41.2539 16.5447 39.9988 15.557V15.557Z" fill="white"/>
<circle cx="37.2725" cy="16.729" r="6.34428" fill="white"/>
</g>
</svg>
