<svg width="75" height="55" viewBox="0 0 75 55" fill="none" xmlns="http://www.w3.org/2000/svg">
<path opacity="0.8" d="M44.6484 8.94831L21.8086 0.470904C19.8516 -0.24811 17.6836 -0.143737 15.8203 0.784023L10.4414 3.43974C9.14062 4.08917 9.04687 5.8867 10.2656 6.6637L27.4805 17.6229L15.9375 23.4562L9.11719 20.4525C8.09766 20.0003 6.91406 20.0234 5.91797 20.5221L2.14453 22.3892C1.05469 22.9343 0.761719 24.3375 1.55859 25.2537L10.125 35.1459C10.8398 35.9693 11.8828 36.4448 12.9727 36.4448H29.1094C29.6953 36.4448 30.2695 36.3056 30.7852 36.0505L62.7656 20.2322C68.2148 17.5301 72.4336 12.8913 74.5781 7.24355C75.6914 4.32111 73.5 1.18992 70.3359 1.18992H63.6094C61.2422 1.18992 58.8984 1.74657 56.7891 2.8135L44.6484 8.94831ZM0 51.289C0 53.3416 1.67578 55 3.75 55H71.25C73.3242 55 75 53.3416 75 51.289C75 49.2363 73.3242 47.5779 71.25 47.5779H3.75C1.67578 47.5779 0 49.2363 0 51.289Z" fill="white"/>
</svg>
