<svg width="15" height="13" viewBox="0 0 15 13" fill="none" xmlns="http://www.w3.org/2000/svg">
<path d="M0 1.85714C0 0.832812 0.84082 0 1.875 0H5.74512C6.30469 0 6.84082 0.220536 7.23633 0.612277L8.49316 1.85714H13.125C14.1592 1.85714 15 2.68996 15 3.71429V11.1429C15 12.1672 14.1592 13 13.125 13H1.875C0.84082 13 0 12.1672 0 11.1429V1.85714ZM1.875 1.39286C1.61719 1.39286 1.40625 1.60179 1.40625 1.85714V11.1429C1.40625 11.3982 1.61719 11.6071 1.875 11.6071H13.125C13.3828 11.6071 13.5938 11.3982 13.5938 11.1429V3.71429C13.5938 3.45893 13.3828 3.25 13.125 3.25H8.39648C8.08594 3.25 7.78711 3.12813 7.56738 2.91049L6.24316 1.59598C6.11133 1.4654 5.93262 1.39286 5.74512 1.39286H1.875Z" fill="white"/>
</svg>
