<svg width="16" height="14" viewBox="0 0 16 14" fill="none" xmlns="http://www.w3.org/2000/svg">
<path d="M0 2C0 0.896875 0.896875 0 2 0H6.12813C6.725 0 7.29688 0.2375 7.71875 0.659375L9.05937 2H14C15.1031 2 16 2.89688 16 4V12C16 13.1031 15.1031 14 14 14H2C0.896875 14 0 13.1031 0 12V2ZM2 1.5C1.725 1.5 1.5 1.725 1.5 2V12C1.5 12.275 1.725 12.5 2 12.5H14C14.275 12.5 14.5 12.275 14.5 12V4C14.5 3.725 14.275 3.5 14 3.5H8.95625C8.625 3.5 8.30625 3.36875 8.07187 3.13438L6.65938 1.71875C6.51875 1.57812 6.32813 1.5 6.12813 1.5H2Z" fill="white"/>
</svg>
