<svg width="15" height="15" viewBox="0 0 15 15" fill="none" xmlns="http://www.w3.org/2000/svg">
<mask id="path-1-inside-1_3385_123" fill="white">
<path d="M2.5 0.5C2.5 0.223858 2.72386 0 3 0C3.27614 0 3.5 0.223858 3.5 0.5V14.5C3.5 14.7761 3.27614 15 3 15C2.72386 15 2.5 14.7761 2.5 14.5V0.5Z"/>
<path d="M11.5 0.5C11.5 0.223858 11.7239 0 12 0C12.2761 0 12.5 0.223858 12.5 0.5V14.5C12.5 14.7761 12.2761 15 12 15C11.7239 15 11.5 14.7761 11.5 14.5V0.5Z"/>
<path d="M14.5 2.5C14.7761 2.5 15 2.72386 15 3C15 3.27614 14.7761 3.5 14.5 3.5L0.5 3.5C0.223858 3.5 -1.20706e-08 3.27614 0 3C1.20706e-08 2.72386 0.223858 2.5 0.5 2.5L14.5 2.5Z"/>
<path d="M14.5 11.5C14.7761 11.5 15 11.7239 15 12C15 12.2761 14.7761 12.5 14.5 12.5L0.5 12.5C0.223858 12.5 -1.20706e-08 12.2761 0 12C1.20706e-08 11.7239 0.223858 11.5 0.5 11.5L14.5 11.5Z"/>
</mask>
<path d="M2.5 0.5C2.5 0.223858 2.72386 0 3 0C3.27614 0 3.5 0.223858 3.5 0.5V14.5C3.5 14.7761 3.27614 15 3 15C2.72386 15 2.5 14.7761 2.5 14.5V0.5Z" fill="white"/>
<path d="M11.5 0.5C11.5 0.223858 11.7239 0 12 0C12.2761 0 12.5 0.223858 12.5 0.5V14.5C12.5 14.7761 12.2761 15 12 15C11.7239 15 11.5 14.7761 11.5 14.5V0.5Z" fill="white"/>
<path d="M14.5 2.5C14.7761 2.5 15 2.72386 15 3C15 3.27614 14.7761 3.5 14.5 3.5L0.5 3.5C0.223858 3.5 -1.20706e-08 3.27614 0 3C1.20706e-08 2.72386 0.223858 2.5 0.5 2.5L14.5 2.5Z" fill="white"/>
<path d="M14.5 11.5C14.7761 11.5 15 11.7239 15 12C15 12.2761 14.7761 12.5 14.5 12.5L0.5 12.5C0.223858 12.5 -1.20706e-08 12.2761 0 12C1.20706e-08 11.7239 0.223858 11.5 0.5 11.5L14.5 11.5Z" fill="white"/>
<path d="M0.5 2.5L0.5 1.5L0.5 2.5ZM0.5 3.5L0.5 2.5L0.5 3.5ZM14.5 3.5L14.5 4.5L14.5 3.5ZM14.5 2.5L14.5 3.5L14.5 2.5ZM0.5 11.5L0.5 10.5H0.5L0.5 11.5ZM0.5 12.5L0.5 11.5H0.5L0.5 12.5ZM14.5 12.5L14.5 13.5H14.5L14.5 12.5ZM14.5 11.5L14.5 12.5H14.5L14.5 11.5ZM2.5 0.5V14.5H4.5V0.5H2.5ZM3.5 14.5V0.5H1.5V14.5H3.5ZM3 14C3.27614 14 3.5 14.2239 3.5 14.5H1.5C1.5 15.3284 2.17157 16 3 16V14ZM2.5 14.5C2.5 14.2239 2.72386 14 3 14V16C3.82843 16 4.5 15.3284 4.5 14.5H2.5ZM3 1C2.72386 1 2.5 0.776142 2.5 0.5H4.5C4.5 -0.328427 3.82843 -1 3 -1V1ZM3 -1C2.17157 -1 1.5 -0.328426 1.5 0.5H3.5C3.5 0.776142 3.27614 1 3 1V-1ZM11.5 0.5V14.5H13.5V0.5H11.5ZM12.5 14.5V0.5H10.5V14.5H12.5ZM12 14C12.2761 14 12.5 14.2239 12.5 14.5H10.5C10.5 15.3284 11.1716 16 12 16V14ZM11.5 14.5C11.5 14.2239 11.7239 14 12 14V16C12.8284 16 13.5 15.3284 13.5 14.5H11.5ZM12 1C11.7239 1 11.5 0.776142 11.5 0.5H13.5C13.5 -0.328427 12.8284 -1 12 -1V1ZM12 -1C11.1716 -1 10.5 -0.328426 10.5 0.5H12.5C12.5 0.776142 12.2761 1 12 1V-1ZM14.5 2.5L0.5 2.5L0.5 4.5L14.5 4.5L14.5 2.5ZM0.5 3.5L14.5 3.5L14.5 1.5L0.5 1.5L0.5 3.5ZM1 3C1 3.27614 0.776143 3.5 0.5 3.5L0.5 1.5C-0.328427 1.5 -1 2.17157 -1 3L1 3ZM0.5 2.5C0.776142 2.5 1 2.72386 1 3L-1 3C-1 3.82843 -0.328426 4.5 0.5 4.5L0.5 2.5ZM14 3C14 2.72386 14.2239 2.5 14.5 2.5L14.5 4.5C15.3284 4.5 16 3.82843 16 3L14 3ZM16 3C16 2.17157 15.3284 1.5 14.5 1.5L14.5 3.5C14.2239 3.5 14 3.27614 14 3L16 3ZM14.5 11.5L0.5 11.5L0.5 13.5L14.5 13.5L14.5 11.5ZM0.5 12.5L14.5 12.5L14.5 10.5L0.5 10.5L0.5 12.5ZM1 12C1 12.2761 0.776144 12.5 0.5 12.5L0.5 10.5C-0.328429 10.5 -1 11.1716 -1 12L1 12ZM0.5 11.5C0.776142 11.5 1 11.7239 1 12L-1 12C-1 12.8284 -0.328426 13.5 0.5 13.5L0.5 11.5ZM14 12C14 11.7239 14.2239 11.5 14.5 11.5L14.5 13.5C15.3284 13.5 16 12.8284 16 12L14 12ZM16 12C16 11.1716 15.3284 10.5 14.5 10.5L14.5 12.5C14.2239 12.5 14 12.2761 14 12L16 12Z" fill="white" mask="url(#path-1-inside-1_3385_123)"/>
</svg>
