<svg width="11" height="13" viewBox="0 0 11 13" fill="none" xmlns="http://www.w3.org/2000/svg">
<path d="M10.5818 3.05284C10.5058 2.31507 10.2819 1.75962 9.91014 1.3865C9.5384 1.00489 8.96813 0.81409 8.19931 0.81409H6.3871V10.7358C6.3871 11.1344 6.40399 11.4566 6.43779 11.7025C6.47158 11.9485 6.55184 12.1435 6.67857 12.2877C6.8053 12.4234 6.98694 12.5166 7.2235 12.5675C7.46851 12.6099 7.79378 12.6311 8.19931 12.6311V13H2.72465V12.6311C3.13018 12.6311 3.45123 12.6057 3.68779 12.5548C3.92435 12.5039 4.10599 12.4106 4.23272 12.275C4.35945 12.1308 4.43971 11.9357 4.4735 11.6898C4.51575 11.4439 4.53687 11.1259 4.53687 10.7358V0.81409H2.97811C2.57258 0.81409 2.21774 0.85225 1.91359 0.928571C1.60945 0.996412 1.35177 1.11513 1.14055 1.28474C0.937788 1.45434 0.777266 1.6833 0.658986 1.97162C0.549155 2.25995 0.477343 2.62035 0.443548 3.05284H0L0.126728 0H10.8733L11 3.05284H10.5818Z" fill="white"/>
</svg>
